<svg width="24" height="24" viewBox="0 0 24 24" fill="none" xmlns="http://www.w3.org/2000/svg">
<path d="M21.9274 4.0402L21.0643 9.38041H8.6199L9.75465 15.3155H10.0607V21.4088H5.36694C5.15784 21.4101 4.95437 21.3411 4.78925 21.2128C4.6416 21.0813 4.54131 20.9049 4.50384 20.7107L1.75293 4.0402V3.91297C1.75911 3.74508 1.82973 3.58603 1.95011 3.46884C2.0705 3.35166 2.2314 3.28536 2.39939 3.2837H21.2638C21.36 3.28047 21.4555 3.29996 21.5428 3.34059C21.63 3.38121 21.7064 3.44183 21.7658 3.51753C21.8271 3.58896 21.873 3.6722 21.9008 3.7621C21.9286 3.85201 21.9377 3.94666 21.9274 4.0402Z" fill="white"/>
<path d="M14.9672 9.36322L13.9631 15.288H9.75417L6.94824 21.3916H18.5124C18.6663 21.3916 18.8154 21.3376 18.9336 21.2389C19.0517 21.1403 19.1315 21.0032 19.1589 20.8517L21.0295 9.36322H14.9672Z" fill="url(#paint0_linear_6525_9928)"/>
<defs>
<linearGradient id="paint0_linear_6525_9928" x1="21.4971" y1="10.4223" x2="13.4026" y2="19.1186" gradientUnits="userSpaceOnUse">
<stop stop-color="#0047B3"/>
<stop offset="1" stop-color="#FCFBFF"/>
</linearGradient>
</defs>
</svg>
