<svg width="32" height="32" viewBox="0 0 32 32" fill="none" xmlns="http://www.w3.org/2000/svg">
<path d="M16 32C24.8366 32 32 24.8366 32 16C32 7.16344 24.8366 0 16 0C7.16344 0 0 7.16344 0 16C0 24.8366 7.16344 32 16 32Z" fill="#0047B3"/>
<path d="M25.9274 9.0402L25.0643 14.3804H12.6199L13.7546 20.3155H14.0607V26.4088H9.36694C9.15784 26.4101 8.95437 26.3411 8.78925 26.2128C8.6416 26.0813 8.54131 25.9049 8.50384 25.7107L5.75293 9.0402V8.91297C5.75911 8.74508 5.82973 8.58603 5.95011 8.46884C6.0705 8.35166 6.2314 8.28536 6.39939 8.2837H25.2638C25.36 8.28047 25.4555 8.29996 25.5428 8.34059C25.63 8.38121 25.7064 8.44183 25.7658 8.51753C25.8271 8.58896 25.873 8.6722 25.9008 8.7621C25.9286 8.85201 25.9377 8.94666 25.9274 9.0402Z" fill="white"/>
<path d="M18.9672 14.3632L17.9631 20.288H13.7542L10.9482 26.3916H22.5124C22.6663 26.3916 22.8154 26.3376 22.9336 26.2389C23.0517 26.1403 23.1315 26.0032 23.1589 25.8517L25.0295 14.3632H18.9672Z" fill="url(#paint0_linear_6525_9928)"/>
<defs>
<linearGradient id="paint0_linear_6525_9928" x1="25.4971" y1="15.4223" x2="17.4026" y2="24.1186" gradientUnits="userSpaceOnUse">
<stop stop-color="#0047B3"/>
<stop offset="1" stop-color="#FCFBFF"/>
</linearGradient>
</defs>
</svg>
