<?xml version="1.0" encoding="UTF-8"?>
<svg width="10px" height="11px" viewBox="0 0 10 11" version="1.1" xmlns="http://www.w3.org/2000/svg" xmlns:xlink="http://www.w3.org/1999/xlink">
    <title>Path 4</title>
    <g id="Style-Guide" stroke="none" stroke-width="1" fill="none" fill-rule="evenodd">
        <g id="UI-Elements---Test-at-Scale" transform="translate(-429.000000, -126.000000)" stroke="#5A5A5A">
            <path d="M434,134.5 C434.552285,134.5 435,134.947715 435,135.5 C435,136.052285 434.552285,136.5 434,136.5 C433.447715,136.5 433,136.052285 433,135.5 C433,134.947715 433.447715,134.5 434,134.5 Z M431,127 C431.552285,127 432,127.447715 432,128 C432,128.552285 431.552285,129 431,129 C430.447715,129 430,128.552285 430,128 C430,127.447715 430.447715,127 431,127 Z M437,127 C437.552285,127 438,127.447715 438,128 C438,128.552285 437.552285,129 437,129 C436.447715,129 436,128.552285 436,128 C436,127.447715 436.447715,127 437,127 Z M434,132 L434,135 M437,129 L437,130.666667 C437,131.403046 436.403046,132 435.666667,132 C434.925926,132 434.37037,132 434,132 C433.62963,132 433.074074,132 432.333333,132 C431.596954,132 431,131.403046 431,130.666667 L431,129" id="Path-4"></path>
        </g>
    </g>
</svg>