<?xml version="1.0" encoding="UTF-8"?>
<svg width="10px" height="12px" viewBox="0 0 10 12" version="1.1" xmlns="http://www.w3.org/2000/svg" xmlns:xlink="http://www.w3.org/1999/xlink">
    <title>Copy Paste</title>
    <g id="Corrected-Designs" stroke="none" stroke-width="1" fill="none" fill-rule="evenodd">
        <g id="6.2.0---TAS---Commit-Detail-Page" transform="translate(-691.000000, -189.000000)" fill="#999999" fill-rule="nonzero">
            <path d="M692.176471,189 C691.529412,189 691,189.54 691,190.2 L691,198 L692.176471,198 L692.176471,190.2 L698.058824,190.2 L698.058824,189 L692.176471,189 Z M694.529412,191.4 C693.882353,191.4 693.352941,191.94 693.352941,192.6 L693.352941,199.8 C693.352941,200.46 693.882353,201 694.529412,201 L699.823529,201 C700.470588,201 701,200.46 701,199.8 L701,192.6 C701,191.94 700.470588,191.4 699.823529,191.4 L694.529412,191.4 Z M694.529412,192.6 L699.823529,192.6 L699.823529,199.8 L694.529412,199.8 L694.529412,192.6 Z" id="Copy-Paste" transform="translate(696.000000, 195.000000) scale(-1, 1) translate(-696.000000, -195.000000) "></path>
        </g>
    </g>
</svg>