<svg xmlns="http://www.w3.org/2000/svg" width="10" height="12" viewBox="0 0 10 12">
    <g fill="none" fill-rule="evenodd">
        <g fill="#4A4A4A" fill-rule="nonzero">
            <g>
                <path d="M1.176 0C.53 0 0 .54 0 1.2V9h1.176V1.2H7.06V0H1.176zM3.53 2.4c-.647 0-1.176.54-1.176 1.2v7.2c0 .66.53 1.2 1.176 1.2h5.295C9.47 12 10 11.46 10 10.8V3.6c0-.66-.53-1.2-1.176-1.2H3.529zm0 1.2h5.295v7.2H3.529V3.6z" transform="translate(-33.000000, -322.000000) translate(33.000000, 322.000000) translate(5.000000, 6.000000) scale(-1, 1) translate(-5.000000, -6.000000)"/>
            </g>
        </g>
    </g>
</svg>
