<svg xmlns="http://www.w3.org/2000/svg" xmlns:xlink="http://www.w3.org/1999/xlink" width="50" height="50" viewBox="0 0 50 50">
    <defs>
        <linearGradient id="psffvlb1wb" x1="49.956%" x2="49.956%" y1="-49.964%" y2="111.104%">
            <stop offset="0%" stop-color="#D1D8FE"/>
            <stop offset="100%" stop-color="#585968"/>
        </linearGradient>
        <path id="fv48gkgqwa" d="M24.992 21.135c-.148-.828-.004-1.681.405-2.412 2.228-3.995 2.127-8.905-.263-12.802-2.39-3.897-6.688-6.16-11.207-5.9-4.52.258-8.538 2.998-10.48 7.144l-3.339 7.19c-.166.362-.14.785.072 1.123.211.337.577.542.971.544h.33c.415 0 .75.34.75.76v3.196c0 2.858 2.285 5.174 5.104 5.174 1.679-.002 3.103 1.251 3.339 2.937l.54 3.911h15.76l-1.982-10.865z"/>
    </defs>
    <g fill="none" fill-rule="evenodd">
        <g>
            <g transform="translate(-19.000000, -514.000000) translate(19.000000, 514.000000)">
                <rect width="50" height="50" fill="#E7E8F0" rx="25"/>
                <g transform="translate(11.000000, 9.000000)">
                    <mask id="yyahburooc" fill="#fff">
                        <use xlink:href="#fv48gkgqwa"/>
                    </mask>
                    <use fill="url(#psffvlb1wb)" fill-rule="nonzero" xlink:href="#fv48gkgqwa"/>
                    <path fill="#000" fill-rule="nonzero" d="M9.755 11.746L24.764 32.833 36.606 32.833 21.597 10.115 19.624 8.485 11.529 8.37 10.742 10.115z" mask="url(#yyahburooc)" opacity=".3"/>
                    <path fill="#FFF" fill-rule="nonzero" d="M16.68 7.804l.03.005.122.027.044.016.105.045c.342.182.518.568.441.966l-.024.1-.023.058-1.676 5.009c-.152.308-.46.489-.815.477l-.098-.008-.147-.037-.105-.046c-.342-.182-.518-.568-.441-.966l.024-.1.023-.058 1.676-5.009c.148-.299.446-.483.767-.484l.097.005zm1.715.46c.282-.294.714-.356 1.06-.168l.084.053.024.018.097.083 2.171 2.257c.285.296.338.745.133 1.118l-.057.092-.076.09-2.171 2.256c-.112.116-.251.2-.42.244l-.106.022-.12.008c-.363-.006-.687-.233-.824-.577-.106-.265-.086-.562.061-.822l.061-.096.07-.083 1.545-1.602-1.554-1.616c-.279-.312-.312-.77-.103-1.115l.058-.084.067-.079zm-6.574-.023c.355-.344.912-.334 1.255.022.314.327.345.835.08 1.205l-.067.082-1.546 1.607 1.543 1.602c.203.211.292.506.249.79l-.022.107-.035.104c-.125.314-.407.531-.732.568l-.096.01c-.206 0-.404-.073-.562-.205l-.076-.07-2.172-2.256c-.322-.335-.345-.859-.069-1.22l.07-.08 2.18-2.266z" mask="url(#yyahburooc)"/>
                </g>
            </g>
        </g>
    </g>
</svg>
