<svg xmlns="http://www.w3.org/2000/svg" xmlns:xlink="http://www.w3.org/1999/xlink" width="50" height="50" viewBox="0 0 50 50">
    <defs>
        <linearGradient id="2sjz8euftb" x1="49.956%" x2="49.956%" y1="-49.964%" y2="111.104%">
            <stop offset="0%" stop-color="#D1D8FE"/>
            <stop offset="100%" stop-color="#585968"/>
        </linearGradient>
        <path id="l6iuqtq25a" d="M24.992 21.135c-.148-.828-.004-1.681.405-2.412 2.228-3.995 2.127-8.905-.263-12.802-2.39-3.897-6.688-6.16-11.207-5.9-4.52.258-8.538 2.998-10.48 7.144l-3.339 7.19c-.166.362-.14.785.072 1.123.211.337.577.542.971.544h.33c.415 0 .75.34.75.76v3.196c0 2.858 2.285 5.174 5.104 5.174 1.679-.002 3.103 1.251 3.339 2.937l.54 3.911h15.76l-1.982-10.865z"/>
    </defs>
    <g fill="none" fill-rule="evenodd">
        <g>
            <g transform="translate(-149.000000, -514.000000) translate(149.000000, 514.000000)">
                <rect width="50" height="50" fill="#E7E8F0" rx="25"/>
                <g transform="translate(10.000000, 9.000000)">
                    <mask id="4mkh09tgxc" fill="#fff">
                        <use xlink:href="#l6iuqtq25a"/>
                    </mask>
                    <use fill="url(#2sjz8euftb)" fill-rule="nonzero" xlink:href="#l6iuqtq25a"/>
                    <path fill="#000" fill-rule="nonzero" d="M10.233 12.507L25.241 32.072 37.083 32.072 22.075 10.876 20.101 9.246 19.114 9.246 18.128 9.246 17.141 10.876 14.18 13.485 13.193 13.485 14.18 9.246 12.007 9.131 11.22 10.876z" mask="url(#4mkh09tgxc)" opacity=".3"/>
                    <g mask="url(#4mkh09tgxc)">
                        <g>
                            <path fill="#FFF" fill-rule="nonzero" d="M7.35.743c-.165.137-.317.29-.453.457l-2.6 3.087c-.06.072-.12.132-.184.187-.428.347-1.038.37-1.5.05-.464-.32-.674-.916-.517-1.471.157-.554.642-.938 1.199-.953.3-.01.589.088.822.278.321.25.74.293 1.091.113.348-.178.567-.542.567-.939 0-.32-.142-.624-.388-.825-1.39-1.11-3.371-.93-4.543.411C-.28 2.446-.28 4.402.84 5.707 2.023 7.055 4.015 7.23 5.4 6.11c.171-.143.323-.296.46-.464l2.6-3.086c.06-.072.119-.133.184-.187.428-.348 1.037-.371 1.499-.051.465.321.674.917.517 1.472-.156.553-.641.938-1.198.953-.3.01-.59-.089-.822-.278-.322-.251-.74-.293-1.092-.113-.348.178-.567.541-.567.938 0 .32.143.624.389.825 1.39 1.11 3.37.93 4.543-.41 1.124-1.309 1.125-3.265.004-4.57C10.772-.163 8.869-.37 7.493.633l-.144.11z" transform="translate(9.858063, 7.851100)"/>
                        </g>
                    </g>
                </g>
            </g>
        </g>
    </g>
</svg>
