<?xml version="1.0" encoding="UTF-8"?>
<svg width="20px" height="20px" viewBox="0 0 20 20" version="1.1" xmlns="http://www.w3.org/2000/svg" xmlns:xlink="http://www.w3.org/1999/xlink">
    <title>Fill 41</title>
    <g id="New-Sidebar-Design" stroke="none" stroke-width="1" fill="none" fill-rule="evenodd">
        <g id="Sidebar-5.2" transform="translate(-40.000000, -1093.000000)" fill="#CCCCCC" stroke="#CCCCCC" stroke-width="0.3">
            <path d="M41.3443076,1094.09416 C41.5575383,1093.96954 41.8215382,1093.96862 42.035692,1094.09139 L44.9230758,1095.74093 L47.8104596,1094.09139 C48.0227672,1093.96954 48.284921,1093.96954 48.4972286,1094.09139 L51.3846124,1095.74093 L54.2719962,1094.09139 C54.48615,1093.96862 54.7492268,1093.96954 54.9624575,1094.09416 C55.1756882,1094.21785 55.3076882,1094.44585 55.3076882,1094.69231 L55.3076882,1102.3077 L58.3076873,1102.3077 C58.6898411,1102.3077 59,1102.61785 59,1103 L59,1109.46154 C59,1110.86369 57.8636875,1112 56.461534,1112 L46.1230755,1112 L46.093537,1112 C45.3430757,1112 44.7384605,1112 44.2483068,1111.96031 C43.7433838,1111.91969 43.300307,1111.832 42.890461,1111.62246 C42.2387689,1111.29108 41.709846,1110.76215 41.3766153,1110.11046 C41.168923,1109.69969 41.0812307,1109.25754 41.0396923,1108.75262 C41,1108.26246 41,1107.65692 41,1106.90739 L41,1106.87785 L41,1094.69231 C41,1094.44585 41.132,1094.21785 41.3443076,1094.09416 L41.3443076,1094.09416 Z M56.461534,1110.61539 C57.0984569,1110.61539 57.6153798,1110.09939 57.6153798,1109.46154 L57.6153798,1103.69231 L55.3076882,1103.69231 L55.3076882,1109.46154 C55.3076882,1110.09939 55.8246111,1110.61539 56.461534,1110.61539 L56.461534,1110.61539 Z M54.1999962,1110.61539 L46.1230755,1110.61539 C45.3356911,1110.61539 44.7873835,1110.61446 44.3609221,1110.58031 C43.9409222,1110.54615 43.7009223,1110.48246 43.5181531,1110.38923 C43.1276917,1110.18985 42.8101533,1109.87323 42.6107688,1109.48185 C42.517538,1109.3 42.4538457,1109.05908 42.4196919,1108.64 C42.3855381,1108.21262 42.384615,1107.66431 42.384615,1106.87785 L42.384615,1095.88493 L44.5796913,1097.14031 C44.7919989,1097.26216 45.0541527,1097.26216 45.2664603,1097.14031 L48.1538441,1095.49077 L51.0412279,1097.14031 C51.2535355,1097.26216 51.5156893,1097.26216 51.7279969,1097.14031 L53.9230732,1095.88493 L53.9230732,1103 L53.9230732,1109.46154 C53.9230732,1109.87785 54.0227655,1110.26923 54.1999962,1110.61539 L54.1999962,1110.61539 Z M44.6923066,1100.23077 C44.6923066,1099.84862 45.0024604,1099.53847 45.3846141,1099.53847 L49.0769208,1099.53847 C49.4590745,1099.53847 49.7692283,1099.84862 49.7692283,1100.23077 C49.7692283,1100.61293 49.4590745,1100.92308 49.0769208,1100.92308 L45.3846141,1100.92308 C45.0024604,1100.92308 44.6923066,1100.61293 44.6923066,1100.23077 L44.6923066,1100.23077 Z M48.1538441,1103.23077 C47.7716904,1103.23077 47.4615366,1103.54093 47.4615366,1103.92308 C47.4615366,1104.30616 47.7716904,1104.61539 48.1538441,1104.61539 L50.9230741,1104.61539 C51.3052278,1104.61539 51.6153816,1104.30616 51.6153816,1103.92308 C51.6153816,1103.54093 51.3052278,1103.23077 50.9230741,1103.23077 L48.1538441,1103.23077 Z M47.4615366,1107.61539 C47.4615366,1107.23323 47.7716904,1106.92308 48.1538441,1106.92308 L50.9230741,1106.92308 C51.3052278,1106.92308 51.6153816,1107.23323 51.6153816,1107.61539 C51.6153816,1107.99846 51.3052278,1108.30769 50.9230741,1108.30769 L48.1538441,1108.30769 C47.7716904,1108.30769 47.4615366,1107.99846 47.4615366,1107.61539 L47.4615366,1107.61539 Z M46.3076908,1103.92308 C46.3076908,1104.43354 45.8950755,1104.84616 45.3846141,1104.84616 C44.8741527,1104.84616 44.4615375,1104.43354 44.4615375,1103.92308 C44.4615375,1103.41354 44.8741527,1103 45.3846141,1103 C45.8950755,1103 46.3076908,1103.41354 46.3076908,1103.92308 L46.3076908,1103.92308 Z M45.3846141,1108.53846 C45.8950755,1108.53846 46.3076908,1108.12585 46.3076908,1107.61539 C46.3076908,1107.10585 45.8950755,1106.69231 45.3846141,1106.69231 C44.8741527,1106.69231 44.4615375,1107.10585 44.4615375,1107.61539 C44.4615375,1108.12585 44.8741527,1108.53846 45.3846141,1108.53846 L45.3846141,1108.53846 Z" id="Fill-41"></path>
        </g>
    </g>
</svg>