<svg xmlns="http://www.w3.org/2000/svg" xmlns:xlink="http://www.w3.org/1999/xlink" width="50" height="50" viewBox="0 0 50 50">
    <defs>
        <linearGradient id="xy5j838j7b" x1="49.956%" x2="49.956%" y1="-49.964%" y2="111.104%">
            <stop offset="0%" stop-color="#D1D8FE"/>
            <stop offset="100%" stop-color="#585968"/>
        </linearGradient>
        <path id="ciqykkzkpa" d="M24.992 21.135c-.148-.828-.004-1.681.405-2.412 2.228-3.995 2.127-8.905-.263-12.802-2.39-3.897-6.688-6.16-11.207-5.9-4.52.258-8.538 2.998-10.48 7.144l-3.339 7.19c-.167.364-.139.788.074 1.126.213.338.581.542.977.54h.322c.415 0 .75.341.75.761v3.196c0 2.858 2.285 5.174 5.104 5.174 1.679-.002 3.103 1.251 3.339 2.937L11.237 32h15.759l-2.004-10.865z"/>
    </defs>
    <g fill="none" fill-rule="evenodd">
        <g>
            <g transform="translate(-84.000000, -514.000000) translate(84.000000, 514.000000)">
                <rect width="50" height="50" fill="#E7E8F0" rx="25"/>
                <g transform="translate(11.000000, 9.000000)">
                    <mask id="fra9dt7ngc" fill="#fff">
                        <use xlink:href="#ciqykkzkpa"/>
                    </mask>
                    <use fill="url(#xy5j838j7b)" fill-rule="nonzero" xlink:href="#ciqykkzkpa"/>
                    <path fill="#000" fill-opacity=".3" fill-rule="nonzero" d="M30.815 32L18.808 9.866 11.965 12.065 23.971 32z" mask="url(#fra9dt7ngc)"/>
                    <path fill="#FFF" fill-rule="nonzero" d="M16.745 8.96l.915-2.366c.075-.19.052-.404-.06-.573-.113-.17-.301-.27-.502-.271h-2.372c-.248 0-.47.154-.563.388l-2.176 5.615c-.074.19-.052.404.061.573.113.17.3.271.502.272h1.336c.05.002.096.028.124.07.028.042.035.095.018.143l-.915 2.366c-.075.19-.052.404.06.573.113.17.301.271.503.272h2.37c.25-.001.472-.155.564-.388l2.176-5.616c.075-.19.052-.404-.061-.573-.113-.17-.3-.27-.502-.271h-1.336c-.05-.002-.096-.028-.124-.07-.028-.042-.035-.095-.018-.143z" mask="url(#fra9dt7ngc)"/>
                </g>
            </g>
        </g>
    </g>
</svg>
