<svg width="24" height="24" viewBox="0 0 24 24" fill="none" xmlns="http://www.w3.org/2000/svg">
<path d="M21.9574 6.49351C20.929 4.72662 19.5341 3.32776 17.7723 2.29664C16.0102 1.26546 14.0865 0.75 11.9999 0.75C9.91354 0.75 7.98924 1.26562 6.22753 2.29664C4.46555 3.32771 3.07069 4.72662 2.04233 6.49351C1.01413 8.26035 0.5 10.1898 0.5 12.2817C0.5 14.7945 1.2311 17.0542 2.69366 19.0611C4.15607 21.0683 6.04528 22.4571 8.36114 23.2279C8.63071 23.2781 8.83027 23.2428 8.96002 23.1229C9.08982 23.0029 9.15464 22.8526 9.15464 22.6726C9.15464 22.6426 9.15208 22.3724 9.14709 21.8618C9.14195 21.3512 9.13954 20.9057 9.13954 20.5256L8.79513 20.5854C8.57554 20.6257 8.29852 20.6428 7.96407 20.638C7.62978 20.6333 7.28274 20.5982 6.92343 20.5328C6.56397 20.4681 6.22962 20.3179 5.92014 20.0827C5.61081 19.8475 5.39122 19.5395 5.26142 19.1594L5.11168 18.8139C5.01188 18.5838 4.85475 18.3283 4.64009 18.0482C4.42543 17.7678 4.20835 17.5777 3.98876 17.4776L3.88392 17.4024C3.81407 17.3524 3.74924 17.292 3.6893 17.222C3.6294 17.152 3.58456 17.082 3.55461 17.0118C3.52462 16.9416 3.54947 16.884 3.62946 16.8389C3.70944 16.7937 3.85398 16.7717 4.06371 16.7717L4.36307 16.8166C4.56273 16.8567 4.8097 16.9766 5.10429 17.1769C5.39872 17.3771 5.64076 17.6373 5.83046 17.9575C6.06017 18.368 6.33693 18.6809 6.66152 18.8961C6.98584 19.1114 7.31285 19.2188 7.64221 19.2188C7.97157 19.2188 8.25603 19.1938 8.49571 19.144C8.73513 19.0939 8.95976 19.0187 9.16949 18.9186C9.25933 18.2476 9.50394 17.7322 9.9031 17.3719C9.33417 17.3119 8.82266 17.2216 8.36832 17.1016C7.91424 16.9813 7.44501 16.7862 6.96093 16.5157C6.47659 16.2455 6.0748 15.91 5.75546 15.5098C5.43606 15.1094 5.17394 14.5836 4.96945 13.9331C4.76486 13.2823 4.66254 12.5316 4.66254 11.6808C4.66254 10.4693 5.05693 9.43842 5.84556 8.58748C5.47613 7.67668 5.51101 6.65565 5.9503 5.5245C6.2398 5.4343 6.66912 5.50199 7.23806 5.72713C7.8071 5.95239 8.22373 6.14535 8.48837 6.30534C8.75301 6.46527 8.96505 6.6008 9.1248 6.71072C10.0534 6.45054 11.0116 6.32043 11.9998 6.32043C12.988 6.32043 13.9464 6.45054 14.875 6.71072L15.444 6.35051C15.8331 6.11016 16.2926 5.88991 16.8214 5.68969C17.3504 5.48957 17.755 5.43446 18.0347 5.52465C18.4837 6.65586 18.5237 7.67684 18.1542 8.58763C18.9428 9.43858 19.3373 10.4698 19.3373 11.681C19.3373 12.5318 19.2346 13.2849 19.0303 13.9406C18.8258 14.5965 18.5614 15.1217 18.2371 15.5173C17.9124 15.9129 17.508 16.2457 17.024 16.5158C16.5398 16.7862 16.0704 16.9813 15.6163 17.1015C15.162 17.2217 14.6505 17.3121 14.0816 17.3721C14.6005 17.8224 14.86 18.5332 14.86 19.5042V22.6722C14.86 22.8522 14.9224 23.0024 15.0473 23.1225C15.1721 23.2423 15.3691 23.2776 15.6387 23.2274C17.9549 22.4568 19.8441 21.0679 21.3064 19.0607C22.7686 17.0537 23.5 14.7941 23.5 12.2813C23.4995 10.1896 22.9851 8.26035 21.9574 6.49351Z" fill="white"/>
</svg>
