<svg width="24" height="24" viewBox="0 0 24 24" fill="none" xmlns="http://www.w3.org/2000/svg">
<path d="M21.5127 13.7558L14.9654 18.5382L16.7208 16.2749L20.7811 11.0424L21.585 13.5266C21.6131 13.6119 21.5838 13.7042 21.5131 13.7558H21.5127ZM2.48628 13.7558C2.41515 13.7042 2.38593 13.6119 2.41323 13.5269L3.2179 11.042L9.03475 18.5405L2.48743 13.7558H2.48628ZM5.62884 3.57471L7.46348 9.2456H3.80036L5.62884 3.57471ZM14.9558 10.3994L12.0024 19.5409L9.04821 10.3994H14.9558ZM18.3725 3.57509L20.2044 9.2456H16.5405L18.3725 3.57509ZM13.5618 18.4663L16.1672 10.4036H19.8173L13.7317 18.2475L13.5618 18.4663ZM7.83448 10.4036L10.4392 18.4644L4.1875 10.4036H7.83448ZM22.6834 13.1716L21.5516 9.67558C21.5493 9.66712 21.5493 9.65865 21.5466 9.65019L19.289 2.66206C19.156 2.264 18.7712 1.98594 18.3659 2.00055C17.9492 2.00286 17.5824 2.27092 17.4536 2.66821L15.3287 9.24867H8.6749L6.54577 2.66821C6.41736 2.27131 6.05097 2.00324 5.63422 2.00093C5.20632 1.98517 4.84454 2.26477 4.70883 2.66898L2.45975 9.64558C2.45898 9.6475 2.45783 9.64904 2.45706 9.65135L1.31637 13.1743C1.13568 13.7342 1.33213 14.343 1.80579 14.69L11.6571 21.8892C11.6779 21.9042 11.7014 21.9108 11.7229 21.9227C11.7252 21.9238 11.7271 21.9254 11.729 21.9265C11.7306 21.9273 11.7313 21.9285 11.7329 21.9292C11.7337 21.9296 11.7344 21.93 11.7348 21.9304C11.7459 21.9358 11.7567 21.9408 11.7679 21.9458C11.7998 21.9596 11.8313 21.9715 11.8644 21.9792C11.8647 21.9792 11.8647 21.9796 11.8651 21.9796C11.8717 21.9812 11.8782 21.9819 11.8844 21.9831C11.8947 21.9854 11.9055 21.9858 11.9159 21.9873C11.9428 21.9912 11.9697 22 11.997 22C12.0577 22 12.1181 21.9877 12.1765 21.9688C12.1781 21.9685 12.1792 21.9681 12.1808 21.9677C12.1819 21.9673 12.1831 21.9669 12.1842 21.9665C12.2054 21.9592 12.2261 21.9508 12.2465 21.9412C12.2531 21.9381 12.2592 21.9338 12.2657 21.9308C12.2661 21.9304 12.2665 21.9304 12.2669 21.93C12.2677 21.9296 12.268 21.9296 12.2688 21.9292C12.2692 21.9292 12.2696 21.9288 12.27 21.9285C12.2923 21.9162 12.3138 21.9042 12.3346 21.8892C12.3369 21.8877 12.3399 21.8869 12.3422 21.8854C12.3422 21.885 12.3426 21.885 12.343 21.885L22.1948 14.6896C22.668 14.3431 22.8645 13.7342 22.6834 13.1739" fill="white"/>
</svg>
