<svg width="8" height="8" viewBox="0 0 8 8" fill="none" xmlns="http://www.w3.org/2000/svg">
<path d="M0.167369 0.866345L0.10125 0.94548C-0.0530246 1.16817 -0.0309995 1.47607 0.167334 1.67443L2.49257 4L0.167334 6.32557C-0.0557911 6.54873 -0.0557747 6.91051 0.167369 7.13365L0.866348 7.83263L0.945493 7.89876C1.16822 8.05305 1.47616 8.03099 1.67452 7.83258L4 5.50629L6.32548 7.83258C6.54863 8.05579 6.91048 8.05581 7.13366 7.83263L7.83263 7.13365L7.89876 7.05451C8.05305 6.83178 8.03099 6.52384 7.83258 6.32548L5.50629 3.99886L7.83258 1.67452C8.05579 1.45137 8.05581 1.08952 7.83263 0.866345L7.13366 0.167367L7.05452 0.101251C6.83183 -0.0530242 6.52393 -0.030999 6.32557 0.167334L4 2.49257L1.67444 0.167334C1.45127 -0.0557907 1.08949 -0.0557765 0.866348 0.167367L0.167369 0.866345Z" fill="#fff"/>
</svg>
