<svg width="10" height="12" viewBox="0 0 10 12" fill="none" xmlns="http://www.w3.org/2000/svg">
<path d="M8.15625 2.72726C8.45828 2.72726 8.70312 2.97211 8.70312 3.27414V11C8.70312 11.5523 8.2554 12 7.70312 12H2.04688C1.49458 12 1.04688 11.5523 1.04688 11V3.27414C1.04688 2.97211 1.29172 2.72726 1.59375 2.72726C1.89578 2.72726 2.14062 2.97211 2.14062 3.27414V10.6591C2.14062 10.7972 2.25254 10.9091 2.39062 10.9091H7.35938C7.49745 10.9091 7.60938 10.7972 7.60938 10.6591V3.27414C7.60938 2.97211 7.85422 2.72726 8.15625 2.72726ZM5.83203 0.5C5.92152 0.5 6.00939 0.524027 6.08643 0.56955L6.85107 1.02136C6.92811 1.06689 7.01598 1.09091 7.10547 1.09091H8.70459C9.00583 1.09091 9.25 1.33511 9.25 1.63635C9.25 1.9376 9.00583 2.18182 8.70459 2.18182H1.04541C0.74417 2.18182 0.5 1.9376 0.5 1.63635C0.5 1.33511 0.74417 1.09091 1.04541 1.09091H2.64453C2.73402 1.09091 2.82189 1.06689 2.89893 1.02136L3.66357 0.56955C3.74061 0.524027 3.82848 0.5 3.91797 0.5H5.83203Z" fill="#FF6565"/>
</svg>
