<svg width="20" height="12" viewBox="0 0 20 12" fill="none" xmlns="http://www.w3.org/2000/svg">
<path fill-rule="evenodd" clip-rule="evenodd" d="M0.400345 10.5521C0.175942 10.4092 0.10267 10.1157 0.23362 9.88413L2.43027 6L0.233619 2.11587C0.10267 1.88432 0.175942 1.59078 0.400345 1.44794L1.44512 0.782881C1.68671 0.629095 2.00785 0.709258 2.14883 0.958538L5 6L2.14883 11.0415C2.00785 11.2907 1.68671 11.3709 1.44512 11.2171L0.400345 10.5521Z" fill="#D3D3D5"/>
<path fill-rule="evenodd" clip-rule="evenodd" d="M5.40034 10.5521C5.17594 10.4092 5.10267 10.1157 5.23362 9.88413L7.43027 6L5.23362 2.11587C5.10267 1.88432 5.17594 1.59078 5.40034 1.44794L6.44512 0.782881C6.68671 0.629095 7.00785 0.709258 7.14883 0.958538L10 6L7.14883 11.0415C7.00785 11.2907 6.68671 11.3709 6.44512 11.2171L5.40034 10.5521Z" fill="#D3D3D5"/>
<path fill-rule="evenodd" clip-rule="evenodd" d="M10.4003 10.5521C10.1759 10.4092 10.1027 10.1157 10.2336 9.88413L12.4303 6L10.2336 2.11587C10.1027 1.88432 10.1759 1.59078 10.4003 1.44794L11.4451 0.782881C11.6867 0.629095 12.0079 0.709258 12.1488 0.958538L15 6L12.1488 11.0415C12.0079 11.2907 11.6867 11.3709 11.4451 11.2171L10.4003 10.5521Z" fill="#D3D3D5"/>
<path fill-rule="evenodd" clip-rule="evenodd" d="M15.4003 10.5521C15.1759 10.4092 15.1027 10.1157 15.2336 9.88413L17.4303 6L15.2336 2.11587C15.1027 1.88432 15.1759 1.59078 15.4003 1.44794L16.4451 0.782881C16.6867 0.629095 17.0079 0.709258 17.1488 0.958538L20 6L17.1488 11.0415C17.0079 11.2907 16.6867 11.3709 16.4451 11.2171L15.4003 10.5521Z" fill="#D3D3D5"/>
</svg>
