<svg width="24" height="24" viewBox="0 0 24 24" fill="none" xmlns="http://www.w3.org/2000/svg">
<path d="M22.3796 18.0259C22.6573 17.5486 22.4414 16.9494 21.9426 16.7125L20.7381 16.1405C20.2393 15.9036 19.6475 16.12 19.3549 16.5884C17.798 19.0816 15.0546 20.6585 12.0239 20.6666C10.7351 20.6666 9.50392 20.3949 8.38054 19.8779C7.8788 19.6469 7.26535 19.7903 6.97795 20.2619L6.28418 21.4005C5.99682 21.8721 6.14454 22.4915 6.63844 22.7386C8.25206 23.5458 10.073 24 12 24C16.431 24 20.3011 21.5984 22.3796 18.0259ZM5.93 2.8248C5.62481 2.36451 5.00121 2.23565 4.56782 2.57797C1.7856 4.77562 0 8.17929 0 12C0 14.5238 0.779093 16.8656 2.10989 18.798C2.42314 19.2529 3.05704 19.3135 3.48436 18.9636L4.51598 18.1188C4.94327 17.7689 5.00041 17.1416 4.70171 16.6771C3.81534 15.2986 3.33333 13.6894 3.33333 12C3.33333 9.39748 4.48646 6.99484 6.41911 5.36843C6.84168 5.01281 6.972 4.39636 6.6668 3.93606L5.93 2.8248ZM12 0V3.33333C16.7865 3.33333 20.6667 7.21353 20.6667 12C20.6667 12.5088 21.0289 12.9627 21.535 13.0158L22.9393 13.1632C23.4886 13.2209 23.9848 12.8221 23.997 12.2699C23.999 12.1802 24 12.0902 24 12C24 5.37258 18.6274 0 12 0ZM11.9586 6.99361e-05C11.3043 0.00227801 10.6622 0.0568647 10.0365 0.159857C9.49151 0.249554 9.16712 0.797514 9.30212 1.33306L9.62805 2.62595C9.76305 3.16147 10.3066 3.48008 10.8541 3.40803C11.2213 3.35971 11.5938 3.33464 11.9702 3.33338L11.9586 6.99361e-05Z" fill="#7B74F5" fill-opacity="0.4"/>
</svg>
