<svg width="20" height="16" viewBox="0 0 20 16" fill="none" xmlns="http://www.w3.org/2000/svg">
<rect width="20" height="16" rx="8" fill="#9AA1A9"/>
<path d="M10.5457 7.42391V8.37566M10.5457 7.42391C10.5107 7.388 10.4725 7.35535 10.4315 7.32634L7.43161 5.18789C7.18101 4.9932 6.84594 4.94607 6.55136 5.06406C6.25677 5.18206 6.0469 5.44748 6 5.76133V10.2387C6.0469 10.5525 6.25677 10.8179 6.55136 10.9359C6.84594 11.0539 7.18101 11.0068 7.43161 10.8121L10.4322 8.47322C10.4731 8.44421 10.5113 8.41156 10.5464 8.37566L10.5457 7.42391ZM10.5464 7.42391V5.76133C10.5934 5.44772 10.8032 5.18254 11.0975 5.06458C11.3919 4.94661 11.7267 4.99354 11.9773 5.18789L14.9779 7.32634C15.1734 7.45153 15.2916 7.66766 15.2916 7.89978C15.2916 8.1319 15.1734 8.34803 14.9779 8.47322L11.9773 10.8121C11.7267 11.0068 11.3916 11.0539 11.0971 10.9359C10.8025 10.8179 10.5926 10.5525 10.5457 10.2387V8.37566L10.5464 7.42391Z" stroke="white" stroke-linecap="round" stroke-linejoin="round"/>
</svg>
