<svg width="14" height="14" viewBox="0 0 14 14" fill="none" xmlns="http://www.w3.org/2000/svg">
<path d="M7 13C10.3137 13 13 10.3137 13 7C13 3.68629 10.3137 1 7 1C3.68629 1 1 3.68629 1 7C1 10.3137 3.68629 13 7 13Z" fill="#FF646D" stroke="#FF646D"/>
<path d="M6.5 7C6.5 7.27614 6.72386 7.5 7 7.5C7.27614 7.5 7.5 7.27614 7.5 7L6.5 7ZM7.5 4C7.5 3.72386 7.27614 3.5 7 3.5C6.72386 3.5 6.5 3.72386 6.5 4L7.5 4ZM7.5 7L7.5 4L6.5 4L6.5 7L7.5 7Z" fill="white"/>
<path d="M6.5 10C6.5 10.2761 6.72386 10.5 7 10.5C7.27614 10.5 7.5 10.2761 7.5 10L6.5 10ZM7.5 9C7.5 8.72386 7.27614 8.5 7 8.5C6.72386 8.5 6.5 8.72386 6.5 9L7.5 9ZM7.5 10L7.5 9L6.5 9L6.5 10L7.5 10Z" fill="white"/>
</svg>
