<svg width="20" height="16" viewBox="0 0 20 16" fill="none" xmlns="http://www.w3.org/2000/svg">
<rect width="20" height="16" rx="8" fill="#E65A62"/>
<path d="M6.64645 5.25805L6.58859 5.3273C6.4536 5.52215 6.47288 5.79156 6.64642 5.96513L8.681 8L6.64642 10.0349C6.45118 10.2301 6.4512 10.5467 6.64645 10.7419L7.25805 11.3536L7.32731 11.4114C7.52219 11.5464 7.79164 11.5271 7.9652 11.3535L10 9.318L12.0348 11.3535C12.2301 11.5488 12.5467 11.5488 12.7419 11.3536L13.3536 10.7419L13.4114 10.6727C13.5464 10.4778 13.5271 10.2084 13.3535 10.0348L11.318 7.999L13.3535 5.9652C13.5488 5.76995 13.5488 5.45333 13.3536 5.25805L12.7419 4.64645L12.6727 4.58859C12.4778 4.4536 12.2084 4.47288 12.0349 4.64642L10 6.681L7.96513 4.64642C7.76986 4.45118 7.45331 4.4512 7.25805 4.64645L6.64645 5.25805Z" fill="white"/>
</svg>
