<svg xmlns="http://www.w3.org/2000/svg" width="19" height="30" viewBox="0 0 19 30">
    <g fill="none" fill-rule="evenodd">
        <g>
            <g>
                <path fill="#F0D6B7" d="M12.909 15.205L11.335 14.969 9.209 14.733 7.832 14.693 6.493 14.733 5.47 15.048 4.565 16.031 3.856 18.039 3.699 18.472 2.754 18.787 2.203 19.692 1.809 20.991 2.242 22.132 3.266 22.487 4.092 22.093 4.486 21.227 4.958 21.306 5.116 21.502 4.958 22.408 4.919 23.549 5.155 25.124 5.146 26.023 5.864 27.17 7.123 28.076 9.327 29.02 11.768 28.666 13.893 27.131 14.877 25.557 15.507 24.415 15.664 21.581 15.192 19.141 14.326 16.976 13.499 15.835" transform="translate(-588.000000, -412.000000) translate(588.000000, 412.000000) translate(9.767442, 15.000000) scale(1, -1) translate(-9.767442, -15.000000)"/>
                <path fill="#335061" d="M11.571 8.396L5.942 8.16 5.942 7.215 6.415 3.909 6.178 3.633 2.242 4.971 1.967 5.444 1.573 9.891 0.668 12.568 0.471 13.198 3.62 15.362 4.604 15.756 5.47 14.693 6.218 14.024 7.084 13.749 7.477 13.631 7.95 11.584 8.304 11.151 9.209 11.466 8.579 10.246 12.004 8.632 11.571 8.396" transform="translate(-588.000000, -412.000000) translate(588.000000, 412.000000) translate(9.767442, 15.000000) scale(1, -1) translate(-9.767442, -15.000000)"/>
                <path fill="#6D6B6D" d="M2.242 22.132L3.266 22.487 4.092 22.093 4.486 21.227 4.958 21.306 5.076 21.778 4.84 22.683 5.076 24.848 4.88 26.029 5.588 26.855 7.123 28.076 6.69 28.666 4.525 27.603 3.62 26.895 3.108 25.793 2.321 24.73 2.085 23.47 2.242 22.132" transform="translate(-588.000000, -412.000000) translate(588.000000, 412.000000) translate(9.767442, 15.000000) scale(1, -1) translate(-9.767442, -15.000000)"/>
                <path fill="#DCD9D8" d="M3.856 25.832s.59 1.456 2.952 2.165c2.362.708.118.512.118.512l-2.558-.984-.984-.984-.433-.788.905.08M2.675 22.408s-.826 2.755 2.323 3.149l-.118.472-2.165-.512-.63-2.047.157-1.338.433.276" transform="translate(-588.000000, -412.000000) translate(588.000000, 412.000000) translate(9.767442, 15.000000) scale(1, -1) translate(-9.767442, -15.000000)"/>
                <path fill="#F7E4CD" d="M3.935 18.747l.515.5s.233-.027.272-.303c.04-.275.158-2.755 1.85-4.093.154-.123-1.26.197-1.26.197l-1.259 1.967M11.177 19.495s.092 1.193.413 1.101c.322-.091.322-.413.322-.413s-.78-.504-.735-.688" transform="translate(-588.000000, -412.000000) translate(588.000000, 412.000000) translate(9.767442, 15.000000) scale(1, -1) translate(-9.767442, -15.000000)"/>
                <path fill="#F7E4CD" fill-rule="nonzero" d="M14.444 23.864s-.649-.137-.708-.708c-.06-.572.708-.119.826-.08M9.682 23.825s-.866-.118-.866-.67c0-.55.984-.511 1.26-.275" transform="translate(-588.000000, -412.000000) translate(588.000000, 412.000000) translate(9.767442, 15.000000) scale(1, -1) translate(-9.767442, -15.000000)"/>
                <path fill="#F7E4CD" d="M4.328 21.266s-1.495.906-1.653.04c-.157-.866-.511-1.496.237-2.401l-.512.157-.472 1.22-.158 1.181.905.945 1.024-.079.59-.472.04-.59M5.037 23.746s.67 3.464 4.054 4.133c2.787.55 4.25-.118 4.802-.748 0 0-2.48 2.952-4.841 2.047-2.362-.906-4.094-2.559-4.054-3.621.067-1.81.039-1.811.039-1.811M14.169 26.737s-1.142.04-1.181-.984c0 0 0-.157.078-.314 0 0 .906 1.023 1.457.472" transform="translate(-588.000000, -412.000000) translate(588.000000, 412.000000) translate(9.767442, 15.000000) scale(1, -1) translate(-9.767442, -15.000000)"/>
                <path fill="#F7E4CD" d="M9.17 25.332s-.196 1.57-1.535.657c-.866-.59-.787-1.416-.63-1.574.157-.157.115-.474.234-.257.12.218.08.926.514 1.123.433.197 1.143.417 1.417.05" transform="translate(-588.000000, -412.000000) translate(588.000000, 412.000000) translate(9.767442, 15.000000) scale(1, -1) translate(-9.767442, -15.000000)"/>
                <path fill="#49728B" d="M5.47 14.693l-3.7-1.653s1.535-6.1.748-7.99l-.551.197-.04 2.322-1.023 4.408-.433 1.22 3.857 2.598 1.142-1.102M5.85 11.319l.525-.64V8.316h-.63s-.078 1.653-.078 1.85c0 .197.078.905.078.905M5.864 7.963L4.092 7.884 4.604 7.53 5.864 7.333" transform="translate(-588.000000, -412.000000) translate(588.000000, 412.000000) translate(9.767442, 15.000000) scale(1, -1) translate(-9.767442, -15.000000)"/>
                <path fill="#335061" d="M11.925 8.356L13.381 8.396 13.736 4.774 12.24 4.578 11.925 8.356" transform="translate(-588.000000, -412.000000) translate(588.000000, 412.000000) translate(9.767442, 15.000000) scale(1, -1) translate(-9.767442, -15.000000)"/>
                <path fill="#335061" d="M12.319 8.356l2.204.118s.905 2.283.905 2.401c0 .118.787 3.307.787 3.307l-1.77 1.85-.355.314-.945-.944v-3.66l-.826-3.386" transform="translate(-588.000000, -412.000000) translate(588.000000, 412.000000) translate(9.767442, 15.000000) scale(1, -1) translate(-9.767442, -15.000000)"/>
                <path fill="#49728B" d="M13.303 8.632l-1.378-.276.197-1.102c.511-.236 1.377.394 1.377.394M13.342 15.52L16.097 13.473 16.176 14.418 14.09 16.346 13.342 15.52" transform="translate(-588.000000, -412.000000) translate(588.000000, 412.000000) translate(9.767442, 15.000000) scale(1, -1) translate(-9.767442, -15.000000)"/>
                <path fill="#FFF" d="M7.229 0.602L6.415 3.909 6.009 6.349 5.942 8.16 9.63 8.356 11.925 8.356 11.716 4.223 12.071 1.035 12.031 0.445 9.04 0.208 7.229 0.602" transform="translate(-588.000000, -412.000000) translate(588.000000, 412.000000) translate(9.767442, 15.000000) scale(1, -1) translate(-9.767442, -15.000000)"/>
                <path fill="#DCD9D8" d="M11.413 8.396s-.196-4.094.394-7.006c0 0-1.18-.748-2.913-.945l3.307.118.393.236-.472 6.455-.118 1.378" transform="translate(-588.000000, -412.000000) translate(588.000000, 412.000000) translate(9.767442, 15.000000) scale(1, -1) translate(-9.767442, -15.000000)"/>
                <path fill="#FFF" d="M13.803 5.089L15.338 5.522 18.25 5.679 18.683 7.018 17.896 9.34 16.991 9.458 15.731 9.064 14.523 8.474 13.881 8.592 13.381 8.396" transform="translate(-588.000000, -412.000000) translate(588.000000, 412.000000) translate(9.767442, 15.000000) scale(1, -1) translate(-9.767442, -15.000000)"/>
                <path fill="#DCD9D8" d="M13.775 5.877s1.023.472 1.18.432l-.432 2.165.511.197s.355-2.047.355-2.283c0 0 2.204-.118 2.4-.118 0 0 .473.905.355 1.85l.433-1.26.04-.708-.63-.945-.709-.157-1.18.04-.394.511-1.378-.197-.433-.157" transform="translate(-588.000000, -412.000000) translate(588.000000, 412.000000) translate(9.767442, 15.000000) scale(1, -1) translate(-9.767442, -15.000000)"/>
                <path fill="#FFF" fill-rule="nonzero" d="M12.228 8.67l-.866 2.205-.905 1.299s.197.55.472.55h.906l.865-.314-.078-1.456-.394-2.283" transform="translate(-588.000000, -412.000000) translate(588.000000, 412.000000) translate(9.767442, 15.000000) scale(1, -1) translate(-9.767442, -15.000000)"/>
                <path fill="#DCD9D8" d="M12.397 9.419s-1.102 2.125-1.102 2.44c0 0 .197.473.473.354.275-.118.866-.432.866-.432v.747l-1.339.276-.905-.118 1.535-3.621.315-.04" transform="translate(-588.000000, -412.000000) translate(588.000000, 412.000000) translate(9.767442, 15.000000) scale(1, -1) translate(-9.767442, -15.000000)"/>
                <path fill="#FFF" fill-rule="nonzero" d="M7.584 14.614L6.493 14.733 5.47 15.048 5.47 14.693 5.97 14.142 7.544 13.433" transform="translate(-588.000000, -412.000000) translate(588.000000, 412.000000) translate(9.767442, 15.000000) scale(1, -1) translate(-9.767442, -15.000000)"/>
                <path fill="#DCD9D8" d="M5.824 14.496s1.22-.512 1.614-.394l.04-.471-1.103.235-.669.473.118.157" transform="translate(-588.000000, -412.000000) translate(588.000000, 412.000000) translate(9.767442, 15.000000) scale(1, -1) translate(-9.767442, -15.000000)"/>
                <path fill="#D33833" d="M13.798 12.59c-.667.02-1.27.1-1.8.249.037.216-.03.429.024.585.147.106.394.104.616.13-.192.094-.463.131-.685.077-.005.15-.072.243-.113.36.375.135 1.262 1.013 1.76.722.238-.138.339-.928.357-1.313.016-.319-.029-.64-.159-.81" transform="translate(-588.000000, -412.000000) translate(588.000000, 412.000000) translate(9.767442, 15.000000) scale(1, -1) translate(-9.767442, -15.000000)"/>
                <path stroke="#D33833" stroke-width="2.125" d="M13.798 12.59c-.667.02-1.27.1-1.8.249.037.216-.03.429.024.585.147.106.394.104.616.13-.192.094-.463.131-.685.077-.005.15-.072.243-.113.36.375.135 1.262 1.013 1.76.722.238-.138.339-.928.357-1.313.016-.319-.029-.64-.159-.81z" transform="translate(-588.000000, -412.000000) translate(588.000000, 412.000000) translate(9.767442, 15.000000) scale(1, -1) translate(-9.767442, -15.000000)"/>
                <path fill="#D33833" d="M10.605 13.683l-.006-.153c-.209-.137-.545-.135-.774-.25.337-.015.603-.096.832-.21l-.014-.383c-.383-.261-.732-.65-1.182-.896-.213-.116-.96-.415-1.186-.362-.128.03-.14.189-.19.338-.11.321-.36.832-.383 1.315-.028.61-.09 1.632.568 1.507.53-.102 1.147-.346 1.558-.57.25-.138.396-.307.777-.336" transform="translate(-588.000000, -412.000000) translate(588.000000, 412.000000) translate(9.767442, 15.000000) scale(1, -1) translate(-9.767442, -15.000000)"/>
                <path stroke="#D33833" stroke-width="2.125" d="M10.605 13.683l-.006-.153c-.209-.137-.545-.135-.774-.25.337-.015.603-.096.832-.21l-.014-.383c-.383-.261-.732-.65-1.182-.896-.213-.116-.96-.415-1.186-.362-.128.03-.14.189-.19.338-.11.321-.36.832-.383 1.315-.028.61-.09 1.632.568 1.507.53-.102 1.147-.346 1.558-.57.25-.138.396-.307.777-.336h0z" transform="translate(-588.000000, -412.000000) translate(588.000000, 412.000000) translate(9.767442, 15.000000) scale(1, -1) translate(-9.767442, -15.000000)"/>
                <path fill="#D33833" d="M10.984 12.955c-.058.332-.125.427-.1.717.887.59 1.053-1.015.1-.717" transform="translate(-588.000000, -412.000000) translate(588.000000, 412.000000) translate(9.767442, 15.000000) scale(1, -1) translate(-9.767442, -15.000000)"/>
                <path stroke="#D33833" stroke-width="2.125" d="M10.984 12.955c-.058.332-.125.427-.1.717.887.59 1.053-1.015.1-.717z" transform="translate(-588.000000, -412.000000) translate(588.000000, 412.000000) translate(9.767442, 15.000000) scale(1, -1) translate(-9.767442, -15.000000)"/>
                <path fill="#EF3D3A" d="M12.267 12.685s-.275.394-.078.512.393 0 .511.197c.119.197 0 .315.04.551.04.236.236.276.433.315.197.04.748.118.826-.079l-.236.709-.472.157-1.496-.866-.079-.433v-.866M8.135 11.387c-.048.614-.098 1.227-.153 1.84-.084.917.22.757 1.014.757.121 0 .747-.144.792-.236.214-.438-.36-.34.247-.671.512-.28 1.416.169 1.21.79-.117.137-.604.042-.778.133l-.923.478c-.391.203-1.295.499-1.712.215-1.057-.718.066-2.514.443-3.264" transform="translate(-588.000000, -412.000000) translate(588.000000, 412.000000) translate(9.767442, 15.000000) scale(1, -1) translate(-9.767442, -15.000000)"/>
                <path fill="#231F20" d="M9.17 25.332c-1.072.25-1.605-.449-1.93-1.174-.29.07-.175.465-.102.667.192.528.966 1.23 1.598 1.135.272-.04.64-.29.434-.628M14.397 24.11l.051-.002c.243-.503.453-1.037.758-1.481-.204-.478-1.55-.9-1.53-.043.291.127.794.026 1.052.189-.15.41-.365.758-.33 1.337M9.72 24.097c.23-.422.305-.865.632-1.183.147-.144.433-.319.291-.718-.033-.094-.275-.304-.415-.345-.512-.15-1.703-.03-1.3.606.424-.02.992-.274 1.308.033-.243.388-.676 1.155-.516 1.607M14.206 19.812c-.77-.495-1.628-1.032-2.89-.908-.269.235-.372.756-.11 1.1.136-.234.05-.665.43-.73.716-.122 1.549.438 2.064.634.319.538-.028.736-.315 1.082-.589.71-1.379 1.589-1.35 2.651.238.173.259-.263.293-.342.307-.72 1.08-1.64 1.645-2.255.139-.152.367-.297.392-.398.074-.291-.19-.64-.16-.834M4.06 20.332c-.242.138-.3.744-.583.761-.404.025-.33-.786-.33-1.26-.278.252-.327 1.03-.122 1.43-.233.115-.337-.126-.467-.21.166 1.208 1.767.56 1.501-.72M14.696 19.309c-.359-.682-.865-1.433-1.917-1.455-.021.22-.038.555.001.688.804.077 1.3.486 1.916.767M9.66 18.866c.67-.352 1.902-.39 2.813-.363.05-.2.048-.447.05-.69-1.172-.059-2.557.231-2.864 1.053M9.532 18.209c.463-1.164 2.057-1.03 3.4-.998-.058-.151-.187-.33-.346-.394-.43-.176-1.618-.308-2.216.009-.38.202-.623.657-.83.924-.101.129-.6.458-.008.459" transform="translate(-588.000000, -412.000000) translate(588.000000, 412.000000) translate(9.767442, 15.000000) scale(1, -1) translate(-9.767442, -15.000000)"/>
                <path fill="#81B0C4" d="M14.15 11.787c-.545-.931-1.065-1.889-1.71-2.71.27.795.386 2.127.427 3.142.566.265 1.05-.06 1.283-.432" transform="translate(-588.000000, -412.000000) translate(588.000000, 412.000000) translate(9.767442, 15.000000) scale(1, -1) translate(-9.767442, -15.000000)"/>
                <path fill="#231F20" d="M17.077 8.438c-.609-.122-1.037-.714-1.631-.676.327.46.899.655 1.631.676M17.346 7.504c-.496-.062-1.08-.158-1.583-.108.238.433 1.157.283 1.583.108M17.518 6.664c-.558-.016-1.251-.001-1.782.057.314.44 1.42.163 1.782-.057" transform="translate(-588.000000, -412.000000) translate(588.000000, 412.000000) translate(9.767442, 15.000000) scale(1, -1) translate(-9.767442, -15.000000)"/>
                <path fill="#DCD9D8" d="M13.1 4.413c.08-.7.358-1.41.323-2.178-.309-.104-.486-.195-.9-.194-.029.652-.116 1.649-.09 2.27.203-.013.503.146.667.102" transform="translate(-588.000000, -412.000000) translate(588.000000, 412.000000) translate(9.767442, 15.000000) scale(1, -1) translate(-9.767442, -15.000000)"/>
                <path fill="#F0D6B7" d="M12.2 14.742c-.28-.183-.519-.411-.788-.606-.597-.03-.922.04-1.36.384.006.027.05.015.052.049.639-.285 1.45.116 2.096.173" transform="translate(-588.000000, -412.000000) translate(588.000000, 412.000000) translate(9.767442, 15.000000) scale(1, -1) translate(-9.767442, -15.000000)"/>
                <path fill="#81B0C4" d="M8.846 10.388c.176.76.864 1.154 1.488 1.573.645-.818 1.037-1.87 1.468-2.886-1.02.308-2.062.807-2.956 1.313" transform="translate(-588.000000, -412.000000) translate(588.000000, 412.000000) translate(9.767442, 15.000000) scale(1, -1) translate(-9.767442, -15.000000)"/>
                <path fill="#231F20" d="M12.433 4.312c-.026-.622.061-1.62.09-2.271.414-.001.591.09.9.194.035.768-.243 1.478-.323 2.178-.164.044-.464-.115-.667-.101zM5.996 7.848c.273-2.506.668-4.612 1.392-6.832 1.607-.488 3.544-.53 4.965-.09-.26 1.253-.147 2.778-.3 4.114-.114 1.005-.056 2.016-.213 3.04-1.721.359-4.155.084-5.844-.232zm6.25.217c-.014-1.077.05-2.138.131-3.216.414.062.694.104 1.078.188-.125 1.037-.11 2.205-.363 3.122-.294-.002-.552.004-.845-.094zm2.097.173c-.196.045-.424.002-.611-.002.088-.877.301-1.845.377-2.766.294-.01.452.13.694.177.013.808-.07 1.922-.46 2.591zm3.175-2.9c.615.15 1.001.902.83 1.675-.116.52-.322 1.498-.542 1.83-.162.246-.603.568-.954.343-.573-.367-1.58-.473-1.998-.917.21-.696.274-1.653.36-2.536.715-.045 1.595.197 2.19-.06-.416-.134-.954-.135-1.313-.33.293-.142.98-.114 1.427-.005zm-5.716 3.737c-.431 1.016-.823 2.068-1.468 2.886-.624-.419-1.312-.813-1.488-1.573.894-.506 1.937-1.005 2.956-1.313zm1.065 3.144c-.041-1.015-.157-2.347-.428-3.143.646.822 1.166 1.78 1.71 2.711-.231.373-.716.697-1.282.432zm-1.207.429c-.244.026-.452-.281-.77-.148-.073-.08-.139-.168-.213-.247.702-.846 1.021-2.047 1.564-3.042.29.956.257 2.003.321 3.046-.4-.026-.621.361-.902.391zm-.775 1.024c-.026-.29.041-.385.1-.717.952-.298.786 1.308-.1.717zm-1.057.347c-.41.224-1.027.468-1.558.57-.657.125-.596-.897-.568-1.507.022-.483.273-.994.382-1.315.052-.15.063-.308.191-.338.227-.053.973.246 1.186.362.45.245.8.635 1.182.896l.014.382c-.23.115-.495.196-.832.21.229.116.565.114.774.251l.006.153c-.381.029-.526.198-.777.336zm-3.922.712c-.34-.346.956-.818 1.369-.843-.003.219.124.425.099.582-.49.087-1.135.03-1.468.261zm4.198-.162c-.002-.034-.046-.022-.053-.05.439-.342.764-.413 1.361-.383.27.195.508.423.788.606-.645-.057-1.457-.458-2.096-.173zm3.853-1.169c-.018.385-.12 1.175-.357 1.313-.498.291-1.385-.587-1.76-.721.04-.118.108-.211.113-.361.222.054.493.017.685-.078-.222-.025-.47-.023-.616-.13-.054-.155.013-.368-.023-.584.528-.15 1.132-.229 1.8-.248.13.169.174.49.158.81zm-8.625.996c-.107.077-.83 1.019-.93.98-1.31-.517-2.535-1.41-3.629-2.255 1.044-2.24 1.465-4.983 1.54-7.627 1.195-.56 2.245-1.365 3.867-1.45-.188 1.329-.36 2.514-.466 3.764-.407.172-.992-.008-1.374.053-.003.46.583.202.632.51.037.235-.322.252-.206.62.299-.108.455-.347.773-.437.29.635-.004 1.76.038 2.292.008.1.05.552.273.473.198-.07-.01-1.205.01-1.708.02-.463-.055-.911.132-1.202 1.568.213 3.16.351 4.857.398-.373.16-.816.311-1.302.585-.264.149-1.094.458-1.17.708-.122.399.318.611.393.953-.791-.432-.946.414-1.133 1.012-.17.543-.266.948-.307 1.26-.682.326-1.41.655-1.998 1.071zm7.933.866c1.091.529 1.288-1.978.86-2.786.066-.24.294-.333.387-.55-.61-1.09-1.286-2.11-1.907-3.187.462.287 1.122.051 1.666.266.199.08.343.534.494.898.414 1.002.848 2.265 1.042 3.222.044.217.163.692.136.886-.048.347-.519.605-.758.82-.442.396-.72.745-1.18 1.115-.187-.275-.587-.46-.74-.684zM2.836 24.94c-.52-.572-.41-1.644-.348-2.407.94.592 2.188-.047 2.176-1.052.449.012.168.56.087.914-.266 1.154.446 2.408.032 3.464-.805-.061-1.467-.39-1.947-.919zm3.721 3.321c-1.177-.333-2.686-1.189-3.17-2.246.375.054.635.243 1.005.266.14.01.322-.058.483-.018.32.08.59.796.831 1.063.235.26.518.372.711.61.125.06.309.056.316.242-.054.058-.111.102-.176.083zm6.13-.313c-1.223.69-3.291 1.208-4.591.56-1.049-.523-2.467-1.389-2.95-2.485.451-1.058-.134-2.028-.171-3.102-.02-.572.269-1.07.291-1.693-.155-.255-.627-.286-.953-.269-.11.55-.303 1.17-.87 1.232-.802.087-1.388-.577-1.425-1.27-.043-.816.627-2.168 1.576-2.074.367.036.457.403.856.4.217-.432-.334-.568-.39-.877-.015-.08.045-.392.08-.538.173-.713.557-1.635.935-2.177.48-.688 1.424-.791 2.439-.859.181.39.849.358 1.284.256-.521.207-1.006.708-1.408 1.15-.461.51-.929 1.055-.953 1.72.873-1.21 1.593-2.267 3.179-2.8 1.2-.402 2.601.185 3.523.832.383.27.611.696.883 1.087 1.017 1.464 1.492 3.553 1.388 5.578-.043.835-.041 1.667-.321 2.229-.293.587-1.284 1.113-1.864.582-.107.57.483.924 1.175.719-.494.637-1.012 1.403-1.714 1.799zm2.276-18.842c.955.475 2.739 1.278 3.338-.002.22-.471.48-1.269.594-1.756.162-.686-.175-2.13-.881-2.36-.624-.204-1.351-.192-2.102-.04-.089.073-.187.201-.256.335-.536.02-1.039-.03-1.462-.25.04-.396-.228-.46-.48-.542-.186-.739.373-1.704.24-2.378-.096-.48-.687-.555-1.121-.645-.015-.267.019-.49.048-.715-.1-.366-.545-.574-.967-.625-1.388-.167-3.496-.242-4.832.238-.373.914-.666 2.026-.977 3.07-1.302-.14-2.356.562-3.349 1.021-.344.16-.82.247-.948.521-.124.265-.073.773-.104 1.253-.079 1.225-.146 2.407-.47 3.661-.145.563-.398 1.06-.575 1.603-.163.502-.449 1.124-.523 1.625-.11.743.59.784 1.037 1.106.691.498 1.234.774 1.983 1.223.222.133.891.47.967.625.152.308-.26.742-.37.983-.173.381-.264.705-.288 1.081-.629.1-1.105.473-1.393.895-.476.698-.806 1.989-.394 2.971.032.077.193.23.217.348.047.234-.088.545-.097.794-.043 1.276.216 2.376 1.076 2.761.349 1.39 1.597 1.852 2.773 2.543.44.258.925.423 1.425.607 1.796.66 4.551.536 6.042-.59.632-.479 1.642-1.488 2.003-2.219.955-1.929.887-5.153.22-7.5-.09-.314-.22-.778-.402-1.156-.127-.264-.52-.793-.473-1.026.05-.242.898-.886 1.08-1.061.328-.317.95-.736 1-1.135.055-.424-.186-1.005-.309-1.415-.408-1.367-.807-2.63-1.27-3.85z" transform="translate(-588.000000, -412.000000) translate(588.000000, 412.000000) translate(9.767442, 15.000000) scale(1, -1) translate(-9.767442, -15.000000)"/>
                <path fill="#F7E4CD" d="M8.592 18.569c.052.069.337.173.735-.019 0 0-.472-.078-.433-.866l-.197.04s-.203.714-.105.845" transform="translate(-588.000000, -412.000000) translate(588.000000, 412.000000) translate(9.767442, 15.000000) scale(1, -1) translate(-9.767442, -15.000000)"/>
                <path fill="#1D1919" d="M12.043 11.8c0-.12-.097-.216-.216-.216-.12 0-.217.097-.217.216 0 .12.097.217.217.217s.216-.097.216-.217M12.26 10.797c0-.12-.097-.217-.217-.217s-.216.097-.216.217c0 .119.097.216.216.216.12 0 .217-.097.217-.216" transform="translate(-588.000000, -412.000000) translate(588.000000, 412.000000) translate(9.767442, 15.000000) scale(1, -1) translate(-9.767442, -15.000000)"/>
            </g>
        </g>
    </g>
</svg>
