<svg xmlns="http://www.w3.org/2000/svg" width="17" height="19" viewBox="0 0 17 19">
    <g fill="none" fill-rule="evenodd">
        <g fill="#0EBAC5" fill-rule="nonzero">
            <g>
                <path d="M5.933 15.197v1.656c0 .35-.392.567-.704.383l-.787-.495-.188-.104-3.467-1.96-.188-.106c-.185-.105-.337-.254-.442-.435-.104-.18-.158-.383-.156-.585L0 9.43v-4.13c0-.219.063-.433.181-.617.117-.185.285-.336.46-.42l3.42-1.933.187-.107.189-.105L7.712.267l.191-.11c.2-.113.425-.166.654-.156.222.01.44.082.594.189l3.408 1.927.19.104 3.464 1.96.189.105c.185.105.336.254.441.435.104.179.158.382.156.585L17 9.06c0 .347-.384.564-.691.39l-1.47-.831c-.143-.08-.23-.23-.23-.39V5.973l-2.995-1.694c-.026-.012-.084-.045-.246-.137L8.5 2.518 5.516 4.204l-.046.03-.211.12-2.867 1.619v6.911l2.996 1.695c.019.009.06.032.25.14l.063.053.05.067c.114.085.182.217.182.358zm8.675-4.255c0-.346.384-.563.69-.39l1.471.828c.143.08.231.23.231.39v1.373c0 .117-.047.23-.131.314l-.693.692c-.26.325-.642.454-.983.262L9.73 11.313l-.001 5.846c.019.22-.074.434-.25.573l-1.008.796c-.125.114-.289.177-.46.177-.374 0-.677-.297-.677-.662V9.958l-.92-.52-.466.261c-.022.015-.014.01-.484.276-.331.19-.748.09-.939-.232l-.26-.439-.256-.433c-.193-.325-.09-.733.239-.919l.452-.253 1.121-.632.202-.111c.216-.15.501-.164.733-.033l.255.145 7.598 4.295v-.42z" transform="translate(-590.000000, -234.000000) translate(590.000000, 234.000000)"/>
            </g>
        </g>
    </g>
</svg>
