<svg xmlns="http://www.w3.org/2000/svg" width="50" height="50" viewBox="0 0 50 50">
    <defs>
        <linearGradient id="hp1qoafbua" x1="49.956%" x2="49.956%" y1="-49.964%" y2="111.104%">
            <stop offset="0%" stop-color="#D1D8FE"/>
            <stop offset="100%" stop-color="#585968"/>
        </linearGradient>
        <linearGradient id="v335yda37b" x1="49.956%" x2="49.956%" y1="-49.964%" y2="111.104%">
            <stop offset="0%" stop-color="#D1D8FE"/>
            <stop offset="100%" stop-color="#585968"/>
        </linearGradient>
    </defs>
    <g fill="none" fill-rule="evenodd">
        <g>
            <g transform="translate(-214.000000, -514.000000) translate(214.000000, 514.000000)">
                <rect width="50" height="50" fill="#E7E8F0" rx="25"/>
                <g fill-rule="nonzero" transform="translate(12.000000, 12.000000)">
                    <ellipse cx="13.5" cy="13.497" fill="#535463" rx="7.073" ry="7.081"/>
                    <path fill="#FFF" d="M14.355 14.987v-.67l2.119-1.385v-1.978L15.1 9.58h-3.179l-1.47 1.46 1.146 1.156 1.06-1.049h1.718l.422.422v.681l-2.12 1.384v1.352h1.677zm-.368 2.432l.454-.454v-.919l-.508-.454h-.876l-.454.454v.92l.454.453h.93z"/>
                    <path fill="url(#hp1qoafbua)" d="M9.959.474c4.904-1.335 10.142.2 13.553 3.973.533.564.676 1.394.363 2.105-.313.71-1.021 1.165-1.797 1.152-.533-.01-1.038-.241-1.395-.637-2.814-3.21-7.407-4.179-11.275-2.377-2.846 1.326-4.799 3.918-5.376 6.876h2.17c.257-.036.504.11.598.353.093.242.008.517-.206.664l-4.308 3.772-.984.882c-.112.098-.258.142-.402.124l-.086-.017c-.17-.052-.302-.187-.348-.358-.55-2.03-.614-4.16-.187-6.218C1.313 5.786 5.054 1.808 9.96.474z"/>
                    <path fill="url(#v335yda37b)" d="M25.698 9.757c.134-.117.318-.157.488-.106.17.05.301.186.348.357.55 2.03.614 4.16.187 6.218-1.033 4.985-4.775 8.966-9.682 10.3-4.907 1.335-10.147-.203-13.558-3.979-.533-.564-.676-1.394-.363-2.105.313-.71 1.021-1.164 1.797-1.152.536.009 1.044.24 1.402.638 2.814 3.21 7.407 4.178 11.275 2.376 2.846-1.326 4.798-3.917 5.376-6.875h-2.176c-.253.029-.494-.116-.587-.354-.092-.238-.012-.508.195-.657l4.263-3.736z"/>
                </g>
            </g>
        </g>
    </g>
</svg>
