<svg xmlns="http://www.w3.org/2000/svg" width="12" height="12" viewBox="0 0 12 12">
    <g fill="none" fill-rule="evenodd">
        <g fill="#000">
            <path d="M274.8 459c0-.331.269-.6.6-.6h3c.663 0 1.2.537 1.2 1.2v3c0 .331-.269.6-.6.6-.331 0-.6-.269-.6-.6v-1.427c0-.267-.323-.401-.512-.212l-1.815 1.815c-.234.234-.614.234-.849 0-.234-.235-.234-.615 0-.849l1.815-1.815c.19-.189.055-.512-.212-.512H275.4c-.331 0-.6-.269-.6-.6zm-3.6-1.2c0-.331.269-.6.6-.6h8.4c.331 0 .6.269.6.6v8.4c0 .331-.269.6-.6.6h-4.8c-.331 0-.6-.269-.6-.6v-1.8c0-.663-.537-1.2-1.2-1.2h-1.8c-.331 0-.6-.269-.6-.6v-4.8zm10.8-.6c0-.663-.537-1.2-1.2-1.2h-9.6c-.663 0-1.2.537-1.2 1.2v9.6c0 .663.537 1.2 1.2 1.2h9.6c.663 0 1.2-.537 1.2-1.2v-9.6z" transform="translate(-270 -456)"/>
        </g>
    </g>
</svg>
