<svg xmlns="http://www.w3.org/2000/svg" xmlns:xlink="http://www.w3.org/1999/xlink" width="12" height="12" viewBox="0 0 12 12">
    <defs>
        <path id="0owzc5na0a" d="M1.167 4.667c0-1.93 1.57-3.5 3.5-3.5s3.5 1.57 3.5 3.5-1.57 3.5-3.5 3.5-3.5-1.57-3.5-3.5m9.162 4.837l-1.98-1.98c.614-.79.984-1.78.984-2.857C9.333 2.094 7.24 0 4.667 0 2.094 0 0 2.094 0 4.667s2.094 4.666 4.667 4.666c1.077 0 2.066-.37 2.856-.984l1.981 1.98c.114.114.263.171.413.171.149 0 .298-.057.412-.17.228-.229.228-.598 0-.826"/>
    </defs>
    <g fill="none" fill-rule="evenodd">
        <g>
            <g transform="translate(-124 -223) translate(124.75 223.75)">
                <use fill="#000" xlink:href="#0owzc5na0a"/>
            </g>
        </g>
    </g>
</svg>
