<svg xmlns="http://www.w3.org/2000/svg" width="23" height="22" viewBox="0 0 23 22">
    <g fill="none" fill-rule="evenodd">
        <g fill-rule="nonzero">
            <g>
                <g>
                    <path fill="#0E0F0D" d="M21.771 7.645c-.01-.08-.022-.16-.039-.237-.015-.08-.03-.155-.056-.243l-.06-.096c-.251-.197-.521-.345-.796-.477-.226-.106-.456-.2-.689-.285-.648-1.8-1.763-3.396-3.229-4.508C15.387.649 13.605.04 11.75.04 9.894.041 8.112.65 6.597 1.8 5.13 2.911 4.016 4.507 3.367 6.307c-.231.086-.462.179-.688.285-.275.132-.545.28-.795.477l-.061.096c-.024.088-.04.162-.057.243-.015.078-.027.157-.038.237-.023.157-.038.316-.046.474-.016.319-.007.637.028.954.034.315.092.628.176.939.044.154.094.306.154.458.03.075.061.15.097.226l.056.112c.044.076.052.09.07.118l.082.076.147.071.142.064.077.032c-.643.595-1.342 1.367-1.947 2.322L0 14.697l1.073-.942c.018-.016.917-.794 2.418-1.676l.02.172c-.098.051-.57.299-.71.416-.232.193-.243.492-.18 1.051.031.286.138.842.283 1.352.25.877.433 1.032.593 1.069.073.017.166.025.271.025.288 0 .656-.056.896-.128.281.876.68 1.666 1.167 2.36l-.07.021c-.293-.136-1.316-.61-1.66-.764l-.718-.324.425.664c.03.048.764 1.192 1.363 1.963.56.719 1.327 1.455 2.775 1.455.174 0 .356-.011.544-.032.432-.05.756-.089 1.003-.12 1.52.558 3.195.592 4.785-.01.435-.165.831-.366 1.195-.59.613-.148 1.284-.308 1.615-.4.053-.015.12-.03.189-.047.461-.106 1.233-.285 1.644-1.108.415-.83 1.09-2.102 1.098-2.115l.316-.593-.616.267c-.033.015-.813.355-1.219.568.282-.649.448-1.186.506-1.392.227.055.563.048.81.048.122 0 .248-.021.329-.042.16-.04.285-.148.518-1.053.136-.526.234-1.099.26-1.393.053-.573.036-.88-.198-1.074-.117-.096-.459-.28-.633-.371.098-.042.145-.03.15-.028l.157-.6c.056-.023.114-.047.181-.072.096-.038.191-.076.286-.117l.141-.064c.05-.023.093-.044.147-.071l.082-.076c.018-.027.028-.042.039-.063.052-.093.07-.13.087-.167.036-.075.068-.15.098-.226.059-.152.109-.304.153-.458.084-.31.143-.623.177-.94.035-.316.043-.634.027-.953-.007-.158-.023-.317-.046-.474z" transform="translate(-587.000000, -477.000000) translate(587.000000, 477.000000) translate(0.354839, 0.000000)"/>
                    <g>
                        <path fill="#E1C5A2" d="M10.864 19.547c-.117.018-.233.032-.348.04-.075.005-.153.012-.225.012h-.026c.09-.2.158-.355.21-.473.104.118.238.264.389.421" transform="translate(-587.000000, -477.000000) translate(587.000000, 477.000000) translate(0.354839, 0.000000) translate(1.880925, 0.427483)"/>
                        <path fill="#A89983" d="M10.723 10.602c-.182.147-.374.285-.573.405l-.665.402c-.418.05-.78.154-.8.16-.013.003-.024.008-.035.015-.032.019-.057.05-.069.087l-.677 2.232-3.622.806-1.14-.8-.332-2.687c.648-.12 1.514-.257 2.554-.373-.11.133-.22.273-.322.42l-.62.89.903-.602c.013-.01.587-.388 1.527-.847.936-.07 1.97-.116 3.076-.116.27 0 .535.004.795.008zM5.086 13.63c.257-.139.548-.118 1.003-.117l.151-.001.138-.003c.469-.004.858.04.851-.696-.007-.736-.334-1.33-.802-1.326-.469.004-.923.607-.895 1.343.008.191.036.33.081.429-.408.103-.521.355-.527.371zM17 11.213l-.327 2.285-1.15.806-3.617-.411-.674-2.222c-.016-.05-.054-.088-.104-.102-.022-.007-.47-.135-.944-.176l.086-.005c.075-.006 1.322-.159 2.812-.672 1.65.126 2.997.329 3.917.497zm-2.311 2.115c-.005-.017-.104-.313-.54-.261.05-.11.073-.257.057-.46-.058-.734-.485-1.318-.953-1.301-.47.016-.769.625-.743 1.362.026.735.419.73.887.713.63-.012.975-.205 1.292-.053z" transform="translate(-587.000000, -477.000000) translate(587.000000, 477.000000) translate(0.354839, 0.000000) translate(1.880925, 0.427483)"/>
                        <path fill="#FFF" d="M13.451 12.006c.002.133-.102.241-.235.244-.132.002-.241-.103-.243-.235-.003-.132.102-.241.234-.244.133-.003.242.103.244.235M6.738 12.182c.004.132-.1.242-.232.246-.133.003-.243-.1-.247-.233-.003-.132.1-.243.234-.246.131-.003.242.1.245.233" transform="translate(-587.000000, -477.000000) translate(587.000000, 477.000000) translate(0.354839, 0.000000) translate(1.880925, 0.427483)"/>
                        <path fill="#E1C5A2" d="M18.578 12.218c-.057-.046-.245-.154-.43-.254l-.303 2.125c-.006.04-.029.078-.063.102l-.434.304-.026.134c.426.105.84-.202 1.072-.424.108-.419.202-.916.234-1.271.05-.552.006-.67-.05-.716M11.88 20.29c-.281-.1-.54-.263-.764-.485l-.055-.057c-.174.036-.351.062-.532.077-.077.003-.15.01-.229.01h-.163c-.269.4-.72.619-1.075.736 1.052.18 2.21-.096 2.818-.281M2.615 15.087l-.029-.096-.563-.395c-.035-.025-.058-.063-.063-.106l-.275-2.23c-.204.108-.439.242-.501.294-.054.045-.096.16-.037.691.044.4.185 1.014.328 1.474.286.218.706.448 1.14.368M11.038 14.985c-.06-.007-.11-.049-.128-.107l-.696-2.292c-.116-.015-.22-.023-.307-.023-.088 0-.19.008-.307.023l-.676 2.226c-.016.052-.059.092-.112.103l-.323.072c-.028.115-.12.282-.42.374-.484.147-3.545 1.06-3.894 1.01-.204-.028-.592-.242-.879-.415-.115-.27-.178-.454-.193-.498.04.119.44 1.268 1.251 2.393.87-.256 1.622-.495 1.862-.571.49-.755 1.187-1.504 1.682-1.53.086-.004.174-.006.262-.006.243 0 .474.017.69.042-.183-.165-.22-.36-.247-.445 0 0 .632.494 1.437.39.805-.103 1.305-.567 1.305-.567l.016-.142-.323-.037" transform="translate(-587.000000, -477.000000) translate(587.000000, 477.000000) translate(0.354839, 0.000000) translate(1.880925, 0.427483)"/>
                        <path fill="#E1C5A2" d="M11.692 15.275c-.167-.043-.272-.112-.339-.184l-.008.073s-.003.338-.353.6c.674-.204.953-.273 1.144-.273.21 0 .315.088.406.165.017.014.035.03.055.045.52.409 1.143.904 1.325 1.05.211.025.882.101 1.304.14.243.022.463.04.678.04.07 0 .134-.002.196-.006.223-.426.428-.897.61-1.417-.25.175-.818.558-1.084.607-.347.065-3.446-.713-3.934-.84" transform="translate(-587.000000, -477.000000) translate(587.000000, 477.000000) translate(0.354839, 0.000000) translate(1.880925, 0.427483)"/>
                        <path fill="#E0D896" d="M19.49 7.262c-.007-.073-.015-.147-.024-.219-.006-.052-.014-.106-.023-.155-.195-.165-.418-.312-.65-.444-.25-.148-.513-.278-.78-.4-.267-.126-.54-.24-.815-.35-.137-.056-.275-.11-.414-.161-.139-.055-.279-.105-.419-.156.294.049.586.116.875.19.188.048.375.103.56.161C16.48 2.274 13.32.024 9.869.024c-3.45 0-6.61 2.25-7.93 5.704.185-.058.372-.113.56-.16.288-.075.58-.142.874-.191-.14.05-.28.101-.42.156-.138.05-.276.105-.413.16-.275.111-.548.225-.815.35-.267.123-.53.253-.78.4-.232.133-.454.28-.65.445-.008.05-.017.103-.023.155-.009.072-.017.146-.023.22-.013.146-.018.294-.02.442-.002.296.018.592.055.885.04.294.095.586.174.868.04.141.084.28.136.415.026.068.054.134.083.199l.045.094.02.036.065.033.131.062.259.12.013-.013-.244-.929c.052-.014.515-.134 1.313-.286-.064-.012-.129-.025-.193-.041-.181-.045-.36-.1-.535-.17-.086-.037-.17-.077-.252-.123-.08-.046-.16-.099-.222-.169.877.287 2.689.157 4.3-.01 1.472-.151 2.95-.25 4.434-.253 1.483.004 2.961.102 4.433.254 1.611.166 3.423.296 4.3.01-.061.07-.141.122-.221.168-.082.046-.167.086-.253.122-.174.07-.353.126-.535.171l-.08.018c.875.162 1.384.294 1.438.309l-.233.885c.047-.02.095-.041.14-.063l.132-.062.067-.033.017-.036c.016-.03.032-.062.046-.094.03-.065.058-.131.083-.199.052-.135.097-.274.136-.415.08-.282.134-.574.174-.868.038-.293.058-.589.055-.885-.001-.148-.006-.296-.02-.443" transform="translate(-587.000000, -477.000000) translate(587.000000, 477.000000) translate(0.354839, 0.000000) translate(1.880925, 0.427483)"/>
                        <path fill="#D7C184" d="M13.499 5.544c.013.395.004 1.112-.18 1.783-.008.026-.007.052 0 .077-.235-.025-.47-.046-.704-.065.263-.551.32-1.138.333-1.345.202-.144.403-.316.55-.45M6.79 5.994c.012.207.07.792.332 1.344-.234.019-.469.04-.703.065.007-.024.007-.05 0-.076-.184-.67-.193-1.387-.18-1.783.147.134.348.306.55.45M16.379 7.952l-.005.02c.026.007.051.014.077.023.217.07.434.145.64.24-.345-.224-.565-.873-.687-1.369.034.65-.022 1.061-.025 1.086M5.95 5.419l-2.239.637c-.134.87-.093 1.536-.072 1.766l.012-.007s.073-.948.221-1.312c.077-.187.546-.306.903-.392.358-.085.929-.255 1.04.248.068.31.162.568.252.759-.143-.69-.134-1.366-.117-1.699M13.787 5.419c.018.346.027 1.061-.135 1.78.101-.195.214-.483.293-.84.11-.503.682-.333 1.04-.248.358.086.826.205.902.392.126.308.198 1.034.216 1.25.022-.277.045-.902-.077-1.697l-2.239-.637M6.772 5.613c.08.063.163.126.243.18.04.027.064.072.064.12 0 .007.018.744.344 1.372.004.01.008.02.01.03.812-.055 1.625-.078 2.436-.078.811 0 1.624.024 2.434.08.003-.01.006-.021.012-.032.326-.628.343-1.365.343-1.373 0-.047.025-.092.065-.119.078-.053.157-.112.234-.174l.01-.029c.17-1.65-.141-3.17-.339-3.921-.01.514-.132 4.915-1.224 4.915H8.39c-1.16 0-1.254-4.962-1.254-4.962l-.06.176c-.197.791-.469 2.245-.304 3.815M3.363 7.97c0-.005-.003-.012-.004-.018-.004-.025-.06-.437-.026-1.087-.122.497-.342 1.146-.689 1.371.207-.096.425-.17.643-.242l.076-.023" transform="translate(-587.000000, -477.000000) translate(587.000000, 477.000000) translate(0.354839, 0.000000) translate(1.880925, 0.427483)"/>
                        <path fill="#9F8F78" d="M17.322 14.629c-.018.095-.034.171-.064.291.249.058.655.103.85.065.083-.09.19-.404.287-.78-.233.222-.647.529-1.073.424M8.413 20.714c.594.163 1.2.233 1.798.194.6-.041 1.378-.17 2.204-.506-.186-.014-.365-.051-.535-.112-.608.185-1.766.461-2.818.28-.279.093-.497.121-.518.124-.044.005-.08.01-.13.02M2.654 15.22l-.04-.133c-.433.08-.854-.15-1.139-.368.093.295.186.527.256.598.215.037.69-.028.923-.097M3.296 15.956c.287.173.675.387.879.415.349.05 3.41-.863 3.893-1.01.3-.092.393-.26.42-.374l-4.416.984c-.01.002-.022.003-.033.003-.03 0-.061-.01-.087-.027l-.172-.12-.516-.362-.208-.146.011.035.036.103c.015.045.078.228.193.499M16.843 15.107c.029-.104.056-.21.082-.316l-.154.107-.412.29-.447.312c-.023.016-.05.026-.077.028h-.027l-4.447-.506-.008.069c.067.072.172.14.339.184.488.126 3.587.905 3.934.84.266-.05.835-.432 1.084-.607l.006-.018.057-.168c.024-.07.047-.142.07-.215" transform="translate(-587.000000, -477.000000) translate(587.000000, 477.000000) translate(0.354839, 0.000000) translate(1.880925, 0.427483)"/>
                        <path fill="#6E6A67" d="M12.138 9.116l-.115.146c-.21.267-.503.608-.85.942-.404-.013-.818-.02-1.245-.02-.705 0-1.38.019-2.023.05.908-.377 1.997-.744 3.177-.965.345-.065.697-.117 1.056-.153M6.83 9.522c-.324.227-.69.517-1.044.87-.908.09-1.7.2-2.354.306 1.005-.461 2.151-.887 3.398-1.176M17.924 11.396l-.37 2.584-1.77 1.24-4.614-.525-.694-2.288c-.016-.055-.063-.096-.12-.106-.172-.028-.323-.041-.449-.041-.127 0-.278.013-.45.041-.056.01-.103.05-.12.106L8.66 14.64l-4.589 1.02-1.818-1.273-.359-2.9.238-.131c.113-.024.24-.05.38-.077l.337 2.736c.005.043.029.08.064.105l1.251.877c.025.017.056.027.086.027.012 0 .022-.001.034-.004l3.772-.839c.013-.003.026-.008.038-.014.035-.019.063-.05.074-.09l.68-2.237c.182-.046.649-.156 1.059-.156.41 0 .876.11 1.059.156l.679 2.237c.017.058.068.1.128.107l3.773.429c.036.004.073-.006.103-.027l1.252-.875c.034-.025.057-.062.063-.104l.334-2.337c.25.048.46.092.626.127M18.39 9.776l-.326 1.232c-.664-.147-2.122-.434-4.108-.628.648-.276 1.309-.623 1.913-1.057 1.181.167 2.049.346 2.52.453M1.468 9.776l.09.34c.253-.2.485-.367.68-.5-.318.06-.578.116-.77.16" transform="translate(-587.000000, -477.000000) translate(587.000000, 477.000000) translate(0.354839, 0.000000) translate(1.880925, 0.427483)"/>
                        <path fill="#93232C" d="M14.208 9.089c-.497-.029-.994-.052-1.492-.073-.028.043-.087.128-.171.243-.267.36-.792 1.018-1.466 1.582.507-.16 2.518-.835 3.536-1.727-.136-.01-.271-.018-.407-.025M10.564 8.957h.003c-.253-.003-.505-.006-.757-.007-.371 0-.741.006-1.112.012l-.684.324-.01.006c-.103.05-1.001.503-1.847 1.311l.234-.12c.462-.31 1.695-1.046 3.612-1.531.187 0 .375.002.561.005M6.361 9.04c-.316.015-.633.03-.95.049-.366.02-.732.045-1.098.072-.182.014-.364.03-.545.049-.053.005-.104.01-.155.017-.478.286-2.306 1.433-3.562 2.935l.067-.078C2.442 10.101 4.99 9.33 6.36 9.04M16.88 17.197l-.042.021c-.234.123-.54.183-.934.183-.235 0-.465-.02-.72-.043-.511-.047-1.374-.148-1.383-.15l-.066-.007-.053-.042c-.008-.005-.764-.608-1.375-1.089-.025-.02-.047-.04-.068-.055-.064-.055-.064-.055-.103-.055-.196 0-.766.177-2.014.563l-.077.025-.076-.029c-.008-.002-.827-.306-1.809-.306-.08 0-.16.002-.238.006-.099.005-.65.267-1.356 1.383l-.045.072-.082.026c-.011.004-1.226.396-2.514.764l-.083.024-.08-.037c-.008-.003-.511-.237-.99-.456l.105.049c.474.408 1.38 1.194 1.48 1.303l.057.056-.068-.08v-.002c.208.198.441.37.696.49.127.06.26.106.395.128.069.011.135.017.204.017.07 0 .142-.002.213-.006.283-.014.57-.036.854-.064.285-.025.57-.054.854-.088.284-.03.569-.067.85-.11.141-.02.281-.044.418-.075.068-.015.138-.033.191-.057.049-.023.108-.07.16-.114.105-.092.208-.193.31-.294.1-.1.2-.204.299-.31.167-.174.31-.36.471-.54l.063-.069.002.003c.034.024.068.049.1.074.195.145.396.302.59.438.249.175.501.35.763.497.065.036.132.07.197.091l.022.006c.004.003.022.005.024.005l.046.004c.035 0 .071 0 .108-.002.147-.01.297-.032.447-.056.298-.046.598-.1.896-.16.298-.057.597-.118.893-.184.298-.063.594-.133.888-.207.147-.04.293-.075.424-.138.133-.062.257-.147.37-.245.23-.196.424-.439.585-.703.098-.182.163-.346.2-.455M11.306 3.148L11.832 3.148 11.832 2.08 7.988 2.08 7.988 3.148 8.514 3.148 8.514 2.605 9.601 2.605 9.601 5.903 9.153 5.903 9.153 6.516 10.667 6.516 10.667 5.903 10.219 5.903 10.219 2.605 11.306 2.605 11.306 3.148" transform="translate(-587.000000, -477.000000) translate(587.000000, 477.000000) translate(0.354839, 0.000000) translate(1.880925, 0.427483)"/>
                        <path fill="#731B2A" d="M15.284 9.161l-.004-.001-.653-.046h-.012c-1.019.892-3.029 1.567-3.536 1.727l-.03.025c.653-.117 1.628-.35 2.64-.798.497-.22 1.003-.492 1.485-.829.037-.025.073-.052.11-.078M10.003 8.952c-1.917.485-3.15 1.22-3.612 1.53.37-.188.81-.396 1.303-.603l.008-.003.152-.063.05-.02.135-.054.075-.03.123-.047.093-.035.114-.043.108-.039c.036-.013.07-.026.107-.038l.123-.043.098-.034.146-.049.08-.026c.077-.025.155-.05.233-.073.17-.053.344-.103.52-.15.23-.063.466-.122.705-.175-.186-.003-.374-.004-.56-.005M6.361 9.04c-1.37.289-3.919 1.061-6.243 3.044l-.067.078c1.182-.822 3.214-2.043 5.725-2.786l.245-.07c.416-.117.846-.22 1.286-.305-.315.011-.63.024-.946.039M17.332 16.978l-.024.01-.048.023-.039.018-.03.015-.048.023-.02.01-.054.025-.012.006-.056.028-.006.002-.116.059c-.037.109-.102.273-.2.455l-.001.001v-.001.002c-.16.263-.354.505-.583.7-.114.098-.238.184-.371.246-.131.062-.278.099-.424.138-.294.074-.59.144-.888.207-.297.066-.595.127-.893.184-.298.06-.598.114-.897.16-.15.023-.299.045-.446.055l-.108.003-.047-.004-.024-.005-.021-.006c-.065-.021-.132-.055-.197-.092-.262-.146-.515-.321-.764-.497-.193-.135-.394-.292-.589-.437l-.017.024.002.001.036.032-.027-.02.163.194.019.023c.083.097.43.5.844.91.314.312.693.47 1.128.47.149 0 .305-.02.463-.058l.467-.113c.482-.114 1.017-.242 1.371-.334l.069-.019.136-.036c.064-.018.135-.035.21-.052.43-.1 1.018-.236 1.33-.86.086-.173.183-.363.283-.558.138-.27.283-.547.411-.792l.06-.115.031-.06-.073.035M10.289 18.325l-.028-.027c-.162.18-.305.366-.471.54-.1.106-.198.21-.3.31-.101.1-.204.202-.31.293-.051.045-.11.092-.159.115-.053.024-.123.041-.19.057-.137.03-.278.054-.419.075-.281.043-.566.08-.85.11-.284.034-.57.063-.854.088-.285.028-.57.05-.854.064-.071.003-.143.006-.213.006s-.135-.006-.204-.017c-.135-.023-.268-.069-.395-.129-.255-.12-.488-.291-.697-.489h.001c.028.035.06.068.089.101l-.02-.02c-.024-.02-.043-.04-.057-.056-.101-.109-1.007-.894-1.48-1.303l-.107-.049c.084.125.176.26.271.396.139.2.285.405.428.598.064.087.128.172.19.252.515.662 1.162 1.274 2.405 1.274.156 0 .321-.01.491-.03.04-.003.078-.008.116-.012l.107-.013c1.08-.124 1.377-.177 1.542-.205l.118-.02.047-.007c.006 0 .372-.047.729-.22.246-.12.488-.3.607-.566.299-.669.36-.829.362-.835l.105-.281" transform="translate(-587.000000, -477.000000) translate(587.000000, 477.000000) translate(0.354839, 0.000000) translate(1.880925, 0.427483)"/>
                        <path fill="#0E0F0D" d="M13.216 12.25c.132-.003.237-.111.235-.244-.002-.132-.111-.238-.244-.235-.132.003-.237.112-.234.244.002.132.111.238.243.235zm1.473 1.078c-.317-.152-.662.041-1.292.053-.468.017-.861.022-.887-.713-.026-.737.274-1.346.743-1.362.468-.017.895.567.953 1.301.016.203-.007.35-.057.46.436-.052.535.244.54.261zM6.506 12.428c.131-.004.236-.114.232-.246-.003-.132-.114-.236-.245-.233-.133.003-.237.114-.234.246.004.132.114.236.247.233zm.723.385c.007.736-.382.692-.851.696-.048.002-.093.002-.138.002-.052.002-.103.002-.151.001-.455 0-.746-.021-1.003.118.006-.016.119-.268.527-.371-.045-.1-.073-.238-.08-.43-.029-.735.425-1.338.894-1.342.468-.005.795.59.802 1.326zM16.104 7.753c-.005.065-.01.111-.013.136-.185-.05-.372-.096-.56-.14-.619-.136-1.245-.237-1.875-.309l-.066-.007c.004-.01.008-.018.01-.028.02-.068.036-.137.052-.206.162-.718.153-1.434.135-1.78l2.24.637c.121.795.098 1.42.077 1.697zm-2.786-.426c-.007.026-.006.052 0 .077-.234-.025-.469-.046-.703-.065.263-.551.32-1.138.333-1.345.202-.144.403-.316.55-.45.014.395.005 1.112-.18 1.783zm-6.899.076c.007-.024.007-.05 0-.076-.184-.67-.193-1.387-.18-1.783.147.134.348.306.55.45.013.207.07.792.333 1.344-.234.018-.469.04-.703.065zm-.338.037c-.314.038-.629.078-.941.13-.313.053-.625.11-.934.178-.188.044-.374.09-.56.14l-.006-.066c-.022-.23-.063-.896.071-1.766l2.239-.637c-.017.333-.026 1.008.118 1.699.02.096.042.192.069.287.002.01.006.019.01.027l-.066.008zm11.223.904l-.056-.028-.094-.045-.003-.002-.06-.033c-.206-.096-.423-.17-.64-.241l-.077-.024.005-.02c.003-.024.059-.436.025-1.085-.014-.277-.045-.597-.103-.95-.009-.056-.05-.101-.104-.117l-.32-.09c-.068-2.47-1.085-3.63-1.117-3.666.909 1.462.9 3.196.885 3.6l-1.979-.563h-.004c-.008-.003-.017-.004-.026-.004h-.007c-.01-.001-.022 0-.032.002l-.006.001c-.008.002-.017.005-.025.01-.003 0-.006.003-.01.003l-.019.013-.004.004-.004.003-.006.005c-.002.002-.055.054-.138.132.006-.185.007-.468-.014-.814l-.006-.1c-.062-.868-.268-2.089-.881-3.157.005.015.066.192.144.49.198.752.509 2.272.34 3.922l-.003.023-.008.006c-.077.061-.156.121-.235.174-.039.027-.063.072-.064.12 0 .007-.017.744-.343 1.372-.006.01-.009.021-.012.032-.81-.056-1.623-.08-2.434-.08-.811 0-1.624.023-2.435.078l-.011-.03c-.326-.628-.343-1.365-.344-1.373 0-.047-.025-.092-.064-.119-.08-.055-.164-.117-.243-.18-.165-1.57.107-3.024.305-3.815.093-.376.17-.603.177-.62-.89 1.55-.921 3.42-.902 4.071-.084-.078-.136-.13-.138-.132l-.006-.005-.003-.003-.005-.004-.02-.012c-.003-.002-.005-.004-.01-.005-.008-.004-.015-.007-.023-.008l-.006-.002c-.011-.002-.022-.004-.033-.003H6.1l-.024.004-.005.001-1.978.563c-.016-.405-.025-2.138.884-3.6-.032.036-1.049 1.196-1.118 3.666l-.317.09c-.056.016-.097.061-.106.118-.058.351-.088.671-.103.948-.033.65.022 1.062.026 1.087l.004.019-.076.023c-.218.071-.436.146-.643.242-.019.012-.039.024-.058.033l-.004.002-.093.046-.049.023-.031.018c.147-.058.299-.1.45-.137.153-.038.306-.072.46-.101.307-.057.616-.107.927-.145.31-.04.62-.074.932-.1.312-.027.623-.053.936-.071 1.249-.074 2.501-.097 3.755-.098 1.253.001 2.505.02 3.755.097.312.019.623.045.936.071.312.027.622.06.932.101.31.038.62.087.927.145.154.03.307.062.458.1.153.038.304.08.451.138l-.024-.014z" transform="translate(-587.000000, -477.000000) translate(587.000000, 477.000000) translate(0.354839, 0.000000) translate(1.880925, 0.427483)"/>
                        <path fill="#0E0F0D" d="M10.219 2.605v3.298h.448v.613H9.153v-.613h.448V2.605H8.514v.543h-.526V2.08h3.844v1.068h-.526v-.543H10.22zm2.009.938V1.685H7.593v1.858H8.91V3h.296v2.508H8.76V6.91h2.303V5.508h-.448V3h.297v.543h1.317z" transform="translate(-587.000000, -477.000000) translate(587.000000, 477.000000) translate(0.354839, 0.000000) translate(1.880925, 0.427483)"/>
                    </g>
                </g>
            </g>
        </g>
    </g>
</svg>
