<svg width="12" height="12" viewBox="0 0 12 12" fill="none" xmlns="http://www.w3.org/2000/svg">
<path d="M11.5925 4.66859H10.6647C10.563 4.27746 10.3977 3.92416 10.2071 3.58345L10.8681 2.9273C11.0333 2.76324 11.0333 2.51091 10.8681 2.35952L9.60971 1.11033C9.44445 0.946268 9.19026 0.946268 9.03776 1.11033L8.37679 1.76648C8.03358 1.57725 7.66502 1.42577 7.28368 1.32481V0.403817C7.28368 0.17674 7.10574 0 6.8769 0H5.11023C4.88149 0 4.70345 0.176646 4.70345 0.403817V1.3249C4.30944 1.42585 3.94077 1.58992 3.61034 1.77914L2.94946 1.13559C2.7842 0.971526 2.53002 0.971526 2.37751 1.13559L1.11915 2.38478C0.953883 2.53616 0.953883 2.80117 1.11915 2.95256L1.78012 3.60871C1.5895 3.94941 1.43691 4.31529 1.32254 4.69384H0.40738C0.191313 4.69384 0.000598111 4.88308 0.000598111 5.09766V6.86412C-0.0120804 7.06602 0.178541 7.25525 0.40738 7.25525H1.33523C1.43692 7.63381 1.60219 7.99968 1.7928 8.34039L1.13183 8.99654C0.966571 9.14792 0.966571 9.41293 1.13183 9.56432L2.3902 10.8135C2.55546 10.9776 2.80965 10.9776 2.96215 10.8135L3.62312 10.1574C3.85186 10.2836 4.0807 10.3844 4.33489 10.4728V8.32779C3.58499 7.81043 3.10197 6.93978 3.10197 5.95563C3.10197 4.3658 4.41115 3.06614 6.01268 3.06614C7.6142 3.06614 8.92339 4.36578 8.92339 5.95563C8.92339 6.92723 8.44036 7.79788 7.69047 8.32779V10.4855C7.94465 10.3971 8.18618 10.2836 8.41501 10.1574L9.05054 10.7882C9.2158 10.9523 9.46999 10.9523 9.62249 10.7882L10.8809 9.53906C11.0461 9.375 11.0461 9.12267 10.8809 8.97128L10.2326 8.31513C10.4233 7.97442 10.5758 7.60855 10.6776 7.22999H11.5926C11.8214 7.22999 11.9994 7.05334 11.9994 6.82617V5.05972C12.0121 4.84523 11.8215 4.66859 11.5926 4.66859H11.5925Z" fill="black"/>
<path d="M7.6896 5.94304C7.6896 5.36257 7.39728 4.8453 6.95239 4.54245C6.83802 4.46676 6.67276 4.55504 6.67276 4.69384V5.53924C6.67276 5.90512 6.36768 6.20799 5.9991 6.20799C5.63051 6.20799 5.32544 5.90514 5.32544 5.53924V4.70643C5.32544 4.56763 5.16017 4.47936 5.04581 4.55505C4.60089 4.87049 4.30859 5.37517 4.30859 5.95564C4.30859 6.62439 4.7026 7.19217 5.26189 7.46977V11.2678C5.26189 11.6716 5.59234 11.9996 5.9991 11.9996C6.40586 11.9996 6.73631 11.6716 6.73631 11.2678V7.45715C7.2956 7.17956 7.6896 6.61175 7.6896 5.94302V5.94304Z" fill="black"/>
</svg>
