<svg width="20" height="20" viewBox="0 0 20 20" fill="none" xmlns="http://www.w3.org/2000/svg">
<path d="M1.15739 18.5C5.02224 18.5 10.8195 18.5 18.5492 18.5C18.7969 18.5 19 18.3 19 18.0561C19 17.8122 18.7969 17.6122 18.5492 17.6122H16.2854C16.0972 16.3292 14.9727 15.339 13.6204 15.339C13.3727 15.339 13.1696 15.539 13.1696 15.7829C13.1696 16.0268 13.3727 16.2268 13.6204 16.2268C14.4774 16.2268 15.1956 16.8219 15.374 17.6122H13.3232C13.1498 16.2512 12.0501 15.1683 10.668 14.9927V11.9146C10.668 11.6707 10.4649 11.4707 10.2173 11.4707C9.96957 11.4707 9.76647 11.6707 9.76647 11.9146V15.0122C8.43891 15.2317 7.39865 16.2902 7.22527 17.6122H5.16457C5.3429 16.8219 6.06118 16.2268 6.91815 16.2268C7.16583 16.2268 7.36893 16.0268 7.36893 15.7829C7.36893 15.539 7.16583 15.339 6.91815 15.339C5.56581 15.339 4.44135 16.3292 4.25311 17.6122C2.87723 17.6122 1.84533 17.6122 1.15739 17.6122C0.911264 17.6122 0.987219 18.5 1.15739 18.5ZM10.2817 15.8463C11.3467 15.8463 12.2383 16.6073 12.4216 17.6073H8.14664C8.32497 16.6073 9.21167 15.8463 10.2817 15.8463Z" fill="#7B74F5"/>
<path d="M6.30859 12.6073C6.30859 12.8512 6.51169 13.0512 6.75937 13.0512H7.68074V14.0756C7.68074 14.3195 7.88384 14.5195 8.13152 14.5195C8.3792 14.5195 8.5823 14.3195 8.5823 14.0756V13.0512H8.64174C8.88942 13.0512 9.09252 12.8512 9.09252 12.6073C9.09252 12.3634 8.88942 12.1634 8.64174 12.1634H7.2052V11.6707C7.2052 11.5049 7.25473 11.3439 7.3538 11.2073L8.1662 10.061C8.35939 9.78781 8.46341 9.46585 8.46341 9.12927V5.29024C8.46341 4.92927 8.59716 4.57805 8.83493 4.30488L10.2962 2.62195L11.7625 4.3C12.0052 4.57805 12.139 4.92927 12.139 5.29024V9.15366C12.139 9.46098 12.2282 9.76342 12.3966 10.0268L13.1545 11.2024C13.2387 11.3341 13.2833 11.4805 13.2833 11.6366V12.1585H11.921C11.6734 12.1585 11.4703 12.3585 11.4703 12.6024C11.4703 12.8317 11.6436 13.0122 11.8665 13.0415V14.0707C11.8665 14.3146 12.0696 14.5146 12.3173 14.5146C12.565 14.5146 12.7681 14.3146 12.7681 14.0707V13.0463H13.7291C13.9768 13.0463 14.1799 12.8463 14.1799 12.6024V11.6366C14.1799 11.3146 14.0858 11.0024 13.9124 10.7293L13.1545 9.55366C13.0752 9.43171 13.0356 9.29512 13.0356 9.15366V5.29512C13.0356 4.71951 12.8226 4.16341 12.4412 3.72439L10.6281 1.65122C10.5439 1.55366 10.4201 1.5 10.2863 1.5C10.1575 1.5 10.0288 1.55854 9.94454 1.6561L8.14638 3.72927C7.76991 4.16341 7.56186 4.71951 7.56186 5.29024V9.13415C7.56186 9.28537 7.51727 9.43659 7.42811 9.55854L6.61572 10.7049C6.41262 10.9927 6.30859 11.3244 6.30859 11.6756V12.6073Z" fill="#7B74F5"/>
</svg>
