<svg xmlns="http://www.w3.org/2000/svg" width="10" height="12" viewBox="0 0 10 12">
    <g fill="none" fill-rule="evenodd">
        <g fill="#FF6565" fill-rule="nonzero">
            <path d="M1208.156 411.727c.302 0 .547.245.547.547V420c0 .552-.448 1-1 1h-5.656c-.552 0-1-.448-1-1v-7.726c0-.302.245-.547.547-.547.302 0 .547.245.547.547v7.385c0 .138.112.25.25.25h4.968c.138 0 .25-.112.25-.25v-7.385c0-.302.245-.547.547-.547zm-2.324-2.227c.09 0 .177.024.254.07l.765.451c.077.046.165.07.254.07h1.6c.3 0 .545.244.545.545 0 .302-.244.546-.545.546h-7.66c-.3 0-.545-.244-.545-.546 0-.3.244-.545.545-.545h1.6c.09 0 .177-.024.254-.07l.765-.451c.077-.046.164-.07.254-.07z" transform="translate(-1200 -409)"/>
        </g>
    </g>
</svg>
