<?xml version="1.0" encoding="UTF-8"?>
<svg width="193px" height="165px" viewBox="0 0 193 165" version="1.1" xmlns="http://www.w3.org/2000/svg" xmlns:xlink="http://www.w3.org/1999/xlink">
    <title>Group 72</title>
    <g id="Page-1" stroke="none" stroke-width="1" fill="none" fill-rule="evenodd" opacity="0.497297">
        <g id="5.2---TAS---Build-Detail-Page-No-Test-Ran" transform="translate(-616.000000, -898.000000)">
            <g id="Group-72" transform="translate(617.000000, 899.000000)">
                <polygon id="Fill-1" fill="#FFFFFF" points="85.2002 145.5 95.2002 152.5 104.2002 148.5 104.2002 143.5 100.2002 139.5 100.2002 143.5 96.2002 145.5 96.2002 133.5 89.2002 129.5 91.2002 137.5"></polygon>
                <polygon id="Fill-2" fill="#FFFFFF" points="16.8002 114.5002 21.7992 120.4992 21.7992 157.5002 25.8002 162.5002 34.8002 162.5002 38.8002 157.5002 38.8002 114.5002"></polygon>
                <polygon id="Fill-3" fill="#FFFFFF" points="48.2003 162.4999 60.2003 162.4999 54.2003 154.4999"></polygon>
                <polygon id="Fill-4" fill="#FFFFFF" points="129.2003 162.4999 141.2003 162.4999 135.2003 154.4999"></polygon>
                <polygon id="Fill-5" fill="#FFFFFF" points="154.2005 120.4996 157.7995 124.5006 157.7995 136.5996 144.9995 162.4996 178.9995 162.4996 166.2005 136.5996 166.2005 124.5006 169.8005 120.4996"></polygon>
                <polygon id="Fill-6" fill="#FFFFFF" points="101.7998 69.2998 101.7998 60.0998 105.9998 55.4998 83.4998 55.4998 87.7998 60.0998 87.7998 69.2998 68.7998 80.2998 68.7998 110.1998 94.7998 124.9998 120.7998 110.1998 120.7998 80.2998"></polygon>
                <polygon id="Fill-7" fill="#E2E5FF" points="87.8999 147.2998 95.1999 152.4998 104.1999 148.4998 104.1999 143.4998 100.1999 139.4998 100.1999 143.4998 96.1999 145.4998 96.1999 133.4998 92.8999 131.5998 94.1999 137.9998"></polygon>
                <polygon id="Fill-8" fill="#E2E5FF" points="135.2006 162.4999 141.1996 162.4999 135.2006 154.4999"></polygon>
                <polygon id="Fill-9" fill="#E2E5FF" points="54.2006 162.4999 60.1996 162.4999 54.2006 154.4999"></polygon>
                <polygon id="Fill-10" fill="#E2E5FF" points="156.7997 150.5002 150.7997 162.5002 178.9997 162.5002 173.0997 150.5002"></polygon>
                <polygon id="Fill-11" fill="#E2E5FF" points="26.8001 138.4996 26.8001 162.4996 34.8001 162.4996 38.8001 157.5006 38.8001 138.4996"></polygon>
                <polygon id="Fill-12" fill="#E2E5FF" points="120.7998 110.2002 120.7998 95.5002 115.5998 91.5002 110.4008 95.5002 105.1998 91.5002 99.9998 95.5002 94.7998 91.5002 89.5998 95.5002 84.2998 91.5002 79.1998 95.5002 73.8998 91.5002 73.7998 91.7002 73.7998 106.8992 99.9998 122.0002"></polygon>
                <polygon id="Fill-13" fill="#E2E5FF" points="127 19.1997 119.3 11.2997 115.8 22.3997"></polygon>
                <polygon id="Stroke-14" stroke="#6772E5" stroke-width="2" stroke-linecap="round" stroke-linejoin="round" points="127 19.1997 119.3 11.2997 115.8 22.3997"></polygon>
                <polygon id="Fill-15" fill="#E2E5FF" points="127.9004 59.0996 130.0994 52.5996 123.0004 53.7996"></polygon>
                <polygon id="Stroke-16" stroke="#6772E5" stroke-width="2" stroke-linecap="round" stroke-linejoin="round" points="127.9004 59.0996 130.0994 52.5996 123.0004 53.7996"></polygon>
                <polygon id="Fill-17" fill="#E2E5FF" points="88.3999 40.2998 88.3999 33.5998 82.0999 36.8998"></polygon>
                <polygon id="Stroke-18" stroke="#6772E5" stroke-width="2" stroke-linecap="round" stroke-linejoin="round" points="88.3999 40.2998 88.3999 33.5998 82.0999 36.8998"></polygon>
                <polyline id="Stroke-19" stroke="#6772E5" stroke-width="2" stroke-linecap="round" stroke-linejoin="round" points="50.5 25.2998 53.2 29.4998 58 28.0998 60.8 32.2998 65.5 30.7998 68.3 34.9998"></polyline>
                <polyline id="Stroke-20" stroke="#6772E5" stroke-width="2" stroke-linecap="round" stroke-linejoin="round" points="132 31.2998 129.3 35.4998 124.5 34.0998 121.8 38.2998 117 36.7998 114.3 40.9998"></polyline>
                <polyline id="Stroke-21" stroke="#6772E5" stroke-width="2" stroke-linecap="round" stroke-linejoin="round" points="101.4004 0 102.4004 4.9 98.0004 7.3 99.0004 12.2 94.6004 14.5 95.6004 19.4"></polyline>
                <polygon id="Fill-23" fill="#E2E5FF" points="68.8999 13.2998 65.2999 12.5998 64.5999 8.9998 66.7999 6.8998 70.2999 7.5998 70.9999 11.1998"></polygon>
                <polygon id="Stroke-24" stroke="#6772E5" stroke-width="2" stroke-linejoin="round" points="68.8999 13.2998 65.2999 12.5998 64.5999 8.9998 66.7999 6.8998 70.2999 7.5998 70.9999 11.1998"></polygon>
                <polygon id="Fill-25" fill="#E2E5FF" points="58.8999 50.0996 55.2999 49.3996 54.5999 45.8996 56.7999 43.7996 60.2999 44.4996 60.9999 47.9996"></polygon>
                <polygon id="Stroke-26" stroke="#6772E5" stroke-width="2" stroke-linejoin="round" points="58.8999 50.0996 55.2999 49.3996 54.5999 45.8996 56.7999 43.7996 60.2999 44.4996 60.9999 47.9996"></polygon>
                <polygon id="Stroke-27" stroke="#6772E5" stroke-width="2" stroke-linejoin="round" points="34.7998 162.5 25.7998 162.5 21.7998 157.5 21.7998 120.5 16.7998 114.5 38.7998 114.5 38.7998 157.5"></polygon>
                <line x1="25.7998" y1="126.5" x2="28.7998" y2="126.5" id="Stroke-29" stroke="#6772E5" stroke-width="2" stroke-linecap="round" stroke-linejoin="round"></line>
                <line x1="25.7998" y1="132.5" x2="28.7998" y2="132.5" id="Stroke-30" stroke="#6772E5" stroke-width="2" stroke-linecap="round" stroke-linejoin="round"></line>
                <line x1="25.7998" y1="144.5" x2="28.7998" y2="144.5" id="Stroke-31" stroke="#6772E5" stroke-width="2" stroke-linecap="round" stroke-linejoin="round"></line>
                <line x1="25.7998" y1="150.5" x2="28.7998" y2="150.5" id="Stroke-32" stroke="#6772E5" stroke-width="2" stroke-linecap="round" stroke-linejoin="round"></line>
                <polygon id="Stroke-33" stroke="#6772E5" stroke-width="2" stroke-linecap="round" stroke-linejoin="round" points="85.2002 145.5 95.2002 152.5 104.2002 148.5 104.2002 143.5 100.2002 139.5 100.2002 143.5 96.2002 145.5 96.2002 133.5 89.2002 129.5 91.2002 137.5"></polygon>
                <polygon id="Fill-34" fill="#FFFFFF" points="87.7994 156.4996 82.7994 162.4996 107.8004 162.4996 102.7994 156.4996"></polygon>
                <polygon id="Stroke-35" stroke="#6772E5" stroke-width="2" stroke-linecap="round" stroke-linejoin="round" points="107.7998 162.5 82.7998 162.5 87.7998 156.5 102.7998 156.5"></polygon>
                <polygon id="Stroke-37" stroke="#6772E5" stroke-width="2" stroke-linejoin="round" points="101.7998 69.2998 101.7998 60.0998 105.9998 55.4998 83.4998 55.4998 87.7998 60.0998 87.7998 69.2998 68.7998 80.2998 68.7998 110.1998 94.7998 124.9998 120.7998 110.1998 120.7998 80.2998"></polygon>
                <polyline id="Stroke-38" stroke="#6772E5" stroke-width="2" stroke-linecap="round" stroke-linejoin="round" points="68.7998 95.5 73.8998 91.5 79.1998 95.5 84.2998 91.5 89.5998 95.5 94.7998 91.5 99.9998 95.5 105.1998 91.5 110.4008 95.5 115.5998 91.5 120.7998 95.5"></polyline>
                <polygon id="Stroke-39" stroke="#6772E5" stroke-width="2" stroke-linecap="round" stroke-linejoin="round" points="48.2002 162.5 54.2002 154.5 60.2002 162.5"></polygon>
                <polyline id="Stroke-41" stroke="#6772E5" stroke-width="2" stroke-linecap="round" stroke-linejoin="round" points="135.2002 154.5 123.8002 104.5 65.8002 104.5 54.2002 154.5"></polyline>
                <polygon id="Stroke-42" stroke="#6772E5" stroke-width="2" stroke-linecap="round" stroke-linejoin="round" points="141.2002 162.5 135.2002 154.5 129.2002 162.5"></polygon>
                <line x1="152.7998" y1="158.5" x2="154.7998" y2="154.5" id="Stroke-44" stroke="#6772E5" stroke-width="2" stroke-linecap="round" stroke-linejoin="round"></line>
                <g id="Group-53" transform="translate(0.000000, 120.500000)" stroke="#6772E5" stroke-linejoin="round" stroke-width="2">
                    <polygon id="Stroke-45" points="179 42 166.2 16.1 166.2 4 169.8 0 154.2 0 157.8 4 157.8 16.1 145 42"></polygon>
                    <line x1="9" y1="42" x2="183" y2="42" id="Stroke-47" stroke-linecap="round"></line>
                    <line x1="188" y1="42" x2="191" y2="42" id="Stroke-49" stroke-linecap="round"></line>
                    <line x1="0" y1="42" x2="3" y2="42" id="Stroke-51" stroke-linecap="round"></line>
                </g>
                <line x1="173.0996" y1="150.5" x2="150.9006" y2="150.5" id="Stroke-54" stroke="#6772E5" stroke-width="2" stroke-linecap="round" stroke-linejoin="round"></line>
                <polygon id="Stroke-55" stroke="#6772E5" stroke-width="2" stroke-linecap="round" stroke-linejoin="round" points="92.1123 76.3926 95.0823 73.4226 98.0513 76.3926 95.0823 79.3626"></polygon>
                <polygon id="Stroke-56" stroke="#6772E5" stroke-width="2" stroke-linecap="round" stroke-linejoin="round" points="76.2437 85.5351 79.2137 82.5651 82.1827 85.5351 79.2137 88.5051"></polygon>
                <g id="Group-71" transform="translate(21.799800, 96.899400)">
                    <path d="M74.9004,16 C74.7994,16 74.7994,16 74.7994,16.101 L72.9004,18 C72.8004,18.101 72.8004,18.2 72.9004,18.301 L74.7994,20.2 L74.9004,20.301 C75.0004,20.301 75.0004,20.301 75.0004,20.2 L76.9004,18.301 C77.0004,18.2 77.0004,18.101 76.9004,18 L75.0004,16.101 C75.0004,16 75.0004,16 74.9004,16" id="Fill-57" fill="#6772E5"></path>
                    <path d="M83.1006,0 C82.9996,0 82.9996,0 82.9996,0.101 L81.1006,2 C80.9996,2.101 80.9996,2.2 81.1006,2.301 L82.9996,4.2 L83.1006,4.301 C83.2006,4.301 83.2006,4.301 83.2006,4.2 L85.1006,2.301 C85.2006,2.2 85.2006,2.101 85.1006,2 L83.2006,0.101 C83.2006,0 83.2006,0 83.1006,0" id="Fill-59" fill="#6772E5"></path>
                    <path d="M63.3003,10.3008 C63.2003,10.3008 63.2003,10.3008 63.2003,10.4008 L61.3003,12.3008 C61.2003,12.4008 61.2003,12.4998 61.3003,12.6008 L63.2003,14.4998 L63.3003,14.6008 C63.3003,14.6008 63.4003,14.6008 63.4003,14.4998 L65.3003,12.6008 C65.4003,12.4998 65.4003,12.4008 65.3003,12.3008 L63.4003,10.4008 C63.4003,10.3008 63.4003,10.3008 63.3003,10.3008" id="Fill-61" fill="#6772E5"></path>
                    <line x1="73.4004" y1="59.6006" x2="73.4004" y2="61.6006" id="Stroke-63" stroke="#6772E5" stroke-width="2" stroke-linecap="round" stroke-linejoin="round"></line>
                    <line x1="69" y1="59.6006" x2="69" y2="61.6006" id="Stroke-65" stroke="#6772E5" stroke-width="2" stroke-linecap="round" stroke-linejoin="round"></line>
                    <line x1="78" y1="59.6006" x2="78" y2="61.6006" id="Stroke-67" stroke="#6772E5" stroke-width="2" stroke-linecap="round" stroke-linejoin="round"></line>
                    <line x1="0" y1="41.6006" x2="17" y2="41.6006" id="Stroke-69" stroke="#6772E5" stroke-width="2" stroke-linecap="round" stroke-linejoin="round"></line>
                </g>
            </g>
        </g>
    </g>
</svg>