<svg xmlns="http://www.w3.org/2000/svg" width="10" height="10" viewBox="0 0 10 10">
    <g fill="none" fill-rule="evenodd">
        <g fill="#6772E5" fill-rule="nonzero">
            <path d="M5 0C2.239 0 0 2.239 0 5s2.239 5 5 5 5-2.239 5-5C9.997 2.24 7.76.003 5 0zm0 9C2.79 9 1 7.21 1 5s1.79-4 4-4 4 1.79 4 4-1.79 4-4 4zm1.66-2.955c.11.11.153.27.112.42-.04.15-.157.267-.307.307-.15.04-.31-.002-.42-.112L4.692 5.308c-.081-.082-.127-.193-.127-.308V2.409c0-.24.195-.435.435-.435s.435.195.435.435v2.41L6.66 6.046z" transform="translate(-85 -85) translate(85 85)"/>
        </g>
    </g>
</svg>
