<svg xmlns="http://www.w3.org/2000/svg" width="14" height="18" viewBox="0 0 14 18">
    <g fill="none" fill-rule="evenodd">
        <g fill="#919191">
            <g>
                <path d="M.539 0h8.23c.168 0 .299.069.413.194l4.58 4.723c.116.11.182.237.181.412v12.132c0 .298-.241.539-.538.539H.539C.24 18 0 17.759 0 17.461V.54C0 .24.241 0 .539 0zm4.017 7.627c.51-.49 1.255.285.745.775l-1.696 1.627L5.3 11.655c.51.49-.234 1.265-.745.775L2.441 10.4c-.206-.214-.2-.554.015-.76l2.1-2.014zm2.49-.137c.183-.685 1.223-.407 1.04.277l-1.287 4.8c-.183.685-1.222.407-1.04-.277l1.287-4.8zm1.596.912c-.51-.49.235-1.265.745-.775l2.101 2.014c.214.206.22.546.015.76L9.387 12.43c-.51.49-1.255-.285-.745-.775l1.697-1.626-1.697-1.627zm.665-6.536v2.915h2.827L9.307 1.866zm3.559 3.993H8.768c-.297 0-.539-.242-.539-.54V1.079H1.078v15.844h11.788V5.86z" transform="translate(-103 -219) translate(103 219)"/>
            </g>
        </g>
    </g>
</svg>
