<?xml version="1.0" encoding="UTF-8"?>
<svg width="15px" height="15px" viewBox="0 0 15 15" version="1.1" xmlns="http://www.w3.org/2000/svg" xmlns:xlink="http://www.w3.org/1999/xlink">
    <title>Dollar</title>
    <g id="Pricing-and-Usage-Info" stroke="none" stroke-width="1" fill="none" fill-rule="evenodd" opacity="0.4">
        <g id="9.3---TAS---Pricing-Plan-Details" transform="translate(-860.000000, -298.000000)" fill="#1D1D35">
            <path d="M873,298 C874.104569,298 875,298.895431 875,300 L875,311 C875,312.104569 874.104569,313 873,313 L862,313 C860.895431,313 860,312.104569 860,311 L860,300 C860,298.895431 860.895431,298 862,298 L873,298 Z M867.691489,300.875 L867.234043,300.875 C867.163121,300.875 867.108156,300.898036 867.069149,300.944109 C867.030142,300.990182 867.010638,301.048659 867.010638,301.11954 L867.010638,301.672414 C867.010638,301.778736 866.964539,301.831897 866.87234,301.831897 C866.609929,301.831897 866.365248,301.879741 866.138298,301.975431 C865.911348,302.071121 865.712766,302.204023 865.542553,302.374138 C865.37234,302.544253 865.239362,302.748036 865.143617,302.985489 C865.047872,303.222941 865,303.483429 865,303.766954 L865,304.117816 C865,304.401341 865.047872,304.66183 865.143617,304.899282 C865.239362,305.136734 865.37234,305.340517 865.542553,305.510632 C865.712766,305.680747 865.916667,305.813649 866.154255,305.909339 C866.391844,306.005029 866.648936,306.052874 866.925532,306.052874 L867.946809,306.052874 C868.173759,306.052874 868.363475,306.127299 868.515957,306.276149 C868.66844,306.425 868.744681,306.616379 868.744681,306.850287 L868.744681,307.222414 C868.744681,307.456322 868.66844,307.647701 868.515957,307.796552 C868.363475,307.945402 868.173759,308.019828 867.946809,308.019828 L866.968085,308.019828 C866.812057,308.019828 866.680851,308.000335 866.574468,307.961351 C866.468085,307.922366 866.361702,307.856801 866.255319,307.764655 L865.93617,307.509483 C865.907801,307.48113 865.87234,307.466954 865.829787,307.466954 C865.808511,307.466954 865.789007,307.470498 865.771277,307.477586 C865.753546,307.484674 865.737589,307.491762 865.723404,307.498851 L865.085106,307.796552 C865.028369,307.824904 865,307.870977 865,307.93477 L865,307.977299 C865,307.984387 865.003546,307.991475 865.010638,307.998563 C865.131206,308.352969 865.347518,308.636494 865.659574,308.849138 C865.971631,309.061782 866.375886,309.168103 866.87234,309.168103 C866.964539,309.168103 867.010638,309.221264 867.010638,309.327586 L867.010638,309.88046 C867.010638,309.951341 867.030142,310.009818 867.069149,310.055891 C867.108156,310.101964 867.163121,310.125 867.234043,310.125 L867.691489,310.125 C867.762411,310.125 867.817376,310.101964 867.856383,310.055891 C867.89539,310.009818 867.914894,309.951341 867.914894,309.88046 L867.914894,309.327586 C867.914894,309.221264 867.960993,309.168103 868.053191,309.168103 C868.336879,309.168103 868.599291,309.120259 868.840426,309.024569 C869.08156,308.928879 869.287234,308.795977 869.457447,308.625862 C869.62766,308.455747 869.760638,308.251964 869.856383,308.014511 C869.952128,307.777059 870,307.516571 870,307.233046 L870,306.733333 C870,306.449808 869.952128,306.18932 869.856383,305.951868 C869.760638,305.714416 869.62766,305.510632 869.457447,305.340517 C869.287234,305.170402 869.083333,305.0375 868.845745,304.94181 C868.608156,304.846121 868.351064,304.798276 868.074468,304.798276 L867.053191,304.798276 C866.826241,304.798276 866.636525,304.723851 866.484043,304.575 C866.33156,304.426149 866.255319,304.23477 866.255319,304.000862 L866.255319,303.777586 C866.255319,303.543678 866.33156,303.352299 866.484043,303.203448 C866.636525,303.054598 866.826241,302.980172 867.053191,302.980172 L867.840426,302.980172 C867.996454,302.980172 868.12766,302.999665 868.234043,303.038649 C868.340426,303.077634 868.446809,303.143199 868.553191,303.235345 L868.87234,303.490517 C868.900709,303.51887 868.93617,303.533046 868.978723,303.533046 C869,303.533046 869.019503,303.529502 869.037234,303.522414 C869.054965,303.515326 869.070922,303.508238 869.085106,303.501149 L869.723404,303.203448 C869.780142,303.175096 869.808511,303.129023 869.808511,303.06523 C869.808511,303.058142 869.806738,303.051054 869.803191,303.043966 C869.799645,303.036877 869.797872,303.029789 869.797872,303.022701 L869.797872,303.001437 C869.677305,302.647031 869.466312,302.363506 869.164894,302.150862 C868.863475,301.938218 868.492908,301.831897 868.053191,301.831897 C867.960993,301.831897 867.914894,301.778736 867.914894,301.672414 L867.914894,301.11954 C867.914894,301.048659 867.89539,300.990182 867.856383,300.944109 C867.817376,300.898036 867.762411,300.875 867.691489,300.875 Z" id="Rectangle-2"></path>
        </g>
    </g>
</svg>