<svg xmlns="http://www.w3.org/2000/svg" width="13" height="14" viewBox="0 0 13 14">
    <g fill="none" fill-rule="evenodd">
        <g fill="#000" fill-rule="nonzero">
            <g>
                <path d="M2.116 1.4v.7c.386 0 .7.314.7.7 0 .386-.314.7-.7.7-.385 0-.7-.314-.7-.7 0-.386.315-.7.7-.7V.7c-1.159 0-2.1.94-2.1 2.1 0 1.16.941 2.1 2.1 2.1 1.16 0 2.1-.94 2.1-2.1 0-1.16-.94-2.1-2.1-2.1v.7zM10.516 9.8v.7c.386 0 .7.314.7.7 0 .386-.314.7-.7.7-.385 0-.7-.314-.7-.7 0-.386.315-.7.7-.7V9.1c-1.159 0-2.1.94-2.1 2.1 0 1.16.941 2.1 2.1 2.1 1.16 0 2.1-.94 2.1-2.1 0-1.16-.94-2.1-2.1-2.1v.7z" transform="translate(-126 -188) translate(126 188)"/>
                <path d="M5.616 3.5h3.5c.386 0 .7.314.7.7v5.6c0 .386.315.7.7.7.386 0 .7-.314.7-.7V4.2c0-1.16-.94-2.1-2.1-2.1h-3.5c-.385 0-.7.314-.7.7 0 .386.315.7.7.7z" transform="translate(-126 -188) translate(126 188)"/>
                <path d="M8.211 4.405L6.606 2.8l1.605-1.605c.274-.274.274-.716 0-.99-.273-.273-.716-.273-.99 0l-2.1 2.1c-.13.131-.205.312-.205.495s.074.364.205.495l2.1 2.1c.274.273.717.273.99 0 .274-.274.274-.716 0-.99zM7.016 10.5h-3.5c-.385 0-.7-.314-.7-.7V4.2c0-.386-.314-.7-.7-.7-.385 0-.7.314-.7.7v5.6c0 1.16.941 2.1 2.1 2.1h3.5c.386 0 .7-.314.7-.7 0-.386-.314-.7-.7-.7z" transform="translate(-126 -188) translate(126 188)"/>
                <path d="M4.421 9.595L6.027 11.2 4.42 12.805c-.273.274-.273.716 0 .99.274.273.717.273.99 0l2.1-2.1c.132-.131.205-.312.205-.495s-.073-.364-.205-.495l-2.1-2.1c-.273-.273-.716-.273-.99 0-.273.274-.273.716 0 .99z" transform="translate(-126 -188) translate(126 188)"/>
            </g>
        </g>
    </g>
</svg>
