<svg xmlns="http://www.w3.org/2000/svg" width="14" height="14" viewBox="0 0 14 14">
    <g fill="none" fill-rule="evenodd">
        <g fill="#37E291" fill-rule="nonzero">
            <path d="M726.993 275c-3.864 0-6.993 3.136-6.993 7s3.129 7 6.993 7c3.871 0 7.007-3.136 7.007-7s-3.136-7-7.007-7zm-5.593 7c0-3.094 2.506-5.6 5.6-5.6s5.6 2.506 5.6 5.6-2.506 5.6-5.6 5.6-5.6-2.506-5.6-5.6zm8.76-2.76l.99.989L726 285l-.99-.99 5.15-4.77zm-7.16 2.75l.99-.99 3.01 3-.99.99-3.01-3z" transform="translate(-720 -275)"/>
        </g>
    </g>
</svg>
