<svg xmlns="http://www.w3.org/2000/svg" width="20" height="20" viewBox="0 0 20 20">
    <g fill="none" fill-rule="evenodd" stroke-linecap="round" stroke-linejoin="round">
        <g stroke="#FFC900" stroke-width="1.5">
            <g>
                <path d="M18.884 8.548c.015.097.03.193.042.29.055.427.08.863.073 1.305-.08 4.97-4.172 8.935-9.142 8.856-3.735-.06-6.902-2.386-8.212-5.647M1.041 10.87c-.031-.332-.045-.67-.04-1.013.08-4.97 4.172-8.935 9.142-8.856 3.571.057 6.624 2.187 8.03 5.225M10.29 5.645L8.258 13.774M12.758 13.774L8.113 13.774M12.144 8.816L7.856 10.603M3.816 12.338L1.626 13.251M18.199 6.29L16.008 7.203" transform="translate(-167.000000, -318.000000) translate(167.000000, 318.000000)"/>
            </g>
        </g>
    </g>
</svg>
