<svg xmlns="http://www.w3.org/2000/svg" width="20" height="22" viewBox="0 0 20 22">
    <g fill="none" fill-rule="evenodd">
        <g fill="#000" fill-rule="nonzero">
            <g>
                <path d="M6.514 16.687v1.818c0 .385-.43.622-.772.42l-.864-.543-.207-.114-3.807-2.153L.658 16c-.204-.114-.37-.279-.486-.477-.114-.197-.173-.42-.171-.642L0 10.353V5.819c0-.241.07-.476.199-.678.128-.203.313-.37.506-.46L4.46 2.558l.205-.118.207-.115L8.468.294l.21-.122c.219-.123.467-.182.718-.17.243.011.484.09.652.206l3.743 2.116.207.115 3.804 2.151.208.116c.203.116.37.28.485.478.113.196.173.42.17.642l.002 4.122c0 .381-.422.62-.76.429l-1.614-.913c-.156-.089-.253-.252-.253-.429V6.558l-3.287-1.86c-.029-.013-.093-.049-.27-.15l-3.15-1.783-3.276 1.851-.05.032-.233.132L2.627 6.56v7.588l3.289 1.86.276.155.068.059.056.073c.124.093.198.238.198.393zm9.526-4.672c0-.38.421-.619.759-.429l1.614.91c.157.088.254.252.254.429v1.506c0 .13-.052.253-.144.346l-.762.759c-.285.357-.704.499-1.078.288l-6-3.402-.002 6.42c.021.24-.08.476-.274.628l-1.106.875c-.138.124-.318.194-.506.194-.41 0-.743-.326-.743-.727v-8.878l-1.01-.572-.512.288c-.024.017-.015.012-.531.303-.364.208-.822.098-1.031-.255l-.285-.481-.282-.477c-.212-.357-.099-.804.262-1.008l.497-.279 1.23-.693.223-.123c.236-.164.55-.18.804-.036l.28.16 8.343 4.716v-.462z" transform="translate(-30 -17) translate(30.667 17.667)"/>
            </g>
        </g>
    </g>
</svg>
