<?xml version="1.0" encoding="UTF-8"?>
<svg width="41px" height="34px" viewBox="0 0 41 34" version="1.1" xmlns="http://www.w3.org/2000/svg" xmlns:xlink="http://www.w3.org/1999/xlink">
    <title>Desktop</title>
    <g id="Pricing-and-Usage-Info" stroke="none" stroke-width="1" fill="none" fill-rule="evenodd">
        <g id="9.3---TAS---Pricing-Plan-Details" transform="translate(-327.000000, -100.000000)" fill="#D9D9D9" fill-rule="nonzero">
            <path d="M329.13913,100 C327.900217,100 327,100.930526 327,102.214474 L327,124.629421 C327,125.911579 327.900217,126.842105 329.13913,126.842105 L352.665109,126.842105 L352.280065,125.052632 L329.13913,125.052632 C329.024152,125.052632 328.782609,125.052632 328.782609,124.627632 L328.782609,102.214474 C328.782609,101.789474 329.024152,101.789474 329.13913,101.789474 L362.295652,101.789474 C362.411522,101.789474 362.652174,101.789474 362.652174,102.214474 L362.652174,104.263421 C362.834,104.427158 363.634391,105.182316 364.434783,106.504737 L364.434783,102.214474 C364.434783,100.930526 363.534565,100 362.295652,100 L329.13913,100 Z M360.887391,105.368421 C360.672803,105.364257 360.463925,105.437964 360.29913,105.576 C360.29913,105.576 357.67513,107.824474 357.34,112.073579 C356.598435,111.322 356.049391,110.910421 356.049391,110.910421 C355.904557,110.803432 355.730872,110.742923 355.551152,110.736842 C355.145253,110.723502 354.781692,110.987289 354.666978,111.378368 C354.666978,111.378368 353.73913,114.423158 353.73913,117 C353.73913,118.279474 353.900457,120.411632 355.037761,122.368421 L354.630435,122.368421 C354.361302,122.368611 354.106665,122.490867 353.937591,122.701068 C353.768517,122.91127 353.703112,123.186908 353.75963,123.451053 L355.643848,132.210526 L327,132.210526 L327,134 L368,134 L368,132.210526 L366.095283,132.210526 L367.9795,123.451053 C368.036018,123.186908 367.970613,122.91127 367.801539,122.701068 C367.632465,122.490867 367.377828,122.368611 367.108696,122.368421 L366.811,122.368421 C367.484826,120.979789 368,119.337053 368,116.552632 C368,113.251053 367.06413,110.454105 367.06413,110.454105 C366.937318,110.0728 366.572747,109.823206 366.172826,109.843895 C366.005142,109.852349 365.843246,109.908177 365.705783,110.004947 C365.705783,110.004947 365.1095,110.418316 364.272565,111.128737 C363.659348,107.563211 361.456043,105.590316 361.456043,105.590316 C361.298397,105.451502 361.097043,105.372931 360.887391,105.368421 Z M360.85887,107.675053 C361.495261,108.395316 362.561261,109.854632 362.637913,112.662316 C361.758196,113.557053 360.837478,114.623579 360.067391,115.850263 C359.777193,115.281485 359.44966,114.732697 359.086957,114.207526 L359.086957,112.973684 C359.086957,109.874316 360.200196,108.398895 360.85887,107.675053 Z M365.709348,112.341105 C366.045875,113.719498 366.216441,115.133445 366.217391,116.552632 C366.217391,119.682421 365.6425,120.856316 364.798435,122.368421 L359.9435,122.368421 C359.952413,121.993526 359.980043,121.534526 360.050457,121.046895 C360.183261,120.109211 360.439065,119.057895 360.792913,118.258 C362.069261,115.376947 364.504304,113.302947 365.709348,112.341105 Z M356.023543,113.338737 C356.436217,113.730632 356.923761,114.255842 357.410413,114.902737 C357.461296,114.996927 357.528618,115.081177 357.609174,115.151474 C358.119891,115.876211 358.616348,116.779895 359.024565,117.892947 C358.656457,118.830632 358.418478,119.854211 358.284783,120.793684 C358.20658,121.315288 358.15985,121.841158 358.144848,122.368421 L357.20363,122.368421 C355.753478,120.674684 355.521739,118.357316 355.521739,117 C355.521739,115.753632 355.780217,114.403474 356.023543,113.338737 L356.023543,113.338737 Z M355.732978,124.157895 L365.103261,124.157895 C365.239494,124.190587 365.381484,124.190587 365.517717,124.157895 L366.005261,124.157895 L364.272565,132.210526 L357.466565,132.210526 L355.73387,124.157895 L355.732978,124.157895 Z M337.695652,128.631579 L337.695652,130.421053 L353.434304,130.421053 L353.050152,128.631579 L337.695652,128.631579 Z" id="Desktop"></path>
        </g>
    </g>
</svg>