<svg width="42" height="34" viewBox="0 0 42 34" fill="none" xmlns="http://www.w3.org/2000/svg">
<path id="Desktop" fill-rule="evenodd" clip-rule="evenodd" d="M2.81352 0C1.56806 0 0.663086 0.930526 0.663086 2.21447V24.6294C0.663086 25.9116 1.56806 26.8421 2.81352 26.8421H26.4638L26.0767 25.0526H2.81352C2.69793 25.0526 2.45511 25.0526 2.45511 24.6276V2.21447C2.45511 1.78947 2.69793 1.78947 2.81352 1.78947H36.1452C36.2617 1.78947 36.5036 1.78947 36.5036 2.21447V4.26342C36.6864 4.42716 37.491 5.18232 38.2956 6.50474V2.21447C38.2956 0.930526 37.3907 0 36.1452 0H2.81352ZM34.7295 5.36849C34.5138 5.36432 34.3038 5.43803 34.1381 5.57606C34.1381 5.57606 31.5003 7.82454 31.1634 12.0736C30.4179 11.3221 29.8659 10.9105 29.8659 10.9105C29.7203 10.8035 29.5457 10.743 29.3651 10.7369C28.957 10.7236 28.5915 10.9874 28.4762 11.3784C28.4762 11.3784 27.5435 14.4232 27.5435 17.0001C27.5435 18.2795 27.7057 20.4117 28.849 22.3685H28.4395C28.1689 22.3687 27.913 22.4909 27.743 22.7011C27.573 22.9113 27.5073 23.187 27.5641 23.4511L29.4583 32.2106H0.663086V34.0001H41.8797V32.2106H39.9649L41.8591 23.4511C41.9159 23.187 41.8501 22.9113 41.6802 22.7011C41.5102 22.4909 41.2542 22.3687 40.9837 22.3685H40.6844C41.3618 20.9799 41.8797 19.3371 41.8797 16.5527C41.8797 13.2511 40.9389 10.4542 40.9389 10.4542C40.8114 10.0729 40.4449 9.82327 40.0429 9.84396C39.8743 9.85241 39.7115 9.90824 39.5734 10.005C39.5734 10.005 38.9739 10.4184 38.1326 11.1288C37.5161 7.56328 35.3012 5.59038 35.3012 5.59038C35.1427 5.45157 34.9403 5.373 34.7295 5.36849ZM36.4889 12.6626C36.4119 9.85487 35.3402 8.39556 34.7005 7.67529C34.0383 8.39913 32.9192 9.87456 32.9192 12.9739V14.2078C33.2838 14.7329 33.6131 15.2817 33.9048 15.8505C34.679 14.6238 35.6046 13.5573 36.4889 12.6626ZM39.5768 12.3413C39.9151 13.7197 40.0866 15.1336 40.0876 16.5528C40.0876 19.6826 39.5096 20.8565 38.6611 22.3686H33.7805C33.7895 21.9937 33.8173 21.5347 33.888 21.0471C34.0215 20.1094 34.2787 19.0581 34.6344 18.2582C35.9175 15.3772 38.3654 13.3032 39.5768 12.3413ZM31.2339 14.9029C30.7447 14.256 30.2546 13.7308 29.8398 13.3389C29.5951 14.4036 29.3353 15.7538 29.3353 17.0001C29.3353 18.3574 29.5683 20.6748 31.0261 22.3686H31.9723C31.9873 21.8413 32.0343 21.3154 32.1129 20.7938C32.2473 19.8543 32.4866 18.8308 32.8566 17.8931C32.4463 16.78 31.9472 15.8763 31.4338 15.1516C31.3528 15.0813 31.2851 14.9971 31.2339 14.9029ZM29.5484 24.1577H38.9673C39.1042 24.1904 39.2469 24.1904 39.3839 24.1577H39.874L38.1322 32.2103H31.2902L29.5484 24.1577ZM11.415 30.4208V28.6313H26.8507L27.2368 30.4208H11.415Z" fill="#D9D9D9"/>
</svg>
