<svg xmlns="http://www.w3.org/2000/svg" width="107" height="21" viewBox="0 0 107 21">
    <g fill="none" fill-rule="evenodd">
        <g fill="#000" fill-rule="nonzero">
            <g>
                <path d="M6.514 16.687v1.818c0 .385-.43.622-.772.42l-.864-.543-.207-.114-3.807-2.153L.658 16c-.204-.114-.37-.279-.486-.477-.114-.197-.173-.42-.171-.642L0 10.353V5.819c0-.241.07-.476.199-.678.128-.203.313-.37.506-.46L4.46 2.558l.205-.118.207-.115L8.468.294l.21-.122c.219-.123.467-.182.718-.17.243.011.484.09.652.206l3.743 2.116.207.115 3.804 2.151.208.116c.203.116.37.28.485.478.113.196.173.42.17.642l.002 4.122c0 .381-.422.62-.76.429l-1.614-.913c-.156-.089-.253-.252-.253-.429V6.558l-3.287-1.86c-.029-.013-.093-.049-.27-.15l-3.15-1.783-3.276 1.851-.05.032-.233.132L2.627 6.56v7.588l3.289 1.86.276.155.068.059.056.073c.124.093.198.238.198.393zm.903-9.086l.28.16 8.343 4.716v-.462c0-.38.421-.619.759-.429l1.614.91c.157.088.254.252.254.429v1.506c0 .13-.052.253-.144.346l-.762.759c-.285.357-.704.499-1.078.288l-6-3.402-.002 6.42c.021.24-.08.476-.274.628l-.06.048-.056.045-.99.782c-.138.124-.318.194-.506.194-.41 0-.743-.326-.743-.727v-8.878l-1.01-.572-.512.288c-.024.017-.015.012-.531.303-.364.208-.822.098-1.031-.255l-.014-.023-.025-.043-.246-.415-.282-.477c-.212-.357-.099-.804.262-1.008l.497-.279 1.23-.693.223-.123c.236-.164.55-.18.804-.036zm34.56-1.078c.47 0 .9.068 1.293.204.392.135.731.31 1.017.522.286.213.51.448.671.704.162.257.246.503.253.737 0 .066-.023.123-.071.17-.048.049-.101.072-.16.072h-1.44l-.097-.005c-.06-.006-.11-.02-.151-.039-.063-.029-.127-.073-.193-.132l-.104-.11c-.048-.051-.116-.104-.204-.16-.088-.054-.198-.102-.33-.142-.132-.04-.293-.06-.484-.06-.139 0-.273.008-.401.027-.129.018-.242.047-.341.088-.1.04-.18.097-.242.17-.063.074-.094.165-.094.275 0 .11.035.202.105.275.07.074.187.142.352.204.165.062.383.123.654.181.272.059.609.129 1.012.21.404.08.756.183 1.056.307.301.125.552.28.754.468.201.187.352.407.45.66.1.253.15.552.15.896 0 .374-.085.708-.254 1.001-.168.294-.405.545-.71.754-.304.209-.663.368-1.077.478-.414.11-.867.165-1.359.165-.498 0-.953-.066-1.364-.198-.41-.132-.764-.306-1.061-.522-.297-.216-.53-.46-.699-.732-.168-.271-.256-.546-.264-.825 0-.066.024-.123.072-.17.047-.048.1-.072.16-.072h1.44l.096.005c.058.005.107.017.146.034.059.026.118.064.176.115.03.03.074.077.132.143.059.066.138.134.237.204.099.07.224.13.374.181.15.052.335.077.555.077.389 0 .714-.042.974-.126.26-.085.39-.237.39-.457 0-.11-.047-.201-.143-.275-.095-.073-.238-.14-.429-.203-.19-.063-.434-.123-.731-.182-.297-.058-.647-.132-1.05-.22-.756-.161-1.308-.43-1.656-.808-.349-.378-.523-.882-.523-1.513 0-.315.072-.616.215-.902.143-.286.35-.539.621-.759.272-.22.6-.394.985-.522s.816-.193 1.292-.193zm32.208 0c.47 0 .9.068 1.293.204.392.135.731.31 1.017.522.286.213.51.448.671.704.162.257.246.503.253.737 0 .066-.023.123-.071.17-.048.049-.101.072-.16.072h-1.44l-.097-.005c-.06-.006-.11-.02-.151-.039-.063-.029-.127-.073-.193-.132l-.104-.11c-.048-.051-.116-.104-.204-.16-.088-.054-.198-.102-.33-.142-.132-.04-.293-.06-.484-.06-.139 0-.273.008-.401.027-.129.018-.242.047-.341.088-.1.04-.18.097-.242.17-.063.074-.094.165-.094.275 0 .11.035.202.105.275.07.074.187.142.352.204.165.062.383.123.654.181.272.059.609.129 1.012.21.404.08.756.183 1.056.307.301.125.552.28.754.468.201.187.352.407.45.66.1.253.15.552.15.896 0 .374-.085.708-.254 1.001-.168.294-.405.545-.71.754-.303.209-.663.368-1.077.478-.415.11-.867.165-1.359.165-.498 0-.953-.066-1.364-.198-.41-.132-.764-.306-1.061-.522-.297-.216-.53-.46-.699-.732-.168-.271-.256-.546-.264-.825 0-.066.024-.123.072-.17.047-.048.1-.072.16-.072h1.44l.096.005c.058.005.107.017.146.034.059.026.118.064.176.115.03.03.074.077.132.143.059.066.138.134.237.204.099.07.223.13.374.181.15.052.335.077.555.077.389 0 .714-.042.974-.126.26-.085.39-.237.39-.457 0-.11-.047-.201-.143-.275-.095-.073-.238-.14-.429-.203-.19-.063-.434-.123-.731-.182-.297-.058-.647-.132-1.05-.22-.756-.161-1.308-.43-1.656-.808-.349-.378-.523-.882-.523-1.513 0-.315.072-.616.215-.902.143-.286.35-.539.621-.759.272-.22.6-.394.985-.522s.816-.193 1.292-.193zm7.711 0c.484 0 .933.072 1.348.215.414.143.775.335 1.083.577.308.242.55.528.726.858.176.33.268.682.275 1.056 0 .066-.023.123-.071.17-.048.049-.105.072-.17.072h-1.442l-.086-.004c-.078-.01-.134-.031-.167-.067-.044-.048-.084-.13-.12-.248-.03-.088-.072-.183-.127-.286-.055-.102-.134-.196-.237-.28-.102-.085-.234-.156-.396-.215-.161-.058-.366-.088-.616-.088-.249 0-.458.035-.627.105-.168.07-.308.163-.418.28-.11.118-.19.253-.242.407-.051.154-.084.316-.099.484-.007.096-.013.228-.016.396-.004.169-.006.343-.006.523s.002.356.006.528c.004.172.009.306.016.401.015.169.048.33.1.484.05.154.131.29.241.407.11.118.25.211.418.28.169.07.378.105.627.105.25 0 .455-.029.616-.088.162-.058.294-.13.396-.214.103-.085.182-.178.237-.28.055-.103.097-.199.126-.287.037-.117.077-.2.121-.247.044-.048.129-.072.253-.072h1.441l.063.008c.04.01.076.032.108.064.047.047.071.104.071.17-.007.374-.099.726-.275 1.056-.176.33-.418.616-.726.858s-.669.435-1.083.578c-.415.143-.864.214-1.348.214-.528 0-.999-.079-1.413-.236-.415-.158-.768-.372-1.062-.644-.293-.271-.519-.588-.676-.951-.158-.363-.248-.746-.27-1.15-.014-.3-.022-.623-.022-.968 0-.344.008-.674.022-.99.015-.403.103-.786.264-1.15.162-.362.387-.68.677-.95.29-.272.643-.486 1.061-.644.418-.158.891-.237 1.42-.237zm-51.139.11l.059.006c.056.01.106.038.15.082.059.059.088.129.088.21v1.165l-.005.059c-.011.056-.039.106-.083.15-.058.059-.128.088-.209.088h-1.936v5.643l-.005.059c-.011.056-.039.106-.083.15-.058.059-.128.088-.209.088h-1.44l-.06-.005c-.055-.011-.106-.039-.15-.083-.058-.058-.088-.128-.088-.209V8.393H24.85l-.058-.005c-.056-.011-.107-.039-.15-.083-.06-.058-.089-.128-.089-.209V6.93l.006-.058c.01-.056.038-.107.082-.15.059-.06.129-.089.21-.089h5.906zm6.71 0l.059.006c.056.01.106.038.15.082.059.059.088.129.088.21v1.165l-.005.059c-.011.056-.039.106-.083.15-.058.059-.128.088-.209.088H34.08v1.188h3.146l.059.006c.056.01.106.038.15.082.059.059.088.129.088.21v1.165l-.005.059c-.011.056-.039.106-.083.15-.058.059-.128.088-.209.088H34.08v1.232h3.476l.059.006c.056.01.106.038.15.082.059.059.088.129.088.21v1.165l-.005.059c-.011.056-.039.106-.083.15-.058.059-.128.088-.209.088h-5.214l-.058-.005c-.056-.011-.107-.039-.15-.083-.06-.058-.089-.128-.089-.209V6.93l.006-.058c.01-.056.038-.107.082-.15.059-.06.129-.089.21-.089h5.125zm14.641 0l.059.006c.056.01.106.038.15.082.059.059.088.129.088.21v1.165l-.005.059c-.011.056-.039.106-.083.15-.058.059-.128.088-.209.088h-1.936v5.643l-.005.059c-.011.056-.039.106-.083.15-.058.059-.128.088-.209.088h-1.44l-.06-.005c-.055-.011-.106-.039-.15-.083-.058-.058-.088-.128-.088-.209V8.393h-1.936l-.058-.005c-.056-.011-.107-.039-.15-.083-.06-.058-.089-.128-.089-.209V6.93l.006-.058c.01-.056.038-.107.082-.15.059-.06.129-.089.21-.089h5.906zm7.15 0l.104.008c.097.015.174.053.232.113.077.081.13.162.16.242l2.397 6.93.025.068c.013.04.02.073.02.097 0 .066-.024.123-.072.17-.048.049-.105.072-.17.072h-1.387l-.102-.006c-.094-.011-.164-.04-.211-.087-.063-.063-.101-.123-.116-.182l-.308-.913h-2.926l-.308.913-.022.06c-.02.04-.052.08-.093.122-.063.062-.167.093-.314.093h-1.386l-.063-.008c-.04-.01-.075-.031-.107-.063-.048-.048-.072-.105-.072-.17 0-.037.015-.092.044-.166l2.398-6.93.038-.08c.03-.054.07-.108.122-.162.077-.08.189-.12.335-.12h1.782zm8.712 0l.059.006c.056.01.106.038.15.082.059.059.088.129.088.21v1.165l-.005.059c-.011.056-.039.106-.083.15-.058.059-.128.088-.209.088h-1.936v5.643l-.005.059c-.011.056-.039.106-.083.15-.058.059-.128.088-.209.088h-1.44l-.06-.005c-.055-.011-.106-.039-.15-.083-.058-.058-.088-.128-.088-.209V8.393h-1.936l-.058-.005c-.056-.011-.107-.039-.15-.083-.06-.058-.089-.128-.089-.209V6.93l.006-.058c.01-.056.038-.107.082-.15.059-.06.129-.089.21-.089h5.906zm22.43 0l.103.008c.097.015.174.053.232.113.077.081.13.162.16.242l2.397 6.93.025.068c.013.04.02.073.02.097 0 .066-.025.123-.072.17-.048.049-.105.072-.17.072h-1.387l-.102-.006c-.094-.011-.164-.04-.211-.087-.063-.063-.101-.123-.116-.182l-.308-.913h-2.926l-.308.913-.022.06c-.02.04-.052.08-.093.122-.063.062-.167.093-.314.093h-1.386l-.063-.008c-.04-.01-.075-.031-.107-.063-.048-.048-.072-.105-.072-.17 0-.037.015-.092.044-.166l2.398-6.93.038-.08c.03-.054.07-.108.122-.162.077-.08.189-.12.335-.12H90.4zm5.565 0l.059.006c.056.01.106.038.15.082.059.059.088.129.088.21v5.642h3.355l.059.006c.056.01.106.038.15.082.059.059.088.129.088.21v1.165l-.005.059c-.011.056-.039.106-.083.15-.058.059-.128.088-.209.088h-5.093l-.058-.005c-.056-.011-.107-.039-.15-.083-.06-.058-.089-.128-.089-.209V6.93l.006-.058c.01-.056.038-.107.082-.15.059-.06.129-.089.21-.089h1.44zm10.318 0l.059.006c.056.01.106.038.15.082.059.059.088.129.088.21v1.165l-.005.059c-.011.056-.039.106-.083.15-.058.059-.128.088-.209.088h-3.388v1.188h3.146l.059.006c.056.01.106.038.15.082.059.059.088.129.088.21v1.165l-.005.059c-.011.056-.039.106-.083.15-.058.059-.128.088-.209.088h-3.146v1.232h3.476l.059.006c.056.01.106.038.15.082.059.059.088.129.088.21v1.165l-.005.059c-.011.056-.039.106-.083.15-.058.059-.128.088-.209.088h-5.214l-.058-.005c-.056-.011-.107-.039-.15-.083-.06-.058-.089-.128-.089-.209V6.93l.006-.058c.01-.056.038-.107.082-.15.059-.06.129-.089.21-.089h5.125zM58.367 8.8l-.89 2.64h1.781l-.89-2.64zm31.141 0l-.89 2.64h1.781l-.89-2.64z" transform="translate(-30 -377) translate(30 377)"/>
            </g>
        </g>
    </g>
</svg>
