<svg xmlns="http://www.w3.org/2000/svg" width="26" height="26" viewBox="0 0 26 26">
    <g fill="none" fill-rule="evenodd">
        <g>
            <g transform="translate(-61 -124) translate(61 124)">
                <circle cx="13" cy="13" r="12" stroke="#000" stroke-width="1.5"/>
                <path fill="#000" d="M13 7.558c.86 0 1.558.7 1.558 1.559 0 .86-.699 1.558-1.558 1.558-.86 0-1.558-.699-1.558-1.558 0-.86.699-1.559 1.558-1.559m0 5.775c3.032 0 5.5 2.447 5.5 5.455 0 .43-.351.779-.786.779-.434 0-.785-.35-.785-.78 0-2.148-1.763-3.895-3.929-3.895s-3.929 1.747-3.929 3.896c0 .43-.35.779-.785.779-.435 0-.786-.35-.786-.78 0-3.007 2.468-5.454 5.5-5.454zM13 6c1.719 0 3.117 1.398 3.117 3.117S14.719 12.233 13 12.233s-3.117-1.397-3.117-3.116C9.883 7.397 11.281 6 13 6z"/>
            </g>
        </g>
    </g>
</svg>
