<svg width="279" height="434" viewBox="0 0 279 434" fill="none" xmlns="http://www.w3.org/2000/svg">
<path d="M222.538 349.601C219.651 351.741 173.933 399.575 173.933 399.575L226.914 417.723L222.538 349.601Z" fill="#32E3A7"/>
<path d="M269.653 334.618C222.165 317.308 164.995 329.872 129.892 366.445C122.443 374.169 115.832 383.569 113.69 394.178C113.318 394.457 112.852 394.643 112.48 394.922C99.6302 403.391 93.0193 418.095 87.6188 431.868C87.3395 432.52 88.4568 432.799 88.643 432.147C93.2986 420.235 98.6991 407.951 108.476 399.296C109.966 397.993 111.642 396.691 113.411 395.574C113.225 396.784 113.038 397.993 112.945 399.296C112.293 410.185 116.949 422.469 127.564 427.122C136.223 430.938 147.955 429.356 153.356 420.887C158.756 412.325 155.032 400.785 147.862 394.457C138.644 386.268 125.05 387.757 114.901 393.433C117.601 381.614 125.702 371.657 134.268 363.467C150.842 347.74 171.792 336.944 193.953 331.64C218.813 325.684 245.257 326.8 269.373 335.641C270.023 335.921 270.304 334.804 269.653 334.618ZM142.741 392.224C151.773 396.691 157.918 408.882 153.449 418.56C148.793 428.611 135.199 430.286 126.353 425.261C115.925 419.491 112.573 405.904 114.621 394.829C123.094 389.897 133.709 387.757 142.741 392.224Z" fill="#FFD550" stroke="#FFD550" stroke-width="2.23198"/>
<path d="M60.0575 51.0562H16.5743C15.8294 51.0562 15.8294 52.1729 16.5743 52.1729H60.0575C60.7093 52.1729 60.7093 51.0562 60.0575 51.0562Z" fill="#7E6BF0"/>
<path d="M37.8206 32.0107C37.918 29.7652 38.012 27.5576 38.1126 25.2755C38.1103 24.5488 37.0606 24.4572 37.063 25.1839L36.5937 35.0494C36.5592 35.4426 36.9897 35.8104 37.4063 35.5826C40.8706 33.7713 44.4062 31.9003 47.8105 30.0178C48.3584 29.8014 47.8542 28.7668 47.2949 29.1142L37.7239 34.2234C37.7283 34.1252 37.7326 34.0273 37.7369 33.9294C37.8771 33.9218 38.0127 33.842 38.1037 33.6621C47.1978 17.4162 63.3886 5.42161 81.7413 1.93691C98.211 -1.18366 115.597 2.57809 129.376 12.0352C129.938 12.4144 130.543 11.5426 129.982 11.1634C106.774 -4.59756 75.4869 -3.6278 53.5301 13.8078C47.2292 18.8586 41.852 25.0091 37.8206 32.0107Z" fill="#9584FA"/>
<path d="M233.99 101.868H231.29C231.01 101.868 230.731 101.589 230.731 101.31C230.731 101.031 231.01 100.752 231.29 100.752H233.524L233.617 98.6111C233.617 98.3319 233.804 98.0527 234.176 98.0527C234.455 98.0527 234.735 98.3319 234.735 98.6111L234.642 101.31C234.549 101.682 234.269 101.868 233.99 101.868Z" fill="#475AEA"/>
<path d="M225.796 101.868H220.303C220.023 101.868 219.744 101.589 219.744 101.31C219.744 101.031 220.023 100.751 220.303 100.751H225.796C226.076 100.751 226.355 101.031 226.355 101.31C226.355 101.682 226.076 101.868 225.796 101.868ZM214.809 101.868H209.316C209.036 101.868 208.757 101.589 208.757 101.31C208.757 101.031 209.036 100.751 209.316 100.751H214.809C215.089 100.751 215.368 101.031 215.368 101.31C215.368 101.682 215.089 101.868 214.809 101.868ZM203.822 101.868H198.328C198.049 101.868 197.77 101.589 197.77 101.31C197.77 101.031 198.049 100.751 198.328 100.751H203.822C204.101 100.751 204.381 101.031 204.381 101.31C204.381 101.589 204.101 101.868 203.822 101.868ZM192.835 101.868H187.341C187.062 101.868 186.782 101.589 186.782 101.31C186.782 101.031 187.062 100.751 187.341 100.751H192.835C193.114 100.751 193.393 101.031 193.393 101.31C193.393 101.589 193.114 101.868 192.835 101.868ZM181.848 101.868H176.354C176.075 101.868 175.795 101.589 175.795 101.31C175.795 101.031 176.075 100.751 176.354 100.751H181.848C182.127 100.751 182.406 101.031 182.406 101.31C182.406 101.589 182.127 101.868 181.848 101.868ZM170.86 101.775H165.367C165.087 101.775 164.808 101.496 164.808 101.217C164.808 100.937 165.087 100.658 165.367 100.658H170.86C171.14 100.658 171.419 100.937 171.419 101.217C171.419 101.589 171.14 101.775 170.86 101.775ZM159.873 101.775H154.38C154.1 101.775 153.821 101.496 153.821 101.217C153.821 100.937 154.1 100.658 154.38 100.658H159.873C160.152 100.658 160.432 100.937 160.432 101.217C160.432 101.589 160.152 101.775 159.873 101.775ZM148.886 101.775H143.392C143.113 101.775 142.834 101.496 142.834 101.217C142.834 100.937 143.113 100.658 143.392 100.658H148.886C149.165 100.658 149.445 100.937 149.445 101.217C149.445 101.589 149.165 101.775 148.886 101.775ZM137.899 101.775H132.405C132.126 101.775 131.846 101.496 131.846 101.217C131.846 100.937 132.126 100.658 132.405 100.658H137.899C138.178 100.658 138.457 100.937 138.457 101.217C138.364 101.496 138.178 101.775 137.899 101.775ZM126.912 101.775H121.418C121.139 101.775 120.859 101.496 120.859 101.217C120.859 100.937 121.139 100.658 121.418 100.658H126.912C127.191 100.658 127.47 100.937 127.47 101.217C127.377 101.496 127.191 101.775 126.912 101.775ZM115.924 101.775H110.431C110.151 101.775 109.872 101.496 109.872 101.217C109.872 100.937 110.151 100.658 110.431 100.658H115.924C116.204 100.658 116.483 100.937 116.483 101.217C116.39 101.496 116.204 101.775 115.924 101.775ZM104.937 101.682H99.4435C99.1642 101.682 98.8849 101.403 98.8849 101.124C98.8849 100.844 99.1642 100.565 99.4435 100.565H104.937C105.216 100.565 105.496 100.844 105.496 101.124C105.403 101.496 105.216 101.682 104.937 101.682ZM93.8568 101.682H88.3632C88.0839 101.682 87.8046 101.403 87.8046 101.124C87.8046 100.844 88.0839 100.565 88.3632 100.565H93.8568C94.1362 100.565 94.4155 100.844 94.4155 101.124C94.4155 101.496 94.2293 101.682 93.8568 101.682ZM82.8696 101.682H77.376C77.0967 101.682 76.8174 101.403 76.8174 101.124C76.8174 100.844 77.0967 100.565 77.376 100.565H82.8696C83.149 100.565 83.4283 100.844 83.4283 101.124C83.4283 101.403 83.2421 101.682 82.8696 101.682ZM71.8824 101.682H66.3888C66.1095 101.682 65.8302 101.403 65.8302 101.124C65.8302 100.844 66.1095 100.565 66.3888 100.565H71.8824C72.1618 100.565 72.4411 100.844 72.4411 101.124C72.4411 101.403 72.2549 101.682 71.8824 101.682ZM60.8952 101.682H55.4016C55.1223 101.682 54.843 101.403 54.843 101.124C54.843 100.844 55.1223 100.565 55.4016 100.565H60.8952C61.1746 100.565 61.4539 100.844 61.4539 101.124C61.4539 101.403 61.2677 101.682 60.8952 101.682ZM49.908 101.682H44.4144C44.1351 101.682 43.8558 101.403 43.8558 101.124C43.8558 100.844 44.1351 100.565 44.4144 100.565H49.908C50.1874 100.565 50.4667 100.844 50.4667 101.124C50.4667 101.403 50.2805 101.682 49.908 101.682ZM38.9208 101.589H33.4272C33.1479 101.589 32.8686 101.31 32.8686 101.031C32.8686 100.751 33.1479 100.472 33.4272 100.472H38.9208C39.2002 100.472 39.4795 100.751 39.4795 101.031C39.4795 101.403 39.2933 101.589 38.9208 101.589ZM27.9336 101.589H22.44C22.1607 101.589 21.8813 101.31 21.8813 101.031C21.8813 100.751 22.1607 100.472 22.44 100.472H27.9336C28.213 100.472 28.4923 100.751 28.4923 101.031C28.4923 101.31 28.3061 101.589 27.9336 101.589Z" fill="#475AEA"/>
<path d="M16.9464 101.589H14.2462C13.9668 101.589 13.6875 101.31 13.6875 101.031V98.3318C13.6875 98.0526 13.9668 97.7734 14.2462 97.7734C14.5255 97.7734 14.8048 98.0526 14.8048 98.3318V100.472H16.9464C17.2258 100.472 17.5051 100.751 17.5051 101.031C17.5051 101.31 17.2258 101.589 16.9464 101.589Z" fill="#475AEA"/>
<path d="M14.2462 91.8173C13.9668 91.8173 13.6875 91.5381 13.6875 91.2589V88.5601C13.6875 88.374 13.7806 88.2809 13.8737 88.1878C13.9668 88.0948 14.1531 88.0017 14.2462 88.0017H16.9464C17.2258 88.0017 17.5051 88.2809 17.5051 88.5601C17.5051 88.8393 17.2258 89.1185 16.9464 89.1185H14.8048V91.2589C14.8048 91.5381 14.5255 91.8173 14.2462 91.8173Z" fill="#475AEA"/>
<path d="M226.076 89.3976H220.582C220.303 89.3976 220.023 89.1185 220.023 88.8393C220.023 88.5601 220.303 88.2809 220.582 88.2809H226.076C226.355 88.2809 226.634 88.5601 226.634 88.8393C226.634 89.1185 226.355 89.3976 226.076 89.3976ZM215.088 89.3976H209.595C209.316 89.3976 209.036 89.1185 209.036 88.8393C209.036 88.5601 209.316 88.2809 209.595 88.2809H215.088C215.368 88.2809 215.647 88.5601 215.647 88.8393C215.647 89.1185 215.368 89.3976 215.088 89.3976ZM204.101 89.3976H198.608C198.328 89.3976 198.049 89.1185 198.049 88.8393C198.049 88.5601 198.328 88.2809 198.608 88.2809H204.101C204.381 88.2809 204.66 88.5601 204.66 88.8393C204.66 89.1185 204.381 89.3976 204.101 89.3976ZM193.114 89.3046H187.62C187.341 89.3046 187.062 89.0254 187.062 88.7462C187.062 88.467 187.341 88.1878 187.62 88.1878H193.114C193.393 88.1878 193.673 88.467 193.673 88.7462C193.58 89.1185 193.393 89.3046 193.114 89.3046ZM182.034 89.3046H176.54C176.261 89.3046 175.981 89.0254 175.981 88.7462C175.981 88.467 176.261 88.1878 176.54 88.1878H182.034C182.313 88.1878 182.592 88.467 182.592 88.7462C182.592 89.1185 182.406 89.3046 182.034 89.3046ZM171.047 89.3046H165.553C165.274 89.3046 164.994 89.0254 164.994 88.7462C164.994 88.467 165.274 88.1878 165.553 88.1878H171.047C171.326 88.1878 171.605 88.467 171.605 88.7462C171.605 89.1185 171.326 89.3046 171.047 89.3046ZM160.059 89.3046H154.566C154.286 89.3046 154.007 89.0254 154.007 88.7462C154.007 88.467 154.286 88.1878 154.566 88.1878H160.059C160.339 88.1878 160.618 88.467 160.618 88.7462C160.618 89.0254 160.339 89.3046 160.059 89.3046ZM149.072 89.3046H143.579C143.299 89.3046 143.02 89.0254 143.02 88.7462C143.02 88.467 143.299 88.1878 143.579 88.1878H149.072C149.352 88.1878 149.631 88.467 149.631 88.7462C149.631 89.0254 149.352 89.3046 149.072 89.3046ZM138.085 89.3046H132.591C132.312 89.3046 132.033 89.0254 132.033 88.7462C132.033 88.467 132.312 88.1878 132.591 88.1878H138.085C138.364 88.1878 138.644 88.467 138.644 88.7462C138.551 89.0254 138.364 89.3046 138.085 89.3046ZM127.005 89.2115H121.511C121.232 89.2115 120.952 88.9323 120.952 88.6531C120.952 88.374 121.232 88.0948 121.511 88.0948H127.005C127.284 88.0948 127.563 88.374 127.563 88.6531C127.563 89.0254 127.377 89.2115 127.005 89.2115ZM116.017 89.2115H110.524C110.245 89.2115 109.965 88.9323 109.965 88.6531C109.965 88.374 110.245 88.0948 110.524 88.0948H116.017C116.297 88.0948 116.576 88.374 116.576 88.6531C116.576 89.0254 116.297 89.2115 116.017 89.2115ZM105.03 89.2115H99.5367C99.2573 89.2115 98.978 88.9323 98.978 88.6531C98.978 88.374 99.2573 88.0948 99.5367 88.0948H105.03C105.31 88.0948 105.589 88.374 105.589 88.6531C105.589 88.9323 105.31 89.2115 105.03 89.2115ZM94.0431 89.2115H88.5495C88.2701 89.2115 87.9908 88.9323 87.9908 88.6531C87.9908 88.374 88.2701 88.0948 88.5495 88.0948H94.0431C94.3224 88.0948 94.6017 88.374 94.6017 88.6531C94.6017 88.9323 94.3224 89.2115 94.0431 89.2115ZM82.9627 89.2115H77.4691C77.1898 89.2115 76.9105 88.9323 76.9105 88.6531C76.9105 88.374 77.1898 88.0948 77.4691 88.0948H82.9627C83.2421 88.0948 83.5214 88.374 83.5214 88.6531C83.5214 88.9323 83.3352 89.2115 82.9627 89.2115ZM71.9755 89.2115H66.4819C66.2026 89.2115 65.9233 88.9323 65.9233 88.6531C65.9233 88.374 66.2026 88.0948 66.4819 88.0948H71.9755C72.2549 88.0948 72.5342 88.374 72.5342 88.6531C72.5342 88.9323 72.348 89.2115 71.9755 89.2115ZM60.9883 89.1185H55.4947C55.2154 89.1185 54.9361 88.8393 54.9361 88.5601C54.9361 88.2809 55.2154 88.0017 55.4947 88.0017H60.9883C61.2677 88.0017 61.547 88.2809 61.547 88.5601C61.547 88.9323 61.2677 89.1185 60.9883 89.1185ZM50.0011 89.1185H44.5075C44.2282 89.1185 43.9489 88.8393 43.9489 88.5601C43.9489 88.2809 44.2282 88.0017 44.5075 88.0017H50.0011C50.2805 88.0017 50.5598 88.2809 50.5598 88.5601C50.5598 88.9323 50.2805 89.1185 50.0011 89.1185ZM39.0139 89.1185H33.5203C33.241 89.1185 32.9617 88.8393 32.9617 88.5601C32.9617 88.2809 33.241 88.0017 33.5203 88.0017H39.0139C39.2933 88.0017 39.5726 88.2809 39.5726 88.5601C39.5726 88.8393 39.2933 89.1185 39.0139 89.1185ZM27.9336 89.1185H22.44C22.1607 89.1185 21.8813 88.8393 21.8813 88.5601C21.8813 88.2809 22.1607 88.0017 22.44 88.0017H27.9336C28.213 88.0017 28.4923 88.2809 28.4923 88.5601C28.4923 88.8393 28.3061 89.1185 27.9336 89.1185Z" fill="#475AEA"/>
<path d="M234.269 92.0968C233.99 92.0968 233.711 91.8176 233.711 91.5384L233.804 89.398H231.662C231.383 89.398 231.104 89.1188 231.104 88.8396C231.104 88.5604 231.383 88.2812 231.662 88.2812H234.362C234.549 88.2812 234.642 88.3743 234.735 88.4674C234.828 88.5604 234.921 88.7466 234.921 88.8396L234.828 91.5384C234.828 91.9107 234.549 92.0968 234.269 92.0968Z" fill="#475AEA"/>
<path fill-rule="evenodd" clip-rule="evenodd" d="M245.722 390.735H0.558671C0.279336 390.735 0 390.456 0 390.176V59.6179C0 59.3388 0.279336 59.0596 0.558671 59.0596H245.722C246.002 59.0596 246.281 59.3388 246.281 59.6179V390.176C246.281 390.456 246.002 390.735 245.722 390.735Z" fill="#7B74F5"/>
<path d="M257.268 167.943H260.155V200.608H257.268V167.943Z" fill="#ABE5B4"/>
<path d="M214.53 380.591H174.678C174.398 380.591 174.119 380.312 174.119 380.032V361.885C174.119 361.606 174.398 361.327 174.678 361.327H214.53C214.809 361.327 215.088 361.606 215.088 361.885V380.032C215.088 380.312 214.809 380.591 214.53 380.591ZM175.143 379.474H213.971V362.444H175.143V379.474Z" fill="white"/>
<path d="M273.469 98.1827L58.1948 54.071L62.8504 33.0718L278.125 77.0904L273.469 98.1827Z" fill="#32E3A7"/>
<path d="M259.13 80.7186C258.758 80.2533 259.596 79.788 259.875 80.2533L262.234 83.9821L265.928 81.6492C266.376 81.2908 266.824 82.0542 266.441 82.3605L266.393 82.3937L262.704 84.7247L264.997 88.3497C265.356 88.7984 264.676 89.3337 264.293 88.8707L264.252 88.8151L261.961 85.1941L258.292 87.5122C257.754 87.781 257.303 87.1006 257.769 86.8005L257.827 86.7677L261.491 84.4515L259.13 80.7186Z" fill="white"/>
<path d="M249.114 77.7544L256.578 79.3639L254.969 86.8233L247.506 85.2138L249.114 77.7544Z" fill="#FFD550"/>
<path d="M205.87 71.1333C173.747 64.5258 141.623 57.9184 109.499 51.3109C108.848 51.1248 108.568 52.2415 109.22 52.3346C141.344 58.9421 173.467 65.5495 205.591 72.157C206.336 72.3431 206.615 71.2263 205.87 71.1333Z" fill="white"/>
<path d="M232.221 288.273C226.82 293.019 221.42 297.765 216.112 302.604C215.554 303.07 216.392 303.814 216.857 303.349C222.258 298.603 227.658 293.857 232.965 289.017C233.524 288.552 232.686 287.807 232.221 288.273Z" fill="#FFD550"/>
<path d="M236.876 311.724C231.29 312.562 225.796 313.4 220.209 314.144C219.558 314.237 219.837 315.261 220.489 315.168C226.075 314.33 231.569 313.493 237.156 312.748C237.901 312.655 237.621 311.631 236.876 311.724Z" fill="#FFD550"/>
<path d="M22.1606 150.354H76.538V204.703H22.1606V150.354Z" fill="#C0CFFF"/>
<path d="M87.4321 158.544H212.016V164.314H87.4321V158.544Z" fill="#ECEFF8"/>
<path d="M87.4321 186.648H212.016V192.418H87.4321V186.648Z" fill="#DADEEB"/>
<path d="M22.1606 228.155H76.538V282.503H22.1606V228.155Z" fill="#DADEEB"/>
<path d="M32.4897 178.163L44.2904 189.964L66.984 167.27" stroke="white" stroke-width="1.35271"/>
<path d="M32.4897 255.268L44.2904 267.068L66.984 244.375" stroke="white" stroke-width="1.35271"/>
<path d="M87.4321 236.344H212.016V242.114H87.4321V236.344Z" fill="#DADEEB"/>
<path d="M87.4321 264.356H212.016V270.126H87.4321V264.356Z" fill="#DADEEB"/>
<path d="M22.1606 305.862H76.538V360.21H22.1606V305.862Z" fill="#DADEEB"/>
<path d="M32.4897 335.754L44.2904 347.555L66.984 324.861" stroke="white" stroke-width="1.35271"/>
<path d="M87.4321 314.052H212.016V319.821H87.4321V314.052Z" fill="#FFD550"/>
<path d="M87.4321 342.156H212.016V347.926H87.4321V342.156Z" fill="#DADEEB"/>
</svg>
