<svg xmlns="http://www.w3.org/2000/svg" width="19" height="21" viewBox="0 0 19 21">
    <g fill="none" fill-rule="evenodd">
        <g fill="#FFF" fill-rule="nonzero" stroke="#FFF" stroke-width=".5">
            <path d="M63.253 134.058H61.88c-.38 0-.687.317-.687.708v7.401c0 .39-.308.708-.687.708h-2.094v.023c-.234-.436-.685-.73-1.202-.73-.758 0-1.373.633-1.373 1.416 0 .782.615 1.416 1.373 1.416.517 0 .968-.295 1.202-.73v.022h2.094c1.136 0 2.06-.953 2.06-2.125v-.035h.687c1.515 0 2.747-1.271 2.747-2.833v-2.408c0-1.562-1.232-2.833-2.747-2.833zm1.374 5.24c0 .782-.617 1.417-1.374 1.417h-.687v-5.241h.687c.757 0 1.374.636 1.374 1.417v2.408zm-11.507-6.11h-1.357c.23-3.222 2.845-5.772 6.027-5.772 2.518 0 4.796 1.636 5.67 4.07.131.367.526.555.882.42.356-.137.537-.544.406-.91-.52-1.452-1.445-2.694-2.674-3.592-1.257-.918-2.738-1.404-4.284-1.404-1.981 0-3.844.796-5.244 2.24-1.383 1.426-2.152 3.316-2.172 5.329-.82.49-1.374 1.406-1.374 2.452v2.408c0 1.562 1.232 2.833 2.747 2.833h1.373c.38 0 .687-.317.687-.708v-6.657c0-.391-.307-.709-.687-.709zm-.686 6.658h-.687c-.757 0-1.374-.636-1.374-1.417v-2.408c0-.78.617-1.416 1.374-1.416h.687v5.24z" transform="translate(-48 -125)"/>
        </g>
    </g>
</svg>
