<svg width="110" height="110" viewBox="0 0 110 110" fill="none" xmlns="http://www.w3.org/2000/svg">
<g id="3">
<path id="Rectangle 4" d="M0 5C0 2.23858 2.23858 0 5 0H105C107.761 0 110 2.23858 110 5V105C110 107.761 107.761 110 105 110H5C2.23858 110 0 107.761 0 105V5Z" fill="white"/>
<g id="CCPA">
<path id="Shape" fill-rule="evenodd" clip-rule="evenodd" d="M99.4333 39.9355L99.4402 39.9404C100.224 40.501 100.174 41.3685 99.3556 41.932C98.9495 42.2073 98.5777 42.5339 98.2061 42.8602C97.7631 43.2494 97.3205 43.6383 96.8206 43.9393C95.6033 44.6734 95.6133 45.7344 95.7194 46.8571C95.7398 47.0747 95.8762 47.2829 95.9957 47.4653L95.9958 47.4654C96.0448 47.5402 96.091 47.6107 96.1252 47.6758C96.2395 47.5828 96.3424 47.4868 96.4393 47.3963C96.6546 47.1954 96.8402 47.0222 97.0557 46.9718C97.2006 46.9374 97.6436 47.4091 97.6436 47.6414C97.6307 48.0314 97.4644 48.5733 97.1776 48.7483C96.4693 49.173 95.7159 49.5271 94.968 49.8785L94.9678 49.8786L94.9676 49.8787C94.6831 50.0124 94.3994 50.1458 94.1193 50.2824C94.6541 50.8603 94.624 51.0983 93.9071 51.4911C93.4513 51.7384 92.9979 51.9897 92.5428 52.2419L92.5419 52.2424L92.5403 52.2433C92.3892 52.3271 92.2379 52.4109 92.0862 52.4948C92.2941 53.8598 91.8223 55.0384 90.9893 56.141C91.4309 57.288 90.9004 59.5592 89.6989 60.4066L89.7189 60.4381C89.9506 60.6248 90.1875 60.8013 90.4216 60.9757L90.4217 60.9758C90.9787 61.3907 91.5197 61.7938 91.9356 62.2935C92.2424 62.6605 92.1765 63.3932 92.1105 63.9409C92.0949 64.058 91.8297 64.1485 91.5629 64.2396C91.4375 64.2823 91.3119 64.3252 91.2115 64.371L90.8947 63.6455L90.3097 64.0112L90.8918 64.4958L90.8907 64.4984C90.616 65.1466 90.419 65.6114 89.6014 65.683C89.3062 65.7083 89.0401 66.0329 88.7721 66.3598C88.6457 66.514 88.5189 66.6687 88.3884 66.7927C88.2718 66.904 88.1499 67.0107 88.028 67.1172L88.0278 67.1174C87.8202 67.299 87.6127 67.4804 87.432 67.6846C87.0755 68.0997 86.7405 68.5328 86.4284 68.9822C86.3474 69.095 86.2804 69.2181 86.2136 69.3405L86.2136 69.3406C86.1184 69.5153 86.0239 69.6888 85.8907 69.8295C85.6485 70.0856 85.3886 70.3276 85.1289 70.5693C84.7213 70.9488 84.3143 71.3276 83.978 71.7594C82.851 73.2033 82.9729 75.2293 84.2203 77.0545C84.4738 77.4298 84.7663 77.7798 85.0586 78.1296L85.0586 78.1296C85.1895 78.2862 85.3204 78.4428 85.4476 78.6016C85.4683 78.6277 85.4983 78.6526 85.5275 78.6768C85.5753 78.7165 85.6211 78.7546 85.6211 78.7937C85.6081 79.6079 86.0138 80.2681 86.4171 80.9243C86.7701 81.4988 87.1214 82.0703 87.1883 82.7395C87.3042 84.0266 87.3291 85.3203 87.2628 86.6108C87.2385 87.2302 86.2606 87.6661 85.6613 87.4052C85.1838 87.1987 85.1265 86.8718 85.5566 86.509C85.4997 86.4762 85.4273 86.4452 85.3544 86.4139C85.1979 86.3468 85.0393 86.2788 85.0275 86.1907C84.93 85.5398 84.7207 85.0881 83.9264 85.1641C83.8111 85.1449 83.7095 85.0777 83.6468 84.9792C83.4241 84.6415 83.2103 84.2981 82.9968 83.9549C82.523 83.1935 82.05 82.4335 81.4817 81.7416C81.1062 81.2908 81.0997 80.84 81.0933 80.3882C81.0904 80.1862 81.0875 79.984 81.0516 79.7816C81.0023 79.4287 80.8592 79.0954 80.6372 78.8167C80.3801 78.5347 80.0758 78.2935 79.7715 78.0523C79.6194 77.9317 79.4672 77.8111 79.321 77.6854C78.8105 77.2481 78.3374 77.1563 77.7237 77.5864C77.3937 77.8215 77.0015 77.9742 76.6184 78.1234L76.6182 78.1235L76.6181 78.1235C76.452 78.1882 76.2877 78.2522 76.1308 78.322C75.0683 77.0029 74.317 76.8294 72.6194 77.3183C72.1204 77.4617 71.4895 77.6381 71.2415 77.0746C71.0691 77.1084 70.9003 77.1468 70.7338 77.1846L70.7337 77.1846L70.7335 77.1846C70.3574 77.27 69.9928 77.3528 69.6241 77.3757C69.5475 77.3807 69.4702 77.3832 69.3944 77.3857C68.8619 77.4033 68.4022 77.4185 68.7423 78.2632C68.7867 78.3721 68.7565 78.5089 68.7241 78.6557L68.7241 78.6557C68.7083 78.7273 68.692 78.8012 68.6836 78.8754C68.7404 78.9092 68.8032 78.9316 68.8685 78.9414C69.4535 78.9557 69.6758 79.3558 69.5324 79.7773C69.4678 79.978 68.8585 80.216 68.6463 80.1214C68.0857 79.8705 67.6828 79.9522 67.1523 80.2175C66.3092 80.639 65.3872 80.2834 64.7549 79.5249C64.6245 79.3644 64.2861 79.3142 64.038 79.3056C63.8216 79.2993 63.5985 79.3193 63.3764 79.3393L63.3764 79.3393C62.9924 79.3739 62.6113 79.4082 62.2716 79.3056C60.6442 78.8138 59.3911 79.2941 58.1293 80.3092C57.45 80.855 56.6774 81.2915 55.9044 81.7283C55.5157 81.9479 55.1269 82.1675 54.7498 82.4012C53.9139 82.9216 53.4537 84.1174 53.7003 85.0451C53.7506 85.2346 53.7997 85.424 53.8487 85.6134L53.8489 85.6142C53.9201 85.8889 53.9913 86.1634 54.0659 86.4373C54.2293 87.041 53.858 87.2431 53.3762 87.1313C53.017 87.0487 52.6682 86.9227 52.3197 86.797C51.9365 86.6587 51.5538 86.5205 51.1581 86.4402C50.014 86.2094 49.505 85.362 49.3845 84.4644C49.287 83.7489 48.9716 83.2744 48.606 82.7338C48.5815 82.6976 48.5569 82.6614 48.5324 82.6252C48.5085 82.59 48.4846 82.5548 48.4606 82.5196C48.0026 81.8455 47.5389 81.163 47.2252 80.4254C46.7019 79.1966 45.681 78.7822 44.4866 78.6546C44.2199 78.626 43.8342 78.9973 43.6263 79.2712C42.7804 80.3852 42.2126 80.5014 41.2477 79.4848C40.8051 79.0217 40.4606 78.4686 40.1164 77.9159L40.1163 77.9159L40.1163 77.9158C39.9788 77.6951 39.8413 77.4744 39.6977 77.2595C39.646 77.1863 39.6147 77.0999 39.5837 77.0147C39.5468 76.9131 39.5105 76.8132 39.4411 76.7391C39.0983 76.3715 38.7488 76.0101 38.3994 75.6488L38.3993 75.6487L38.3991 75.6485L38.3991 75.6484L38.3991 75.6484C37.9403 75.174 37.4815 74.6995 37.038 74.2113C36.4172 73.5288 35.6184 73.5627 34.8155 73.5967L34.7597 73.599C34.6349 73.6048 34.4342 73.7094 34.407 73.8055C34.1668 74.6493 33.4672 74.5333 32.9048 74.4401L32.8298 74.4278C32.5408 74.3819 32.2492 74.3395 31.9568 74.2971L31.9567 74.2971L31.9567 74.297L31.9566 74.297C30.7144 74.1166 29.4586 73.9342 28.3305 73.47C26.6329 72.7789 25.0514 71.7738 23.5244 70.7558C22.5151 70.0804 21.3475 69.6792 20.1363 69.5915C19.7061 69.5543 18.3454 69.0166 18.4157 68.4244C18.4301 68.2966 18.2661 68.1542 18.1125 68.0208C18.0213 67.9416 17.9338 67.8657 17.8895 67.7978C17.7963 67.6567 17.7052 67.5148 17.6143 67.3732C17.0743 66.5316 16.5404 65.6997 15.6126 65.1094C15.4326 64.9952 15.2626 64.8671 15.0925 64.739C14.7097 64.4507 14.3267 64.1623 13.8304 64.0312C13.6196 63.9767 13.297 63.6584 13.3228 63.5151C13.4779 62.5982 13.077 61.8655 12.6754 61.1318C12.5759 60.9498 12.4763 60.7678 12.3851 60.5829C12.3669 60.546 12.3448 60.5087 12.3226 60.4713L12.3226 60.4713C12.2681 60.3793 12.2131 60.2865 12.2131 60.1958C12.2192 59.9742 12.2532 59.742 12.2871 59.5106C12.3563 59.0382 12.425 58.5695 12.2546 58.2028C12.1809 58.0443 12.0976 57.8983 12.0159 57.755C11.7781 57.3382 11.5529 56.9433 11.6094 56.3245C11.666 55.6992 11.348 55.0252 11.0477 54.3886L11.0476 54.3886L11.0476 54.3885C10.9906 54.2676 10.9341 54.1481 10.881 54.0304C10.8544 53.9712 10.8273 53.9129 10.8006 53.8552C10.5398 53.2926 10.3072 52.791 10.7233 52.1278C10.894 51.8562 10.7953 51.3912 10.7123 50.9996C10.7032 50.957 10.6944 50.9152 10.686 50.8746C10.5163 50.1523 10.6461 49.392 11.0459 48.7669C11.39 48.1905 11.6797 47.4578 11.6367 46.8169C11.565 45.667 11.8976 44.7666 12.4253 43.74C13.439 41.7671 14.2204 39.6608 14.8928 37.5416C15.066 37.0004 15.0128 36.3944 14.9591 35.7837C14.9275 35.4238 14.8957 35.0622 14.91 34.7113C14.9199 34.4761 15.0337 34.2457 15.1477 34.0148C15.1999 33.9093 15.252 33.8037 15.2943 33.6976C15.3946 33.7378 15.4961 33.7757 15.5977 33.8137L15.5977 33.8137C15.8186 33.8961 16.0396 33.9787 16.2478 34.0847C16.4729 34.1978 16.6878 34.3313 16.9639 34.5029C17.101 34.5881 17.2532 34.6826 17.4292 34.7887C17.3332 34.2711 17.2902 34.036 17.24 33.7607H18.2178C18.311 33.2345 18.5806 33.1872 19.1914 33.3305C23.543 34.3213 27.9104 35.2777 32.2892 36.1623C34.2101 36.5555 36.1589 36.8201 38.1042 37.0841L38.1042 37.0841L38.1042 37.0841L38.1042 37.0841C38.3224 37.1138 38.5405 37.1434 38.7586 37.1731C41.1315 37.4958 43.5102 37.7753 45.8918 38.0334C46.9442 38.1481 48.0081 38.2012 49.0662 38.2112C50.9718 38.2288 52.8782 38.2255 54.7565 38.2223H54.7566H54.7566C55.4885 38.2211 56.2162 38.2198 56.9378 38.2198L57.4941 37.5302C57.5657 37.5894 57.65 37.6467 57.7351 37.7045C57.9381 37.8424 58.1453 37.9832 58.1938 38.161C58.3961 38.891 58.9247 38.9757 59.4916 39.0665C59.5917 39.0826 59.693 39.0988 59.794 39.1188C60.5097 39.2608 61.2171 39.4446 61.992 39.6458L61.9921 39.6459L61.9927 39.646C62.329 39.7334 62.6779 39.824 63.0458 39.916C63.556 39.6024 64.132 39.7695 64.7488 39.9484C65.0906 40.0476 65.4449 40.1504 65.8073 40.177C65.6648 40.6906 65.6304 40.7074 64.8299 41.0997L64.8296 41.0999L64.8272 41.101C64.7345 41.1465 64.6315 41.1969 64.5169 41.2538C64.1573 41.4316 63.8473 41.7046 63.5015 42.0091L63.5015 42.0091C63.3344 42.1562 63.1589 42.3107 62.9655 42.4653C63.1464 42.5018 63.3424 42.4566 63.5261 42.4142C63.8913 42.33 64.2073 42.2571 64.256 42.8611C64.2574 42.8783 64.7506 42.9471 64.9198 42.8439C65.2473 42.6475 65.5612 42.4294 65.8748 42.2114L65.8749 42.2114C66.1957 41.9885 66.5163 41.7657 66.8512 41.5663C67.1884 41.365 67.553 41.2069 67.9176 41.0488C68.0801 40.9783 68.2425 40.9079 68.4025 40.8337L68.6305 41.1204L68.0613 42.0753C68.0652 42.0837 68.0682 42.0928 68.0711 42.1018C68.0766 42.1189 68.082 42.1357 68.0943 42.147C69.0054 43.0745 69.938 42.7772 70.8771 42.4778C71.1721 42.3838 71.4676 42.2896 71.7634 42.2331C71.9713 42.1874 72.1951 42.2445 72.4244 42.3029C72.5334 42.3307 72.6437 42.3589 72.7541 42.3764C72.9843 42.413 73.2157 42.4464 73.491 42.4861C73.6256 42.5055 73.7707 42.5264 73.9313 42.5499L75.2676 43.6081L75.1658 43.9278H73.1413C73.4049 44.0547 73.6823 44.1615 73.954 44.2659C74.5599 44.499 75.1368 44.7209 75.4655 45.1308C75.9042 45.6771 76.3042 46.642 75.444 47.4249C75.613 47.4249 75.7842 47.4085 75.9471 47.3929C76.2896 47.3601 76.5954 47.3309 76.7674 47.465C76.9861 47.6341 77.084 47.9513 77.1817 48.268L77.1818 48.2682L77.1818 48.2683C77.2224 48.3999 77.263 48.5314 77.3122 48.6522C77.6907 49.577 77.6549 50.4115 77.0255 51.2818C76.3573 52.2052 76.4276 52.2783 77.5258 52.4418C77.9058 52.4977 78.4091 52.5536 78.6729 52.3686C79.7156 51.6315 80.7268 50.8516 81.6623 50.1301L81.6624 50.1301L81.6626 50.1299L81.6643 50.1286C81.9746 49.8893 82.2765 49.6564 82.5686 49.4336C82.539 49.2101 82.4947 48.9819 82.4549 48.7769C82.3809 48.3954 82.3225 48.0944 82.4037 48.0543C83.0059 47.746 83.6926 47.4693 84.3536 47.4593C84.9831 47.4507 85.4534 47.3976 85.9652 46.989C86.4327 46.6148 86.5789 46.3552 86.1932 45.8764C86.1029 45.766 86.0498 45.5079 86.1201 45.4147C86.2688 45.2137 86.4072 45.0039 86.5451 44.7947C87.1305 43.9068 87.7094 43.0288 89.0508 42.8768C90.1283 42.7567 91.1875 42.4261 92.2319 42.1002L92.5005 42.0165C93.3579 41.7499 93.8627 40.62 93.9458 39.7225C94.0405 38.6901 94.2139 37.6004 94.6943 36.7115C94.9337 36.2684 95.9273 36.0677 96.5941 36.0333C96.8727 36.024 97.1435 36.1268 97.3458 36.3186C97.5482 36.5105 97.6652 36.7754 97.6708 37.0541C97.6844 37.2525 97.7524 37.4464 97.8207 37.6413L97.8207 37.6414C97.8754 37.7973 97.9302 37.9538 97.9576 38.1137C98.1105 38.9881 98.7887 39.4738 99.4333 39.9355ZM88.6293 57.6838L89.6014 59.2609C89.5814 59.1366 89.5961 58.9906 89.6115 58.8382V58.8381V58.8381C89.6613 58.3454 89.7177 57.7867 88.6293 57.6838ZM69.9209 52.9622C71.1139 52.4217 71.5985 51.3205 71.068 50.3169C70.1088 48.5146 70.6794 46.956 71.8193 45.4692C72.0592 45.1556 72.3223 44.8605 72.6154 44.5319C72.7216 44.4127 72.8318 44.2891 72.9463 44.1587C71.4479 44.0741 69.7776 44.8713 69.3618 45.7946C69.4461 45.8041 69.5312 45.8041 69.6155 45.7946C69.7856 45.7389 69.9526 45.6743 70.1159 45.6011C70.0847 45.7069 70.0534 45.8126 70.0221 45.918C69.311 48.3146 68.6313 50.6055 69.9209 52.9622Z" fill="#DCF5FF"/>
<path id="Shape_2" fill-rule="evenodd" clip-rule="evenodd" d="M66.5899 45.9452V39.6365C66.575 35.4235 63.1622 32.0126 58.9492 32H57.4208C53.2061 32.0126 49.7926 35.4261 49.78 39.6408V45.9495H45.5775V56.6457C45.3854 61.0403 48.8236 64.675 53.2183 64.86H63.2463C67.6395 64.6693 70.9889 60.9443 70.8871 56.6457V45.9495L66.5899 45.9452ZM60.3816 54.8348C60.3165 54.8994 60.2515 54.9751 60.1867 55.0506C60.0602 55.198 59.9341 55.3448 59.808 55.4083L60.1909 59.6108H56.1762L56.5576 55.4083C55.3159 54.5481 55.0292 52.7343 55.9841 51.5887C56.8444 50.347 58.6596 50.0602 59.8052 51.0152C61.0497 51.8668 61.3365 53.6806 60.3816 54.8276V54.8348ZM52.8354 40.1182V45.9452H63.5345V40.1182C63.5157 37.3302 61.2598 35.0749 58.4717 35.0569H57.8982C55.1102 35.0749 52.8542 37.3302 52.8354 40.1182Z" fill="#00BEF0"/>
<path id="Path" d="M41.2447 81.8721C40.4871 81.8892 39.7369 81.7188 39.061 81.376C38.4644 81.0707 37.9608 80.6107 37.6029 80.044C37.2565 79.4877 36.9982 78.8812 36.8372 78.246C36.6707 77.5754 36.5888 76.8866 36.5935 76.1957C36.5923 75.5384 36.6771 74.8838 36.8458 74.2486C37.0138 73.6096 37.2731 72.9983 37.6158 72.4334C37.9722 71.8512 38.4749 71.3727 39.0739 71.0454C39.7394 70.6841 40.4877 70.5027 41.2447 70.5192C42.2436 70.5192 43.0953 70.7768 43.7998 71.292C44.4677 71.7613 44.9872 72.4121 45.2967 73.1675L43.1531 74.1296C42.9161 73.7537 42.6203 73.4182 42.2771 73.1359C41.9773 72.9197 41.6141 72.8093 41.2447 72.8219C40.8793 72.8145 40.5208 72.9218 40.2195 73.1288C39.9238 73.3361 39.6895 73.6195 39.5414 73.9489C39.3838 74.2915 39.2674 74.6515 39.1944 75.0214C39.1197 75.4083 39.0827 75.8016 39.084 76.1957C39.0809 76.7288 39.1528 77.2597 39.2976 77.7729C39.4291 78.25 39.6786 78.6864 40.0231 79.0418C40.3373 79.3827 40.7811 79.5749 41.2447 79.5709C41.9282 79.5709 42.5538 79.0977 43.1216 78.1514L45.3124 78.9715C44.4168 80.9052 43.0609 81.8721 41.2447 81.8721Z" fill="#004658"/>
<path id="Path_2" d="M52.0284 81.8721C51.2718 81.8885 50.5227 81.7181 49.8476 81.376C49.251 81.0707 48.7473 80.6106 48.3894 80.044C48.0429 79.4879 47.785 78.8813 47.6252 78.246C47.4582 77.5754 47.3758 76.8866 47.38 76.1956C47.3796 75.5384 47.4644 74.8839 47.6324 74.2485C47.8 73.6096 48.0588 72.9983 48.4009 72.4333C48.7578 71.8515 49.2604 71.3731 49.8591 71.0454C50.5242 70.6842 51.2718 70.5024 52.0284 70.5177C53.0264 70.5177 53.8776 70.7754 54.5821 71.2906C55.2503 71.7598 55.7703 72.4106 56.0804 73.166L53.9297 74.1281C53.6931 73.7523 53.3978 73.4168 53.055 73.1344C52.7552 72.9183 52.3921 72.8078 52.0227 72.8204C51.6573 72.8128 51.2987 72.9202 50.9975 73.1273C50.7013 73.3341 50.4669 73.6176 50.3193 73.9474C50.1612 74.2897 50.0447 74.6498 49.9724 75.0199C49.8969 75.4067 49.86 75.8001 49.862 76.1942C49.8584 76.7273 49.9299 77.2582 50.0742 77.7714C50.2062 78.2483 50.4556 78.6846 50.7997 79.0403C51.1144 79.3813 51.5586 79.5735 52.0227 79.5694C52.7052 79.5694 53.3303 79.0962 53.8981 78.1499L56.0904 78.97C55.2015 80.9047 53.8475 81.8721 52.0284 81.8721Z" fill="#004658"/>
<path id="Shape_3" fill-rule="evenodd" clip-rule="evenodd" d="M58.7373 70.6741V81.7144L61.126 81.7115V77.7542H63.6123C64.2108 77.7641 64.8055 77.6569 65.3629 77.4388C65.8289 77.2623 66.2451 76.9754 66.5759 76.6029C66.8629 76.2702 67.0873 75.8884 67.2383 75.4759C67.7005 74.18 67.4263 72.7356 66.5214 71.6992C65.8953 71.0158 64.9256 70.6741 63.6123 70.6741H58.7373ZM64.6589 75.1232C64.4486 75.3755 64.1332 75.5017 63.7126 75.5017H61.1318V72.9467H63.7126C64.1542 72.9467 64.474 73.0757 64.6747 73.3338C64.8729 73.5879 64.9786 73.902 64.9744 74.2242C64.9806 74.552 64.8686 74.8711 64.6589 75.1232Z" fill="#004658"/>
<path id="Shape_4" fill-rule="evenodd" clip-rule="evenodd" d="M74.9393 79.5637L75.7595 81.7144H78.3776L74.0088 70.6741H71.7075L67.3545 81.7144H69.9726L70.7928 79.5637H74.9393ZM73.1887 74.9812L74.135 77.3628H71.5814L72.5277 74.9812C72.6577 74.6785 72.7678 74.3677 72.8574 74.0507C72.9505 74.3668 73.0611 74.6774 73.1887 74.9812Z" fill="#004658"/>
<path id="Path_3" d="M12.2904 46.242C13.8174 46.6621 15.3301 47.1453 16.8786 47.4808C17.7647 47.6743 18.4228 48.1174 19.0222 48.7325C19.1039 48.9562 19.0222 49.1626 18.9634 49.3734C18.4959 51.0639 18.0443 52.7572 17.5568 54.4405C17.4478 54.7575 17.5078 55.1082 17.716 55.371C19.9713 58.5885 22.3041 61.7515 24.4807 65.022C24.8649 65.5955 24.9294 66.3124 25.2291 66.9289C25.3108 67.0981 25.1029 67.2042 24.9595 67.2687C24.6238 67.415 24.4011 67.7402 24.386 68.1061C24.3746 68.2022 24.3631 68.3384 24.3 68.3828C23.7896 68.7499 23.6777 69.1212 24.1251 69.6503C24.2685 69.8252 24.0218 70.0045 23.7924 70.102C23.153 70.3758 23.3465 70.7472 22.7228 70.707C21.9887 70.6611 20.4431 69.8754 19.7118 69.7664C18.6436 69.6044 17.5281 68.7628 17.5611 67.696C17.5697 67.372 15.234 65.0965 15.4448 65.3417C15.5882 65.5037 15.5667 65.6772 15.3301 65.6543C14.8455 65.6084 14.292 65.7661 13.9364 65.2442C13.822 65.1056 13.6963 64.9766 13.5608 64.8585C13.4174 64.7037 13.1306 64.5789 13.1823 64.3581C13.2468 64.0886 13.5809 64.3366 13.7959 64.1603C13.6525 63.8176 13.35 63.5968 13.079 63.3702C12.8324 63.1666 12.7234 62.9559 12.874 62.6533C13.1966 62.0009 12.9643 61.4375 12.5872 60.9012C12.1341 60.2617 12.0854 59.4402 11.6165 58.7964C11.5413 58.6755 11.5211 58.5283 11.5607 58.3916C11.6004 58.2549 11.6962 58.1414 11.8244 58.0795C12.1198 57.916 12.1012 57.7182 11.8502 57.526C11.2394 57.0572 11.1993 56.4306 11.3498 55.7481C11.3785 55.6162 11.5205 55.4527 11.4058 55.3538C10.6243 54.6914 11.0043 53.5372 10.2946 52.8231C9.92608 52.4532 10.1913 51.9041 10.3519 51.5227C10.594 51.007 10.5392 50.4008 10.2085 49.9369C9.81424 49.349 10.0293 48.9332 10.4365 48.5318C10.9182 48.0788 11.2076 47.4584 11.2452 46.7983C11.2868 46.0269 11.3197 46.0011 12.0696 46.209C12.1425 46.2245 12.2162 46.2355 12.2904 46.242Z" fill="#00BEF0"/>
</g>
</g>
</svg>
