<svg width="56" height="56" viewBox="0 0 56 56" fill="none" xmlns="http://www.w3.org/2000/svg">
<rect opacity="0.1" width="56" height="56" rx="10" fill="url(#paint0_linear_639_245)"/>
<path fill-rule="evenodd" clip-rule="evenodd" d="M43.2617 19.2059H40.3086C39.9008 19.2059 39.5703 19.5351 39.5703 19.9412H37.5178C32.8304 19.9452 29.0316 23.7287 29.0275 28.3971V30.9706C29.0275 32.1889 28.0359 33.1765 26.8126 33.1765C25.5894 33.1765 24.5978 32.1889 24.5978 30.9706V21.4118C25.0055 21.4118 25.3361 21.0826 25.3361 20.6765V17.7353C25.3361 17.3292 25.0055 17 24.5978 17H15.7383C15.3305 17 15 17.3292 15 17.7353V20.6765C15 21.0826 15.3305 21.4118 15.7383 21.4118V30.9706C15.7383 37.062 20.6964 42 26.8126 42C32.9288 42 37.887 37.062 37.887 30.9706V28.7647H39.5703C39.5703 29.1708 39.9008 29.5 40.3086 29.5H43.2617C43.6695 29.5 44 29.1708 44 28.7647V19.9412C44 19.5351 43.6695 19.2059 43.2617 19.2059ZM16.4767 18.4706H23.8596V19.9412H16.4767V18.4706ZM42.5237 28.0294H41.0471V20.6765H42.5237V28.0294Z" fill="url(#paint1_linear_639_245)"/>
<circle cx="24.6614" cy="36.9559" r="2.55882" stroke="#14CFC5" stroke-width="1.5"/>
<path d="M18.4552 30.7364C18.8004 30.1386 19.5648 29.9337 20.1627 30.2789L21.7929 31.2201C22.3907 31.5653 22.5956 32.3298 22.2504 32.9276L21.3092 34.5578C20.9641 35.1557 20.1996 35.3605 19.6017 35.0153L17.9715 34.0741C17.3737 33.729 17.1688 32.9645 17.514 32.3666L18.4552 30.7364Z" stroke="#14CFC5" stroke-width="1.5"/>
<defs>
<linearGradient id="paint0_linear_639_245" x1="72.6281" y1="28.8918" x2="29.639" y2="-15.8957" gradientUnits="userSpaceOnUse">
<stop stop-color="#5657B9"/>
<stop offset="1" stop-color="#6E4CB6"/>
</linearGradient>
<linearGradient id="paint1_linear_639_245" x1="52.611" y1="29.8981" x2="33.7428" y2="7.09533" gradientUnits="userSpaceOnUse">
<stop stop-color="#5657B9"/>
<stop offset="1" stop-color="#6E4CB6"/>
</linearGradient>
</defs>
</svg>
