<svg xmlns="http://www.w3.org/2000/svg" width="19" height="19" viewBox="0 0 19 19">
    <g fill="none" fill-rule="evenodd">
        <g fill="#FFF">
            <path d="M51.07 73.278h2.141V68h-2.14v5.278zM64.986 77.5h-2.14v3.167h2.14c2.497 0 2.497-3.167 0-3.167zm-4.282 0h-8.563v3.167c0 2.331 1.917 4.222 4.282 4.222 2.364 0 4.281-1.89 4.281-4.222V77.5zm4.282 5.278H62.47C61.59 85.236 59.217 87 56.423 87 52.875 87 50 84.165 50 80.667v-5.278H64.985c5.353 0 5.353 7.389 0 7.389zm-5.352-9.5h2.14V68h-2.14v5.278zm-4.282 0h2.141V68h-2.14v5.278z" transform="translate(-50 -68)"/>
        </g>
    </g>
</svg>
