<svg width="2385" height="1280" viewBox="0 0 2385 1280" fill="none" xmlns="http://www.w3.org/2000/svg">
<g id="Design">
<path id="Circle" d="M1082.44 598.255C1134.61 508.612 1212.44 428.836 1308.01 386.522C1409.32 341.665 1670.51 327.638 1826.97 520.693C1892.53 601.583 1939.83 698.269 1954.14 801.47C1957.64 826.664 1959.37 852.057 1959.24 877.496C1959.21 882.723 1951.11 882.734 1951.14 877.496C1951.67 774.506 1921.21 672.173 1865.57 585.682C1750.74 400.161 1579.28 349.704 1390.93 368.288C1336.13 373.702 1286.55 402.013 1241.5 433.71C1198.86 463.709 1161.26 501.148 1129.54 542.501C1068.73 621.738 1028.61 717.721 1016.94 817.137C1005.73 912.627 1021.51 1010.17 1067.11 1095.12C1109.9 1174.83 1176.16 1242.36 1256.68 1283.77C1298.62 1305.35 1344.15 1319.24 1391 1324.56C1451.24 1331.41 1512.21 1325.61 1571.55 1314.38C1627.51 1303.8 1683.3 1288.81 1734.44 1263.22C1776.43 1242.21 1814.12 1213.66 1845.96 1179.12C1908.61 1111.13 1948.32 1021.36 1954.81 928.892C1956.35 906.85 1955.99 884.715 1953.72 862.732C1953.18 857.541 1961.29 857.576 1961.82 862.732C1971.48 956.488 1945.55 1052.37 1893.93 1130.75C1868.18 1169.84 1836.08 1204.61 1798.79 1232.87C1755.95 1265.34 1706.44 1287.41 1655.15 1302.74C1598.21 1319.78 1538.43 1330.83 1479.1 1334.5C1423.6 1337.92 1367.33 1333.45 1314.19 1316.37C1226.82 1288.31 1150.95 1230.05 1096.49 1156.55C1039.31 1079.35 1007.9 986.205 1005.45 890.164C1002.83 788.193 1031.28 686.164 1082.44 598.255Z" fill="#708FF1"/>
<g id="Connector_2">
<path id="Path" d="M1755.99 -71.2684C1756.43 -87.4158 1756.89 -103.552 1757.33 -119.699C1757.47 -124.914 1765.58 -124.937 1765.43 -119.699C1763.85 -62.7493 1762.26 -5.81129 1760.68 51.1385C1760.24 67.2859 1759.78 83.4217 1759.34 99.5692C1759.2 104.784 1751.09 104.807 1751.24 99.5692L1755.99 -71.2684Z" fill="#32E3A7"/>
</g>
<g id="Connector_1">
<path id="Path_2" d="M1885.99 9.28169C1887.16 -61.3196 1887.34 -131.933 1886.52 -202.534C1886.06 -242.106 1885.29 -281.678 1884.2 -321.238C1884.06 -326.464 1892.16 -326.464 1892.3 -321.238C1894.23 -250.66 1895.18 -180.047 1895.12 -109.446C1895.06 -38.8444 1894.02 31.7686 1891.98 102.346C1890.83 141.907 1889.37 181.455 1887.61 220.992C1887.37 226.195 1879.27 226.23 1879.51 220.992C1882.65 150.449 1884.82 79.8713 1885.99 9.28169Z" fill="#32E3A7"/>
</g>
<g id="Dots">
<path id="Shape" fill-rule="evenodd" clip-rule="evenodd" d="M671.27 387.142C660.972 401.168 641.872 407.625 625.402 401.45C620.095 399.458 615.197 396.341 611.117 392.45C601.708 387.036 595.255 377.029 593.7 365.756C591.281 348.308 601.369 332.524 617.336 325.774C633.432 318.978 653.175 322.857 664.128 336.965C665.647 338.922 666.863 341.031 667.845 343.223C679.207 354.941 681.042 373.83 671.27 387.142ZM645.11 395.028C657.196 392.333 668.885 382.373 669.622 369.295C669.704 367.866 669.657 366.436 669.505 365.007C667.775 371.522 664.069 377.521 658.47 381.834C656.892 383.052 655.221 384.048 653.491 384.845C648.955 390.071 642.62 393.798 635.84 395.555C638.926 395.86 642.047 395.72 645.11 395.028ZM615.863 385.947C614.332 384.388 612.941 382.677 611.772 380.814C606.582 372.565 606.734 362.616 611.304 354.753C610.895 357.366 610.907 360.026 611.339 362.675C611.199 365.756 611.725 368.862 613.128 371.862C615.454 376.842 619.896 380.767 625.016 382.267C628.616 384.505 632.614 386.064 636.74 386.79C629.96 389.31 622.281 389.204 615.863 385.947ZM628.756 347.875C628.739 347.886 628.724 347.898 628.71 347.91C628.695 347.922 628.68 347.933 628.663 347.945C634.355 346.797 640.317 346.539 645.413 349.058C642.947 346.492 640.025 344.641 636.869 343.609C633.946 344.641 631.188 346.105 628.756 347.875ZM628.569 356.405C629.025 360.413 630.054 364.667 632.064 368.217C628.441 365.628 625.869 361.632 625.834 357.027C626.676 356.816 627.599 356.605 628.569 356.405ZM643.193 359.101C644.069 360.237 645.004 361.327 645.998 362.358C645.975 361.737 645.893 361.163 645.752 360.636C644.946 360.05 644.081 359.546 643.193 359.101ZM603.239 350.089C607.844 338.289 620.586 330.778 632.941 330.52C634.391 330.485 635.84 330.579 637.289 330.755C637.211 330.762 637.138 330.76 637.067 330.757C637.031 330.756 636.997 330.755 636.962 330.755C631.76 331.012 627.155 332.747 623.356 335.489C613.619 338.418 605.331 346.469 601.673 356.113C601.976 354.05 602.479 352.023 603.239 350.089Z" fill="#F4F3E9"/>
<path id="Shape_2" fill-rule="evenodd" clip-rule="evenodd" d="M846.889 400.641C863.92 398.028 876.275 382.162 876.357 365.147C876.38 359.991 875.153 355.187 873.002 350.91C873.587 347.828 873.482 344.652 871.962 341.793C869.776 337.68 865.311 335.594 861.208 333.895C858.157 332.63 854.849 331.645 851.436 330.977C848.806 328.88 845.743 327.298 842.47 326.325C829.039 322.341 811.015 329.478 811.166 345.508C811.166 346.246 811.248 346.973 811.33 347.699C808.899 353.722 808.56 360.776 810.418 367.046C810.173 368.674 810.033 370.35 810.103 372.108C810.453 380.428 814.264 388.759 820.763 394.044C828.104 400.02 837.643 402.059 846.889 400.641ZM852.429 352.773C850.442 350.383 847.695 348.637 844.469 347.734C845.918 347.453 847.38 347.266 848.829 347.172C850.091 347.641 851.284 348.262 852.394 349.035C852.511 350.277 852.535 351.531 852.429 352.773ZM859.49 358.784C859.139 360.109 858.741 361.421 858.227 362.698C858.157 362.868 858.081 363.032 858.005 363.196C857.929 363.36 857.853 363.524 857.783 363.694C857.806 363.753 857.83 363.809 857.853 363.864C857.876 363.92 857.9 363.976 857.923 364.034C858.706 362.991 859.431 361.913 860.109 360.823C859.934 360.132 859.723 359.452 859.49 358.784ZM838.753 372.893C837.818 373.35 836.813 373.725 835.784 374.041C833.96 372.6 832.371 370.631 831.365 368.44C833.353 368.663 835.398 368.546 837.432 368.053C838.508 369.331 839.665 370.549 840.892 371.686C840.202 372.12 839.489 372.53 838.753 372.893ZM822.75 367.983C822.517 366.999 822.341 366.014 822.248 365.018C821.757 364.69 821.266 364.362 820.798 364.011C820.798 364.081 820.801 364.151 820.804 364.222C820.807 364.292 820.81 364.362 820.81 364.433C821.289 365.651 821.956 366.846 822.75 367.983ZM836.824 391.548C844.469 392.65 852.067 390.915 857.947 386.896C851.377 392.298 842.505 394.524 833.762 391.935C831.108 391.15 828.689 389.802 826.549 388.08C829.706 389.849 833.201 391.021 836.824 391.548Z" fill="#F4F3E9"/>
<path id="Shape_3" fill-rule="evenodd" clip-rule="evenodd" d="M1081.23 371.545C1080.23 375.763 1077.67 379.068 1074.42 381.587C1073.3 383.31 1072.01 384.915 1070.47 386.251C1068.32 388.126 1065.92 389.45 1063.41 390.306C1061.1 392.075 1058.54 393.505 1055.77 394.465C1039.81 399.996 1022.81 389.977 1015.14 376.033C1011.16 368.78 1008.21 359.475 1009.51 351.132C1010.78 343.035 1017.12 336.86 1024.34 333.614C1038.08 327.438 1056.31 329.782 1066.32 341.734C1067.63 343.304 1068.74 345.015 1069.68 346.808C1072.2 348.191 1074.48 350.019 1076.32 352.304C1080.59 357.636 1082.86 364.76 1081.23 371.545ZM1055.53 363.12C1055.35 363.518 1055.18 363.917 1055.07 364.327C1055.89 365.018 1056.74 365.674 1057.62 366.284C1057.64 366.213 1057.66 366.146 1057.69 366.079C1057.71 366.011 1057.73 365.944 1057.75 365.873C1057.07 364.913 1056.35 363.975 1055.53 363.12ZM1020.66 345.976C1024.41 341.793 1030.06 339.449 1035.53 338.652C1036.8 338.465 1038.1 338.371 1039.41 338.348C1035.9 339.156 1032.62 340.609 1029.71 342.601C1028.08 341.535 1025.98 341.488 1024.49 342.976C1023.24 344.242 1022.92 346.503 1023.9 348.027C1021.56 350.968 1019.81 354.448 1018.91 358.409C1018.63 359.593 1018.46 360.811 1018.33 362.042C1016.93 356.452 1016.54 350.558 1020.66 345.976Z" fill="#F4F3E9"/>
<path id="Shape_4" fill-rule="evenodd" clip-rule="evenodd" d="M880.611 2.01645C879.664 4.77019 878.343 7.44191 876.613 9.92614C871.681 16.9687 864.41 21.7731 855.772 22.4762C855.07 22.5348 854.357 22.5699 853.656 22.5699C837.221 28.7571 816.332 21.3747 809.751 4.45381C804.444 -9.19773 810.301 -26.7865 822.89 -34.2041C823.813 -35.1181 824.784 -35.9852 825.836 -36.7938C833.352 -42.5239 842.972 -43.5551 851.727 -41.106C862.002 -43.6722 873.913 -40.5435 881.009 -32.3643C889.822 -22.2048 888.244 -7.86187 880.611 2.01645ZM851.482 -4.21756L851.517 -4.25271C851.511 -4.27029 851.508 -4.28786 851.505 -4.30544C851.502 -4.32302 851.499 -4.3406 851.493 -4.35817C850.687 -4.79174 849.857 -5.19016 849.004 -5.5417C849.039 -5.13156 849.085 -4.72143 849.167 -4.3113C849.248 -4.24186 849.326 -4.17115 849.404 -4.10084L849.404 -4.10069L849.404 -4.10066C849.563 -3.95747 849.72 -3.81596 849.892 -3.69024C849.994 -3.60868 850.184 -3.50937 850.393 -3.40005L850.488 -3.35042C850.583 -3.4321 850.68 -3.51278 850.778 -3.59391L850.778 -3.59415C851.016 -3.79231 851.258 -3.99314 851.482 -4.21756ZM855.14 12.6682C854.112 13.3244 853.025 13.8986 851.903 14.4024C850.745 14.3204 849.588 14.1212 848.431 13.8868C849.693 13.3478 850.909 12.715 852.09 12.012C853.095 12.2815 854.112 12.5041 855.14 12.6682Z" fill="#F4F3E9"/>
<path id="Shape_5" fill-rule="evenodd" clip-rule="evenodd" d="M602.689 17.9052C615.29 29.4592 635.279 27.807 645.226 13.6047C649.458 7.5582 650.72 0.0586462 649.832 -7.35888C649.703 -10.9329 648.85 -14.4249 647.225 -17.6356C644.735 -23.9282 640.784 -29.588 635.91 -33.5136C623.8 -43.263 604.279 -43.263 594.063 -30.5138C587.306 -22.065 587.248 -9.03457 593.385 -0.374923C594.121 6.35124 597.16 12.843 602.689 17.9052ZM599.358 -22.4869C598.68 -21.5846 598.084 -20.6472 597.639 -19.6511L597.639 -19.651C597.593 -19.5808 597.546 -19.5105 597.499 -19.4285C598.142 -21.7721 599.311 -23.9048 600.877 -25.7562C600.737 -25.4398 600.632 -25.0883 600.562 -24.7368C600.024 -24.0571 599.65 -23.2954 599.358 -22.4869Z" fill="#F4F3E9"/>
<path id="Shape_6" fill-rule="evenodd" clip-rule="evenodd" d="M1077.25 179.709C1072.98 192.482 1061.03 202.337 1047.6 203.86C1031.75 205.653 1015.77 195.599 1010.09 180.787C1004.38 165.893 1009.86 147.777 1022.79 138.555C1028.55 134.454 1035.74 132.309 1042.86 132.333C1050.35 129.649 1058.71 130.083 1065.51 135.462C1068.79 138.063 1071.11 141.485 1072.64 145.34L1073.01 145.162L1073.01 145.162C1073.63 144.865 1074.24 144.566 1074.9 144.332C1076.52 143.746 1078.67 144.707 1079.47 146.195C1085.14 156.624 1084 170.077 1077.25 179.709ZM1042.76 179.861C1046.14 180.588 1049.82 180.295 1053.18 179.147C1052.63 178.701 1052.09 178.244 1051.58 177.764C1048.57 177.342 1045.69 176.17 1043.25 174.108C1041.76 172.842 1040.52 171.319 1039.52 169.655C1038.59 173.346 1039.37 177.225 1042.76 179.861ZM1058.85 168.542C1057.7 169.21 1056.44 169.643 1055.13 169.819C1052.93 166.901 1051.58 163.351 1051.47 159.765C1054.24 160.198 1056.75 161.359 1058.81 163.151C1058.61 164.229 1058.45 165.308 1058.38 166.421C1058.33 167.276 1058.52 167.968 1058.85 168.542ZM1031.65 167.557C1032.29 165.026 1033.41 162.612 1034.94 160.48C1035.59 159.589 1036.3 158.757 1037.05 157.96C1037.18 156.929 1037.37 155.91 1037.69 154.902C1038.68 151.797 1042.12 151.468 1044.17 152.886C1044.3 152.829 1044.43 152.768 1044.55 152.708L1044.55 152.707C1044.79 152.596 1045.03 152.485 1045.28 152.394C1046.01 151.843 1046.94 151.515 1047.82 151.457C1048.14 151.435 1048.45 151.436 1048.77 151.437H1048.77C1048.96 151.437 1049.14 151.438 1049.33 151.433C1046.92 150.519 1044.35 150.203 1041.76 150.754C1034.25 152.324 1030.77 160.398 1031.65 167.557ZM1038.71 195.388C1027.2 192.939 1017.53 183.693 1016.15 171.729C1015.02 161.98 1018.88 151.972 1026.46 145.973C1026.44 145.996 1026.43 146.017 1026.42 146.037C1026.41 146.058 1026.4 146.078 1026.39 146.102C1023.11 149.312 1020.46 153.214 1018.75 157.597C1013.26 171.659 1020.64 186.705 1034.07 192.681C1040.62 195.599 1047.44 195.88 1053.56 193.993C1048.93 195.868 1043.81 196.478 1038.71 195.388Z" fill="#F5455A"/>
<path id="Shape_7" fill-rule="evenodd" clip-rule="evenodd" d="M872.662 187.266C868.396 200.039 856.449 209.894 843.018 211.417C827.168 213.21 811.189 203.156 805.508 188.344C799.792 173.451 805.274 155.335 818.202 146.113C823.965 142.011 831.154 139.867 838.273 139.89C845.765 137.207 854.123 137.64 860.926 143.019C864.211 145.62 866.525 149.042 868.057 152.897L868.427 152.719C869.041 152.423 869.661 152.124 870.313 151.89C871.937 151.304 874.088 152.265 874.883 153.753C880.552 164.182 879.43 177.634 872.662 187.266ZM838.179 187.419C841.557 188.145 845.239 187.852 848.594 186.704C848.045 186.259 847.507 185.802 846.993 185.321C843.989 184.899 841.101 183.728 838.67 181.665C837.174 180.4 835.935 178.876 834.941 177.212C834.006 180.903 834.801 184.782 838.179 187.419ZM834.123 202.945C822.621 200.496 812.942 191.251 811.563 179.286C810.441 169.549 814.31 159.53 821.873 153.53C821.861 153.554 821.849 153.574 821.838 153.595C821.826 153.615 821.814 153.636 821.802 153.659C818.53 156.87 815.876 160.772 814.169 165.154C808.676 179.216 816.051 194.262 829.482 200.238C836.04 203.156 842.855 203.437 848.98 201.551C844.351 203.426 839.231 204.035 834.123 202.945Z" fill="#F5455A"/>
<path id="Shape_8" fill-rule="evenodd" clip-rule="evenodd" d="M1084.82 -19.5334C1083.96 -13.7681 1081.68 -8.02624 1078.99 -2.89373C1077.42 0.106091 1075.53 2.94186 1073.41 5.60186C1071.89 9.52741 1069.81 13.242 1067.12 16.5231C1055.29 30.9246 1031.39 34.0533 1016.64 22.3938C1008.16 15.6911 1004.77 4.78159 1006.31 -5.74122C1006.34 -5.99366 1006.4 -6.24234 1006.46 -6.48938C1006.51 -6.6781 1006.55 -6.86587 1006.59 -7.05364C1006.58 -7.21456 1006.57 -7.37549 1006.56 -7.5365V-7.53659V-7.53669V-7.53678V-7.53687V-7.53697V-7.53706V-7.53715C1006.53 -8.18493 1006.5 -8.8342 1006.53 -9.491C1006.57 -10.6276 1006.71 -11.7643 1006.88 -12.8775C1006.64 -18.8654 1007.84 -24.9237 1010.58 -30.1851C1020.2 -48.6059 1046.46 -51.301 1062.2 -39.5244C1062.54 -39.2677 1062.86 -38.9916 1063.17 -38.7148L1063.17 -38.7148L1063.17 -38.7147C1063.35 -38.5619 1063.52 -38.4089 1063.7 -38.2588C1068.41 -37.0167 1073.16 -35.4934 1077.45 -33.4427C1083.09 -30.7358 1085.76 -25.7557 1084.82 -19.5334ZM1047.83 -28.943C1039.88 -29.3297 1031.82 -27.0564 1025.56 -22.5332C1024.2 -20.1193 1023.46 -17.4124 1023.64 -14.6704C1029.11 -20.3771 1037 -23.7167 1044.95 -23.7284C1048.48 -23.7402 1052.01 -23.0253 1055.28 -21.7012C1055.26 -21.7277 1055.25 -21.7542 1055.24 -21.7829L1055.24 -21.7829L1055.24 -21.7829C1055.23 -21.8049 1055.22 -21.8281 1055.2 -21.8535C1053.21 -24.8651 1050.68 -27.2321 1047.83 -28.943ZM1045.45 -5.79981C1048.65 -8.54183 1054.18 -7.72157 1057.14 -4.69831C1056.83 -3.9132 1056.45 -3.15153 1056.03 -2.40157C1052.29 -2.08519 1048.47 -3.43276 1045.45 -5.79981ZM1043.32 3.37543C1045.19 4.04336 1047.1 4.61754 1049.03 5.13314C1049.1 5.08541 1049.17 5.02974 1049.24 4.97537C1049.29 4.93631 1049.34 4.89792 1049.39 4.86362C1047.18 4.28944 1045.04 3.4223 1043.06 2.26222C1043.14 2.64891 1043.22 3.01217 1043.32 3.37543ZM1035.6 -4.33505C1035.24 -3.05778 1035.04 -1.72193 1034.97 -0.350914C1032.16 -1.92113 1029.44 -3.83118 1027.33 -6.24509C1028.6 -8.20201 1030.19 -9.97144 1032.14 -11.4128C1032.83 -8.83478 1034.02 -6.45602 1035.6 -4.33505ZM1040.54 -12.1861C1042.46 -13.815 1044.83 -14.9633 1047.6 -15.4086C1045.02 -15.7367 1042.35 -15.5609 1039.78 -14.9399C1039.95 -14.0024 1040.18 -13.0767 1040.54 -12.1861ZM1024 5.44952C1023.99 4.27772 1024.07 3.10592 1024.25 1.95755C1027.73 4.92221 1031.97 7.33613 1036.42 9.25789C1031.89 9.36336 1027.58 8.03922 1024 5.44952ZM1017.11 -3.23355C1017.35 -4.0421 1017.61 -4.85065 1017.91 -5.64747C1017.07 -7.21769 1016.42 -8.88166 1016.01 -10.6511C1015.77 -10.0886 1015.56 -9.50271 1015.36 -8.91681C1015.7 -7.14738 1016.19 -5.40139 1016.88 -3.72571C1016.93 -3.60777 1016.98 -3.49589 1017.04 -3.37698L1017.04 -3.37684L1017.04 -3.37634C1017.06 -3.33006 1017.08 -3.28273 1017.11 -3.23355ZM1072.49 -26.8806C1073.37 -26.5056 1074.2 -26.0838 1074.96 -25.5799C1078.12 -23.4978 1076.82 -19.5474 1075.78 -16.3863L1075.77 -16.3695C1075.19 -20.0138 1074.08 -23.5644 1072.49 -26.8806Z" fill="#F5DE51"/>
<path id="Shape_9" fill-rule="evenodd" clip-rule="evenodd" d="M1004.45 14.7655C1006.31 14.5546 1008.21 13.9804 1010.1 12.9141C1017.07 8.98855 1020.06 -0.620258 1017.21 -7.94404C1018.36 -9.54942 1018.07 -11.6821 1016.8 -13.1937C1016.05 -14.0726 1015.23 -14.9046 1014.38 -15.7014C1013 -20.3066 1010.47 -24.5602 1006.87 -27.8179C1002.14 -32.095 995.99 -34.4737 989.608 -33.3019C983.857 -32.2473 978.749 -28.0639 975.92 -23.0252C975.733 -22.6708 975.563 -22.3082 975.396 -21.9512L975.396 -21.9512L975.3 -21.7479C975.289 -21.7362 975.277 -21.7245 975.265 -21.701C975.248 -21.6659 975.233 -21.6307 975.218 -21.5956C975.204 -21.5604 975.189 -21.5253 975.172 -21.4901L975.096 -21.3318C974.993 -21.118 974.891 -20.9074 974.798 -20.6816C972.565 -15.7951 972.261 -10.2877 973.185 -5.03796C973.278 -4.47557 973.407 -3.92491 973.535 -3.37424L973.535 -3.374C973.033 5.41454 979.204 13.2656 988.077 15.5272C989.666 15.9374 991.268 16.1483 992.846 16.2069C993.419 16.3006 993.991 16.3944 994.576 16.4412C996.165 16.5818 997.779 16.4764 999.357 16.2069C999.46 16.2265 999.56 16.2523 999.662 16.2783C999.802 16.3143 999.944 16.3505 1000.09 16.3709C1001.81 16.6287 1003.49 16.1131 1004.45 14.7655ZM997.463 1.14917C996.212 0.809348 994.985 0.317187 993.816 -0.315588C993.559 -2.92871 994.529 -5.3192 996.411 -6.95972C997.159 -4.29973 997.685 -1.41708 997.463 1.14917ZM1005.54 -1.71004C1005.56 -1.4913 1005.56 -1.27257 1005.57 -1.05384C1005.57 -0.944464 1005.57 -0.835092 1005.58 -0.72572C1006.48 -1.79206 1006.9 -3.18651 1006.39 -4.79188C1006.02 -5.96369 1005.33 -7.04175 1004.49 -8.02607C1004.98 -5.95197 1005.38 -3.84272 1005.54 -1.71004ZM989 -11.0962C988.953 -11.8462 988.977 -12.6547 989.292 -13.3226C989.412 -13.5799 989.713 -13.8936 989.857 -14.0434C989.91 -14.0983 989.941 -14.1312 989.935 -14.1312C990.391 -14.4476 990.94 -14.5765 991.466 -14.6116C991.992 -14.6468 992.472 -14.6233 992.939 -14.5647C991.443 -13.639 990.11 -12.4789 989 -11.0962Z" fill="#F5DE51"/>
</g>
<g id="Circle_2">
<path id="Path_3" d="M1915.53 299.491C1928.84 286.144 1947.87 288.23 1961.36 299.491C2075.18 394.548 2144.78 536.571 2154.12 684.335C2155.23 701.866 2138.43 716.818 2121.72 716.818C2103.25 716.818 2090.42 701.913 2089.31 684.335C2081.04 553.492 2016.22 429.515 1915.54 345.426C1902.08 334.188 1903.95 311.104 1915.53 299.491Z" fill="#91A9F5"/>
<g id="Group">
<path id="Shape_10" fill-rule="evenodd" clip-rule="evenodd" d="M1994.98 999.411C2011.3 990.318 2027.24 980.568 2042.8 970.233C2042.86 969.366 2043.22 968.499 2044.01 967.784C2052.41 960.05 2060.82 952.304 2069.19 944.523C2069.23 943.691 2069.54 942.836 2070.2 942.063C2080.99 929.712 2091.32 916.963 2101.17 903.85C2092.95 913.353 2084.18 922.376 2074.88 930.837C2071.66 933.766 2065.71 929.864 2068.52 925.915C2073.99 918.205 2079.57 910.564 2085.2 902.971C2080.37 907.998 2075.46 912.943 2070.34 917.677C2067.06 920.724 2061.48 916.822 2063.98 912.756C2067.25 907.447 2070.71 902.268 2074.26 897.147C2071.89 896.421 2070.06 893.948 2071.86 891.429C2089.63 866.598 2110.26 843.982 2133.48 824.167C2135.02 822.855 2136.94 822.878 2138.37 823.687L2138.61 823.347L2138.84 823.007C2140.73 820.242 2144.31 820.956 2145.83 822.972C2148.63 822.902 2150.95 825.644 2149.44 828.925C2149.05 829.776 2148.64 830.623 2148.24 831.471C2148 831.977 2147.75 832.483 2147.51 832.991L2147.95 832.795L2147.95 832.795C2148.48 832.553 2149.01 832.312 2149.56 832.1C2153 830.788 2155.77 835.206 2154.13 838.065C2150.34 844.686 2146.4 851.224 2142.38 857.704C2144.22 855.554 2146.07 853.4 2147.91 851.247C2149.75 849.094 2151.59 846.941 2153.43 844.791C2155.77 842.061 2159.33 844.041 2160.12 846.853C2165.88 839.612 2171.58 832.311 2177.14 824.894C2179.86 821.249 2185.45 823.312 2184.53 828.022C2174.12 882.078 2138.3 930.052 2090.66 957.05C2078.77 963.788 2066.13 969.19 2053.05 973.104C2052.27 973.632 2051.49 974.161 2050.71 974.691C2049.46 975.536 2048.21 976.381 2046.96 977.217C2031.38 987.587 2015.4 997.313 1999.06 1006.42C1994.51 1008.97 1990.42 1001.95 1994.98 999.411ZM2099.88 927.087C2109.27 919.294 2118 910.764 2125.64 901.366C2119.46 907.623 2113.2 913.799 2106.88 919.927C2105.08 921.804 2103.26 923.653 2101.44 925.501C2100.92 926.03 2100.4 926.558 2099.88 927.087ZM2122.59 918.755C2135.05 907.143 2146.59 894.487 2156.27 880.555C2138.81 910.869 2112.88 936.18 2082.04 952.468C2096.13 941.887 2109.77 930.72 2122.59 918.755Z" fill="#7198EC"/>
</g>
<g id="Group_2">
<g id="XMLID_69_-link">
<path id="XMLID_69_" d="M825.807 658.978C842.605 588.224 870.507 519.826 907.667 457.38C929.011 421.5 985.061 454.134 963.634 490.167C845.094 689.433 840.384 941.148 953.36 1143.85C983.892 1198.64 1021.72 1248.34 1066.32 1292.36C1096.1 1321.74 1050.26 1367.67 1020.49 1338.31C842.64 1162.8 768.051 902.28 825.807 658.978Z" fill="#91A9F5"/>
</g>
<path id="Path_4" opacity="0.29" d="M884.803 441.385C895.241 431.94 905.668 422.495 916.107 413.051L923.471 406.383C925.879 407.824 928.252 409.313 930.613 410.848C912.834 426.937 895.054 443.037 877.275 459.126C879.788 453.22 882.301 447.303 884.803 441.385Z" fill="#3BA6E0"/>
</g>
<path id="Path_5" d="M1135.91 189.869C1285.13 104.562 1469.21 80.5748 1635.79 121.787C1683.82 133.669 1730.29 149.922 1774.64 171.999C1790.31 179.803 1799.26 197.369 1792.27 214.418C1785.97 229.793 1765.7 239.929 1749.95 232.089C1608.51 161.687 1440.39 147.274 1289.07 194.088C1244.67 207.821 1201.95 226.441 1161.58 249.526C1146.36 258.221 1125.38 247.416 1118.98 232.57C1111.4 214.957 1120.65 198.587 1135.91 189.869Z" fill="#91A9F5"/>
</g>
<g id="Marker">
<path id="Path_6" d="M2213.97 218.127C2214.87 217.858 2215.77 217.67 2216.67 217.53C2216.62 217.026 2216.54 216.522 2216.52 216.018C2216.39 213.346 2219.21 211.436 2221.65 212.104C2228.6 213.991 2234.99 217.53 2240.34 222.24C2245.73 225.545 2249.9 230.877 2251.64 236.947C2252.99 239.665 2254.09 242.513 2254.87 245.466C2255.42 247.504 2254.19 249.977 2252.04 250.457C2234.06 254.453 2214.08 241.61 2211.14 223.119C2210.79 220.905 2211.69 218.819 2213.97 218.127Z" fill="#F4F3E9"/>
<path id="Shape_11" fill-rule="evenodd" clip-rule="evenodd" d="M2144.34 214.554C2144.34 214.648 2144.34 214.742 2144.33 214.836C2143.46 215.726 2143.03 217.05 2143.31 218.644C2143.65 220.542 2144.14 222.405 2144.75 224.222C2147.48 238.154 2159.11 250.447 2173.25 252.673C2175.79 253.072 2178.39 251.63 2178.38 248.759C2178.37 246.111 2178 243.498 2177.37 240.943C2177.1 233.608 2172.88 226.671 2166.85 222.347C2165.81 221.21 2164.7 220.12 2163.51 219.136C2162.64 218.433 2161.62 218.011 2160.59 217.988C2157.47 215.304 2154.06 212.949 2150.43 211.051C2147.49 209.516 2144.69 211.484 2144.34 214.554ZM2156.33 226.167C2156.85 226.261 2157.37 226.413 2157.89 226.577C2159.51 228.206 2161 229.952 2162.36 231.792C2159.96 230.432 2157.86 228.511 2156.33 226.167Z" fill="#F4F3E9"/>
<path id="Path_7" d="M2073.42 211.214C2073.39 209.656 2073.44 208.085 2073.66 206.492C2074.04 203.738 2077.58 202.988 2079.61 204.066C2086.42 207.64 2092.4 212.667 2097.21 218.643C2097.25 218.69 2097.31 218.737 2097.37 218.784C2101.92 223.073 2106.94 228.698 2108.21 235.025C2108.6 236.994 2108.67 239.068 2108.26 241.037C2108.26 241.06 2108.28 241.084 2108.28 241.107C2108.77 243.204 2107.45 245.829 2105.22 246.204C2103.04 247.903 2100.07 248.419 2097.28 247.833C2093.92 247.13 2090.6 245.161 2087.81 243.216C2085.05 241.283 2082.49 239.068 2080.27 236.537C2075.24 230.783 2071.68 223.764 2070.39 216.206C2069.98 213.71 2071.3 211.706 2073.42 211.214Z" fill="#F4F3E9"/>
</g>
<g id="Connector_3">
<path id="Shape_12" fill-rule="evenodd" clip-rule="evenodd" d="M615.775 614.871C606.19 627.058 588.855 630.725 574.361 626.835C559.036 622.722 547.522 609.656 547.733 593.368C547.943 577.291 558.44 561.589 573.297 555.484C590.375 548.476 610.106 557.628 618.663 573.412C620.778 577.315 622.029 581.404 622.555 585.517C624.519 595.618 622.158 606.739 615.775 614.871ZM579.773 586.935C579.188 586.794 578.58 586.712 577.961 586.689L577.96 586.689C576.663 587.334 575.366 587.978 574.068 588.634C577.248 594.786 584.098 598.442 590.936 598.056C588.353 593.193 584.939 588.189 579.773 586.935ZM587.605 581.697C588.072 581.252 588.376 580.748 588.528 580.197C595.541 581.615 600.334 587.779 601.445 594.856C601.222 596.099 600.825 597.352 600.264 598.606C597.236 592.513 593.414 585.599 587.605 581.697ZM599.656 612.281C597.014 614.414 593.963 615.972 590.702 616.828C595.425 616.148 599.621 614.086 602.929 610.934C602.052 611.355 601.152 611.754 600.241 612.094C600.083 612.159 599.933 612.202 599.779 612.246L599.656 612.281ZM608.236 583.326C605.302 576.178 599.235 571.186 592.257 568.807C593.613 568.772 594.969 568.866 596.301 569.065C598.417 569.815 600.416 570.881 602.239 572.334C609.826 578.404 611.895 589.056 609.837 598.243C609.861 596.966 609.802 595.677 609.65 594.399C610.083 590.708 609.709 586.923 608.236 583.326Z" fill="#32E3A7"/>
<path id="Path_8" d="M586.751 672.278C588.165 754.081 589.58 835.885 590.982 917.689C591.275 934.387 591.555 951.085 591.847 967.784C593.063 968.065 594.115 968.944 594.466 970.596C595.787 976.842 594.887 983.005 591.625 988.513C589.556 992.005 584.144 990.481 584.074 986.462C582.66 904.658 581.245 822.855 579.843 741.063C579.445 718.142 579.048 695.222 578.65 672.289C578.557 667.051 586.657 667.051 586.751 672.278Z" fill="#32E3A7"/>
</g>
<path id="Arrow_1" d="M632.96 1066.81C634.067 1063.67 637.726 1063.62 639.844 1065.6C665.767 1089.76 691.678 1113.93 717.601 1138.09C721.123 1141.38 715.886 1146.35 712.193 1144.05C688.486 1129.28 666.763 1111.43 647.606 1091.11C658.248 1155.77 682.979 1218.01 719.417 1272.46C738.866 1301.51 761.566 1328.4 787.063 1352.3C811.806 1375.5 839.501 1396.12 870.424 1410.27C904.151 1425.72 941.792 1433 978.227 1423.69C983.28 1422.39 984.669 1430.4 979.637 1431.68C911.752 1449.03 843.264 1412.41 793.362 1368.84C739.294 1321.64 696.593 1261.69 669.075 1195.36C653.655 1158.2 642.981 1119.07 637.645 1079.18C637.614 1078.94 637.658 1078.72 637.666 1078.49C628.145 1109.18 624.507 1141.59 627.194 1173.66C627.631 1178.83 619.65 1180.28 619.216 1175.06C616.136 1138.41 620.77 1101.48 632.96 1066.81Z" fill="#708FF1"/>
<g id="Coin">
<g id="Group_3">
<g id="SVGID_5_-link">
<path id="SVGID_5_" d="M1303.89 568.631C1412.26 499.073 1558.59 506.139 1658.42 583.795C1753.66 667.344 1817.39 810.926 1779.9 939.379C1760.73 1005.07 1721.23 1062.11 1670.84 1102.51C1616.6 1145.97 1549.99 1166.85 1483.19 1164.74C1347.61 1160.45 1211.74 1063.64 1170.37 917.302C1132.6 783.716 1197.02 637.217 1303.89 568.631Z" fill="#32E3A7"/>
</g>
</g>
<path id="Shape_13" fill-rule="evenodd" clip-rule="evenodd" d="M1288.06 745.158C1290.65 747.074 1293.24 748.99 1295.83 750.906C1289.84 748.199 1283.78 745.727 1277.59 743.535C1274.85 748.035 1272.19 752.582 1269.63 757.175C1269.83 758.124 1270.39 759.038 1271.44 759.753C1297.69 777.576 1323.79 795.611 1349.75 813.856C1395.79 846.221 1441.39 879.231 1486.53 912.873C1531.73 946.562 1576.45 980.908 1620.68 1015.86C1623.98 1018.46 1628.32 1015.43 1627.59 1012.16C1629.22 1013.06 1630.99 1012.69 1632.24 1011.7L1632.73 1012.12L1633.21 1012.54C1635.42 1010.79 1637.59 1009.02 1639.72 1007.2C1633.04 1001.79 1626.34 996.399 1619.61 991.033C1617.43 989.293 1615.24 987.566 1613.05 985.839L1613.04 985.833C1611.71 984.783 1610.38 983.732 1609.05 982.678C1619.81 990.517 1630.7 998.134 1641.86 1005.34C1641.86 1005.35 1641.88 1005.35 1641.89 1005.36C1644.15 1003.4 1646.38 1001.38 1648.56 999.341C1643.31 994.021 1638.01 988.748 1632.62 983.58C1638.03 987.741 1643.4 991.95 1648.79 996.164L1650.51 997.513C1654.45 993.739 1658.24 989.837 1661.85 985.806C1654.04 981.002 1646.66 975.448 1639.56 969.659C1639.4 969.53 1639.25 969.398 1639.09 969.266C1638.93 969.134 1638.77 969.003 1638.61 968.874C1625.04 955.738 1611.12 942.965 1596.92 930.52C1585.5 920.525 1573.89 910.752 1562.14 901.143L1570.42 906.909C1585.12 917.806 1599.77 928.763 1614.37 939.789C1630.65 954.636 1646.63 969.811 1662.32 985.291C1664.13 983.263 1665.91 981.213 1667.63 979.115L1667.63 979.115C1666.66 978.142 1665.7 977.182 1664.73 976.221C1667.01 975.248 1668.28 971.557 1666.35 969.296C1655.83 956.968 1644.75 945.156 1633.27 933.743C1636 935.641 1638.71 937.528 1641.43 939.415C1642.66 940.27 1643.94 940.211 1645.03 939.661L1678.01 965.112C1680.25 961.749 1682.38 958.292 1684.37 954.777L1684.21 954.663C1683.35 954.046 1682.5 953.438 1681.71 952.82C1681.13 952.367 1680.55 951.902 1679.98 951.437L1679.97 951.435C1679.52 951.071 1679.07 950.707 1678.61 950.347C1679.46 950.16 1680.2 949.644 1680.79 948.941C1681.71 949.749 1682.64 950.566 1683.56 951.383L1683.56 951.385L1683.56 951.388L1683.57 951.391L1683.57 951.394C1684.17 951.924 1684.77 952.455 1685.37 952.984C1687.22 949.597 1688.96 946.129 1690.55 942.602C1689.32 941.547 1688.11 940.493 1686.89 939.426C1686.93 938.43 1686.61 937.446 1685.78 936.649C1668.51 920.056 1650.88 903.885 1632.92 888.054C1653.37 903.604 1673.54 919.506 1693.37 935.852C1695.34 930.802 1697.01 925.622 1698.39 920.302C1684.4 909.463 1670.4 898.647 1656.36 887.867C1627.94 866.048 1599.4 844.381 1570.68 822.96C1538 797.392 1504.68 772.667 1470.52 749.125C1455.84 739.012 1441.01 729.146 1426.02 719.49C1399.38 701.386 1372.45 683.727 1345.22 666.548C1336.64 673.789 1327.69 680.608 1318.75 687.424C1316.94 688.804 1315.13 690.183 1313.33 691.566C1313.26 691.648 1313.2 691.733 1313.13 691.818L1313.04 691.937L1312.94 692.07C1326.92 699.722 1340.8 707.538 1354.59 715.506C1360.12 719.771 1365.66 724.048 1371.2 728.325C1351.29 716.795 1331.13 705.733 1310.73 695.081C1308.35 698.316 1305.99 701.55 1303.64 704.807C1305.82 706.319 1307.99 707.83 1310.17 709.342C1312.35 710.853 1314.52 712.365 1316.71 713.877C1312.06 711.252 1307.41 708.651 1302.74 706.073C1300.47 709.225 1298.24 712.389 1296.02 715.564C1297.57 716.637 1299.11 717.715 1300.66 718.796L1302.56 720.123C1300.71 719.157 1298.84 718.234 1296.97 717.309L1296.31 716.985L1295.36 716.514C1294.86 717.234 1294.36 717.955 1293.86 718.675L1293.85 718.687C1292.68 720.377 1291.5 722.069 1290.35 723.767C1286.85 728.911 1283.47 734.102 1280.19 739.352C1280.21 739.364 1280.22 739.373 1280.24 739.381L1280.24 739.382C1280.25 739.391 1280.26 739.399 1280.28 739.411C1282.87 741.322 1285.45 743.234 1288.04 745.146L1288.06 745.158ZM1551.87 952.099C1551.57 951.871 1551.28 951.642 1550.98 951.414C1522.28 929.454 1493.36 907.776 1464.28 886.355C1466.11 887.66 1467.94 888.964 1469.77 890.268C1475.21 894.139 1480.65 898.013 1486.06 901.94C1504.78 915.521 1523.35 929.325 1541.73 943.375C1545.43 946.492 1549.1 949.621 1552.76 952.785C1552.46 952.556 1552.16 952.328 1551.87 952.099ZM1583.47 953.726L1583.48 953.727L1583.5 953.743C1585.97 955.6 1588.45 957.457 1590.92 959.312C1568.44 939.719 1545.49 920.666 1522.13 902.139C1516.53 898.026 1510.9 893.948 1505.24 889.929C1478.66 871.051 1451.46 853.076 1423.94 835.604C1470.49 870.032 1517.05 904.46 1563.6 938.887C1570.24 943.796 1576.86 948.76 1583.47 953.726ZM1443.02 772.467C1440.08 770.569 1437.15 768.671 1434.22 766.784C1432.36 765.35 1430.5 763.916 1428.64 762.481L1428.61 762.459C1424.88 759.577 1421.14 756.695 1417.42 753.812C1418.61 754.574 1419.79 755.339 1420.97 756.103C1422.16 756.868 1423.34 757.632 1424.53 758.394L1433.77 765.431L1443.02 772.467ZM1419.82 728.478C1430.31 735.098 1440.75 741.801 1451.1 748.656C1478.43 766.772 1505.22 785.709 1531.45 805.395C1541.02 811.887 1550.55 818.449 1560.04 825.058C1514.73 791.38 1468.91 758.406 1422.24 726.673C1414.08 721.412 1405.88 716.186 1397.62 711.076C1391.06 707.01 1384.46 703.014 1377.83 699.054C1384.82 703.957 1391.82 708.86 1398.82 713.763L1398.84 713.78L1398.89 713.814C1405.87 718.702 1412.84 723.59 1419.82 728.478ZM1364.93 802.009C1358.04 797.884 1351.11 793.841 1344.14 789.834C1328.49 779.85 1312.73 770.03 1296.9 760.339C1312.59 767.768 1327.69 776.534 1342.6 785.486L1364.93 802.009Z" fill="#4BEDD0"/>
<g id="Group_4">
<path id="Path_9" d="M1693.86 969.834C1712.87 975.224 1730.49 984.446 1745.9 996.832C1747.6 998.203 1747.32 1001.14 1745.9 1002.57C1744.21 1004.26 1741.88 1003.96 1740.17 1002.57C1725.88 991.091 1709.31 982.654 1691.71 977.673C1686.7 976.244 1688.83 968.404 1693.86 969.834Z" fill="#F5DE51"/>
<path id="Path_10" d="M1554.79 1088.08C1556.08 1107.85 1560.02 1127.3 1566.41 1146.04C1568.1 1151 1560.27 1153.13 1558.6 1148.19C1551.98 1128.78 1548.02 1108.55 1546.7 1088.08C1546.35 1082.85 1554.45 1082.88 1554.79 1088.08Z" fill="#F5DE51"/>
<path id="Path_11" d="M1298.32 1085.28C1310.94 1072.62 1323.58 1059.96 1336.2 1047.3C1339.9 1043.6 1345.62 1049.34 1341.93 1053.04C1329.31 1065.7 1316.67 1078.37 1304.05 1091.02C1300.35 1094.72 1294.62 1088.98 1298.32 1085.28Z" fill="#F5DE51"/>
<path id="Path_12" d="M1177.94 893.937C1197.63 889.414 1217.93 888.113 1238.01 890.246C1243.14 890.796 1243.2 898.917 1238.01 898.366C1218.63 896.304 1199.1 897.394 1180.09 901.764C1175.02 902.936 1172.85 895.109 1177.94 893.937Z" fill="#F5DE51"/>
<path id="Path_13" d="M1222.29 693.136C1223.32 691.379 1226.04 690.394 1227.83 691.683C1243.34 702.839 1258.84 713.994 1274.34 725.138C1276.12 726.416 1276.97 728.677 1275.79 730.693C1274.76 732.45 1272.04 733.435 1270.25 732.146C1254.75 720.99 1239.24 709.835 1223.74 698.691C1221.98 697.413 1221.11 695.152 1222.29 693.136Z" fill="#F5DE51"/>
<path id="Path_14" d="M1401.6 547.059C1408.62 565.339 1415.64 583.631 1422.66 601.911C1424.53 606.797 1416.69 608.907 1414.85 604.067L1393.79 549.215C1391.91 544.34 1399.74 542.219 1401.6 547.059Z" fill="#F5DE51"/>
<path id="Path_15" d="M1592.9 612.609C1602.85 600.048 1612.79 587.498 1622.75 574.936C1624.11 573.213 1627.05 573.506 1628.48 574.936C1630.17 576.635 1629.85 578.955 1628.48 580.678C1618.53 593.239 1608.58 605.789 1598.63 618.351C1597.26 620.074 1594.32 619.781 1592.9 618.351C1591.2 616.652 1591.53 614.332 1592.9 612.609Z" fill="#F5DE51"/>
<path id="Path_16" d="M1722.13 780.166C1735.97 781.643 1749.84 780.318 1763.13 776.158C1768.12 774.6 1770.25 782.439 1765.28 783.986C1751.37 788.334 1736.62 789.833 1722.13 788.287C1719.96 788.052 1718.08 786.588 1718.08 784.22C1718.08 782.217 1719.95 779.932 1722.13 780.166Z" fill="#F5DE51"/>
</g>
<path id="Shape_14" fill-rule="evenodd" clip-rule="evenodd" d="M1300.47 700.612C1265.44 741.437 1241.81 793.325 1239.17 847.509C1236.62 899.678 1256.05 950.382 1289.11 990.259C1322.91 1031.03 1370.78 1059.41 1422.25 1071.11C1474.92 1083.1 1530.34 1076.89 1579.4 1054.4C1627.47 1032.37 1670.53 994.032 1691.26 944.582C1711.34 896.702 1709.19 843.42 1700.78 792.997C1702.59 792.376 1703.93 790.677 1703.1 788.333C1701.23 783.025 1699.19 777.763 1697.05 772.549C1692.85 750.917 1657.22 700.576 1642.46 683.386C1625.11 663.184 1605.17 644.728 1582.24 631.042C1557.84 616.476 1530.51 608.73 1502.17 607.629C1475.48 606.598 1448.48 610.816 1423.07 618.902C1375.7 633.983 1332.85 662.879 1300.47 700.612ZM1274.73 955.819C1262.29 934.656 1253.49 911.384 1249.45 887.128C1245.14 861.266 1246.72 834.572 1252.82 809.156C1264.82 759.389 1293.49 714.439 1331.5 680.539C1367.18 648.736 1411.48 626.553 1458.66 618.62C1486.11 614.003 1514.88 614.191 1541.73 621.995C1566.87 629.296 1589.41 643.51 1608.94 660.759C1644.14 691.87 1671.66 731.969 1689.53 775.502C1692.59 790.97 1695.03 806.566 1696.7 822.175C1699.55 848.798 1699.98 876.007 1695.2 902.443C1690.5 928.434 1680.64 952.96 1665.39 974.545C1635.56 1016.8 1589.01 1046.66 1539.6 1060.4C1489.53 1074.34 1436.13 1071.18 1387.89 1051.93C1341.05 1033.24 1300.39 999.457 1274.73 955.819Z" fill="#F4F3E9"/>
</g>
<path id="LOGO" fill-rule="evenodd" clip-rule="evenodd" d="M1444.18 936.657V916.488C1444.18 914.768 1443.36 913.158 1441.98 912.126L1441.35 911.312L1440.6 910.659C1438.28 909.345 1437.78 909.064 1437.54 908.949L1401.08 888.307V804.103L1435.98 784.373C1435.98 784.373 1438.42 782.984 1438.55 782.908C1438.63 782.86 1438.68 782.829 1438.72 782.799C1438.81 782.747 1438.89 782.695 1439.11 782.554L1475.42 762.013L1510.33 781.798C1512.3 782.916 1513.01 783.313 1513.33 783.466L1549.77 804.101V831.584C1549.77 833.544 1550.84 835.355 1552.57 836.336L1570.47 846.467C1574.21 848.583 1578.88 845.942 1578.88 841.714L1578.87 795.975C1578.89 793.505 1578.24 791.027 1576.98 788.85C1575.7 786.65 1573.85 784.829 1571.6 783.552L1569.3 782.264L1527.13 758.388L1524.83 757.118L1483.35 733.643C1481.48 732.342 1478.82 731.475 1476.12 731.346C1473.33 731.219 1470.59 731.87 1468.16 733.239L1465.84 734.588L1425.97 757.127C1424.43 757.984 1424.43 757.984 1423.68 758.408L1423.68 758.408L1421.4 759.711L1379.78 783.266C1377.65 784.276 1375.59 786.124 1374.17 788.373C1372.74 790.615 1371.97 793.223 1371.97 795.894V846.205L1371.98 896.436C1371.96 898.898 1372.61 901.376 1373.88 903.559C1375.16 905.76 1377.01 907.583 1379.26 908.857L1381.55 910.141C1410.33 926.44 1423.58 933.94 1423.74 934.031L1426.04 935.298L1435.62 941.321C1439.41 943.565 1444.18 940.93 1444.18 936.657ZM1558.18 859.89C1554.44 857.783 1549.77 860.424 1549.77 864.647V869.774L1457.29 817.446L1454.18 815.673C1451.37 814.081 1447.89 814.248 1445.27 816.074L1442.81 817.435L1429.16 825.127L1423.66 828.221C1419.66 830.487 1418.41 835.447 1420.75 839.407L1423.88 844.692L1427.04 850.034C1429.36 853.95 1434.43 855.172 1438.46 852.863C1443.83 849.829 1444.08 849.69 1444.31 849.531C1444.32 849.521 1444.34 849.51 1444.36 849.499L1450.02 846.309L1461.23 852.652L1461.22 951.155C1461.22 955.612 1464.91 959.226 1469.46 959.226C1471.55 959.226 1473.54 958.454 1475.07 957.072C1483.49 950.405 1484.94 949.265 1486.38 948.124L1487.33 947.369C1489.47 945.678 1490.6 943.064 1490.37 940.391L1490.38 869.158L1556.89 906.91C1561.04 909.249 1565.68 907.673 1568.85 903.712L1577.29 895.289C1578.31 894.261 1578.88 892.886 1578.88 891.454V874.741C1578.88 872.778 1577.81 870.965 1576.07 869.985L1558.18 859.89Z" fill="white"/>
<path id="Shape_15" fill-rule="evenodd" clip-rule="evenodd" d="M58.8 164.294C53.35 199.294 65.25 225.994 93.3 241.944C133.3 264.844 204.5 262.694 270.7 246.244C260.7 273.744 258.6 298.544 263.8 319.544L273.8 318.844C266.5 291.894 274.9 262.094 282.45 243.394C327.45 230.894 369.5 211.844 396.15 189.894C419.9 170.294 429.1 149.894 422.75 131.344C417.4 115.844 406.35 112.044 398.05 111.844C361.9 110.844 302.05 171.194 275 235.144C265.4 237.694 255.55 240.144 245.65 241.944C183 254.294 129.25 251.194 98.15 233.444C73.6 219.444 63.65 196.694 68.5 165.794C76.3 115.794 104.35 73.8942 139.85 41.3442C224.35 43.3442 306.3 36.9942 335.8 8.99421C344.596 1.23781 349.103 -10.2902 347.9 -21.9558C347.1 -30.1558 341.3 -44.0558 311.15 -44.9558C271.15 -46.2058 194.2 -20.9558 135.25 31.3442C90.4167 29.6775 45.6333 26.6609 0.9 22.2942C0.805524 23.3334 0.70609 24.3677 0.606382 25.4048C0.389474 27.661 0.17127 29.9307 0 32.2942C36.85 35.8442 80.9 39.3442 125 40.8442C92.4 72.9442 66.7 114.044 58.8 164.294ZM397.4 121.394H397.95C405.512 121.511 411.987 126.845 413.55 134.244C419.8 152.644 404.2 170.444 390 182.144C366.7 201.394 329.45 219.194 287.5 231.644C315.1 171.644 369.45 121.394 397.4 121.394ZM338.15 -21.0058C337.05 -32.6558 320.55 -34.9058 310.85 -35.2058C270.05 -36.4558 204.05 -12.4058 150.9 31.8942C229.35 33.0442 302.9 26.8942 329.05 1.89422C335.642 -3.79418 339.04 -12.3442 338.15 -21.0058Z" fill="white"/>
</g>
</svg>
