<svg width="56" height="56" viewBox="0 0 56 56" fill="none" xmlns="http://www.w3.org/2000/svg">
<rect opacity="0.1" width="56" height="56" rx="10" fill="url(#paint0_linear_639_247)"/>
<path fill-rule="evenodd" clip-rule="evenodd" d="M16.2143 21.1541C16.803 21.1541 17.2798 21.6314 17.2798 22.2196C17.2798 22.8084 16.803 23.2857 16.2143 23.2857C15.6255 23.2857 15.1488 22.8084 15.1488 22.2196C15.1488 21.6314 15.6255 21.1541 16.2143 21.1541ZM28.7146 28.6429H27.2854C25.5802 28.6429 24.1932 27.2559 24.1932 25.5507V25.0327C24.1932 23.4368 25.4088 22.1195 26.9629 21.9577C27.078 21.4905 27.4975 21.1429 28 21.1429C28.5025 21.1429 28.922 21.4905 29.0371 21.9577C30.5912 22.1195 31.8068 23.4368 31.8068 25.0327C31.8068 25.6246 31.3273 26.1041 30.7354 26.1041C30.1439 26.1041 29.6639 25.6246 29.6639 25.0327C29.6639 24.5093 29.2386 24.0834 28.7146 24.0834H28H27.2854C26.7614 24.0834 26.3361 24.5093 26.3361 25.0327V25.5507C26.3361 26.0741 26.7614 26.5 27.2854 26.5H28.7146C30.4198 26.5 31.8068 27.887 31.8068 29.5921V30.1102C31.8068 31.7061 30.5912 33.0234 29.0371 33.1852C28.922 33.6523 28.5025 34 28 34C27.4975 34 27.078 33.6523 26.9629 33.1852C25.4088 33.0234 24.1932 31.7061 24.1932 30.1102C24.1932 29.5182 24.6727 29.0387 25.2646 29.0387C25.8561 29.0387 26.3361 29.5182 26.3361 30.1102C26.3361 30.6336 26.7614 31.0595 27.2854 31.0595H28H28.7146C29.2386 31.0595 29.6639 30.6336 29.6639 30.1102V29.5921C29.6639 29.0687 29.2386 28.6429 28.7146 28.6429ZM39.7857 31.8625C40.3745 31.8625 40.8512 32.3398 40.8512 32.9286C40.8512 33.5173 40.3745 33.9946 39.7857 33.9946C39.197 33.9946 38.7202 33.5173 38.7202 32.9286C38.7202 32.3398 39.197 31.8625 39.7857 31.8625ZM15.137 36.1429H40.863C42.0432 36.1429 43 35.1861 43 34.0054V21.1375C43 19.9568 42.0432 19 40.863 19H15.137C13.9568 19 13 19.9568 13 21.1375V34.0054C13 35.1861 13.9568 36.1429 15.137 36.1429Z" fill="url(#paint1_linear_639_247)"/>
<path fill-rule="evenodd" clip-rule="evenodd" d="M40.8467 38.4418C40.8467 38.3556 40.7765 38.2854 40.6908 38.2854H15.3092C15.2235 38.2854 15.1533 38.3556 15.1533 38.4418C15.1533 39.539 16.0426 40.4283 17.1397 40.4283H38.8603C39.9574 40.4283 40.8467 39.539 40.8467 38.4418" fill="#69EECF"/>
<path fill-rule="evenodd" clip-rule="evenodd" d="M19.5844 42.5714C19.4986 42.5714 19.4285 42.6411 19.4285 42.7278C19.4285 43.825 20.3178 44.7143 21.4149 44.7143H34.5844C35.682 44.7143 36.5713 43.825 36.5713 42.7278C36.5713 42.6411 36.5011 42.5714 36.4149 42.5714H19.5844Z" fill="#69EECF"/>
<defs>
<linearGradient id="paint0_linear_639_247" x1="72.6281" y1="28.8918" x2="29.639" y2="-15.8957" gradientUnits="userSpaceOnUse">
<stop stop-color="#5657B9"/>
<stop offset="1" stop-color="#6E4CB6"/>
</linearGradient>
<linearGradient id="paint1_linear_639_247" x1="51.9079" y1="27.8444" x2="40.8011" y2="7.59437" gradientUnits="userSpaceOnUse">
<stop stop-color="#5657B9"/>
<stop offset="1" stop-color="#6E4CB6"/>
</linearGradient>
</defs>
</svg>
