<svg width="56" height="64" viewBox="0 0 56 64" fill="none" xmlns="http://www.w3.org/2000/svg">
<g id="Mocha">
<path id="Shape" d="M53.7596 48.7297L29.6796 62.6525C28.6716 63.2139 27.3276 63.2139 26.3196 62.6525L2.23957 48.7297C1.23157 48.1683 0.55957 47.0455 0.55957 45.8104V17.9648C0.55957 16.7297 1.23157 15.7192 2.23957 15.0455L26.3196 1.12271C27.3276 0.561309 28.6716 0.561309 29.6796 1.12271L53.7596 15.0455C54.7676 15.6069 55.4396 16.7297 55.4396 17.9648V45.9227C55.4396 47.0455 54.7676 48.1683 53.7596 48.7297Z" fill="#8D6748"/>
<path id="Shape_2" fill-rule="evenodd" clip-rule="evenodd" d="M27.9999 4.82788C27.5519 4.82788 26.9919 4.94016 26.5439 5.277L5.71186 17.291C4.81586 17.7402 4.25586 18.7507 4.25586 19.7612V43.9016C4.25586 44.9121 4.81586 45.9226 5.71186 46.3717L26.5439 58.3858C26.9919 58.6103 27.4399 58.8349 27.9999 58.8349C28.4479 58.8349 29.0079 58.7226 29.4559 58.3858L50.2879 46.3717C51.1839 45.9226 51.7439 44.9121 51.7439 43.9016V19.7612C51.7439 18.7507 51.1839 17.7402 50.2879 17.291L29.4559 5.277C29.0079 5.05244 28.4479 4.82788 27.9999 4.82788ZM27.9999 5.83841C28.3359 5.83841 28.6719 5.95069 28.8959 6.06297L49.7279 18.077C50.2879 18.4138 50.6239 19.0875 50.6239 19.7612V43.9016C50.6239 44.5752 50.2879 45.2489 49.7279 45.5858L28.8959 57.5998C28.8257 57.6232 28.7605 57.6467 28.6981 57.6691C28.4615 57.7541 28.2657 57.8244 27.9999 57.8244C27.6639 57.8244 27.3279 57.7121 27.1039 57.5998L6.15986 45.5858C5.59986 45.2489 5.26386 44.5752 5.26386 43.9016V19.8735C5.26386 19.1998 5.59986 18.5261 6.15986 18.1893L26.9919 6.17525C27.3279 5.95069 27.6639 5.83841 27.9999 5.83841ZM28.8959 26.8349H26.0959C25.9839 26.8349 25.8719 26.8349 25.7599 26.7226C24.0799 24.8138 23.9679 20.884 23.9679 19.7612C23.9679 19.5367 24.1919 19.4244 24.3039 19.4244H30.5759C30.7999 19.4244 30.9119 19.6489 30.9119 19.7612C30.9119 20.884 30.7999 24.8138 29.1199 26.7226C29.0554 26.7872 29.0281 26.8146 28.9951 26.8263C28.9708 26.8349 28.9434 26.8349 28.8959 26.8349ZM25.3119 20.5472H29.6799C29.7919 20.5472 30.0159 20.6595 30.0159 20.884C30.0159 21.7823 29.9039 24.477 28.6719 25.8244C28.6074 25.889 28.5801 25.9164 28.5471 25.9281C28.5228 25.9367 28.4954 25.9367 28.4479 25.9367H26.4319C26.3843 25.9367 26.3569 25.9367 26.3326 25.9281C26.2997 25.9164 26.2723 25.889 26.2079 25.8244C25.2381 24.6577 25.024 22.4808 24.9113 21.3347C24.8939 21.1572 24.8789 21.0045 24.8639 20.884C24.9759 20.6595 25.0879 20.5472 25.3119 20.5472ZM28.5599 16.7296C29.3439 18.077 28.1119 18.7507 28.1119 18.7507C28.1119 18.6384 27.9999 17.9647 27.7759 17.6279C27.0701 16.5161 27.5442 15.9502 27.9727 15.4387C28.0078 15.3969 28.0426 15.3554 28.0764 15.3139C27.9155 15.5622 28.1387 16.0963 28.5599 16.7296ZM28.1119 15.27C28.0984 15.2834 28.0866 15.2981 28.0764 15.3139C28.0883 15.2993 28.1002 15.2846 28.1119 15.27ZM26.7679 18.863C26.7679 18.863 27.5519 18.4138 27.1039 17.5156C26.7679 17.0665 26.6559 16.7296 26.7679 16.5051C26.4319 16.8419 25.9839 17.291 26.5439 18.077C26.6559 18.3016 26.7679 18.7507 26.7679 18.863ZM28.3359 25.4875H26.6559C26.5439 25.4875 26.4319 25.4875 26.5439 25.3752C26.2079 24.8138 25.8719 24.1402 25.7599 23.4665C25.7599 23.4665 27.6639 23.8033 28.7839 23.3542C29.3479 23.1926 29.5061 22.973 29.5505 22.8624L29.526 22.9614C29.3147 23.8153 29.0851 24.7434 28.5599 25.3752C28.4954 25.4398 28.4681 25.4673 28.4351 25.4789C28.4108 25.4875 28.3834 25.4875 28.3359 25.4875ZM29.5679 22.7928L29.5505 22.8624C29.5679 22.8193 29.5679 22.7928 29.5679 22.7928ZM14.1119 34.9191V28.1823H12.8799L10.7519 31.4384L8.73586 28.2945H7.50386V35.0314H8.62386V30.2033L10.7519 33.3472L12.8799 30.2033V35.0314H14.1119V34.9191ZM20.1599 28.07C20.6079 28.07 21.1679 28.1823 21.5039 28.4068C21.8903 28.5037 22.2767 28.7676 22.5912 28.9824C22.6414 29.0167 22.6897 29.0496 22.7359 29.0805C22.7955 29.1702 22.8631 29.2599 22.9322 29.3517L22.9323 29.3517C23.1229 29.6047 23.3257 29.8738 23.4079 30.2033C23.5199 30.6524 23.6319 31.1016 23.6319 31.5507C23.6319 31.9998 23.5199 32.4489 23.4079 32.8981C23.1839 33.3472 22.9599 33.684 22.6239 34.0209C22.2879 34.3577 21.9519 34.6945 21.5039 34.8068C21.0559 34.9191 20.4959 35.0314 20.0479 35.0314C19.4879 35.0314 19.0399 34.9191 18.5919 34.8068C18.1439 34.5823 17.8079 34.3577 17.4719 34.0209C17.4122 33.9312 17.3446 33.8415 17.2754 33.7497C17.0848 33.4967 16.882 33.2276 16.7999 32.8981C16.6879 32.4489 16.5759 31.9998 16.5759 31.5507C16.5759 31.1016 16.6879 30.6525 16.7999 30.2033L16.7999 30.2033C17.0239 29.7542 17.2479 29.4174 17.5839 29.0805C17.9199 28.7437 18.2559 28.4068 18.7039 28.2945C19.1519 28.1823 19.7119 28.07 20.1599 28.07ZM22.3999 31.663C22.3999 31.8314 22.3719 31.9717 22.3439 32.1121C22.3159 32.2524 22.2879 32.3928 22.2879 32.5612C22.2614 32.6142 22.235 32.6735 22.2071 32.7361C22.1167 32.9386 22.011 33.1756 21.8399 33.3472C21.6159 33.5717 21.3919 33.684 21.1679 33.7963C20.9439 33.9086 20.6079 34.0209 20.2719 34.0209C19.9359 34.0209 19.5999 33.9086 19.3759 33.7963C19.2639 33.7402 19.1519 33.656 19.0399 33.5717C18.9279 33.4875 18.8159 33.4033 18.7039 33.3472C18.4799 33.1226 18.3679 32.8981 18.2559 32.5612C17.9199 32.2244 17.9199 31.8875 17.9199 31.5507C17.9199 31.3823 17.9479 31.2419 17.9759 31.1016C18.0039 30.9612 18.0319 30.8209 18.0319 30.6524C18.0582 30.5996 18.0845 30.5406 18.1123 30.4783L18.1124 30.4782L18.1125 30.478L18.1125 30.4778L18.1126 30.4776L18.1127 30.4776C18.203 30.2751 18.3087 30.038 18.4799 29.8665C18.7039 29.6419 18.9279 29.5296 19.1519 29.4174C19.4879 29.1928 19.8239 29.1928 20.1599 29.1928C20.4959 29.1928 20.8319 29.3051 21.0559 29.4174C21.1678 29.4735 21.2798 29.5577 21.3917 29.6418L21.3918 29.6418L21.3918 29.6419L21.3918 29.6419L21.3918 29.6419L21.3918 29.6419L21.3918 29.6419L21.3919 29.6419C21.5039 29.7261 21.6159 29.8103 21.7279 29.8665C21.9519 30.091 22.0639 30.3156 22.1759 30.6524C22.1951 30.7102 22.2143 30.7646 22.2329 30.8175L22.2329 30.8175L22.2329 30.8176C22.323 31.073 22.3999 31.2909 22.3999 31.663ZM27.4087 30.4776C27.3807 30.5402 27.3543 30.5994 27.3279 30.6524C27.2159 30.877 27.1039 31.2138 27.2159 31.5507C27.2159 31.8875 27.2159 32.1121 27.3279 32.4489C27.4399 32.7858 27.5519 33.0103 27.7759 33.2349C27.8878 33.291 27.9998 33.3752 28.1118 33.4594L28.1118 33.4594L28.1118 33.4594L28.1118 33.4594L28.1118 33.4594L28.1118 33.4594L28.1119 33.4595C28.2239 33.5437 28.3359 33.6279 28.4479 33.684C28.518 33.7075 28.5832 33.7309 28.6456 33.7533C28.8822 33.8383 29.078 33.9086 29.3439 33.9086C29.6799 33.9086 30.1279 33.7963 30.3519 33.684C30.5198 33.5717 30.6598 33.4595 30.7998 33.3472L30.7999 33.3472L30.7999 33.3472C30.9399 33.2349 31.0799 33.1226 31.2479 33.0103L32.0319 33.7963C31.9199 33.8524 31.8359 33.9366 31.7519 34.0209L31.7519 34.0209C31.6679 34.1051 31.5839 34.1893 31.4719 34.2454C31.3599 34.3577 31.1359 34.47 30.9119 34.5823C30.6879 34.6945 30.4639 34.8068 30.2399 34.8068C29.9039 34.9191 29.6799 34.9191 29.3439 34.9191C28.8959 34.9191 28.4479 34.9191 27.9999 34.6945C27.5519 34.47 27.2159 34.2454 26.8799 33.9086C26.8202 33.8189 26.7526 33.7292 26.6834 33.6374C26.4928 33.3844 26.29 33.1153 26.2079 32.7858C26.0959 32.3367 25.9839 31.8875 25.9839 31.4384C25.9839 30.9893 25.9839 30.5402 26.2079 30.091C26.3199 29.6419 26.5439 29.3051 26.8799 28.9682C27.2159 28.6314 27.5519 28.2945 27.9999 28.1823C28.4479 28.07 28.8959 27.9577 29.4559 27.9577C29.5679 27.9577 29.7079 27.9858 29.8479 28.0138C29.9879 28.0419 30.1279 28.07 30.2399 28.07C30.3519 28.1261 30.4639 28.1542 30.5759 28.1823C30.6879 28.2103 30.7999 28.2384 30.9119 28.2945C31.1359 28.4068 31.3599 28.5191 31.4719 28.6314L31.9199 29.0805L31.1359 29.9788C30.9119 29.7542 30.6879 29.5296 30.3519 29.4174C30.1279 29.3051 29.7919 29.1928 29.3439 29.1928C29.0079 29.1928 28.6719 29.3051 28.4479 29.4174C28.2239 29.5296 27.9999 29.6419 27.7759 29.8665C27.6047 30.038 27.499 30.2751 27.4087 30.4776ZM34.3839 34.9191H35.5039V32.1121H38.7519V34.9191H39.8719V28.1823H38.7519V30.9893H35.5039V28.1823H34.3839V34.9191ZM47.9359 34.9191L47.2639 33.3472H44.1279L43.4559 34.9191H42.2239L45.1359 28.1823H46.2559L49.1679 34.9191H47.9359ZM46.8159 32.3367H44.5759L45.6959 29.6419L46.8159 32.3367ZM49.2799 37.0524V37.3893H6.71986V37.0524H49.2799ZM31.2479 24.477V24.8138H49.2799V24.477H31.2479ZM6.71986 24.477H23.7439C23.7439 24.5893 23.7439 24.7016 23.8559 24.8138H6.71986V24.477Z" fill="white"/>
</g>
</svg>
