<svg width="110" height="110" viewBox="0 0 110 110" fill="none" xmlns="http://www.w3.org/2000/svg">
<g id="2">
<path id="Rectangle 4" d="M0 5C0 2.23858 2.23858 0 5 0H105C107.761 0 110 2.23858 110 5V105C110 107.761 107.761 110 105 110H5C2.23858 110 0 107.761 0 105V5Z" fill="white"/>
<g id="GDPR">
<path id="Path" d="M55 91C74.8823 91 91 74.8823 91 55C91 35.1177 74.8823 19 55 19C35.1177 19 19 35.1177 19 55C19 74.8823 35.1177 91 55 91Z" fill="#00309A"/>
<path id="Path_2" d="M56.1799 52.1043C56.1799 51.437 55.6196 50.9008 54.9522 50.9246C54.3329 50.9484 53.8322 51.4728 53.8202 52.0924C53.8086 52.5333 54.0469 52.9147 54.4042 53.129C54.4759 53.1767 54.5116 53.2483 54.4996 53.3317L54.1182 55.286C54.0946 55.4053 54.1896 55.5123 54.3089 55.5123H55.7032C55.8222 55.5123 55.9176 55.4053 55.8939 55.286L55.5126 53.3437C55.5006 53.2603 55.5362 53.1767 55.6079 53.141C55.9416 52.9147 56.1799 52.5333 56.1799 52.1043Z" fill="#00309A"/>
<path id="Path_3" d="M43.1548 69.5503C43.3931 69.5503 43.6078 69.5383 43.7985 69.5143C43.9891 69.4906 44.1798 69.4549 44.3465 69.4189C44.5251 69.3713 44.6801 69.3236 44.8351 69.2643C44.9901 69.2046 45.1448 69.1329 45.2998 69.0496V67.1309H43.9531C43.8818 67.1309 43.8105 67.1073 43.7745 67.0596C43.7268 67.0119 43.7031 66.9643 43.7031 66.8926V66.2253H46.3725V69.5503C46.1578 69.7049 45.9315 69.8479 45.6931 69.9673C45.4548 70.0863 45.2045 70.1816 44.9425 70.2653C44.6681 70.3486 44.3821 70.4083 44.0845 70.4439C43.7745 70.4796 43.4408 70.5036 43.0835 70.5036C42.4518 70.5036 41.8798 70.3963 41.3555 70.1816C40.8311 69.9673 40.3785 69.6573 39.9971 69.2759C39.6158 68.8829 39.3178 68.4179 39.1151 67.8699C38.9008 67.3216 38.7935 66.7259 38.7935 66.0706C38.7935 65.4033 38.9008 64.8073 39.1031 64.2593C39.3058 63.7109 39.6038 63.2463 39.9971 62.8529C40.3785 62.4596 40.8431 62.1619 41.3911 61.9473C41.9395 61.7329 42.5471 61.6256 43.2265 61.6256C43.5721 61.6256 43.8938 61.6493 44.1798 61.6969C44.4775 61.7446 44.7518 61.8163 45.0018 61.9116C45.2521 62.0069 45.4905 62.1259 45.7051 62.2573C45.9195 62.3883 46.1221 62.5433 46.3008 62.7099L45.9671 63.2463C45.8958 63.3536 45.8121 63.4129 45.7051 63.4129C45.6455 63.4129 45.5738 63.3893 45.4905 63.3416C45.3951 63.2819 45.2761 63.2223 45.1568 63.1389C45.0258 63.0556 44.8828 62.9839 44.7041 62.9006C44.5251 62.8293 44.3108 62.7576 44.0725 62.7099C43.8341 62.6623 43.5361 62.6266 43.2025 62.6266C42.7141 62.6266 42.2731 62.7099 41.8798 62.8649C41.4865 63.0199 41.1528 63.2583 40.8668 63.5443C40.5928 63.8419 40.3785 64.1996 40.2235 64.6166C40.0685 65.0336 39.9971 65.5103 39.9971 66.0346C39.9971 66.5829 40.0805 67.0716 40.2355 67.5006C40.3901 67.9296 40.6048 68.2989 40.8908 68.5969C41.1768 68.8946 41.5105 69.1213 41.8918 69.2759C42.2611 69.4666 42.6901 69.5503 43.1548 69.5503Z" fill="white"/>
<path id="Shape" fill-rule="evenodd" clip-rule="evenodd" d="M55.3813 67.846C55.5836 67.31 55.6909 66.726 55.6909 66.0707C55.6909 65.415 55.5836 64.8314 55.3693 64.295C55.1666 63.7587 54.8686 63.306 54.4993 62.9247C54.1299 62.5434 53.6769 62.2454 53.1526 62.0427C52.6283 61.84 52.0563 61.733 51.4129 61.733H48.1836V70.4084H51.4249C52.0563 70.4084 52.6403 70.301 53.1646 70.0984C53.6889 69.884 54.1419 69.598 54.5113 69.2167C54.8806 68.8354 55.1786 68.3824 55.3813 67.846ZM54.2729 64.6407C54.4159 65.0577 54.4873 65.5344 54.4873 66.0707C54.4873 66.595 54.4159 67.0717 54.2609 67.5007C54.1179 67.9177 53.9036 68.275 53.6413 68.561C53.3793 68.859 53.0573 69.0737 52.6759 69.2284C52.2946 69.3834 51.8776 69.455 51.4129 69.455H49.3633V62.6864H51.4249C51.8896 62.6864 52.3066 62.7577 52.6879 62.9127C53.0693 63.0677 53.3909 63.294 53.6533 63.58C53.9273 63.866 54.1299 64.2234 54.2729 64.6407Z" fill="white"/>
<path id="Shape_2" fill-rule="evenodd" clip-rule="evenodd" d="M58.5754 70.3963V67.1549V67.1429H59.9817C60.494 67.1429 60.9587 67.0716 61.364 66.9403C61.769 66.8093 62.1027 66.6186 62.3767 66.3803C62.651 66.1299 62.8534 65.8439 62.9964 65.5103C63.1394 65.1766 63.211 64.8073 63.211 64.4023C63.211 63.9969 63.1394 63.6276 63.0084 63.2939C62.8774 62.9603 62.6747 62.6863 62.4127 62.4479C62.1384 62.2216 61.8047 62.0426 61.3997 61.9116C60.9944 61.7806 60.5177 61.7209 59.9697 61.7209H57.4077V70.3963H58.5754ZM59.9697 66.2253H58.5754H58.5634V62.6623H59.9577C60.649 62.6623 61.1614 62.8173 61.507 63.1273C61.8524 63.4369 62.0194 63.8779 62.0194 64.4259C62.0194 64.6883 61.9717 64.9266 61.8884 65.1529C61.8047 65.3793 61.6737 65.5699 61.495 65.7249C61.328 65.8799 61.1137 66.0109 60.8514 66.0943C60.6014 66.1776 60.3034 66.2253 59.9697 66.2253Z" fill="white"/>
<path id="Shape_3" fill-rule="evenodd" clip-rule="evenodd" d="M65.9748 70.4084V66.7857V66.7737H66.8925C67.0475 66.7737 67.1665 66.7857 67.2501 66.8334C67.3335 66.881 67.4048 66.9524 67.4765 67.0477L69.7288 70.146C69.8358 70.313 69.9908 70.3964 70.2055 70.3964H71.2421L68.7158 66.9524C68.5965 66.7857 68.4655 66.6664 68.3225 66.583C68.6561 66.5114 68.9541 66.4044 69.2161 66.2494C69.4785 66.1064 69.7048 65.9277 69.8835 65.713C70.0625 65.4987 70.2055 65.2604 70.3008 64.998C70.3961 64.736 70.4438 64.45 70.4438 64.14C70.4438 63.7707 70.3721 63.437 70.2531 63.139C70.1218 62.841 69.9311 62.591 69.6691 62.3764C69.4068 62.1737 69.0851 62.007 68.6801 61.8997C68.2868 61.7924 67.8101 61.733 67.2618 61.733H64.8071V70.4084H65.9748ZM67.2025 65.9277H65.9748H65.9631V62.6744H67.2501C67.9291 62.6744 68.4298 62.8054 68.7755 63.0677C69.1208 63.3297 69.2878 63.723 69.2878 64.2354C69.2878 64.4857 69.2401 64.712 69.1568 64.9267C69.0731 65.129 68.9421 65.308 68.7635 65.4627C68.5848 65.6057 68.3701 65.725 68.1081 65.8084C67.8458 65.8917 67.5478 65.9277 67.2025 65.9277Z" fill="white"/>
<path id="Path_4" d="M54.9998 29.439L57.6452 31.3695L56.6322 28.2473L59.3135 26.3168H56.0125L54.9998 23.1947L53.9868 26.3168H50.6738L53.3552 28.2473L52.3422 31.3695L54.9998 29.439Z" fill="#FFCD00"/>
<path id="Path_5" d="M54.9998 84.8629L57.6452 86.8053L56.6322 83.6713L59.3135 81.7526H56.0125L54.9998 78.6306L53.9868 81.7526H50.6738L53.3552 83.6713L52.3422 86.8053L54.9998 84.8629Z" fill="#FFCD00"/>
<path id="Path_6" d="M54.9998 84.8629L57.6452 86.8053L56.6322 83.6713L59.3135 81.7526H56.0125L54.9998 78.6306L53.9868 81.7526H50.6738L53.3552 83.6713L52.3422 86.8053L54.9998 84.8629Z" fill="#FFCD00"/>
<path id="Path_7" d="M54.9998 84.8629L57.6452 86.8053L56.6322 83.6713L59.3135 81.7526H56.0125L54.9998 78.6306L53.9868 81.7526H50.6738L53.3552 83.6713L52.3422 86.8053L54.9998 84.8629Z" fill="#FFCD00"/>
<path id="Path_8" d="M54.9998 84.8629L57.6452 86.8053L56.6322 83.6713L59.3135 81.7526H56.0125L54.9998 78.6306L53.9868 81.7526H50.6738L53.3552 83.6713L52.3422 86.8053L54.9998 84.8629Z" fill="#FFCD00"/>
<path id="Path_9" d="M54.9998 84.8629L57.6452 86.8053L56.6322 83.6713L59.3135 81.7526H56.0125L54.9998 78.6306L53.9868 81.7526H50.6738L53.3552 83.6713L52.3422 86.8053L54.9998 84.8629Z" fill="#FFCD00"/>
<path id="Path_10" d="M54.9998 84.8629L57.6452 86.8053L56.6322 83.6713L59.3135 81.7526H56.0125L54.9998 78.6306L53.9868 81.7526H50.6738L53.3552 83.6713L52.3422 86.8053L54.9998 84.8629Z" fill="#FFCD00"/>
<path id="Path_11" d="M41.1406 81.1571L43.7863 83.0874L42.7853 79.9654L45.4546 78.0347H42.1536L41.1406 74.9127L40.1279 78.0347H36.8149L39.4963 79.9654L38.4953 83.0874L41.1406 81.1571Z" fill="#FFCD00"/>
<path id="Path_12" d="M31.0003 71.0041L33.6456 72.9464L32.6326 69.8124L35.314 67.8937H32.0013L31.0003 64.7717L29.9873 67.8937H26.6743L29.3556 69.8124L28.3426 72.9464L31.0003 71.0041Z" fill="#FFCD00"/>
<path id="Path_13" d="M27.2818 57.145L29.9271 59.0873L28.9261 55.9533L31.6074 54.0347H28.2944L27.2818 50.9126L26.2688 54.0347H22.9678L25.6371 55.9533L24.6361 59.0873L27.2818 57.145Z" fill="#FFCD00"/>
<path id="Path_14" d="M31.0003 43.298L33.6456 45.2285L32.6326 42.1063L35.314 40.1759H32.0013L31.0003 37.0537L29.9873 40.1759H26.6743L29.3556 42.1063L28.3426 45.2285L31.0003 43.298Z" fill="#FFCD00"/>
<path id="Path_15" d="M41.1406 33.145L43.7863 35.0874L42.7853 31.9533L45.4546 30.0347H42.1536L41.1406 26.9126L40.1279 30.0347H36.8149L39.4963 31.9533L38.4953 35.0874L41.1406 33.145Z" fill="#FFCD00"/>
<path id="Path_16" d="M68.8589 81.1571L71.5042 83.0874L70.4912 79.9654L73.1725 78.0347H69.8599L68.8589 74.9127L67.8459 78.0347H64.5332L67.2142 79.9654L66.2015 83.0874L68.8589 81.1571Z" fill="#FFCD00"/>
<path id="Path_17" d="M78.9998 71.0041L81.6452 72.9464L80.6442 69.8124L83.3135 67.8937H80.0125L78.9998 64.7717L77.9868 67.8937H74.6738L77.3552 69.8124L76.3542 72.9464L78.9998 71.0041Z" fill="#FFCD00"/>
<path id="Path_18" d="M82.7178 57.145L85.3631 59.0873L84.3504 55.9533L87.0314 54.0347H83.7188L82.7178 50.9126L81.7048 54.0347H78.3921L81.0731 55.9533L80.0604 59.0873L82.7178 57.145Z" fill="#FFCD00"/>
<path id="Path_19" d="M78.9998 43.298L81.6452 45.2285L80.6442 42.1063L83.3135 40.1759H80.0125L78.9998 37.0537L77.9868 40.1759H74.6738L77.3552 42.1063L76.3542 45.2285L78.9998 43.298Z" fill="#FFCD00"/>
<path id="Path_20" d="M68.8589 33.145L71.5042 35.0874L70.4912 31.9533L73.1725 30.0347H69.8599L68.8589 26.9126L67.8459 30.0347H64.5332L67.2142 31.9533L66.2015 35.0874L68.8589 33.145Z" fill="#FFCD00"/>
<path id="Shape_4" fill-rule="evenodd" clip-rule="evenodd" d="M60.2205 48.1499H59.5068V46.0573C59.5068 43.6363 57.5538 41.6666 55.1535 41.6666C52.7532 41.6666 50.8005 43.6363 50.8005 46.0573V48.1499H50.0865C49.6705 48.1499 49.3335 48.49 49.3335 48.9095V55.5736C49.3335 55.9933 49.6705 56.3333 50.0865 56.3333H60.2205C60.6365 56.3333 60.9738 55.9933 60.9738 55.5736V48.9096C60.9738 48.4901 60.6365 48.1499 60.2205 48.1499ZM52.6288 46.0573C52.6288 44.6531 53.7615 43.5107 55.1535 43.5107C56.5458 43.5107 57.6785 44.6531 57.6785 46.0573V48.1499H52.6288V46.0573ZM55.9742 53.8566V52.4943C56.2795 52.2501 56.4755 51.8729 56.4755 51.4493C56.4755 50.7129 55.8838 50.1158 55.1535 50.1158C54.4235 50.1158 53.8315 50.7129 53.8315 51.4493C53.8315 51.8729 54.0275 52.25 54.3328 52.4943V53.8566C54.3328 54.3136 54.7002 54.6843 55.1535 54.6843C55.6068 54.6843 55.9742 54.3136 55.9742 53.8566Z" fill="white"/>
</g>
</g>
</svg>
