<svg xmlns="http://www.w3.org/2000/svg" width="60" height="59" viewBox="0 0 60 59">
    <g fill="none" fill-rule="evenodd">
        <g fill="#fff" fill-rule="nonzero">
            <path d="M55.976 15.12C53.293 10.565 49.654 6.96 45.058 4.3 40.461 1.643 35.443.314 30 .314S19.537 1.644 14.94 4.301C10.345 6.96 6.706 10.565 4.023 15.12 1.341 19.674 0 24.648 0 30.04c0 6.478 1.907 12.303 5.723 17.476 3.815 5.174 8.743 8.754 14.784 10.741.704.13 1.224.039 1.563-.27.338-.31.507-.697.507-1.161 0-.077-.006-.774-.02-2.09-.013-1.316-.02-2.465-.02-3.445l-.898.154c-.572.104-1.295.149-2.168.136-.872-.012-1.777-.103-2.714-.27-.938-.168-1.81-.555-2.618-1.161-.806-.607-1.38-1.4-1.718-2.38l-.39-.891c-.26-.593-.67-1.252-1.23-1.974-.56-.723-1.127-1.213-1.7-1.47l-.273-.195c-.183-.128-.352-.284-.508-.464-.156-.18-.273-.361-.351-.542-.079-.181-.014-.33.195-.446.208-.117.586-.173 1.133-.173l.78.115c.521.104 1.166.413 1.934.93.768.515 1.4 1.186 1.895 2.011.599 1.059 1.32 1.865 2.168 2.42.846.555 1.699.832 2.558.832.859 0 1.601-.065 2.226-.193.625-.13 1.21-.323 1.758-.581.234-1.73.873-3.058 1.914-3.987-1.484-.155-2.819-.388-4.004-.697-1.184-.31-2.409-.813-3.671-1.51-1.264-.697-2.312-1.562-3.145-2.593-.833-1.032-1.517-2.388-2.05-4.065-.534-1.677-.801-3.612-.801-5.806 0-3.122 1.029-5.78 3.086-7.973-.964-2.348-.873-4.98.273-7.896.755-.233 1.875-.058 3.36.522 1.484.58 2.57 1.078 3.261 1.49.69.413 1.244.762 1.66 1.046 2.423-.671 4.923-1.006 7.5-1.006 2.578 0 5.079.335 7.501 1.006l1.484-.929c1.015-.62 2.214-1.187 3.593-1.703 1.38-.516 2.436-.658 3.166-.426 1.171 2.916 1.275 5.548.311 7.896 2.058 2.194 3.087 4.852 3.087 7.974 0 2.193-.268 4.134-.801 5.825-.534 1.69-1.223 3.044-2.07 4.064-.846 1.02-1.901 1.878-3.164 2.574-1.263.697-2.488 1.2-3.672 1.51-1.185.31-2.52.543-4.004.697 1.354 1.161 2.03 2.993 2.03 5.496v8.167c0 .464.164.851.49 1.16.325.31.839.4 1.542.271 6.042-1.986 10.97-5.567 14.786-10.74 3.814-5.174 5.722-11 5.722-17.477-.001-5.392-1.343-10.365-4.024-14.92z" transform="translate(-111 -280) translate(111 280)"/>
        </g>
    </g>
</svg>
