<svg width="27" height="24" viewBox="0 0 27 24" fill="none" xmlns="http://www.w3.org/2000/svg">
<path d="M7.80802 8.40116H18.4032L21.0637 1.30241C21.0993 1.20949 21.1635 1.13023 21.2469 1.07602C21.3304 1.02181 21.4288 0.995421 21.5282 1.00065C21.6276 1.00588 21.7227 1.04246 21.8 1.10513C21.8773 1.16781 21.9328 1.25335 21.9584 1.3495L25.1841 13.4162C25.2294 13.6033 25.2177 13.7996 25.1506 13.98C25.0835 14.1604 24.9639 14.3167 24.8074 14.4286L13.6471 22.1513C13.4879 22.2612 13.299 22.32 13.1056 22.32C12.9122 22.32 12.7233 22.2612 12.5641 22.1513L1.40383 14.4286C1.24726 14.3167 1.12773 14.1604 1.0606 13.98C0.993475 13.7996 0.981814 13.6033 1.02712 13.4162L4.25275 1.3495C4.27841 1.25335 4.33386 1.16781 4.41115 1.10513C4.48845 1.04246 4.58361 1.00588 4.68298 1.00065C4.78236 0.995421 4.88083 1.02181 4.96428 1.07602C5.04772 1.13023 5.11185 1.20949 5.14745 1.30241L7.80802 8.40116Z" stroke="white" stroke-width="2" stroke-linecap="round" stroke-linejoin="round"/>
<path d="M13.188 22.3163L18.4032 8.40137H23.842" stroke="white" stroke-width="2" stroke-linecap="round" stroke-linejoin="round"/>
<path d="M2.37061 8.40137H7.80945L13.0246 22.3163" stroke="white" stroke-width="2" stroke-linecap="round" stroke-linejoin="round"/>
</svg>
