<svg width="48" height="48" viewBox="0 0 48 48" fill="none" xmlns="http://www.w3.org/2000/svg">
<path d="M43.6328 9.84611L44.3125 8.91242C44.9073 8.1485 44.8224 7.04505 44.1426 6.36601L41.6784 3.90447C41.3385 3.56494 40.8287 3.3103 40.3189 3.3103C39.894 3.3103 39.5541 3.39518 39.2143 3.64983L38.2796 4.32887C37.2599 5.00792 37.1749 6.45089 38.0247 7.29969L40.7437 10.0159C41.1686 10.4403 41.5935 10.61 42.1033 10.61C42.6131 10.61 43.2929 10.3554 43.6328 9.84611Z" fill="url(#paint0_linear_3216_1729)"/>
<path d="M47.8819 14.6843C46.6923 13.4111 45.1628 12.5623 43.3784 12.3076C43.1235 12.3076 42.9535 12.3925 42.8686 12.6471C42.7836 12.9018 42.6986 13.2413 42.5287 13.5808C42.4437 13.7506 42.3587 13.9203 42.2738 14.0901C42.1038 14.3448 42.3587 14.6843 42.6137 14.6843C44.1431 14.7692 45.5027 15.618 46.3524 16.8912C46.5223 17.1458 47.0322 17.1458 47.1171 16.8063L47.7969 15.1936C48.0518 14.9389 48.0518 14.7692 47.8819 14.6843Z" fill="url(#paint1_linear_3216_1729)"/>
<path d="M40.9985 15.5332C40.8286 15.703 40.6586 15.9576 40.4887 16.1274C40.4037 16.2123 40.2338 16.382 40.1488 16.4669C39.9788 16.6367 40.0638 16.9762 40.2338 17.0611C41.3384 17.5703 42.1881 18.5889 42.443 19.7772C42.528 20.0319 42.8679 20.1168 43.0378 19.947L43.9725 18.9284C44.2274 18.7587 44.2274 18.6738 44.2274 18.504C43.7176 17.2308 42.7829 16.1274 41.5083 15.4483C41.3384 15.3635 41.1684 15.3635 40.9985 15.5332Z" fill="url(#paint2_linear_3216_1729)"/>
<path d="M45.3323 10.3555C45.0774 10.6102 45.0774 11.0346 45.3323 11.2892C45.5872 11.5439 46.0121 11.5439 46.267 11.2892C46.5219 11.0346 46.5219 10.6102 46.267 10.3555C46.0121 10.1009 45.5872 10.1009 45.3323 10.3555Z" fill="url(#paint3_linear_3216_1729)"/>
<path d="M38.7887 19.3527C39.1641 19.3527 39.4684 19.0487 39.4684 18.6737C39.4684 18.2986 39.1641 17.9946 38.7887 17.9946C38.4132 17.9946 38.1089 18.2986 38.1089 18.6737C38.1089 19.0487 38.4132 19.3527 38.7887 19.3527Z" fill="url(#paint4_linear_3216_1729)"/>
<path d="M33.3514 5.2626C33.3514 5.60212 33.6913 5.77188 33.9462 5.60212C34.1161 5.51724 34.2861 5.43236 34.456 5.34748C34.7959 5.2626 35.0508 5.09284 35.3907 5.00796C35.5607 4.92308 35.7306 4.75332 35.7306 4.49867C35.4757 2.80106 34.626 1.18833 33.3514 0C33.1815 0 33.0115 0 32.8416 0L31.2271 0.679045C30.8872 0.848806 30.8023 1.27321 31.1422 1.44297C32.4167 2.29178 33.1815 3.64987 33.3514 5.2626Z" fill="url(#paint5_linear_3216_1729)"/>
<path d="M29.1027 3.90438L28.083 4.83807C27.9131 5.00783 27.9981 5.34735 28.253 5.43223C29.4426 5.68687 30.4622 6.53568 30.9721 7.63913C31.057 7.89377 31.3969 7.89377 31.5669 7.72401C31.6518 7.63913 31.8218 7.46937 31.9067 7.38449C32.0767 7.21473 32.3316 7.04496 32.5015 6.8752C32.6715 6.79032 32.6715 6.53568 32.5865 6.4508C31.9067 5.17759 30.8021 4.2439 29.5276 3.73462C29.3576 3.73462 29.1877 3.8195 29.1027 3.90438Z" fill="url(#paint6_linear_3216_1729)"/>
<path d="M37.6854 2.71622C37.9404 2.46158 37.9404 2.03718 37.6854 1.78253C37.4305 1.52789 37.0057 1.52789 36.7508 1.78253C36.4958 2.03718 36.4958 2.46158 36.7508 2.71622C37.0057 2.97086 37.4305 2.97086 37.6854 2.71622Z" fill="url(#paint7_linear_3216_1729)"/>
<path d="M28.8479 8.74274C28.593 8.99738 28.593 9.42178 28.8479 9.67643C29.1028 9.93107 29.5277 9.93107 29.7826 9.67643C30.0375 9.42178 30.0375 8.99738 29.7826 8.74274C29.5277 8.4881 29.1028 8.4881 28.8479 8.74274Z" fill="url(#paint8_linear_3216_1729)"/>
<path d="M29.6975 26.8223C29.6975 26.7374 29.6975 26.6525 29.6975 26.5676C29.6975 26.313 29.7824 26.1432 29.8674 25.8886C29.8674 25.8037 29.9524 25.7188 29.9524 25.6339C30.2073 24.7851 30.6321 23.9363 31.2269 23.1724L38.0246 15.0239C38.7044 14.1751 38.7044 12.9018 37.8547 12.1379L35.8154 10.1008C35.0506 9.33686 33.7761 9.25198 32.9264 9.93102L24.7691 16.7215C24.5142 16.9761 24.1743 17.1459 23.9194 17.3156C23.6645 17.4854 23.4946 17.5703 23.2396 17.6552C23.1547 17.6552 23.0697 17.74 22.9847 17.74C22.7298 17.8249 22.4749 17.9098 22.22 17.9947C21.9651 18.0796 21.7951 18.0796 21.5402 18.1644C21.4552 18.1644 21.3703 18.1644 21.2853 18.2493C21.1154 18.2493 20.8604 18.3342 20.6905 18.3342C20.6055 18.3342 20.4356 18.3342 20.3506 18.3342C20.0957 18.3342 19.9258 18.3342 19.6708 18.3342C19.5859 18.3342 19.5859 18.3342 19.5009 18.3342C19.246 18.3342 18.9061 18.2493 18.6512 18.2493C18.3963 18.1644 18.1414 18.1644 17.8015 18.1644H17.7165C17.6315 18.1644 17.5466 18.1644 17.4616 18.1644C17.3766 18.1644 17.2916 18.1644 17.2916 18.1644C17.1217 18.1644 17.0367 18.1644 16.8668 18.2493C16.7818 18.2493 16.7818 18.2493 16.6969 18.2493C16.5269 18.2493 16.357 18.3342 16.1021 18.4191C16.0171 18.4191 16.0171 18.4191 15.9321 18.504C15.7622 18.5888 15.6772 18.5888 15.5073 18.6737C15.4223 18.6737 15.4223 18.7586 15.3373 18.7586C15.2523 18.8435 15.0824 18.8435 14.9974 18.9284C14.9125 18.9284 14.9125 19.0132 14.8275 19.0132C14.7425 19.0981 14.5726 19.183 14.4876 19.2679C14.4026 19.2679 14.4026 19.3528 14.3177 19.3528C14.1477 19.4377 13.9778 19.6074 13.8928 19.7772L13.383 20.2865L3.95116 29.6233L1.99682 31.5756L1.14711 32.4244C-0.382371 33.9522 -0.382371 36.4138 1.14711 37.9416L10.0691 46.8541C11.5986 48.382 14.0627 48.382 15.5922 46.8541L16.4419 46.0053L18.3963 44.053L27.8281 34.6313L28.2529 34.2069C28.5928 33.8674 28.8477 33.5278 29.1027 33.1883C29.3576 32.8488 29.5275 32.4244 29.6125 32C29.7824 31.4058 29.8674 30.7268 29.8674 30.1326C29.8674 29.9628 29.8674 29.7082 29.7824 29.5384C29.6975 29.1989 29.6975 28.8594 29.6975 28.6048C29.6975 28.435 29.6975 28.2652 29.6975 28.0955C29.6975 27.9257 29.6975 27.8408 29.6975 27.6711C29.6975 27.2467 29.6975 27.0769 29.6975 26.8223ZM23.0697 34.4615L17.2067 40.3183C16.272 41.252 14.7425 41.3369 13.6379 40.4881C12.5333 39.5544 11.4286 38.5358 10.409 37.5172C9.30435 36.4138 8.36967 35.3952 7.43498 34.2918C6.58527 33.2732 6.67024 31.7453 7.60493 30.7268L13.4679 24.87C14.5726 23.7666 16.272 23.8514 17.2916 24.9549C18.1414 25.9735 19.076 26.9071 20.0107 27.8408C20.9454 28.7745 21.9651 29.7082 22.8998 30.557C24.0893 31.6605 24.1743 33.443 23.0697 34.4615ZM29.2726 21.5597C29.0177 21.8143 28.8477 22.1538 28.5928 22.4934C28.3379 22.9178 27.8281 23.1724 27.3183 23.1724H25.5339C25.109 23.1724 24.7691 22.8329 24.7691 22.4085V20.626C24.7691 20.1167 25.024 19.6074 25.4489 19.3528C25.7888 19.183 26.0437 18.9284 26.3836 18.6737L33.6061 12.7321C34.031 12.3926 34.6258 12.3926 34.9657 12.817L35.2206 13.0716C35.5605 13.4111 35.6454 14.0053 35.3056 14.4297L29.2726 21.5597Z" fill="url(#paint9_linear_3216_1729)"/>
<path d="M16.9512 31.5756H16.3564V30.8965C16.3564 29.7931 15.4218 28.8594 14.2322 28.8594C13.1275 28.9443 12.3628 29.8779 12.3628 30.9814V34.8859C12.3628 35.3103 12.7027 35.6498 13.1275 35.6498H17.0362C18.1408 35.6498 19.0755 34.7161 19.0755 33.5278C18.9906 32.4244 17.9709 31.5756 16.9512 31.5756Z" fill="url(#paint10_linear_3216_1729)"/>
<defs>
<linearGradient id="paint0_linear_3216_1729" x1="47.4363" y1="16.4352" x2="41.1587" y2="1.29286" gradientUnits="userSpaceOnUse">
<stop stop-color="#B9567F"/>
<stop offset="0.557481" stop-color="#6E4CB6"/>
</linearGradient>
<linearGradient id="paint1_linear_3216_1729" x1="50.1697" y1="20.8752" x2="46.639" y2="10.4925" gradientUnits="userSpaceOnUse">
<stop stop-color="#B9567F"/>
<stop offset="0.557481" stop-color="#6E4CB6"/>
</linearGradient>
<linearGradient id="paint2_linear_3216_1729" x1="45.7926" y1="23.7402" x2="41.5123" y2="14.4199" gradientUnits="userSpaceOnUse">
<stop stop-color="#B9567F"/>
<stop offset="0.557481" stop-color="#6E4CB6"/>
</linearGradient>
<linearGradient id="paint3_linear_3216_1729" x1="46.9524" y1="12.5301" x2="45.8256" y2="9.79628" gradientUnits="userSpaceOnUse">
<stop stop-color="#B9567F"/>
<stop offset="0.557481" stop-color="#6E4CB6"/>
</linearGradient>
<linearGradient id="paint4_linear_3216_1729" x1="39.9786" y1="20.4365" x2="38.8155" y2="17.6145" gradientUnits="userSpaceOnUse">
<stop stop-color="#B9567F"/>
<stop offset="0.557481" stop-color="#6E4CB6"/>
</linearGradient>
<linearGradient id="paint5_linear_3216_1729" x1="37.5335" y1="10.1924" x2="32.1106" y2="-0.947929" gradientUnits="userSpaceOnUse">
<stop stop-color="#B9567F"/>
<stop offset="0.557481" stop-color="#6E4CB6"/>
</linearGradient>
<linearGradient id="paint6_linear_3216_1729" x1="34.3863" y1="11.1203" x2="31.1724" y2="2.30686" gradientUnits="userSpaceOnUse">
<stop stop-color="#B9567F"/>
<stop offset="0.557481" stop-color="#6E4CB6"/>
</linearGradient>
<linearGradient id="paint7_linear_3216_1729" x1="38.3708" y1="3.95709" x2="37.2441" y2="1.22329" gradientUnits="userSpaceOnUse">
<stop stop-color="#B9567F"/>
<stop offset="0.557481" stop-color="#6E4CB6"/>
</linearGradient>
<linearGradient id="paint8_linear_3216_1729" x1="30.468" y1="10.9173" x2="29.3412" y2="8.18349" gradientUnits="userSpaceOnUse">
<stop stop-color="#B9567F"/>
<stop offset="0.557481" stop-color="#6E4CB6"/>
</linearGradient>
<linearGradient id="paint9_linear_3216_1729" x1="52.9669" y1="78.7464" x2="19.9356" y2="-1.28068" gradientUnits="userSpaceOnUse">
<stop stop-color="#B9567F"/>
<stop offset="0.557481" stop-color="#6E4CB6"/>
</linearGradient>
<linearGradient id="paint10_linear_3216_1729" x1="21.5943" y1="41.0686" x2="15.7269" y2="27.0107" gradientUnits="userSpaceOnUse">
<stop stop-color="#B9567F"/>
<stop offset="0.557481" stop-color="#6E4CB6"/>
</linearGradient>
</defs>
</svg>
