<svg width="48" height="48" viewBox="0 0 48 48" fill="none" xmlns="http://www.w3.org/2000/svg">
<path d="M25.2683 0.32203C24.4814 -0.107343 23.5196 -0.107343 22.7327 0.32203C16.2628 3.84289 11.7163 12.5162 11.7163 22.6494C11.7163 28.8324 13.3775 34.4142 16.1753 38.708C17.0497 40.082 18.6234 40.9407 20.2846 40.9407H27.5415C29.2027 40.9407 30.7765 40.082 31.6508 38.708C34.4486 34.4142 36.1098 28.8324 36.1098 22.6494C36.1972 12.5162 31.6508 3.84289 25.2683 0.32203ZM23.9568 23.7658C21.0715 23.7658 18.7109 21.4472 18.7109 18.6133C18.7109 15.7795 21.0715 13.4608 23.9568 13.4608C26.842 13.4608 29.2027 15.7795 29.2027 18.6133C29.2027 21.4472 26.842 23.7658 23.9568 23.7658Z" fill="url(#paint0_linear_3216_1724)"/>
<path d="M31.8258 45.9214L31.3886 44.9768C31.2137 44.5474 30.6891 44.2898 30.252 44.2898H17.7492C17.2246 44.2898 16.7875 44.5474 16.6126 44.9768L16.1754 45.9214C15.7383 46.7802 16.3503 47.7248 17.3121 47.7248H30.6017C31.5635 47.8107 32.1755 46.7802 31.8258 45.9214Z" fill="url(#paint1_linear_3216_1724)"/>
<path d="M7.43171 32.6108C7.43171 32.6108 7.34428 32.6108 7.43171 32.6108L2.97269 36.9904C1.04918 38.8797 0 41.3701 0 43.9463V46.0073C0 47.4671 1.66121 48.4118 2.97269 47.7248L12.153 42.5723C12.9399 42.1429 13.3771 41.1983 13.0274 40.2537L12.8525 39.6526C11.7159 37.6774 10.7541 35.6165 9.96724 33.2978C9.53008 32.3532 8.2186 31.838 7.43171 32.6108Z" fill="url(#paint2_linear_3216_1724)"/>
<path d="M40.568 32.6968C40.568 32.6109 40.568 32.6109 40.568 32.6968C39.7811 31.9239 38.3822 32.3533 38.0325 33.3837C37.333 35.6165 36.3713 37.7634 35.1472 39.7385L34.9723 40.2537C34.71 41.1125 35.0598 42.0571 35.8467 42.5723L45.027 47.7248C46.3385 48.4977 47.9997 47.5531 47.9997 46.0073V43.9463C47.9997 41.3701 46.9505 38.8797 45.027 36.9905L40.568 32.6968Z" fill="url(#paint3_linear_3216_1724)"/>
<defs>
<linearGradient id="paint0_linear_3216_1724" x1="45.2646" y1="73.6113" x2="-1.31514" y2="6.34287" gradientUnits="userSpaceOnUse">
<stop stop-color="#B9567F"/>
<stop offset="0.718873" stop-color="#6E4CB6"/>
</linearGradient>
<linearGradient id="paint1_linear_3216_1724" x1="37.8888" y1="50.4749" x2="37.148" y2="42.1788" gradientUnits="userSpaceOnUse">
<stop stop-color="#B9567F"/>
<stop offset="0.718873" stop-color="#6E4CB6"/>
</linearGradient>
<linearGradient id="paint2_linear_3216_1724" x1="18.0832" y1="60.4964" x2="2.92567" y2="29.7634" gradientUnits="userSpaceOnUse">
<stop stop-color="#B9567F"/>
<stop offset="0.718873" stop-color="#6E4CB6"/>
</linearGradient>
<linearGradient id="paint3_linear_3216_1724" x1="52.9202" y1="60.5276" x2="37.7675" y2="29.8502" gradientUnits="userSpaceOnUse">
<stop stop-color="#B9567F"/>
<stop offset="0.718873" stop-color="#6E4CB6"/>
</linearGradient>
</defs>
</svg>
