<svg width="48" height="48" viewBox="0 0 48 48" fill="none" xmlns="http://www.w3.org/2000/svg">
<path fill-rule="evenodd" clip-rule="evenodd" d="M16.6552 3.04229C20.7115 -1.0141 27.2887 -1.0141 31.3451 3.04229L44.9579 16.6552C49.0143 20.7107 49.0143 27.2887 44.9579 31.3442L31.3451 44.9571C27.2887 49.0143 20.7115 49.0143 16.6552 44.9571L3.04229 31.3442C-1.0141 27.2887 -1.0141 20.7107 3.04229 16.6552L16.6552 3.04229ZM24.7403 17.192C27.4397 14.528 31.8612 14.2524 34.7003 16.8246C37.679 19.5345 37.772 24.1277 34.933 26.9295L25.2523 36.4833C24.5541 37.1722 23.3906 37.1722 22.6924 36.4833L13.1513 27.0673C10.4519 24.4033 10.2192 19.856 12.8721 17.1461C15.2923 14.6658 19.0622 14.3442 21.9012 16.1356C22.1805 16.3193 22.227 16.7327 21.9943 16.9623L20.6911 18.2484C20.2723 18.6618 20.2723 19.3049 20.6911 19.7182C21.11 20.1316 21.7616 20.1316 22.1805 19.7182L23.9956 17.9269L24.7403 17.192Z" fill="url(#paint0_linear_3216_1704)"/>
<defs>
<linearGradient id="paint0_linear_3216_1704" x1="66.0112" y1="86.3039" x2="24.8718" y2="-13.4049" gradientUnits="userSpaceOnUse">
<stop stop-color="#B9567F"/>
<stop offset="0.718873" stop-color="#6E4CB6"/>
</linearGradient>
</defs>
</svg>
