<svg width="48" height="48" viewBox="0 0 48 48" fill="none" xmlns="http://www.w3.org/2000/svg">
<path fill-rule="evenodd" clip-rule="evenodd" d="M34.2884 32.7141C34.2884 34.5443 32.8051 36.0267 30.9757 36.0267H20.5286V36.925C20.5286 37.6568 19.644 38.0235 19.127 37.5056L13.9343 32.313C13.614 31.9926 13.614 31.473 13.9343 31.1518L19.127 25.96C19.644 25.4421 20.5286 25.8089 20.5286 26.5406V27.4381H33.1572C33.7825 27.4381 34.2884 27.9448 34.2884 28.5692V32.7141ZM13.6938 15.2922C13.6938 13.4619 15.1771 11.9787 17.0064 11.9787H27.4536V11.0812C27.4536 10.3494 28.3382 9.98271 28.8552 10.5006L34.0479 15.6932C34.3682 16.0136 34.3682 16.5332 34.0479 16.8544L28.8552 22.0462C28.3382 22.5641 27.4536 22.1974 27.4536 21.4656V20.5673H14.8249C14.1997 20.5673 13.6938 20.0614 13.6938 19.4361V15.2922ZM31.3451 3.04229C27.2887 -1.0141 20.7115 -1.0141 16.6552 3.04229L3.04229 16.6552C-1.0141 20.7107 -1.0141 27.2887 3.04229 31.3442L16.6552 44.9571C20.7115 49.0143 27.2887 49.0143 31.3451 44.9571L44.9579 31.3442C49.0143 27.2887 49.0143 20.7107 44.9579 16.6552L31.3451 3.04229Z" fill="url(#paint0_linear_359_1465)"/>
<defs>
<linearGradient id="paint0_linear_359_1465" x1="62.2529" y1="24.7644" x2="25.4052" y2="-13.6251" gradientUnits="userSpaceOnUse">
<stop stop-color="#5657B9"/>
<stop offset="1" stop-color="#6E4CB6"/>
</linearGradient>
</defs>
</svg>
