<svg width="55" height="55" viewBox="0 0 55 55" fill="none" xmlns="http://www.w3.org/2000/svg">
<path d="M35.42 1.53977C32.725 0.769766 30.03 0.384766 26.95 0.384766C11.935 0.384766 0 12.3198 0 27.3348C0 37.7298 5.775 46.5848 14.245 51.2048L14.63 38.4998C14.63 38.4998 22.33 41.9648 26.95 40.4248C31.57 38.8848 31.57 37.3448 31.955 34.2648C32.34 31.1848 29.26 27.3348 25.41 27.3348C20.405 27.3348 17.325 28.1048 17.325 28.1048L15.015 26.1798L16.17 8.08477H35.805L35.42 1.53977Z" fill="#727390"/>
<path d="M14.2448 51.2048C18.0948 53.1298 22.3298 54.2848 26.9498 54.2848C41.9648 54.2848 54.2848 42.3498 54.2848 27.3348C54.2848 17.7098 48.5098 10.0098 41.5798 5.0048C40.0398 3.8498 38.1148 2.6948 36.1898 1.9248L36.5748 14.2448H21.9448L21.1748 22.7148C21.1748 22.7148 37.7298 18.8648 38.1148 34.2648C38.4998 45.0448 28.1048 45.8148 23.0998 46.1998C16.5548 46.1998 13.0898 43.8898 13.8598 43.8898L14.2448 51.2048Z" fill="#727390" fill-opacity="0.409672"/>
<path d="M35.8051 7.69971C33.8801 7.69971 16.1701 8.08471 16.1701 8.08471L15.0151 25.7947L17.7101 28.1047C17.7101 28.1047 23.4851 26.5647 27.3351 27.7197C30.8001 29.2597 31.9551 31.1847 31.9551 34.6497C31.9551 38.1147 30.0301 39.6547 27.3351 40.4247C25.0251 41.1947 21.5601 40.8097 20.4051 40.4247C18.8651 40.0397 14.6301 38.4997 14.6301 38.4997L14.2451 44.2747C14.2451 44.2747 16.5551 45.8147 21.5601 46.1997C26.5651 46.5847 33.1101 45.8147 36.9601 40.8097C40.4251 36.1897 40.0401 23.8697 28.4901 22.3297C24.6401 21.9447 21.5601 22.7147 21.5601 22.7147L22.3301 13.8597H36.5751L35.8051 7.69971Z" fill="white"/>
</svg>
