<svg width="60" height="60" viewBox="0 0 60 60" fill="none" xmlns="http://www.w3.org/2000/svg">
<g id="Jasmine">
<g id="Group">
<path id="Shape" d="M27.6763 24.844H32.3236L33.4783 23.2544V10.8056H26.5225V23.2557L27.6763 24.844Z" fill="#E57AD9"/>
<path id="Shape_2" d="M24.6806 30.3964L26.1163 25.9773L24.9616 24.3882L13.1208 20.5415L10.9717 27.1559L22.8137 31.0034L24.6806 30.3964Z" fill="#E57AD9"/>
<path id="Shape_3" d="M29.0363 34.9614L25.277 32.2296L23.4084 32.837L16.0908 42.9088L21.7178 46.9966L29.0363 36.9245V34.9614Z" fill="#E57AD9"/>
<path id="Shape_4" d="M34.7241 32.2292L30.9639 34.9605L30.9647 36.9249L38.2825 46.9966L43.9099 42.9088L36.5908 32.8362L34.7241 32.2292Z" fill="#E57AD9"/>
<path id="Shape_5" d="M33.8828 25.9764L35.3192 30.3959L37.1876 31.0024L49.0285 27.1557L46.8788 20.5409L35.0375 24.3885L33.8828 25.9764Z" fill="#E57AD9"/>
<path id="Shape_6" fill-rule="evenodd" clip-rule="evenodd" d="M0 29.9951C0 13.4558 13.4588 0 30.0015 0C46.5426 0 60 13.4558 60 29.9951C60 46.5404 46.5426 60 30.0015 60C13.4588 60 0 46.5404 0 29.9951ZM53.9253 29.9951C53.9253 16.7822 43.2122 6.07355 30.0015 6.07355C16.7864 6.07355 6.0747 16.7822 6.0747 29.9951C6.0747 43.2123 16.7864 53.9256 30.0015 53.9256C43.2122 53.9256 53.9253 43.2123 53.9253 29.9951Z" fill="#E57AD9"/>
<path id="Shape_7" d="M48.1718 36.6624L39.1709 33.7376L39.766 31.9043L48.7669 34.8291L48.1718 36.6624Z" fill="#E57AD9"/>
<path id="Shape_8" d="M36.6926 22.2129L35.1328 21.08L40.6953 13.4238L42.2551 14.5566L36.6926 22.2129Z" fill="#E57AD9"/>
<path id="Shape_9" d="M23.4045 22.1433L17.8428 14.4866L19.4027 13.3538L24.9644 21.01L23.4045 22.1433Z" fill="#E57AD9"/>
<path id="Shape_10" d="M11.7917 36.5481L11.1963 34.7148L20.1963 31.7914L20.7918 33.6246L11.7917 36.5481Z" fill="#E57AD9"/>
<path id="Shape_11" d="M28.9766 49.1206H30.9043V39.6567H28.9766V49.1206Z" fill="#E57AD9"/>
</g>
</g>
</svg>
