<svg width="46" height="64" viewBox="0 0 46 64" fill="none" xmlns="http://www.w3.org/2000/svg">
<path fill-rule="evenodd" clip-rule="evenodd" d="M29.2437 0C29.2437 0 35.7318 6.65084 23.0971 16.8821C15.2581 23.2318 18.1602 27.4702 20.9437 31.5352C21.7596 32.7269 22.5654 33.9037 23.0874 35.1144C17.1652 29.6437 12.8138 24.8231 15.7407 20.3426C17.1626 18.1529 19.4226 16.3387 21.7093 14.503C26.2952 10.8216 30.9885 7.05397 29.2437 0ZM37.0685 13.0716C37.0685 13.0716 15.6919 18.5423 25.9265 30.6039C28.9413 34.1543 25.1362 37.3547 25.1362 37.3547C25.1362 37.3547 32.7854 33.3542 29.273 28.2436C29.1397 28.0551 29.0078 27.8704 28.8782 27.6891L28.8778 27.6885C25.7545 23.3172 23.9915 20.8496 37.0685 13.0716ZM36.3172 46.8959C36.2599 47.0141 36.1803 47.1194 36.0831 47.2059C51.7228 43.0054 45.9664 32.3541 38.4929 35.0044C38.0985 35.1628 37.7589 35.4378 37.5173 35.7945C37.9526 35.6353 38.3996 35.5116 38.8539 35.4245C42.6102 34.6644 48.0251 40.6551 36.3075 46.8959H36.3172ZM36.366 37.5547C35.3731 37.9976 34.417 38.5228 33.5074 39.1249C22.0239 42.2353 -0.279515 40.7951 6.12077 37.6147C9.16746 36.0303 12.5391 35.2143 15.9554 35.2344C15.9554 35.2344 4.60851 38.0048 11.9357 39.0049C16.9362 39.3978 21.9608 39.3376 26.951 38.8249C31.6536 38.4148 36.366 37.5547 36.366 37.5547ZM14.7065 44.9557C20.2736 45.6346 25.9121 45.3574 31.3902 44.1356H31.4097C32.1428 44.8443 33.0093 45.3922 33.9562 45.7458C19.1457 50.1763 2.71574 46.0958 13.2918 42.4953C13.2918 42.4953 10.6185 44.5256 14.7065 44.9557ZM32.8634 52.5566C20.658 57.9273 5.20366 52.2466 14.8041 49.4962C14.8041 49.4962 12.4235 50.9264 16.5017 51.3965C20.8082 52.0178 25.1892 51.828 29.4291 50.8364C30.5242 51.5086 31.6731 52.0841 32.8634 52.5566ZM42.0736 54.6869C42.0736 54.6869 43.8395 56.1771 40.1223 57.3272C33.0683 59.5175 10.7551 60.1776 4.55972 57.4172C2.33524 56.4171 6.51103 55.0469 7.82816 54.7569C8.53348 54.5792 9.25814 54.4952 9.98436 54.5069C7.5062 52.7166 -6.02611 58.0173 3.15478 59.5075C28.0242 63.678 48.5324 57.6773 42.0736 54.6869ZM8.27696 62.0978C17.7294 63.4546 27.3297 63.3028 36.7368 61.6478V61.6578C44.7197 60.1075 45.9009 58.1955 45.9743 57.9611C45.516 63.3913 28.2907 64.537 17.0578 63.798C9.71117 63.318 8.27696 62.0978 8.27696 62.0978ZM45.9762 57.9373L45.9743 57.9611C45.979 57.946 45.9792 57.9379 45.9762 57.9373Z" fill="#727390"/>
</svg>
