<svg width="64" height="64" viewBox="0 0 64 64" fill="none" xmlns="http://www.w3.org/2000/svg">
<g id="Jest">
<circle id="path848" cx="32" cy="32" r="32" fill="#99425B"/>
<path id="path4" fill-rule="evenodd" clip-rule="evenodd" d="M44.8765 27.4286C47.2638 27.9123 49.0664 30.0061 49.0664 32.5339C49.0664 33.5162 48.7937 34.436 48.3204 35.222C49.3427 36.9426 49.7599 38.9673 49.4089 40.9889C48.9977 43.3593 47.5423 45.4253 45.416 46.6571C43.5852 47.7175 41.5243 48.0147 39.5314 48.302L39.528 48.3025L39.5277 48.3025L39.5276 48.3025L39.5275 48.3025L39.5274 48.3025C38.5286 48.4466 37.585 48.5828 36.6696 48.8085C34.2054 49.4161 31.707 50.6569 29.2908 51.8569L29.2882 51.8582C25.9198 53.5313 22.476 55.2417 19.0673 55.2418C17.2527 55.2418 15.4484 54.7574 13.6697 53.5245C10.7395 51.4937 9.5358 47.9023 10.2805 43.412C10.6546 41.1552 11.6421 39.1268 12.5135 37.3368L12.5139 37.3358C12.693 36.9681 12.868 36.6083 13.0344 36.2547C12.0902 35.3081 11.5057 34.0027 11.5057 32.5632C11.5057 29.6793 13.8519 27.3333 16.7358 27.3333C19.6197 27.3333 21.9659 29.6796 21.9659 32.5634C21.9659 34.8357 20.5087 36.7736 18.4801 37.4936C18.4444 37.5778 18.4086 37.6622 18.3728 37.7462L18.3095 37.895C17.5197 39.7515 18.2736 41.8823 20.0639 43.0235C21.8685 42.3117 23.5427 41.2354 25.0466 39.8168C25.9838 38.9324 26.8034 37.9692 27.4976 36.944C26.0462 36.0135 25.0815 34.3926 25.0815 32.5442C25.0815 30.0756 26.8012 28.0127 29.1052 27.4664L23.3655 10.55H50.6064L44.8765 27.4286ZM43.8365 35.607C45.5309 35.607 46.9095 34.2284 46.9095 32.5339C46.9095 30.8392 45.5309 29.4605 43.8365 29.4605C42.1418 29.4605 40.7631 30.8392 40.7631 32.5339C40.7631 34.2284 42.1418 35.607 43.8365 35.607ZM26.3738 12.7069H47.5977L42.5826 27.4774C42.3921 27.5245 42.2056 27.5709 42.0238 27.6383L36.9982 17.3811L31.9568 27.5728C31.7971 27.5198 31.6345 27.487 31.4685 27.4535L31.4685 27.4535L31.4681 27.4534L31.4675 27.4533C31.4354 27.4468 31.4032 27.4403 31.3708 27.4336L26.3738 12.7069ZM30.3119 29.4605C28.6172 29.4605 27.2385 30.8392 27.2385 32.5339C27.2385 34.2284 28.6172 35.607 30.3119 35.607C32.0064 35.607 33.3851 34.2284 33.3851 32.5339C33.3851 30.8392 32.0064 29.4605 30.3119 29.4605ZM16.7358 29.4903C18.4304 29.4903 19.809 30.8689 19.809 32.5633C19.809 34.2581 18.4304 35.6369 16.7358 35.6369C15.0412 35.6369 13.6626 34.2581 13.6626 32.5633C13.6627 30.8689 15.0412 29.4903 16.7358 29.4903ZM44.3349 44.7908C45.9071 43.88 46.982 42.3599 47.2839 40.62C47.5084 39.3274 47.3071 38.0295 46.7572 36.8703C45.9227 37.4343 44.9173 37.764 43.8365 37.764C40.9525 37.764 38.6063 35.4177 38.6063 32.534C38.6063 31.0667 39.2143 29.7395 40.1908 28.7888L36.9898 22.2588L33.8235 28.6614C34.8784 29.6189 35.5419 31.0003 35.5419 32.5339C35.5419 35.4176 33.1956 37.7639 30.3118 37.7639C30.0602 37.7639 29.813 37.7449 29.5708 37.7104C28.7307 39.0301 27.7112 40.2654 26.5268 41.383C24.678 43.1271 22.5934 44.4199 20.3307 45.2258L19.8911 45.3823L19.4761 45.1689C16.6208 43.7023 15.249 40.611 16.0771 37.7508C15.6528 37.6971 15.2443 37.5928 14.8578 37.4435C14.726 37.7194 14.591 37.9975 14.4533 38.2803C13.6067 40.0191 12.7313 41.8172 12.4083 43.765C12.0605 45.8623 11.9215 49.6888 14.8984 51.752C18.9709 54.5747 23.3073 52.4208 28.3285 49.9267L28.3287 49.9266C30.8502 48.6742 33.4577 47.3793 36.1531 46.7145C37.1689 46.464 38.2071 46.3141 39.2115 46.1691L39.2236 46.1673C41.0962 45.8973 42.8648 45.6422 44.3349 44.7908Z" fill="white"/>
</g>
</svg>
