<svg width="72" height="72" viewBox="0 0 72 72" fill="none" xmlns="http://www.w3.org/2000/svg">
<rect width="72" height="72" rx="3" fill="#F7E017"/>
<path fill-rule="evenodd" clip-rule="evenodd" d="M62.8229 41.2775C60.967 39.6078 58.5312 38.7739 55.5281 38.7739C53.0384 38.7739 51.0485 39.4281 49.5701 40.741C48.086 42.0589 47.3421 43.7967 47.3421 45.9359C47.3421 49.6629 49.3533 51.8727 53.309 52.5074L53.6033 52.5512L56.3575 52.9355L56.6117 52.9759C57.3532 53.1089 57.9049 53.3481 58.2699 53.6871C58.6615 54.0507 58.8621 54.6189 58.8621 55.4079C58.8621 57.124 57.6452 57.9739 55.0801 57.9739C52.8684 57.9739 51.1592 57.4159 49.9405 56.3063L49.572 55.9545L46.3435 59.183L46.5183 59.3598L46.7477 59.584C48.764 61.4906 51.5247 62.4419 55.0161 62.4419C57.522 62.4419 59.5971 61.8123 61.2328 60.5498C62.8848 59.2748 63.7141 57.5105 63.7141 55.2799C63.7141 53.1036 63.1033 51.4268 61.8758 50.2663C60.9347 49.3879 59.5589 48.8008 57.7518 48.497L57.3904 48.4409L54.6994 48.0564L54.451 48.0157C53.7244 47.8801 53.1657 47.6259 52.7706 47.2572C52.3414 46.8565 52.1301 46.3681 52.1301 45.7759C52.1301 45.0147 52.4041 44.3945 52.9588 43.8982C53.5162 43.3994 54.3265 43.1459 55.4001 43.1459C57.2517 43.1459 58.6856 43.591 59.7121 44.4744L60.0792 44.8084L63.2458 41.6778L63.0617 41.5L62.8229 41.2775ZM43.9701 38.9659H39.0221V54.3199L39.0187 54.5549C38.9507 56.8643 37.8619 57.9739 35.6881 57.9739C34.7414 57.9739 33.8919 57.6301 33.129 56.9354L32.773 56.5953L29.4775 59.855L29.6553 60.0327L29.8874 60.2565C31.4532 61.7125 33.3911 62.4419 35.6881 62.4419C37.9865 62.4419 39.9118 61.7708 41.4523 60.4284C43.0538 59.0377 43.8925 57.1708 43.9649 54.8453L43.97 54.5158L43.9701 38.9659Z" fill="black"/>
</svg>
