<svg width="56" height="56" viewBox="0 0 56 56" fill="none" xmlns="http://www.w3.org/2000/svg">
<rect opacity="0.1" width="56" height="56" rx="10" fill="url(#paint0_linear_639_246)"/>
<path fill-rule="evenodd" clip-rule="evenodd" d="M41.9285 17.2857C41.3371 17.2857 40.8571 16.8057 40.8571 16.2143C40.8571 15.6229 41.3371 15.1429 41.9285 15.1429C42.5199 15.1429 42.9999 15.6229 42.9999 16.2143C42.9999 16.8057 42.5199 17.2857 41.9285 17.2857ZM15.6727 36.5715H13.668C13.2995 36.5715 13 36.272 13 35.9034V33.8988C13 33.3036 13.7195 33.0052 14.1405 33.4263C14.2755 33.5613 14.4946 33.5613 14.6296 33.4263L22.9482 25.1082C23.3666 24.6893 24.0454 24.6893 24.4632 25.1082L27.9914 28.6359L37.9568 18.6711C38.4164 18.2109 39.1921 18.2565 39.5886 18.8088C39.9004 19.2427 39.8071 19.8507 39.4295 20.2284L28.7489 30.909C28.3311 31.3273 27.6523 31.3273 27.2339 30.909L23.7057 27.3807L16.1452 34.9418C16.0102 35.0763 16.0102 35.2959 16.1452 35.4309C16.5663 35.852 16.2679 36.5715 15.6727 36.5715Z" fill="#69EECF"/>
<mask id="mask0_639_246" style="mask-type:alpha" maskUnits="userSpaceOnUse" x="15" y="23" width="28" height="20">
<path fill-rule="evenodd" clip-rule="evenodd" d="M15.2095 23.74H42.9998V43H15.2095V23.74Z" fill="white"/>
</mask>
<g mask="url(#mask0_639_246)">
<path fill-rule="evenodd" clip-rule="evenodd" d="M42.9998 25.2788C42.9998 23.9106 41.3461 23.2254 40.3781 24.1929L29.4114 35.1595C29.3981 35.1772 29.3916 35.1981 29.3756 35.2142L26.2229 38.3668C25.8452 38.7445 25.2366 38.8415 24.8016 38.5313C24.2488 38.1381 24.2022 37.357 24.6613 36.8979L25.1975 36.3617C25.9132 35.6459 25.9132 34.4851 25.1975 33.7688L24.5536 33.1254C24.0902 32.6615 23.3381 32.6615 22.8747 33.1254L15.6709 40.3286C14.6852 41.3149 15.3832 43.0002 16.7777 43.0002H41.435C42.2991 43.0002 42.9998 42.2995 42.9998 41.4354V25.2788Z" fill="url(#paint1_linear_639_246)"/>
</g>
<path fill-rule="evenodd" clip-rule="evenodd" d="M28.0928 13H27.9069C26.7749 13 25.8572 13.9177 25.8572 15.0502V19.4168C25.8572 19.5818 25.7233 19.7157 25.5583 19.7157H25.0333C24.5464 19.7157 24.3026 20.3039 24.6465 20.6479L27.5308 23.5321C27.7901 23.7909 28.2101 23.7909 28.4694 23.5321L31.3531 20.6479C31.6971 20.3039 31.4533 19.7157 30.9669 19.7157H30.4419C30.2769 19.7157 30.143 19.5818 30.143 19.4168V15.0502C30.143 13.9177 29.2247 13 28.0928 13Z" fill="url(#paint2_linear_639_246)"/>
<defs>
<linearGradient id="paint0_linear_639_246" x1="72.6281" y1="28.8918" x2="29.639" y2="-15.8957" gradientUnits="userSpaceOnUse">
<stop stop-color="#5657B9"/>
<stop offset="1" stop-color="#6E4CB6"/>
</linearGradient>
<linearGradient id="paint1_linear_639_246" x1="51.2516" y1="33.6768" x2="37.6036" y2="13.1603" gradientUnits="userSpaceOnUse">
<stop stop-color="#5657B9"/>
<stop offset="1" stop-color="#6E4CB6"/>
</linearGradient>
<linearGradient id="paint2_linear_639_246" x1="33.6011" y1="18.5339" x2="25.9261" y2="13.2944" gradientUnits="userSpaceOnUse">
<stop stop-color="#5657B9"/>
<stop offset="1" stop-color="#6E4CB6"/>
</linearGradient>
</defs>
</svg>
