<svg width="71" height="70" viewBox="0 0 71 70" fill="none" xmlns="http://www.w3.org/2000/svg">
<rect x="0.458008" y="6" width="64" height="64" rx="23.5" fill="#FAF9E9"/>
<rect x="5.45801" y="1" width="64" height="64" rx="23.5" stroke="#7B74F5" stroke-width="1.5" stroke-linecap="round" stroke-linejoin="round" stroke-dasharray="110 70"/>
<rect x="5.45801" y="1" width="64" height="64" rx="23.5" stroke="#7B74F5" stroke-width="1.5" stroke-linecap="round" stroke-linejoin="round"/>
<path d="M28.6085 34.8539L14.8693 42.9123" stroke="#5ADEC1" stroke-width="1.5" stroke-linecap="round" stroke-linejoin="round"/>
<path d="M41.5068 41.7123L42.509 57.6088" stroke="#5ADEC1" stroke-width="1.5" stroke-linecap="round" stroke-linejoin="round"/>
<path fill-rule="evenodd" clip-rule="evenodd" d="M42.5092 57.6088C41.427 59.644 34.362 58.004 26.7296 53.9458C19.0972 49.8876 13.7869 44.9475 14.8691 42.9122C15.9512 40.877 23.0163 42.517 30.6487 46.5752C38.281 50.6333 43.5913 55.5735 42.5092 57.6088Z" fill="#E9FAF6" stroke="#5ADEC1" stroke-width="1.5" stroke-linecap="round" stroke-linejoin="round"/>
<path fill-rule="evenodd" clip-rule="evenodd" d="M60.3832 42.8854C58.3541 46.7016 51.7725 47.1706 47.9563 45.1415L23.0802 31.9146C19.2641 29.8855 15.9726 24.1669 18.0017 20.3507C20.0308 16.5346 26.6123 16.0655 30.4285 18.0946L55.3046 31.3215C59.1208 33.3506 62.4123 39.0692 60.3832 42.8854Z" stroke="#7B74F5" stroke-width="1.5" stroke-linecap="round" stroke-linejoin="round"/>
<path d="M18.0016 20.3507L29.5183 26.4743" stroke="#7B74F5" stroke-width="1.5" stroke-linecap="round" stroke-linejoin="round"/>
<path d="M48.8663 36.7618L60.383 42.8854" stroke="#7B74F5" stroke-width="1.5" stroke-linecap="round" stroke-linejoin="round"/>
<path d="M44.2597 34.3124L40.5743 32.3529" stroke="#7B74F5" stroke-width="1.5" stroke-linecap="round" stroke-linejoin="round"/>
<path d="M36.889 30.3933L33.2037 28.4338" stroke="#7B74F5" stroke-width="1.5" stroke-linecap="round" stroke-linejoin="round"/>
<path d="M29.9678 17.8497C33.7556 10.7259 42.6011 8.02153 49.7249 11.8093C56.8487 15.5971 59.553 24.4426 55.7652 31.5664" stroke="#7B74F5" stroke-width="1.5" stroke-linecap="round" stroke-linejoin="round"/>
<path d="M23.0805 31.9146L19.7681 33.6989" stroke="#7B74F5" stroke-width="1.5" stroke-linecap="round" stroke-linejoin="round"/>
<path d="M47.0352 44.6516L47.4082 48.3954" stroke="#7B74F5" stroke-width="1.5" stroke-linecap="round" stroke-linejoin="round"/>
<path d="M44.9339 14.4559C45.8985 14.6645 46.8508 15.0083 47.7657 15.4948C49.9599 16.6614 51.5953 18.4688 52.5635 20.5631" stroke="#5ADEC1" stroke-width="1.5" stroke-linecap="round" stroke-linejoin="round"/>
<path d="M53.5039 23.8941C53.5746 24.4901 53.5964 25.0938 53.5679 25.6985" stroke="#5ADEC1" stroke-width="1.5" stroke-linecap="round" stroke-linejoin="round"/>
<path fill-rule="evenodd" clip-rule="evenodd" d="M40.5742 32.3529C40.0334 33.37 38.7685 33.7564 37.7518 33.2158C36.7351 32.6752 36.3481 31.4105 36.8889 30.3933C37.4297 29.3762 38.6946 28.9898 39.7113 29.5304C40.728 30.071 41.1151 31.3357 40.5742 32.3529Z" stroke="#5ADEC1" stroke-width="1.5" stroke-linecap="round" stroke-linejoin="round"/>
<path fill-rule="evenodd" clip-rule="evenodd" d="M47.9453 36.2719C47.4045 37.2891 46.1396 37.6754 45.1229 37.1348C44.1062 36.5943 43.7191 35.3296 44.26 34.3124C44.8008 33.2952 46.0657 32.9089 47.0824 33.4495C48.0991 33.9901 48.4862 35.2548 47.9453 36.2719Z" stroke="#5ADEC1" stroke-width="1.5" stroke-linecap="round" stroke-linejoin="round"/>
<path fill-rule="evenodd" clip-rule="evenodd" d="M33.2036 28.4338C32.6628 29.451 31.3979 29.8373 30.3812 29.2967C29.3645 28.7561 28.9774 27.4914 29.5183 26.4743C30.0591 25.4571 31.324 25.0708 32.3407 25.6114C33.3574 26.1519 33.7445 27.4166 33.2036 28.4338Z" stroke="#5ADEC1" stroke-width="1.5" stroke-linecap="round" stroke-linejoin="round"/>
</svg>
