<svg width="73" height="73" viewBox="0 0 73 73" fill="none" xmlns="http://www.w3.org/2000/svg">
<rect x="3" y="6" width="64" height="64" rx="23.5" fill="#FAF9E9"/>
<rect x="8" y="1" width="64" height="64" rx="23.5" stroke="#7B74F5" stroke-width="1.5" stroke-linecap="round" stroke-linejoin="round"/>
<path d="M27.0708 60.4568C26.8846 60.4568 26.6977 60.3937 26.5443 60.2642L16.1349 51.5024C15.9691 51.3633 15.8652 51.1628 15.8468 50.9471C15.828 50.7305 15.896 50.5156 16.0358 50.3502L38.4039 23.7778C38.6951 23.4318 39.2116 23.3871 39.5568 23.6787C39.9024 23.9695 39.9467 24.4857 39.6559 24.8309L17.8148 50.7777L26.9721 58.4856L48.8176 32.5341C49.1089 32.1873 49.6254 32.1433 49.9706 32.435C50.3162 32.7258 50.3605 33.242 50.0697 33.5871L27.6972 60.1651C27.5354 60.3577 27.3037 60.4568 27.0708 60.4568Z" fill="#7B74F5"/>
<path fill-rule="evenodd" clip-rule="evenodd" d="M50.9796 35.4256C51.1298 35.5519 51.3171 35.6174 51.5061 35.6174C51.6216 35.6174 51.7378 35.5934 51.8465 35.5431C52.1341 35.4121 52.3199 35.126 52.3243 34.8104L52.5232 19.8283C52.5264 19.583 52.4194 19.3489 52.232 19.1915C52.0446 19.0333 51.7957 18.971 51.5548 19.0125L36.8141 21.7651C36.5032 21.8234 36.2536 22.0559 36.1729 22.3611C36.0926 22.6672 36.1956 22.9924 36.4377 23.1961L50.9796 35.4256ZM50.7111 33.0614L38.8144 23.0563L50.8737 20.8047L50.7111 33.0614Z" fill="#5ADEC1"/>
<path d="M16.5131 72.9987C16.3269 72.9987 16.1399 72.9356 15.9865 72.8061C15.641 72.5153 15.5966 71.9992 15.8875 71.654L26.4451 59.112C26.7363 58.7653 27.2529 58.7221 27.598 59.013C27.9436 59.3038 27.9879 59.82 27.6971 60.1651L17.1395 72.7071C16.9777 72.8996 16.746 72.9987 16.5131 72.9987Z" fill="#7B74F5"/>
<path d="M11.1264 60.0285C10.261 60.0285 9.35298 59.9678 8.40177 59.8312C7.95472 59.7664 7.64431 59.3518 7.70863 58.9043C7.77295 58.4569 8.19283 58.1469 8.63508 58.2108C16.4405 59.3374 21.2445 54.7223 21.2917 54.6752C21.6145 54.3588 22.1318 54.3628 22.4482 54.684C22.765 55.0044 22.763 55.5213 22.4426 55.8385C22.2501 56.0295 18.1244 60.0285 11.1264 60.0285Z" fill="#7B74F5"/>
<path d="M1.62293 59.8543C1.43676 59.8543 1.2498 59.7912 1.09639 59.6618C0.750822 59.3709 0.706477 58.8548 0.997314 58.5096L4.04111 54.8933C4.33235 54.5466 4.8485 54.5034 5.19407 54.7942C5.53964 55.0851 5.58399 55.6012 5.29315 55.9464L2.24935 59.5627C2.08755 59.7553 1.85584 59.8543 1.62293 59.8543Z" fill="#5ADEC1"/>
<path d="M5.47287 58.4609C5.42533 58.4609 5.37699 58.4569 5.32865 58.4481L0.674865 57.6195C0.229821 57.5404 -0.0666088 57.1153 0.012892 56.6711C0.0915936 56.2253 0.515464 55.9248 0.961707 56.0087L5.6155 56.8373C6.06054 56.9164 6.35697 57.3415 6.27747 57.7857C6.20716 58.1828 5.86199 58.4609 5.47287 58.4609Z" fill="#5ADEC1"/>
<path d="M3.95008 60.2682C3.6153 60.2682 3.30129 60.0613 3.18064 59.7289L1.57105 55.2848C1.41724 54.8598 1.63697 54.3908 2.06204 54.2365C2.48591 54.0863 2.95572 54.3029 3.10993 54.7271L4.71952 59.1712C4.87333 59.5963 4.6536 60.0653 4.22853 60.2195C4.13665 60.2522 4.04277 60.2682 3.95008 60.2682Z" fill="#5ADEC1"/>
<path d="M47.6781 35.9769C47.6469 35.9769 47.6157 35.9753 47.5846 35.9713L31.3457 34.128C30.8966 34.0777 30.5738 33.6718 30.625 33.2236C30.6761 32.7737 31.0912 32.4422 31.5302 32.5029L47.7691 34.3462C48.2182 34.3965 48.541 34.8024 48.4898 35.2506C48.4423 35.6685 48.0883 35.9769 47.6781 35.9769Z" fill="#7B74F5"/>
<path d="M43.8846 40.4841C43.8534 40.4841 43.8223 40.4825 43.7911 40.4785L27.5522 38.6352C27.1032 38.5849 26.7804 38.179 26.8315 37.7308C26.8826 37.2817 27.2937 36.9589 27.7368 37.0101L43.9757 38.8534C44.4247 38.9037 44.7475 39.3096 44.6964 39.7578C44.6488 40.1757 44.2949 40.4841 43.8846 40.4841Z" fill="#7B74F5"/>
<path d="M38.4651 46.9225C38.4339 46.9225 38.4032 46.9209 38.3716 46.9169L22.1327 45.0744C21.6837 45.024 21.3613 44.6181 21.412 44.1699C21.4631 43.7201 21.8718 43.3877 22.3173 43.4492L38.5562 45.2917C39.0052 45.342 39.3276 45.7479 39.2769 46.1962C39.2293 46.6141 38.8754 46.9225 38.4651 46.9225Z" fill="#7B74F5"/>
<path d="M34.6702 51.4297C34.639 51.4297 34.6083 51.4281 34.5767 51.4241L18.3378 49.5816C17.8887 49.5312 17.5663 49.1253 17.6171 48.6771C17.6682 48.2281 18.0741 47.9045 18.5223 47.9564L34.7613 49.7989C35.2103 49.8492 35.5327 50.2551 35.482 50.7034C35.4344 51.1212 35.0805 51.4297 34.6702 51.4297Z" fill="#7B74F5"/>
</svg>
