<svg width="55" height="55" viewBox="0 0 55 55" fill="none" xmlns="http://www.w3.org/2000/svg">
<path fill-rule="evenodd" clip-rule="evenodd" d="M41.1634 13.8366H48.8991L55 19.9375V35.0625L48.8991 41.1634H41.1634V48.8991L35.0625 55H19.9375L13.8366 48.8991V41.1634H6.10087L0 35.0625V19.9375L6.10087 13.8366H13.8366V6.10087L19.9375 0H35.0625L41.1634 6.10087V13.8366ZM7.38994 38.0504L3.11369 33.7734V21.2266L7.38994 16.9496H27.5V13.8366H16.9503V7.38994L21.2266 3.113H33.7734L38.0504 7.38994V19.8722L32.0396 25.9435H21.6666L13.8366 33.7734V38.0504H7.38994ZM20.7546 10.2045H23.8676V6.74568H20.7546V10.2045ZM31.1324 48.2549H34.2454V44.7954H31.1324V48.2549ZM47.6101 38.0504L51.887 33.7734V21.2266L47.6101 16.9496H41.1634V21.1523L33.3382 29.0565H22.9556L16.9503 35.0625V47.6101L21.2266 51.887H33.7734L38.0504 47.6101V41.1634H27.5V38.0504H47.6101Z" fill="#727390"/>
</svg>
