<svg width="497" height="446" viewBox="0 0 497 446" fill="none" xmlns="http://www.w3.org/2000/svg">
<g id="Secure Illustration">
<circle id="Oval 4" cx="223" cy="223" r="163" transform="rotate(30 223 223)" stroke="#7B74F5" stroke-width="3" stroke-dasharray="200"/>
<g id="cognitive_boy">
<path id="Path" d="M487.099 275.403C487.099 287.299 481.337 298.081 471.99 305.939C469.651 307.903 467.132 309.661 464.464 311.189C464.357 311.255 464.247 311.317 464.136 311.378C463.936 311.492 463.736 311.605 463.533 311.722L463.343 311.829C462.49 312.292 461.619 312.739 460.73 313.158C452.538 317.035 443.525 319.034 434.397 319H165.533C163.391 319 161.268 318.917 159.164 318.752C151.687 318.185 144.339 316.548 137.364 313.894C136.003 313.376 134.668 312.819 133.359 312.224C132.735 311.942 132.118 311.652 131.506 311.354C131.124 311.169 130.742 310.976 130.363 310.784C128.067 309.609 125.843 308.308 123.702 306.888C121.745 305.598 119.861 304.208 118.061 302.723C105.912 292.69 98.3964 278.805 98.3964 263.484C91.5866 253.391 87.9744 241.61 88.0001 229.577C88.0001 195.512 116.29 167.897 151.192 167.897C152.263 167.897 153.334 167.928 154.405 167.983C154.558 167.983 154.708 167.983 154.862 168.003C160.745 158.351 168.61 149.483 178.068 141.676C203.858 120.407 241.552 107 283.54 107C318.82 107 351.07 116.466 375.771 132.107C385.132 127.014 395.704 124.345 406.457 124.359C441.351 124.359 469.648 151.974 469.648 186.039C469.643 188.194 469.524 190.348 469.291 192.492C486.361 204.121 496.483 223.018 496.424 243.146C496.446 254.518 493.22 265.676 487.099 275.403Z" stroke="#ED7A7A"/>
<g id="cognitive_boy_2">
<g id="13">
<g id="Girl">
<g id="Group-2">
<path id="Shape-2" d="M245.53 144.37C239.47 147.4 240.215 140.21 231.88 141.555C223.545 142.9 225.68 154.96 217.105 157.185C210.525 158.89 207.575 161.225 206.245 163.07C200.455 172.775 211.05 184.135 211.05 184.135L204.525 187.315C201.795 189.37 199.245 192.585 199.245 197.49C199.245 208.05 211.05 204.215 211.05 204.215L235.285 254.5C239.455 257.325 248.945 256.845 258.885 252.92C268.73 249.03 276.48 242.745 277.105 236.8L268.205 213.335C268.205 213.335 284.435 203.75 281.64 185.11C279.305 169.55 268.815 147.78 266.275 142.68C264.505 141.86 262.48 140.83 260.09 139.71C250.65 135.285 251.585 141.34 245.53 144.37Z" fill="white" stroke="black"/>
<path id="Shape-3" d="M211.05 184.135C208.698 184.786 206.486 185.864 204.525 187.315L211.05 184.135Z" fill="#A97AEC"/>
<path id="Shape-4" d="M295.565 122.995C293.38 108.18 287.35 102.575 272.22 106.59C260.805 109.62 254.095 96.9 241.98 102.025C231.945 106.27 231.98 118.3 210.98 114.34C198.16 111.92 186.98 131.615 184.415 143.03C181.85 154.445 181.15 167.03 188.375 169.825C195.6 172.62 198.08 173.325 199.375 177.045C200.67 180.765 204.655 187.375 204.655 187.375C206.629 185.912 208.857 184.826 211.225 184.17C211.225 184.17 201.94 171.565 205.34 166.065C205.34 166.065 205.21 164.79 206.425 163.11C207.755 161.265 210.7 158.93 217.285 157.225C225.855 155 223.715 142.94 232.055 141.595C240.395 140.25 239.65 147.44 245.705 144.41C251.76 141.38 250.835 135.325 260.27 139.75C262.66 140.87 264.68 141.9 266.455 142.72C271.68 145.17 275.15 146.02 278.56 141.17C285.65 131 298.02 139.62 295.565 122.995Z" fill="black"/>
</g>
<path id="Shape-5" d="M281.15 235.31C286.923 234.432 292.747 233.931 298.585 233.81" stroke="#323C5A" stroke-width="0.93" stroke-linecap="round"/>
<path id="Shape-6" d="M196.185 286.065C196.185 286.065 210.57 267.225 231.22 253.63" stroke="#323C5A" stroke-width="0.93" stroke-linecap="round"/>
<ellipse id="Shape-7" cx="260.321" cy="158.968" rx="1.555" ry="2.93" transform="rotate(-16.06 260.321 158.968)" fill="#04393B"/>
<path id="Shape-8" d="M250.245 143.17C251.655 142.349 253.437 142.552 254.625 143.67" stroke="#323C5A" stroke-width="0.93" stroke-linecap="round"/>
<path id="Shape-9" d="M231.79 148.17C231.79 148.17 228.765 148.075 228.18 152.715" stroke="#323C5A" stroke-width="0.93" stroke-linecap="round"/>
<path id="Shape-10" d="M245.885 196.99C246.505 199.877 248.942 202.017 251.885 202.26" stroke="#3E3E58" stroke-width="0.93" stroke-linecap="round"/>
<path id="Shape-11" d="M210.825 195.01C210.825 195.01 206.545 192.33 204.55 195.94" stroke="#3E3E58" stroke-width="0.93" stroke-linecap="round"/>
<path id="Shape-12" d="M207.685 194.515C207.685 194.515 206.045 197.225 209.185 198.92" stroke="#3E3E58" stroke-width="0.93" stroke-linecap="round"/>
<path id="Shape-14" fill-rule="evenodd" clip-rule="evenodd" d="M282.2 237.315C281.315 235.075 278.89 233.63 275.46 232.99C276.159 233.502 276.707 234.193 277.045 234.99C279.075 240.125 270.945 248.15 258.885 252.915C246.825 257.68 235.385 257.38 233.385 252.245C233.141 251.608 233.041 250.925 233.09 250.245C231.39 252.805 230.775 255.245 231.59 257.32C233.94 263.27 247.18 263.62 261.165 258.095C275.15 252.57 284.555 243.265 282.2 237.315Z" stroke="#323C5A" stroke-width="0.93" stroke-linecap="round" stroke-linejoin="round"/>
<ellipse id="Shape-117" cx="237.842" cy="166.635" rx="1.555" ry="2.93" transform="rotate(-16.2602 237.842 166.635)" fill="#04393B"/>
<path id="Shape-118" d="M237.965 215.395C237.965 215.395 240.76 217.61 252.875 216.97C264.99 216.33 268.205 213.335 268.205 213.335L276.115 234.24C276.31 234.74 275.905 235.125 275.42 234.89L236.45 215.86L237.965 215.395Z" fill="black"/>
<path id="Shape-119" d="M256.955 166.065C256.955 166.065 258.49 171.1 266.49 169.195C273.03 167.635 274.425 173.695 271.75 176.84C270.082 178.7 267.723 179.794 265.225 179.865" stroke="#3E3E58" stroke-width="0.93" stroke-linecap="round"/>
<path id="Shape-120" d="M460.85 231.315C460.85 231.315 468.2 235.315 469.085 232.95C471.335 226.95 453.395 217.26 453.395 217.26C453.395 217.26 442.395 209.515 436.93 205.81C418.76 193.43 351.58 193.56 325.28 202.26C302.515 209.79 276.95 284.67 276.95 284.67H355.39C355.39 284.67 362.65 257.72 369.39 246.96C372.805 251.03 376.275 254.4 380.105 251.18C380.815 250.669 381.434 250.042 381.935 249.325C383.005 247.455 383.255 245.095 383.08 242.685C405.58 244.73 456.63 255.55 463.485 251.74C471.875 247.08 457.895 240.715 457.895 240.715C457.895 240.715 467.395 245.065 469.275 241.715C471.52 237.705 460.85 231.315 460.85 231.315Z" fill="white" stroke="black"/>
<path id="Shape-121" d="M421.32 230.54C421.32 230.54 429.28 231.96 438.32 234.04C460.405 239.1 465.15 245.88 465.15 245.88" stroke="#323C5A" stroke-width="0.93" stroke-linecap="round"/>
<path id="Shape-122" d="M434.82 220.625C439.254 221.644 443.617 222.952 447.88 224.54C461.63 229.725 467.855 236.955 467.855 236.955" stroke="#323C5A" stroke-width="0.93" stroke-linecap="round"/>
<path id="Shape-123" d="M429.245 219.515C429.245 219.515 430.415 219.7 432.31 220.085" stroke="#323C5A" stroke-width="0.93" stroke-linecap="round"/>
<path id="Shape-124" d="M332.65 229.42C332.65 229.42 335.03 236.565 354.29 240.29C373.55 244.015 371.145 255.07 379.34 251.565C388.745 247.565 377.445 226.465 377.445 226.465" stroke="#323C5A" stroke-width="0.93" stroke-linecap="round"/>
<path id="Shape-126" d="M434.82 211.455C434.82 211.455 441.82 212.16 448 214.66C450.642 215.692 453.186 216.961 455.6 218.45" stroke="#323C5A" stroke-width="0.93" stroke-linecap="round"/>
<path id="Shape-127" d="M380.12 231.67C380.12 231.67 382.835 226.595 380.12 223.505" stroke="#323C5A" stroke-width="0.93" stroke-linecap="round"/>
<path id="Shape-128" d="M418.585 232.87C418.585 232.87 419.515 230.83 421.32 230.54" stroke="#323C5A" stroke-width="0.93" stroke-linecap="round"/>
<path id="Shape-129" d="M421.465 230.54C421.355 229.547 421.819 228.578 422.66 228.04" stroke="#323C5A" stroke-width="0.93" stroke-linecap="round"/>
<path id="Shape-130" d="M426.915 220.96C426.915 220.96 427.35 219.785 429.1 219.515C429.1 219.515 429.125 217.55 430.205 216.97" stroke="#323C5A" stroke-width="0.93" stroke-linecap="round"/>
</g>
</g>
</g>
</g>
<g id="PR">
<path id="Shape" d="M385.402 165C381.335 163.202 377.267 161.405 373.26 159.547C345.267 146.424 328.52 124.852 323.914 93.9922C321.402 77.214 322.06 60.3759 322.538 43.5378C322.598 42.1595 322.658 40.7214 322.658 39.3432C322.778 34.6093 323.436 33.9502 328.041 33.9502C337.253 33.9502 346.284 32.8117 355.077 30.0553C366.681 26.4599 376.669 20.0483 385.342 11.5393C385.761 11.5393 386.12 11.5393 386.538 11.5393C401.91 27.5984 421.11 35.8078 442.882 38.8039C442.882 39.2234 442.882 39.6428 442.882 40.0623C441.208 40.4817 439.533 41.3206 437.918 41.2008C421.649 40.302 406.696 35.5681 393.357 26.1004C391.383 24.7222 389.469 23.2841 387.735 21.6662C386.419 20.4078 385.462 20.5876 384.206 21.7261C371.047 33.0514 355.735 39.2833 338.449 40.8413C336.355 41.021 334.262 41.021 332.228 41.4405C331.451 41.6202 330.195 42.579 330.195 43.2381C329.417 63.6716 328.58 84.1051 333.365 104.239C338.449 125.691 351.488 140.672 370.628 150.619C374.935 152.836 379.481 154.633 383.967 156.491C384.983 156.911 386.419 157.03 387.376 156.671C404.064 150.199 418.658 140.971 428.767 125.631C436.004 114.605 440.131 102.321 441.626 89.3782C442.823 78.8918 442.882 68.3455 443.6 57.7992C443.959 52.1665 444.677 46.5339 445.275 40.9012C445.395 39.8825 445.993 38.9237 446.352 37.9051C446.651 37.9051 447.01 37.9051 447.309 37.8451C447.907 41.2607 448.804 44.6763 448.983 48.1518C449.402 58.8179 450 69.4841 449.522 80.1502C448.624 100.404 443.899 119.579 430.8 135.758C420.991 147.862 408.37 155.892 394.135 161.704C391.563 162.723 389.051 163.861 386.479 164.88C386.18 165 385.821 165 385.402 165Z" fill="#FFC86B"/>
<path id="Shape_2" d="M368.834 82.8467C367.877 83.9852 366.621 85.2435 365.544 86.6817C365.245 87.1011 365.066 88.1198 365.305 88.4793C370.449 94.7712 375.653 101.003 381.096 107.475C390.965 98.3665 398.98 87.5805 411.241 82.1875C411.6 82.4871 411.959 82.7867 412.318 83.0264C411.78 84.1649 411.421 85.4832 410.583 86.3821C402.927 94.891 395.211 103.4 387.436 111.789C383.668 115.864 378.225 115.984 374.636 111.669C369.432 105.377 364.408 98.9058 359.503 92.3743C357.111 89.1984 357.529 85.7828 360.041 82.7867C360.101 82.7268 360.161 82.6669 360.221 82.547C367.458 74.3976 369.611 73.7385 377.866 80.6295C379.959 82.3673 381.275 82.0677 383.129 80.3299C387.795 76.0754 392.58 71.9408 397.365 67.926C401.312 64.6303 404.782 64.9299 408.37 68.7649C409.746 70.2031 411.301 71.6412 412.198 73.319C412.916 74.6972 413.215 76.5548 412.976 78.0529C412.617 80.0902 410.942 80.2101 409.507 78.6521C408.849 77.933 408.131 77.214 407.413 76.6147C402.748 72.9595 402.748 72.9595 398.441 76.8544C393.896 80.9291 389.35 84.9439 384.804 88.9587C381.813 91.5953 380.258 91.5354 377.208 89.0786C374.815 87.1011 372.423 85.1836 370.03 83.2661C369.791 83.0863 369.552 83.0264 368.834 82.8467Z" fill="#FF708B"/>
</g>
</g>
</svg>
