<svg width="56" height="56" viewBox="0 0 56 56" fill="none" xmlns="http://www.w3.org/2000/svg">
<rect opacity="0.1" width="56" height="56" rx="10" fill="url(#paint0_linear_639_248)"/>
<path fill-rule="evenodd" clip-rule="evenodd" d="M24.8685 19.4462C24.6526 19.4462 24.5169 19.6602 24.5903 19.8621C24.6753 20.0961 24.6811 20.3541 24.5808 20.5839C24.3875 21.0281 23.9894 21.25 23.5913 21.25C23.3209 21.25 23.0511 21.1477 22.8446 20.9432L22.4856 20.5865C22.3747 20.4758 22.2691 20.3599 22.1698 20.2387L22.0246 20.062C21.5679 19.506 21.2648 18.823 21.2505 18.1055C21.25 18.0693 21.25 18.0336 21.25 17.9974C21.2632 16.4685 22.5526 15.25 24.0918 15.25H31.8881C33.4384 15.25 34.7447 16.4774 34.75 18.0174C34.7516 18.5094 34.6592 18.9867 34.487 19.4325C34.4839 19.4404 34.4754 19.4462 34.4664 19.4462H24.8685ZM33.8376 35.5904C34.2397 35.99 34.5442 36.4591 34.7486 36.9693C34.7541 36.9836 34.7431 37 34.7276 37H21.2726C21.2571 37 21.2456 36.9836 21.2516 36.9693C21.4554 36.4591 21.7605 35.99 22.162 35.5904L25.91 31.8615C27.0638 30.7128 28.9358 30.7128 30.0902 31.8615L33.8376 35.5904ZM25.3449 23.2395C24.8433 22.7398 24.8887 21.9018 25.4822 21.4632C25.962 21.1084 26.6469 21.2168 27.0701 21.6379L28.3586 22.9205C28.8679 23.426 28.8997 24.2963 28.3386 24.7437C28.1246 24.9144 27.8641 25 27.603 25C27.3012 25 27 24.8851 26.7695 24.6563L25.3449 23.2395ZM35.2002 22.322C36.3907 21.1332 37.032 19.5421 36.9988 17.8552C36.9435 15.1386 34.6394 13 31.919 13H24.081C21.3612 13 19.0565 15.1386 19.0012 17.8552C18.968 19.5416 19.6093 21.1327 20.7998 22.3214L24.8891 26.4073C25.7695 27.287 25.7695 28.713 24.8891 29.5927L20.7998 33.678C19.6093 34.8673 18.968 36.4584 19.0012 38.1448C19.0565 40.8614 21.3612 43 24.081 43H31.919C34.6394 43 36.9435 40.8614 36.9988 38.1448C37.032 36.4584 36.3907 34.8673 35.2002 33.6786L31.1109 29.5927C30.2305 28.713 30.2305 27.287 31.1109 26.4073L35.2002 22.322Z" fill="url(#paint1_linear_639_248)"/>
<defs>
<linearGradient id="paint0_linear_639_248" x1="72.6281" y1="28.8918" x2="29.639" y2="-15.8957" gradientUnits="userSpaceOnUse">
<stop stop-color="#5657B9"/>
<stop offset="1" stop-color="#6E4CB6"/>
</linearGradient>
<linearGradient id="paint1_linear_639_248" x1="42.3447" y1="28.4778" x2="21.6249" y2="15.5257" gradientUnits="userSpaceOnUse">
<stop stop-color="#5657B9"/>
<stop offset="1" stop-color="#6E4CB6"/>
</linearGradient>
</defs>
</svg>
