<svg width="110" height="110" viewBox="0 0 110 110" fill="none" xmlns="http://www.w3.org/2000/svg">
<g id="1">
<path id="Rectangle 4" d="M0 5C0 2.23858 2.23858 0 5 0H105C107.761 0 110 2.23858 110 5V105C110 107.761 107.761 110 105 110H5C2.23858 110 0 107.761 0 105V5Z" fill="white"/>
<g id="SOC">
<g id="SOC-logo-blue_&#195;&#184;utlined">
<g id="Group-3">
<g id="Fill-1 Clipped">
<mask id="mask0_2976_2177" style="mask-type:alpha" maskUnits="userSpaceOnUse" x="19" y="19" width="72" height="72">
<path id="path-1" fill-rule="evenodd" clip-rule="evenodd" d="M90.9729 53.5452C90.9866 53.8834 90.9956 54.2207 91 54.5571V55.5042C90.7535 74.5044 75.6719 90.2018 56.4618 90.9817L55.9109 91H54.0425C35.2523 90.5181 19.8038 75.5236 19.0302 56.4665C18.2235 36.5977 33.6745 19.8368 53.5409 19.0302C73.4072 18.2234 90.1659 33.6763 90.9729 53.5452Z" fill="white"/>
</mask>
<g mask="url(#mask0_2976_2177)">
<path id="Fill-1" d="M19 90.9997H90.999V18.9999H19V90.9997Z" fill="url(#paint0_linear_2976_2177)"/>
</g>
</g>
</g>
<g id="Group-6">
<g id="Fill-4 Clipped">
<mask id="mask1_2976_2177" style="mask-type:alpha" maskUnits="userSpaceOnUse" x="27" y="27" width="56" height="56">
<path id="path-4" fill-rule="evenodd" clip-rule="evenodd" d="M82.938 55.0059C82.938 70.4368 70.4301 82.9462 55.0012 82.9462C39.5723 82.9462 27.0645 70.4368 27.0645 55.0059C27.0645 39.5751 39.5723 27.0657 55.0012 27.0657C70.4301 27.0657 82.938 39.5751 82.938 55.0059Z" fill="white"/>
</mask>
<g mask="url(#mask1_2976_2177)">
<path id="Fill-4" d="M82.938 55.0059C82.938 70.4368 70.4301 82.9462 55.0012 82.9462C39.5723 82.9462 27.0645 70.4368 27.0645 55.0059C27.0645 39.5751 39.5723 27.0657 55.0012 27.0657C70.4301 27.0657 82.938 39.5751 82.938 55.0059Z" fill="url(#paint1_linear_2976_2177)"/>
</g>
</g>
</g>
<path id="Fill-7" d="M32.9412 78.7735C33.0376 78.674 33.0788 78.5615 33.065 78.4361C33.0514 78.3104 32.9769 78.1317 32.842 77.8998C32.7068 77.6678 32.6266 77.4796 32.6008 77.3354C32.5634 77.1305 32.6134 76.9576 32.7502 76.8162C32.883 76.6792 33.0475 76.6223 33.2435 76.6458C33.4395 76.6695 33.6254 76.7663 33.8012 76.9367C33.9202 77.0521 34.0044 77.1784 34.0539 77.3154C34.1034 77.4524 34.1142 77.5872 34.0865 77.7194C34.0585 77.8517 33.9957 77.9683 33.8979 78.0692L33.7453 77.9212C33.8641 77.7985 33.9177 77.6594 33.9062 77.5036C33.8946 77.348 33.8183 77.2017 33.677 77.0649C33.54 76.932 33.4011 76.8567 33.2604 76.8391C33.1197 76.8218 33.0017 76.8625 32.9059 76.9611C32.8176 77.0523 32.7819 77.1623 32.7993 77.2906C32.8166 77.419 32.8845 77.583 33.0027 77.7832C33.1209 77.9829 33.1987 78.1468 33.236 78.2745C33.2732 78.402 33.2808 78.5188 33.2592 78.6251C33.2373 78.7314 33.183 78.8294 33.0964 78.9189C32.9596 79.0601 32.7933 79.1187 32.5977 79.0948C32.4021 79.0706 32.2119 78.9693 32.0272 78.7902C31.9005 78.6676 31.8064 78.5327 31.7447 78.3853C31.683 78.238 31.6643 78.097 31.6884 77.9629C31.7125 77.8286 31.7755 77.7091 31.8774 77.6039L32.0288 77.7506C31.9063 77.8773 31.8568 78.0228 31.8805 78.1872C31.9042 78.3519 31.9944 78.5102 32.1512 78.662C32.2909 78.7974 32.4328 78.8752 32.5768 78.8954C32.7211 78.9158 32.8426 78.8752 32.9412 78.7735Z" fill="#FFFFFE"/>
<path id="Fill-8" fill-rule="evenodd" clip-rule="evenodd" d="M34.7364 80.4643C34.9091 80.3824 35.0694 80.2536 35.2174 80.0776L35.4092 79.8492C35.5502 79.6764 35.6445 79.4994 35.6921 79.3184C35.7396 79.1372 35.7371 78.9641 35.6843 78.7986C35.6312 78.6331 35.5314 78.4887 35.3845 78.3651C35.2374 78.2415 35.0771 78.1682 34.9035 78.1455C34.73 78.1228 34.5559 78.1528 34.3811 78.2351C34.2066 78.3176 34.0461 78.446 33.8996 78.6201L33.7341 78.817C33.5061 79.0883 33.3935 79.3616 33.3965 79.6368C33.3998 79.9121 33.5129 80.1436 33.736 80.3312C33.8839 80.4554 34.0446 80.5293 34.2177 80.5524C34.3908 80.5755 34.5639 80.5462 34.7364 80.4643ZM35.5287 79.0621C35.5233 79.2803 35.4237 79.5043 35.2302 79.7344L35.0601 79.9367C34.8639 80.1704 34.6595 80.3095 34.4469 80.3543C34.2346 80.3989 34.037 80.3444 33.8542 80.1907C33.6738 80.039 33.587 79.8529 33.5934 79.6321C33.5998 79.4111 33.6984 79.1874 33.889 78.9606L34.0568 78.7611C34.2538 78.5267 34.4601 78.3882 34.6756 78.3461C34.8912 78.3038 35.0876 78.3575 35.2652 78.5068C35.4464 78.6591 35.5343 78.8442 35.5287 79.0621Z" fill="#FFFFFE"/>
<path id="Fill-9" d="M36.9038 81.7269C36.7266 81.9234 36.5327 82.0313 36.3216 82.0511C36.1107 82.0709 35.8978 82.0028 35.6828 81.8476C35.5326 81.7393 35.427 81.6058 35.3657 81.4473C35.3044 81.2888 35.292 81.118 35.3286 80.935C35.3649 80.7517 35.4466 80.5714 35.5735 80.3937L35.7633 80.1308C35.8931 79.9511 36.0398 79.8143 36.2032 79.7208C36.3666 79.6273 36.5345 79.5854 36.7074 79.5951C36.8801 79.605 37.0433 79.6655 37.1972 79.7765C37.4141 79.9333 37.5432 80.1153 37.5845 80.3229C37.6256 80.5303 37.5818 80.7449 37.4531 80.9661L37.2806 80.8417C37.4863 80.4672 37.4238 80.1601 37.0928 79.9212C36.9092 79.7887 36.7136 79.7517 36.5054 79.8103C36.2975 79.8689 36.106 80.0194 35.9312 80.2614L35.7524 80.5093C35.5836 80.7428 35.5019 80.9678 35.5074 81.1836C35.5132 81.3994 35.6063 81.5724 35.787 81.703C35.9659 81.8322 36.1318 81.8866 36.2847 81.8666C36.4373 81.8466 36.5861 81.7583 36.7314 81.6023L36.9038 81.7269Z" fill="#FFFFFE"/>
<path id="Fill-10" d="M37.7949 83.2118L38.6681 81.7676L38.4052 81.6089L38.4923 81.4649L38.7549 81.6237L38.8711 81.4314C38.9693 81.269 39.0861 81.1694 39.2214 81.1322C39.3568 81.0951 39.4983 81.1211 39.6459 81.2106C39.7125 81.2507 39.7697 81.2967 39.8175 81.3481L39.7162 81.4855C39.6745 81.4442 39.6248 81.406 39.567 81.3712C39.4701 81.3126 39.3764 81.2971 39.2862 81.325C39.1959 81.3528 39.1173 81.4221 39.0502 81.5332L38.9312 81.7302L39.3098 81.9591L39.2227 82.1031L38.8441 81.8741L37.9711 83.3183L37.7949 83.2118Z" fill="#FFFFFE"/>
<path id="Fill-11" fill-rule="evenodd" clip-rule="evenodd" d="M39.4038 82.5015C39.275 82.5946 39.1686 82.7197 39.084 82.8767L39.0644 82.913C38.9288 83.1646 38.8878 83.4033 38.941 83.6286C38.9942 83.8542 39.1292 84.025 39.3454 84.1416C39.4873 84.2182 39.6322 84.2518 39.7797 84.2431C39.9272 84.2343 40.0657 84.1831 40.1946 84.0896C40.3234 83.9961 40.4304 83.8703 40.5157 83.7122L40.5359 83.6744C40.6714 83.4227 40.7129 83.1844 40.6601 82.9592C40.6073 82.7339 40.4723 82.5628 40.2549 82.4456C40.1139 82.3699 39.9689 82.3369 39.8201 82.347C39.6712 82.3571 39.5325 82.4085 39.4038 82.5015ZM39.131 83.5867C39.0974 83.407 39.1331 83.2194 39.2383 83.0242L39.256 82.9908C39.3662 82.7865 39.5061 82.6487 39.6759 82.5771C39.8455 82.5055 40.011 82.5131 40.1719 82.5998C40.2796 82.6578 40.3599 82.7376 40.4129 82.8398C40.4657 82.9415 40.4874 83.0568 40.4779 83.1854C40.4684 83.314 40.43 83.4409 40.3628 83.5657L40.344 83.6004C40.2334 83.8057 40.0937 83.9437 39.9252 84.0145C39.7566 84.0855 39.5907 84.077 39.4275 83.9891C39.2637 83.9008 39.1646 83.7667 39.131 83.5867Z" fill="#FFFFFE"/>
<path id="Fill-12" d="M42.0429 83.5711C42.007 83.5453 41.9668 83.5218 41.9224 83.5008C41.8069 83.4457 41.6936 83.4314 41.583 83.458C41.4722 83.4844 41.3707 83.5511 41.2783 83.6578L40.7313 84.8088L40.5469 84.7211L41.3435 83.0449L41.5246 83.1312L41.4013 83.399C41.5936 83.2474 41.798 83.223 42.0149 83.3262C42.0665 83.3507 42.1042 83.3769 42.1277 83.4044L42.0429 83.5711Z" fill="#FFFFFE"/>
<path id="Fill-13" d="M44.0984 85.5564C44.1475 85.4272 44.1411 85.3075 44.079 85.1975C44.0171 85.0875 43.8782 84.9526 43.6626 84.7927C43.447 84.6329 43.2991 84.4916 43.2184 84.3692C43.1035 84.1957 43.081 84.017 43.1512 83.8333C43.219 83.6548 43.3478 83.5376 43.5374 83.4821C43.7268 83.4264 43.9358 83.4423 44.1644 83.5294C44.3194 83.5884 44.4465 83.6713 44.5459 83.7776C44.6456 83.8843 44.7087 84.0038 44.7351 84.1363C44.7617 84.2687 44.75 84.4008 44.6998 84.532L44.5011 84.4563C44.562 84.2966 44.5564 84.1476 44.4844 84.0091C44.4126 83.8705 44.2845 83.7661 44.1009 83.6961C43.9226 83.628 43.7652 83.6138 43.629 83.6532C43.4928 83.6926 43.4004 83.7764 43.3513 83.9049C43.3061 84.0236 43.3166 84.1387 43.3833 84.2497C43.4497 84.361 43.5768 84.485 43.7644 84.6222C43.9519 84.7592 44.0879 84.8791 44.1723 84.9817C44.2569 85.0842 44.3101 85.1886 44.332 85.2949C44.3538 85.4012 44.3427 85.5126 44.2981 85.629C44.2282 85.8126 44.0986 85.9321 43.9092 85.9872C43.72 86.0423 43.5052 86.0242 43.2648 85.9323C43.1004 85.8696 42.9605 85.7827 42.8458 85.6717C42.7309 85.5605 42.658 85.4385 42.6275 85.3056C42.5968 85.1728 42.6073 85.038 42.6595 84.9012L42.8565 84.9765C42.7938 85.141 42.8058 85.2943 42.8924 85.4361C42.9791 85.578 43.1243 85.6878 43.3284 85.7658C43.51 85.8349 43.6711 85.8504 43.8116 85.8122C43.9523 85.7743 44.0476 85.6888 44.0984 85.5564Z" fill="#FFFFFE"/>
<path id="Fill-14" fill-rule="evenodd" clip-rule="evenodd" d="M44.858 86.3704C44.9566 86.4826 45.0812 86.5621 45.2319 86.6091C45.5059 86.6943 45.7473 86.6551 45.9563 86.4915L45.8626 86.3601C45.771 86.4236 45.6792 86.4622 45.5869 86.4754C45.4949 86.4886 45.3963 86.4789 45.2915 86.4463C45.1169 86.3918 44.9929 86.2798 44.9193 86.1102C44.8458 85.9405 44.8403 85.7552 44.9028 85.5545L44.9147 85.5169L46.1787 85.9104L46.2129 85.8008C46.292 85.5464 46.2913 85.3262 46.2111 85.1401C46.1308 84.954 45.9831 84.8275 45.7681 84.7604C45.6305 84.7177 45.4906 84.7169 45.3484 84.7582C45.2063 84.7996 45.0808 84.878 44.9723 84.994C44.8638 85.11 44.7829 85.253 44.7301 85.4234L44.708 85.4938C44.6568 85.6587 44.6442 85.818 44.6707 85.9717C44.6969 86.1252 44.7594 86.2583 44.858 86.3704ZM45.2931 84.9736C45.4277 84.897 45.5688 84.8816 45.7161 84.9276C45.8645 84.9738 45.968 85.0646 46.0262 85.2002C46.0846 85.3357 46.09 85.4895 46.0425 85.6616L46.0359 85.6828L44.9731 85.3518C45.0517 85.1762 45.1584 85.0501 45.2931 84.9736Z" fill="#FFFFFE"/>
<path id="Fill-15" d="M47.6176 85.4915C47.5774 85.473 47.5337 85.4575 47.486 85.4451C47.3622 85.4129 47.2483 85.4201 47.1447 85.467C47.0409 85.514 46.9537 85.5986 46.8831 85.7208L46.5629 86.9544L46.3652 86.903L46.8315 85.1067L47.0259 85.1572L46.9549 85.4437C47.1152 85.2584 47.3116 85.196 47.544 85.2563C47.5993 85.2705 47.6411 85.2891 47.6694 85.312L47.6176 85.4915Z" fill="#FFFFFE"/>
<path id="Fill-16" d="M48.2398 87.0599L49.115 85.6367L49.3216 85.68L48.2623 87.3539L48.0995 87.3196L47.7993 85.3604L48.0058 85.4037L48.2398 87.0599Z" fill="#FFFFFE"/>
<path id="Fill-17" fill-rule="evenodd" clip-rule="evenodd" d="M49.9479 85.1061C49.906 85.1284 49.8807 85.1585 49.8715 85.1965C49.8621 85.2347 49.8724 85.2687 49.9016 85.2987C49.9305 85.3286 49.9759 85.3472 50.0372 85.3546C50.0982 85.3618 50.1501 85.3546 50.1925 85.3331C50.2349 85.3117 50.2609 85.2819 50.27 85.2438C50.2791 85.2056 50.2688 85.1713 50.2391 85.1406C50.2093 85.1101 50.1636 85.0911 50.1023 85.0838C50.0413 85.0766 49.9897 85.0841 49.9479 85.1061ZM49.3525 87.5609L49.6422 87.5951L50.0843 85.7654L49.7946 85.731L49.3525 87.5609Z" fill="#FFFFFE"/>
<path id="Fill-18" d="M50.8729 87.6465C51.0148 87.6644 51.1386 87.6395 51.2445 87.5718C51.3505 87.5039 51.4155 87.4069 51.4396 87.281L51.6352 87.3058C51.6154 87.4172 51.5671 87.5152 51.4908 87.5994C51.4145 87.6838 51.3194 87.7451 51.2057 87.7837C51.0918 87.8223 50.9736 87.8338 50.8512 87.8184C50.6096 87.7878 50.4289 87.6795 50.309 87.4938C50.1889 87.3079 50.1468 87.0732 50.1829 86.7897L50.1906 86.7284C50.2137 86.5468 50.2657 86.3904 50.3469 86.259C50.428 86.1275 50.5328 86.0312 50.661 85.9703C50.7891 85.9094 50.9325 85.8888 51.0914 85.909C51.2934 85.9346 51.452 86.0159 51.5678 86.1527C51.6835 86.2895 51.7334 86.4567 51.7178 86.6539L51.5222 86.6292C51.5312 86.4841 51.4941 86.3611 51.4105 86.2606C51.3272 86.1601 51.2133 86.1009 51.0693 86.0825C50.8857 86.0592 50.7346 86.1075 50.6162 86.2274C50.498 86.3473 50.4237 86.5268 50.3934 86.7662L50.3857 86.8258C50.356 87.0606 50.3835 87.2503 50.4685 87.3947C50.5533 87.5392 50.688 87.623 50.8729 87.6465Z" fill="#FFFFFE"/>
<path id="Fill-19" fill-rule="evenodd" clip-rule="evenodd" d="M52.3538 87.8566C52.4755 87.943 52.6152 87.9915 52.7726 88.0025C53.0588 88.0221 53.2847 87.9282 53.4504 87.7208L53.3287 87.6143C53.2544 87.6975 53.1737 87.7561 53.0871 87.7903C53.0006 87.8244 52.9024 87.8376 52.793 87.8302C52.6104 87.8176 52.464 87.7373 52.3532 87.5891C52.2426 87.4412 52.1945 87.2623 52.2089 87.0524L52.2116 87.013L53.5323 87.104L53.5404 86.9893C53.5587 86.7237 53.5071 86.5095 53.386 86.3469C53.2649 86.1845 53.0918 86.0954 52.8673 86.0799C52.7235 86.07 52.5873 86.1016 52.4586 86.1746C52.3296 86.2479 52.2259 86.3531 52.147 86.4909C52.0682 86.6288 52.0226 86.7869 52.0105 86.9647L52.0053 87.0384C51.9935 87.2105 52.0181 87.3684 52.0792 87.512C52.1404 87.6554 52.2318 87.7703 52.3538 87.8566ZM52.4545 86.3971C52.5675 86.2914 52.7012 86.2439 52.8551 86.2545C53.0103 86.2652 53.132 86.3298 53.2201 86.448C53.3082 86.5665 53.3489 86.7148 53.3423 86.8933L53.3408 86.9156L52.2306 86.8389C52.2663 86.65 52.341 86.5027 52.4545 86.3971Z" fill="#FFFFFE"/>
<path id="Fill-20" fill-rule="evenodd" clip-rule="evenodd" d="M56.6285 87.5054C56.7038 87.3298 56.7389 87.1269 56.7333 86.8973L56.7265 86.5989C56.7178 86.376 56.6716 86.181 56.5876 86.0137C56.5036 85.8463 56.3871 85.7182 56.2381 85.629C56.0889 85.5399 55.9185 85.4974 55.7264 85.5019C55.5345 85.5065 55.3658 85.5576 55.2205 85.6554C55.0753 85.753 54.9645 85.8907 54.8879 86.0679C54.8116 86.2454 54.7761 86.4478 54.7813 86.6752L54.7872 86.9325C54.7955 87.2868 54.8918 87.5662 55.0761 87.7707C55.2605 87.975 55.4982 88.0739 55.7898 88.0671C55.9829 88.0625 56.1521 88.0118 56.2975 87.9146C56.4428 87.8174 56.553 87.681 56.6285 87.5054ZM56.2957 85.9297C56.4356 86.0968 56.5092 86.3306 56.5162 86.6313L56.5224 86.8954C56.5294 87.2006 56.4682 87.4402 56.3384 87.6141C56.2086 87.7883 56.0244 87.878 55.7856 87.8836C55.55 87.889 55.3616 87.8069 55.2205 87.6368C55.0794 87.4668 55.0053 87.2338 54.9983 86.9377L54.9923 86.6771C54.9851 86.3709 55.0484 86.1307 55.1821 85.9565C55.3158 85.7823 55.4986 85.6926 55.7308 85.6872C55.9674 85.6816 56.1558 85.7625 56.2957 85.9297Z" fill="#FFFFFE"/>
<path id="Fill-21" d="M58.0537 86.2189C58.0097 86.2144 57.9631 86.2142 57.9142 86.2179C57.7865 86.228 57.6815 86.2724 57.5987 86.3506C57.516 86.4288 57.4613 86.5373 57.4345 86.6758L57.5354 87.9463L57.332 87.9624L57.1851 86.1125L57.385 86.0966L57.4118 86.3904C57.5026 86.163 57.6679 86.0396 57.9072 86.0206C57.9641 86.0161 58.0097 86.02 58.044 86.0322L58.0537 86.2189Z" fill="#FFFFFE"/>
<path id="Fill-22" fill-rule="evenodd" clip-rule="evenodd" d="M58.485 86.2212C58.3792 86.4061 58.3449 86.6426 58.3823 86.9306L58.3858 86.9579C58.4231 87.247 58.5176 87.4682 58.6689 87.6215C58.8201 87.775 59.0023 87.8378 59.2156 87.8101C59.4649 87.7779 59.6431 87.6626 59.75 87.4643L59.7799 87.6956C59.7995 87.8741 59.7684 88.0198 59.686 88.1324C59.6037 88.2449 59.4777 88.3124 59.3077 88.3344C59.1092 88.3602 58.9266 88.2938 58.7597 88.1355L58.6616 88.2727C58.7407 88.3594 58.8422 88.4238 58.9658 88.4661C59.0894 88.5082 59.2154 88.521 59.3436 88.5045C59.5701 88.4752 59.7409 88.3825 59.8556 88.2269C59.9704 88.0715 60.0125 87.8753 59.9817 87.6382L59.7484 85.8353L59.5577 85.8601L59.5819 86.1267C59.4257 85.9441 59.2222 85.869 58.9718 85.9014C58.7528 85.9296 58.5907 86.0363 58.485 86.2212ZM58.8057 87.4766C58.694 87.3534 58.6231 87.1743 58.5927 86.9397C58.5587 86.6776 58.5806 86.4734 58.6586 86.3269C58.7363 86.1799 58.8608 86.0955 59.032 86.0732C59.1579 86.0569 59.2697 86.0741 59.3673 86.1242C59.4649 86.1744 59.5449 86.2555 59.6079 86.3671L59.7189 87.2226C59.6435 87.4608 59.4806 87.5959 59.2301 87.6285C59.0588 87.6506 58.9173 87.6 58.8057 87.4766Z" fill="#FFFFFE"/>
<path id="Fill-23" fill-rule="evenodd" clip-rule="evenodd" d="M61.6749 87.1063C61.7019 87.2175 61.7312 87.2999 61.7624 87.3531L61.978 87.3116L61.9741 87.2914C61.9202 87.2111 61.8765 87.0828 61.8424 86.9064L61.6768 86.044C61.6384 85.8626 61.5507 85.7326 61.4139 85.6536C61.2771 85.5746 61.1071 85.5545 60.9039 85.5935C60.7074 85.6313 60.5521 85.7163 60.4376 85.8482C60.3233 85.9802 60.2801 86.1187 60.308 86.2636L60.5102 86.2264C60.491 86.1253 60.5203 86.03 60.5985 85.9404C60.6769 85.8509 60.7861 85.7927 60.9266 85.7656C61.0803 85.7361 61.2045 85.7508 61.2992 85.8102C61.3937 85.8694 61.4535 85.9642 61.4787 86.0944L61.5185 86.3015L61.1529 86.3717C60.889 86.4225 60.6934 86.5137 60.5655 86.6453C60.4378 86.7772 60.3909 86.9315 60.425 87.109C60.4537 87.2584 60.5317 87.3715 60.6588 87.4484C60.7858 87.5252 60.9369 87.5469 61.112 87.5132C61.2344 87.4895 61.3456 87.4422 61.4455 87.3713C61.5453 87.3003 61.6219 87.212 61.6749 87.1063ZM61.4438 87.1628C61.3504 87.2485 61.2363 87.3042 61.1013 87.33C60.9802 87.3533 60.8752 87.3387 60.7865 87.2858C60.6977 87.233 60.6435 87.1556 60.6239 87.0533C60.6 86.9286 60.6377 86.8199 60.7376 86.7266C60.8372 86.6336 60.9872 86.5667 61.1878 86.5256L61.5482 86.4565L61.6252 86.8572C61.5979 86.9755 61.5375 87.0774 61.4438 87.1628Z" fill="#FFFFFE"/>
<path id="Fill-24" d="M62.2792 85.3366L62.3647 85.6422C62.4039 85.5143 62.4662 85.4082 62.5522 85.3242C62.638 85.2402 62.7418 85.1827 62.8638 85.1513C63.0565 85.102 63.2139 85.1195 63.3356 85.2039C63.4578 85.2883 63.5471 85.439 63.6039 85.6558L63.9061 86.8353L63.7083 86.8861L63.4056 85.7047C63.3635 85.5444 63.2987 85.4336 63.2116 85.3721C63.1244 85.3106 63.0072 85.2988 62.8598 85.3366C62.7369 85.368 62.638 85.4344 62.5629 85.5357C62.4881 85.6369 62.4445 85.7588 62.4328 85.901L62.7482 87.1321L62.5504 87.1828L62.0898 85.3851L62.2792 85.3366Z" fill="#FFFFFE"/>
<path id="Fill-25" fill-rule="evenodd" clip-rule="evenodd" d="M63.7828 84.2721C63.7646 84.3049 63.7618 84.3399 63.7741 84.3769C63.7866 84.4138 63.8103 84.4411 63.8451 84.4588C63.88 84.4765 63.9205 84.479 63.9663 84.4664C64.0122 84.4538 64.0446 84.4314 64.0632 84.3988C64.0821 84.3664 64.0853 84.3317 64.073 84.2948C64.0607 84.2578 64.0366 84.2302 64.0009 84.212C63.9651 84.1941 63.9244 84.1912 63.8784 84.2038C63.8326 84.2163 63.8008 84.2392 63.7828 84.2721ZM64.5778 86.6552L64.7952 86.5956L64.201 84.8195L63.9838 84.8791L64.5778 86.6552Z" fill="#FFFFFE"/>
<path id="Fill-26" d="M65.3584 86.2064L66.4971 85.8108L66.5538 85.9743L65.1754 86.4532L65.1259 86.3106L65.6879 84.4997L64.6577 84.8573L64.5991 84.6889L65.874 84.2461L65.9245 84.3918L65.3584 86.2064Z" fill="#FFFFFE"/>
<path id="Fill-27" fill-rule="evenodd" clip-rule="evenodd" d="M67.9289 85.1379C67.9776 85.2415 68.0228 85.3162 68.064 85.3622L68.267 85.2785L68.2592 85.2595C68.1903 85.1914 68.1216 85.0744 68.0531 84.9085L67.7178 84.0969C67.6439 83.9271 67.5319 83.8171 67.3821 83.767C67.2321 83.717 67.0615 83.7315 66.8702 83.8105C66.6854 83.8868 66.55 84.0012 66.4646 84.1534C66.379 84.3057 66.3645 84.45 66.4206 84.5862L66.6115 84.5092C66.5723 84.4141 66.582 84.315 66.6408 84.2116C66.6994 84.1081 66.7949 84.029 66.927 83.9745C67.0718 83.9147 67.1962 83.9044 67.3008 83.9434C67.4054 83.9826 67.4832 84.0633 67.5338 84.1858L67.6144 84.3808L67.2705 84.523C67.0221 84.6256 66.8486 84.7541 66.7495 84.9087C66.6509 85.0635 66.6358 85.2242 66.7048 85.3911C66.7629 85.5317 66.862 85.627 67.0019 85.6767C67.142 85.7265 67.2942 85.7174 67.4591 85.6493C67.5742 85.6018 67.6737 85.5331 67.7572 85.4436C67.8408 85.354 67.8981 85.2521 67.9289 85.1379ZM67.7139 85.2397C67.6394 85.3422 67.5385 85.4198 67.4118 85.472C67.2977 85.5193 67.1919 85.5259 67.0943 85.492C66.9967 85.458 66.9282 85.393 66.8886 85.2968C66.8401 85.1794 66.8554 85.0653 66.9344 84.9541C67.0134 84.8429 67.1471 84.7471 67.3353 84.6668L67.6747 84.5267L67.8305 84.9039C67.8272 85.0253 67.7884 85.1371 67.7139 85.2397Z" fill="#FFFFFE"/>
<path id="Fill-28" d="M68.0784 82.795L68.2804 83.2249L68.6281 83.0612L68.6997 83.2135L68.3522 83.3772L68.8792 84.4972C68.9229 84.5903 68.9726 84.6518 69.0275 84.6815C69.0826 84.7114 69.1494 84.7077 69.2281 84.6708C69.259 84.6561 69.3069 84.6274 69.3712 84.5843L69.4501 84.7314C69.4096 84.7717 69.3475 84.8117 69.2638 84.8511C69.1367 84.911 69.0265 84.9176 68.9336 84.8709C68.841 84.8241 68.7607 84.729 68.6931 84.5851L68.1659 83.4647L67.857 83.6099L67.7856 83.4578L68.0943 83.3126L67.8919 82.8827L68.0784 82.795Z" fill="#FFFFFE"/>
<path id="Fill-29" fill-rule="evenodd" clip-rule="evenodd" d="M68.7325 82.2994C68.722 82.3345 68.7255 82.3694 68.743 82.4038C68.7605 82.4383 68.7863 82.4614 68.8206 82.4734C68.8548 82.4851 68.8916 82.4814 68.9303 82.4616C68.9689 82.442 68.9939 82.4147 69.005 82.3797C69.0162 82.3448 69.0129 82.3099 68.9953 82.2757C68.9778 82.2412 68.9516 82.2177 68.9165 82.2057C68.8814 82.1935 68.8447 82.1973 68.8059 82.2171C68.7671 82.2367 68.7426 82.2641 68.7325 82.2994ZM69.859 84.5195L70.0422 84.4263L69.2015 82.7719L69.018 82.8652L69.859 84.5195Z" fill="#FFFFFE"/>
<path id="Fill-30" fill-rule="evenodd" clip-rule="evenodd" d="M69.8881 82.894C69.8982 83.0525 69.9471 83.2093 70.0348 83.3647L70.0552 83.4004C70.1955 83.6492 70.3755 83.8114 70.5946 83.8865C70.8137 83.9616 71.0301 83.9387 71.2441 83.8178C71.3846 83.7386 71.4904 83.6342 71.5616 83.5046C71.6328 83.375 71.6633 83.2308 71.653 83.0719C71.6427 82.9128 71.5934 82.7551 71.5051 82.5989L71.484 82.5616C71.3433 82.3127 71.1638 82.1505 70.9451 82.0752C70.7266 81.9997 70.5098 82.0226 70.2948 82.1441C70.1553 82.2229 70.0503 82.328 69.9795 82.4592C69.9085 82.5907 69.878 82.7355 69.8881 82.894ZM70.6606 83.7035C70.4906 83.636 70.3509 83.5058 70.242 83.3127L70.2232 83.2799C70.1091 83.0776 70.067 82.8857 70.0969 82.7039C70.1268 82.5224 70.2215 82.3864 70.3808 82.2964C70.4873 82.2363 70.5979 82.211 70.7122 82.2205C70.8265 82.23 70.9356 82.2731 71.0392 82.3498C71.143 82.4266 71.2296 82.5265 71.2996 82.6501L71.319 82.6843C71.4335 82.8874 71.4758 83.0793 71.4459 83.2596C71.4159 83.4402 71.3204 83.576 71.1591 83.667C70.9967 83.7588 70.8308 83.7708 70.6606 83.7035Z" fill="#FFFFFE"/>
<path id="Fill-31" d="M71.541 81.4467L71.7195 81.709C71.7157 81.575 71.7411 81.4547 71.7956 81.3476C71.8503 81.2406 71.9303 81.1529 72.0355 81.0843C72.2025 80.9758 72.3572 80.9422 72.4996 80.9832C72.6423 81.0243 72.775 81.1384 72.898 81.3258L73.5613 82.3468L73.3903 82.458L72.7259 81.4356C72.6347 81.2971 72.5379 81.2127 72.4358 81.1824C72.3335 81.1518 72.2186 81.178 72.091 81.261C71.9846 81.3301 71.9122 81.4246 71.8734 81.5445C71.8348 81.6644 71.8325 81.7938 71.8668 81.9324L72.559 82.9982L72.3877 83.1093L71.377 81.5532L71.541 81.4467Z" fill="#FFFFFE"/>
<path id="Fill-32" d="M74.6902 80.949C74.6297 80.8671 74.5482 80.8256 74.4459 80.8244C74.3435 80.8232 74.2156 80.8574 74.0625 80.927C73.909 80.9965 73.7825 81.0402 73.6827 81.0578C73.5826 81.0753 73.4957 81.071 73.4215 81.0446C73.3474 81.0182 73.2828 80.9678 73.2281 80.8931C73.1413 80.7753 73.1186 80.6418 73.1607 80.4924C73.2026 80.3428 73.3001 80.2115 73.4539 80.0983C73.6206 79.9755 73.7846 79.9181 73.9459 79.9262C74.1075 79.9344 74.2371 80.0046 74.3347 80.1373L74.169 80.2594C74.1046 80.1719 74.0144 80.1261 73.8987 80.122C73.7827 80.1181 73.6688 80.1571 73.5576 80.239C73.4491 80.319 73.3796 80.4076 73.3495 80.5044C73.3191 80.6011 73.3327 80.6882 73.3897 80.7656C73.4446 80.8401 73.5143 80.8776 73.5993 80.8783C73.6845 80.8789 73.8118 80.8428 73.9818 80.7701C74.1518 80.6973 74.2872 80.6535 74.3881 80.6391C74.4888 80.6244 74.5767 80.6315 74.6516 80.6599C74.7267 80.6886 74.7927 80.7414 74.8496 80.8188C74.9425 80.9449 74.966 81.0832 74.9198 81.2336C74.8738 81.384 74.7688 81.5196 74.6051 81.6403C74.431 81.7685 74.2589 81.8304 74.0887 81.8258C73.9185 81.8213 73.786 81.7546 73.6911 81.6257L73.8568 81.5035C73.9344 81.5955 74.0303 81.6407 74.1452 81.6393C74.26 81.6378 74.3788 81.5918 74.5022 81.5008C74.6173 81.416 74.6914 81.3223 74.7252 81.2194C74.7589 81.1166 74.7471 81.0264 74.6902 80.949Z" fill="#FFFFFE"/>
<path id="Fill-33" d="M77.3804 79.9311L77.2513 80.0464L75.2788 77.8393L75.408 77.7238L77.3804 79.9311Z" fill="#FFFFFE"/>
<path id="Fill-34" d="M79.223 76.5168C79.1423 76.4425 79.0538 76.4138 78.9576 76.4306C78.8617 76.4475 78.7234 76.5094 78.5427 76.6169C78.3622 76.7242 78.2043 76.7966 78.0692 76.8342C77.8102 76.9054 77.5961 76.8633 77.4265 76.7081C77.2783 76.5721 77.2113 76.3996 77.2261 76.1906C77.2408 75.9815 77.3367 75.7806 77.5136 75.5874C77.631 75.4593 77.7593 75.3668 77.8983 75.3097C78.0374 75.2527 78.1769 75.2354 78.3168 75.2581C78.4562 75.2806 78.5794 75.3406 78.6857 75.438L78.3937 75.7566C78.2976 75.6685 78.1946 75.6297 78.0853 75.6402C77.9755 75.6506 77.8695 75.712 77.7667 75.8241C77.671 75.9285 77.6188 76.0302 77.6107 76.1289C77.6025 76.2275 77.6384 76.3136 77.7182 76.387C77.7857 76.4487 77.8707 76.4691 77.973 76.4481C78.0752 76.4271 78.2132 76.3643 78.3871 76.2601C78.5609 76.1557 78.7148 76.0851 78.8489 76.048C78.9826 76.011 79.1033 76.0047 79.211 76.0286C79.3183 76.0527 79.4192 76.108 79.5135 76.1945C79.6672 76.3352 79.7353 76.5057 79.7181 76.7062C79.701 76.907 79.5999 77.108 79.4155 77.3096C79.2933 77.4427 79.1565 77.5426 79.0049 77.609C78.8532 77.6757 78.7055 77.7 78.5619 77.6825C78.4185 77.6647 78.2889 77.6032 78.1734 77.4972L78.4666 77.1773C78.571 77.2733 78.6836 77.3127 78.8043 77.2962C78.925 77.2797 79.0443 77.2068 79.1625 77.0779C79.2644 76.9665 79.3185 76.8622 79.3249 76.7648C79.3313 76.6674 79.2972 76.5847 79.223 76.5168Z" fill="#FFFFFE"/>
<path id="Fill-35" fill-rule="evenodd" clip-rule="evenodd" d="M80.2141 76.0229C80.4466 75.9996 80.6457 75.8851 80.8116 75.6796C80.9084 75.5595 80.9719 75.432 81.002 75.2968C81.0326 75.162 81.0276 75.0306 80.988 74.9033L80.6802 74.9435C80.7249 75.134 80.6874 75.3034 80.5675 75.452C80.4823 75.558 80.3767 75.6179 80.2508 75.6317C80.1249 75.6457 79.9987 75.6094 79.8716 75.5232L80.6325 74.5791L80.5017 74.4737C80.272 74.2884 80.0513 74.199 79.8394 74.205C79.6273 74.211 79.442 74.3123 79.2833 74.5092C79.1837 74.633 79.1249 74.7706 79.1071 74.9219C79.0892 75.0735 79.1146 75.2229 79.1831 75.37C79.2518 75.5172 79.3582 75.6488 79.5023 75.765L79.5423 75.7974C79.7577 75.9711 79.9815 76.0463 80.2141 76.0229ZM79.4622 75.0114C79.4443 74.9064 79.4709 74.8094 79.5427 74.7203C79.6153 74.6305 79.6997 74.5826 79.7963 74.5766C79.8926 74.5709 79.9983 74.608 80.1126 74.6885L80.1365 74.7079L79.6382 75.3261C79.5392 75.2213 79.4804 75.1162 79.4622 75.0114Z" fill="#FFFFFE"/>
<path id="Fill-36" d="M80.8665 73.1002C80.8269 73.1392 80.7898 73.1823 80.7555 73.2294C80.6431 73.3839 80.6266 73.5308 80.706 73.6705L81.7318 74.4175L81.4867 74.7545L79.9863 73.6623L80.2205 73.3406L80.3944 73.4545C80.3233 73.2783 80.3402 73.1181 80.4452 72.9739C80.4803 72.9258 80.5156 72.8907 80.5515 72.8687L80.8665 73.1002Z" fill="#FFFFFE"/>
<path id="Fill-37" d="M82.1875 72.8304L81.2937 71.7734L81.53 71.4136L82.7279 72.9701L82.5292 73.2724L80.6226 72.7955L80.8596 72.4342L82.1875 72.8304Z" fill="#FFFFFE"/>
<path id="Fill-38" fill-rule="evenodd" clip-rule="evenodd" d="M81.1351 70.8106C81.1503 70.8671 81.1856 70.9119 81.2407 70.9447C81.2945 70.9771 81.3498 70.9866 81.4064 70.9729C81.4631 70.9597 81.5108 70.9205 81.5496 70.8557C81.5884 70.7909 81.6003 70.7303 81.5855 70.6735C81.571 70.6168 81.5366 70.5722 81.4827 70.54C81.4278 70.507 81.3715 70.4975 81.3141 70.5111C81.2568 70.5245 81.2085 70.5638 81.1699 70.6285C81.1311 70.6933 81.1196 70.754 81.1351 70.8106ZM83.2596 72.1229L83.4735 71.7653L81.8813 70.8124L81.6674 71.17L83.2596 72.1229Z" fill="#FFFFFE"/>
<path id="Fill-39" d="M83.8402 70.5062C83.8896 70.4148 83.9042 70.3244 83.8834 70.2353C83.8629 70.146 83.8143 70.0783 83.7381 70.0318L83.9248 69.6862C84.0243 69.7454 84.1019 69.8282 84.1578 69.9351C84.2137 70.0422 84.2399 70.1602 84.2362 70.2896C84.2327 70.419 84.1988 70.5424 84.1353 70.66C84.0119 70.8884 83.84 71.0293 83.6199 71.0832C83.3997 71.1371 83.1594 71.0935 82.899 70.9526L82.8612 70.9324C82.6128 70.798 82.4498 70.6239 82.3725 70.4105C82.2949 70.1969 82.318 69.9755 82.442 69.746C82.547 69.5521 82.689 69.4246 82.8683 69.3635C83.0473 69.3026 83.2308 69.3187 83.4179 69.4122L83.2312 69.7578C83.1354 69.7112 83.0414 69.7015 82.9487 69.7287C82.8559 69.756 82.7845 69.8158 82.7346 69.9082C82.6704 70.0269 82.6638 70.1416 82.715 70.2526C82.7661 70.3634 82.879 70.4668 83.0535 70.5624L83.1123 70.5941C83.2892 70.6899 83.4385 70.7295 83.5601 70.7126C83.6816 70.6959 83.775 70.627 83.8402 70.5062Z" fill="#FFFFFE"/>
<path id="Fill-40" fill-rule="evenodd" clip-rule="evenodd" d="M84.5237 69.3659C84.7437 69.2875 84.9098 69.1286 85.0214 68.8893C85.0866 68.7494 85.1177 68.6103 85.1146 68.472C85.1116 68.3338 85.0757 68.2075 85.0067 68.0932L84.7173 68.2063C84.8064 68.3802 84.8105 68.5537 84.7301 68.7269C84.6723 68.8503 84.5844 68.9336 84.4656 68.9772C84.3467 69.0209 84.2155 69.016 84.0711 68.9627L84.5838 67.8637L84.4313 67.7927C84.1641 67.6681 83.9283 67.634 83.724 67.6908C83.5198 67.7473 83.3642 67.8903 83.2573 68.1194C83.1901 68.2634 83.1661 68.4112 83.1849 68.5624C83.2039 68.7139 83.2643 68.8528 83.366 68.9792C83.4682 69.1055 83.6029 69.2079 83.7709 69.2861L83.8175 69.308C84.0682 69.425 84.3036 69.4444 84.5237 69.3659ZM83.5513 68.5641C83.5086 68.4665 83.5113 68.366 83.5596 68.2624C83.6083 68.1576 83.679 68.0907 83.7713 68.062C83.8637 68.0331 83.9749 68.0441 84.1051 68.0948L84.1332 68.1078L83.7975 68.8274C83.6762 68.7494 83.5942 68.6617 83.5513 68.5641Z" fill="#FFFFFE"/>
<path id="Fill-41" fill-rule="evenodd" clip-rule="evenodd" d="M85.9503 64.9729C85.8044 64.8316 85.616 64.7203 85.3853 64.6386L85.2543 64.5924C85.0243 64.5126 84.8087 64.4824 84.6069 64.5022C84.4053 64.522 84.2324 64.5897 84.0878 64.7053C83.9433 64.821 83.8373 64.9748 83.7694 65.1669C83.7015 65.3588 83.6883 65.5453 83.7292 65.7263C83.77 65.9075 83.8639 66.0699 84.011 66.2133C84.1579 66.3569 84.3463 66.4692 84.5759 66.5503L84.7084 66.5971C84.9343 66.6755 85.1477 66.7046 85.349 66.684C85.55 66.6635 85.7237 66.595 85.8696 66.4787C86.0157 66.3623 86.1223 66.2085 86.1898 66.0179C86.2579 65.8249 86.2713 65.6378 86.2304 65.4566C86.1896 65.2754 86.0961 65.1143 85.9503 64.9729ZM84.4658 64.9407C84.6397 64.8912 84.8572 64.9125 85.1179 65.0045L85.2407 65.0478C85.5058 65.1417 85.6905 65.2616 85.7939 65.4079C85.8974 65.5542 85.9175 65.7178 85.8533 65.899C85.7902 66.0781 85.6701 66.1931 85.4933 66.2438C85.3164 66.2948 85.0988 66.2746 84.84 66.1832L84.7043 66.1353C84.4515 66.0437 84.2737 65.9236 84.1703 65.7748C84.0671 65.6262 84.0465 65.4636 84.109 65.2868C84.173 65.1056 84.292 64.9903 84.4658 64.9407Z" fill="#FFFFFE"/>
<path id="Fill-42" d="M85.4834 63.2241C85.4595 63.2745 85.4393 63.3275 85.4232 63.3834C85.3701 63.5671 85.4048 63.7109 85.5272 63.8151L86.7463 64.1667L86.631 64.5673L84.8481 64.053L84.9583 63.6707L85.1607 63.7183C85.0334 63.577 84.9948 63.4206 85.0442 63.2493C85.0607 63.1921 85.0821 63.1469 85.1081 63.1141L85.4834 63.2241Z" fill="#FFFFFE"/>
<path id="Fill-43" fill-rule="evenodd" clip-rule="evenodd" d="M85.4327 62.8054C85.5695 62.9765 85.7783 63.095 86.0587 63.1602C86.3562 63.2297 86.6044 63.2169 86.8039 63.1218C87.0032 63.0269 87.1276 62.8737 87.1769 62.662C87.2225 62.4672 87.1936 62.2962 87.0907 62.1488L87.2126 62.1773C87.354 62.2103 87.452 62.2743 87.5068 62.3692C87.5615 62.4641 87.5733 62.5791 87.5419 62.7138C87.4992 62.8964 87.3892 63.0328 87.212 63.123L87.4111 63.3719C87.5155 63.3271 87.61 63.2479 87.6946 63.1342C87.7792 63.0209 87.837 62.8977 87.8679 62.7652C87.9263 62.5147 87.9044 62.2997 87.8017 62.1202C87.6991 61.9406 87.5293 61.8232 87.2923 61.7679L85.5404 61.3591L85.4549 61.725L85.6328 61.7859C85.4618 61.8703 85.352 62.0155 85.3039 62.2217C85.253 62.4398 85.2961 62.6346 85.4327 62.8054ZM86.6423 62.7532C86.521 62.803 86.3696 62.8067 86.188 62.7644C85.9821 62.7163 85.8348 62.6428 85.7465 62.5442C85.658 62.4454 85.6293 62.3292 85.6604 62.1957C85.6986 62.0318 85.7952 61.9276 85.9501 61.8828L86.7449 62.0682C86.8668 62.18 86.9085 62.3176 86.8705 62.4815C86.8398 62.6129 86.7637 62.7035 86.6423 62.7532Z" fill="#FFFFFE"/>
<path id="Fill-44" fill-rule="evenodd" clip-rule="evenodd" d="M87.4553 60.1871C87.5363 60.1869 87.596 60.1807 87.6339 60.1685L87.7047 59.749L87.6758 59.7442C87.57 59.774 87.4348 59.775 87.2702 59.7471L86.4449 59.608C86.2493 59.5785 86.0869 59.6184 85.9578 59.7277C85.8288 59.8369 85.7463 59.9989 85.71 60.2131C85.6862 60.354 85.6895 60.4859 85.7199 60.6086C85.7502 60.7314 85.8034 60.8336 85.8796 60.9147C85.9557 60.996 86.044 61.0449 86.1443 61.062L86.2136 60.6509C86.1416 60.6388 86.0871 60.5989 86.0502 60.5313C86.0135 60.4636 86.0031 60.3829 86.0188 60.2894C86.0372 60.1811 86.0793 60.1054 86.1449 60.0618C86.2107 60.0185 86.2912 60.0049 86.3859 60.0208L86.506 60.041L86.4635 60.2929C86.4181 60.5626 86.4352 60.7785 86.515 60.9409C86.5951 61.1035 86.7325 61.2011 86.9275 61.2339C87.082 61.2599 87.2215 61.2238 87.3457 61.1253C87.4701 61.0269 87.5479 60.8858 87.5788 60.7019C87.6108 60.5125 87.5696 60.3408 87.4553 60.1871ZM87.2415 60.3311C87.2687 60.4093 87.2758 60.489 87.2619 60.5703C87.2471 60.6582 87.212 60.7244 87.1561 60.769C87.1006 60.8135 87.0335 60.8292 86.9545 60.8158C86.8575 60.7995 86.789 60.7485 86.749 60.6629C86.709 60.5773 86.7016 60.4584 86.7271 60.3061L86.7647 60.0847L87.1097 60.1427C87.1701 60.19 87.2141 60.2529 87.2415 60.3311Z" fill="#FFFFFE"/>
<path id="Fill-45" d="M85.9619 58.7116L86.1763 58.7223C86.026 58.5684 85.9625 58.3804 85.9862 58.1588C86.0269 57.7746 86.2677 57.6023 86.7084 57.6421L87.9277 57.7717L87.8838 58.186L86.6883 58.0591C86.5714 58.0467 86.4818 58.0628 86.4201 58.1074C86.3584 58.152 86.3217 58.2318 86.3093 58.3466C86.2916 58.5137 86.3541 58.6462 86.4965 58.7442L87.8097 58.8835L87.7658 59.298L85.9204 59.1022L85.9619 58.7116Z" fill="#FFFFFE"/>
<path id="Fill-46" fill-rule="evenodd" clip-rule="evenodd" d="M85.4685 57.235C85.5083 57.2966 85.5601 57.3302 85.6241 57.3355C85.6868 57.3411 85.7402 57.3166 85.7844 57.2624C85.8285 57.2082 85.8527 57.1271 85.8574 57.0199C85.862 56.912 85.8446 56.8271 85.8056 56.7649C85.7662 56.7024 85.7155 56.6686 85.6525 56.6633C85.5888 56.6577 85.5343 56.6824 85.4896 56.7375C85.445 56.7923 85.4202 56.8737 85.4157 56.9813C85.4114 57.0888 85.4287 57.1734 85.4685 57.235ZM87.9586 57.5014L87.984 56.9073L86.1318 56.7467L86.1067 57.3405L87.9586 57.5014Z" fill="#FFFFFE"/>
<path id="Fill-47" d="M87.6897 55.8641L87.7084 54.8763L88.0413 54.8827L88.0126 56.3883L87.74 56.3831L86.5114 55.4178L86.4938 56.3423L86.1577 56.3359L86.1852 54.8834L86.4495 54.8885L87.6897 55.8641Z" fill="#FFFFFE"/>
<path id="Fill-48" fill-rule="evenodd" clip-rule="evenodd" d="M87.8235 53.4182C87.9031 53.4014 87.9601 53.3833 87.9947 53.3637L87.9788 52.9386L87.9495 52.9398C87.8519 52.9904 87.7197 53.0187 87.5528 53.0251L86.7167 53.0568C86.5193 53.0676 86.3683 53.1396 86.2641 53.2729C86.1597 53.4062 86.1118 53.5814 86.1201 53.7985C86.1254 53.9413 86.1555 54.0698 86.2102 54.1837C86.2647 54.2978 86.3377 54.387 86.4287 54.4509C86.5199 54.5151 86.6161 54.545 86.7178 54.5413L86.7021 54.1249C86.6291 54.1276 86.5676 54.0995 86.5181 54.0409C86.4683 53.9821 86.4417 53.9054 86.438 53.8104C86.4339 53.7009 86.4597 53.6179 86.5152 53.562C86.5711 53.5063 86.6468 53.4763 86.7427 53.4728L86.8643 53.4683L86.874 53.7236C86.8843 53.9968 86.9451 54.2048 87.0564 54.3474C87.1676 54.4904 87.3219 54.5578 87.5195 54.5504C87.6761 54.5446 87.8053 54.4807 87.907 54.3591C88.009 54.2374 88.0564 54.0834 88.0494 53.8971C88.042 53.7052 87.9667 53.5455 87.8235 53.4182ZM87.6436 53.6026C87.6863 53.6736 87.709 53.7504 87.7123 53.8325C87.7156 53.9217 87.6945 53.9939 87.6491 54.0488C87.6037 54.1037 87.541 54.1325 87.461 54.1356C87.3627 54.1394 87.2854 54.1034 87.2286 54.0277C87.1721 53.952 87.1407 53.837 87.135 53.6829L87.1265 53.4582L87.476 53.445C87.5449 53.479 87.6008 53.5317 87.6436 53.6026Z" fill="#FFFFFE"/>
<path id="Fill-49" d="M85.5981 52.1742L86.0473 52.1354L86.0193 51.8089L86.3269 51.7823L86.3551 52.1088L87.387 52.0196C87.4575 52.0134 87.5075 51.9953 87.5362 51.9645C87.5652 51.934 87.5766 51.8828 87.5702 51.811C87.5663 51.7631 87.5564 51.7153 87.5407 51.6672L87.8619 51.6395C87.8962 51.7318 87.9172 51.8217 87.9249 51.9094C87.9523 52.2285 87.7901 52.4032 87.4381 52.4336L86.3908 52.5239L86.417 52.8281L86.1094 52.8547L86.0832 52.5506L85.634 52.5894L85.5981 52.1742Z" fill="#FFFFFE"/>
<path id="Fill-50" fill-rule="evenodd" clip-rule="evenodd" d="M87.8236 51.4347L87.7743 50.8435L85.9318 51.1577L85.9811 51.7489L87.8236 51.4347ZM85.34 51.8075C85.3869 51.8579 85.4422 51.8777 85.5057 51.8668C85.568 51.8562 85.6178 51.8187 85.6543 51.7539C85.691 51.6894 85.7046 51.6036 85.6957 51.4963C85.6867 51.3893 85.6592 51.31 85.6128 51.2591C85.5666 51.2075 85.5123 51.1871 85.4498 51.1981C85.3861 51.2087 85.3359 51.247 85.2988 51.3124C85.2616 51.3778 85.2476 51.4642 85.2565 51.5715C85.2654 51.6782 85.2932 51.7571 85.34 51.8075Z" fill="#FFFFFE"/>
<path id="Fill-51" fill-rule="evenodd" clip-rule="evenodd" d="M86.2914 50.5282C86.4471 50.5755 86.6147 50.5841 86.794 50.5542L86.8142 50.5509C87.1006 50.5033 87.317 50.3877 87.4633 50.2038C87.6094 50.0202 87.6609 49.7992 87.618 49.5408C87.59 49.3716 87.5262 49.229 87.427 49.1129C87.3277 48.9967 87.201 48.9156 87.0475 48.87C86.8938 48.8242 86.7267 48.8163 86.5464 48.8463L86.4502 48.864C86.1896 48.9201 85.9924 49.0384 85.8589 49.2187C85.7256 49.3993 85.6794 49.6131 85.7207 49.8599C85.7483 50.0268 85.8114 50.1683 85.9101 50.2839C86.0087 50.3997 86.1358 50.4812 86.2914 50.5282ZM87.1839 49.9469C87.0902 50.0425 86.9495 50.1058 86.7609 50.1372C86.5491 50.1725 86.383 50.1595 86.2633 50.0982C86.1436 50.0371 86.0729 49.9393 86.0504 49.8052C86.0277 49.6686 86.064 49.5516 86.1591 49.4542C86.2538 49.3566 86.3939 49.2924 86.579 49.2616C86.7876 49.227 86.9524 49.2394 87.0735 49.2986C87.1946 49.3578 87.2669 49.4566 87.2898 49.5955C87.3129 49.7342 87.2776 49.8514 87.1839 49.9469Z" fill="#FFFFFE"/>
<path id="Fill-52" d="M85.4558 48.294L85.6619 48.2337C85.4694 48.1375 85.3478 47.9807 85.2975 47.7636C85.2102 47.387 85.3813 47.1456 85.8106 47.0387L87.005 46.7616L87.0991 47.1677L85.9282 47.4395C85.8135 47.4661 85.7343 47.5106 85.6908 47.573C85.647 47.6353 85.6384 47.7226 85.6644 47.8352C85.7025 47.9989 85.8049 48.1037 85.9714 48.1495L87.2578 47.8509L87.3521 48.257L85.5445 48.6765L85.4558 48.294Z" fill="#FFFFFE"/>
<path id="Fill-53" d="M86.0913 45.406C86.0201 45.427 85.9745 45.4724 85.9547 45.5421C85.9349 45.6119 85.9308 45.719 85.9428 45.8632C85.9543 46.0077 85.9521 46.1319 85.9351 46.2359C85.8978 46.4639 85.7876 46.6051 85.6046 46.6595C85.4511 46.7049 85.3038 46.6783 85.1622 46.5795C85.0209 46.4808 84.9208 46.3316 84.8614 46.1321C84.7985 45.9196 84.8001 45.732 84.8664 45.5698C84.9328 45.4076 85.05 45.3018 85.2175 45.2518L85.336 45.6515C85.2592 45.6742 85.2039 45.7217 85.1699 45.7937C85.1358 45.8659 85.1327 45.9491 85.1608 46.0434C85.1868 46.1311 85.2283 46.1965 85.2852 46.2398C85.3422 46.2832 85.4045 46.2949 85.4726 46.2747C85.5338 46.2563 85.5741 46.2165 85.5926 46.155C85.6114 46.0933 85.6147 45.979 85.6027 45.8121C85.591 45.6451 85.5953 45.5098 85.6168 45.4064C85.6378 45.3028 85.6754 45.2196 85.7292 45.1563C85.7835 45.0933 85.8582 45.0475 85.9533 45.0193C86.1136 44.9718 86.2628 44.9997 86.4012 45.1028C86.5399 45.206 86.641 45.3651 86.7047 45.5799C86.7478 45.7258 86.7602 45.8634 86.7414 45.993C86.7225 46.1228 86.6765 46.233 86.6034 46.3238C86.53 46.4148 86.4404 46.4759 86.334 46.5075L86.219 46.1193C86.3117 46.0859 86.3738 46.0287 86.4051 45.9478C86.4365 45.8669 86.4361 45.7722 86.4039 45.6637C86.373 45.5587 86.3292 45.4846 86.2727 45.4414C86.2166 45.3985 86.1561 45.3868 86.0913 45.406Z" fill="#FFFFFE"/>
<path id="Fill-54" fill-rule="evenodd" clip-rule="evenodd" d="M36.9254 47.0788H42.0049L43.1652 50.2222H44.149L39.9148 39.032H39.0156L34.7812 50.2222H35.7726L36.9254 47.0788ZM41.7053 46.2794H37.2173L39.4613 40.1849L41.7053 46.2794Z" fill="#FFFFFE"/>
<path id="Fill-55" d="M45.8438 50.2222H46.7889V39.032H45.8438V50.2222Z" fill="#FFFFFE"/>
<path id="Fill-56" d="M57.5899 46.733C57.4618 47.9115 57.0405 48.8132 56.3258 49.4383C55.6111 50.0635 54.6593 50.3759 53.4708 50.3759C52.6408 50.3759 51.9071 50.1684 51.2692 49.7534C50.6314 49.3384 50.1381 48.7505 49.7898 47.9895C49.4415 47.2287 49.2647 46.3591 49.2598 45.3802V43.9277C49.2598 42.9337 49.4337 42.0524 49.7822 41.2839C50.1305 40.5153 50.6314 39.9224 51.2846 39.5046C51.9379 39.0871 52.6895 38.8783 53.54 38.8783C54.7387 38.8783 55.6851 39.201 56.3794 39.8467C57.0737 40.4922 57.4771 41.3865 57.5899 42.529H56.6369C56.4013 40.6281 55.369 39.6777 53.54 39.6777C52.5257 39.6777 51.7175 40.0572 51.1154 40.8159C50.5134 41.5749 50.2126 42.6236 50.2126 43.9617V45.3311C50.2126 46.623 50.5058 47.6538 51.0923 48.423C51.6789 49.1921 52.4718 49.5767 53.4708 49.5767C54.4596 49.5767 55.205 49.3396 55.707 48.8659C56.2092 48.3919 56.5191 47.681 56.6369 46.733H57.5899Z" fill="#FFFFFE"/>
<path id="Fill-57" fill-rule="evenodd" clip-rule="evenodd" d="M60.6754 50.2222V45.6647H63.5187C64.7482 45.6647 65.6868 45.3791 66.3348 44.8077C66.9829 44.2363 67.307 43.4256 67.307 42.3751C67.307 41.3351 66.9703 40.5179 66.2965 39.9234C65.6228 39.3291 64.7047 39.032 63.5416 39.032H59.73V50.2222H60.6754ZM63.5416 44.8653H60.6754V39.8312H63.6031C64.4843 39.8417 65.1644 40.0763 65.6434 40.5355C66.1223 40.9948 66.3619 41.612 66.3619 42.3868C66.3619 43.1668 66.1211 43.7749 65.6395 44.211C65.158 44.6472 64.4587 44.8653 63.5416 44.8653Z" fill="#FFFFFE"/>
<path id="Fill-58" fill-rule="evenodd" clip-rule="evenodd" d="M69.163 47.0788H74.2427L75.403 50.2222H76.3866L72.1524 39.032H71.2532L67.019 50.2222H68.0104L69.163 47.0788ZM73.9429 46.2794H69.4551L71.6989 40.1849L73.9429 46.2794Z" fill="#FFFFFE"/>
<path id="Fill-59" d="M48.391 65.645C48.391 65.0252 48.1733 64.5345 47.7378 64.1734C47.3022 63.812 46.5056 63.4689 45.3479 63.1433C44.19 62.818 43.3447 62.4633 42.812 62.0789C42.0537 61.5358 41.6745 60.8237 41.6745 59.9423C41.6745 59.0866 42.0267 58.3912 42.7313 57.8557C43.4357 57.3202 44.3361 57.0526 45.4325 57.0526C46.1751 57.0526 46.8401 57.196 47.4266 57.4829C48.0132 57.7699 48.468 58.1696 48.7906 58.682C49.1133 59.1943 49.2747 59.7655 49.2747 60.3957H48.3219C48.3219 59.6301 48.0607 59.0146 47.5381 58.5495C47.0154 58.0844 46.3135 57.8518 45.4325 57.8518C44.5769 57.8518 43.8956 58.0431 43.3885 58.4255C42.8811 58.8078 42.6275 59.3068 42.6275 59.9225C42.6275 60.4923 42.8555 60.9568 43.3115 61.3158C43.7675 61.6753 44.4974 61.992 45.5016 62.2667C46.5056 62.5411 47.2665 62.8257 47.784 63.1203C48.3015 63.415 48.6908 63.7673 48.952 64.1771C49.2134 64.5871 49.344 65.0714 49.344 65.6298C49.344 66.5111 48.9916 67.2181 48.2872 67.7511C47.5828 68.2839 46.6544 68.5503 45.5016 68.5503C44.7126 68.5503 43.9889 68.4091 43.3307 68.1274C42.6723 67.8458 42.1728 67.4512 41.8321 66.9438C41.4915 66.4366 41.3213 65.8553 41.3213 65.1993H42.2665C42.2665 65.9884 42.5609 66.611 43.1501 67.067C43.7392 67.523 44.523 67.7511 45.5016 67.7511C46.3725 67.7511 47.0718 67.5587 47.5995 67.1745C48.1271 66.7903 48.391 66.2804 48.391 65.645Z" fill="#FFFFFE"/>
<path id="Fill-60" fill-rule="evenodd" clip-rule="evenodd" d="M58.958 66.1215C59.3139 65.3427 59.492 64.4383 59.492 63.4086V62.0713C59.4767 61.0721 59.2896 60.1935 58.931 59.4351C58.5724 58.6768 58.0638 58.0901 57.4056 57.675C56.7472 57.26 55.9878 57.0526 55.1272 57.0526C54.2664 57.0526 53.5057 57.2639 52.8448 57.6867C52.184 58.1093 51.6729 58.7139 51.3116 59.5003C50.9506 60.287 50.77 61.1901 50.77 62.2097V63.3624C50.77 64.9509 51.1719 66.2125 51.9764 67.1477C52.7807 68.0827 53.836 68.5503 55.1424 68.5503C56.0082 68.5503 56.7716 68.3402 57.4327 67.9201C58.0935 67.4999 58.6017 66.9005 58.958 66.1215ZM57.6324 59.0278C58.2419 59.7913 58.5468 60.8468 58.5468 62.1942V63.3779C58.5468 64.746 58.247 65.8128 57.6476 66.5788C57.0483 67.345 56.2131 67.7279 55.1424 67.7279C54.0871 67.7279 53.2521 67.3398 52.6373 66.5635C52.0224 65.7872 51.7152 64.7357 51.7152 63.4086V62.2403C51.7152 60.8672 52.0236 59.7977 52.6412 59.0315C53.2585 58.2657 54.0871 57.8826 55.1272 57.8826C56.1875 57.8826 57.0227 58.2643 57.6324 59.0278Z" fill="#FFFFFE"/>
<path id="Fill-61" d="M69.6395 64.9071C69.5114 66.0858 69.0901 66.9876 68.3754 67.6126C67.6607 68.2376 66.7091 68.5503 65.5207 68.5503C64.6906 68.5503 63.9569 68.3427 63.319 67.9277C62.681 67.5127 62.1879 66.9248 61.8396 66.1638C61.4911 65.403 61.3145 64.5332 61.3096 63.5545V62.102C61.3096 61.108 61.4835 60.2267 61.832 59.4582C62.1803 58.6896 62.681 58.0965 63.3342 57.6789C63.9877 57.2614 64.7393 57.0526 65.5898 57.0526C66.7885 57.0526 67.7349 57.3753 68.4292 58.021C69.1233 58.6665 69.5269 59.5608 69.6395 60.7032H68.6867C68.4509 58.8023 67.4186 57.8518 65.5898 57.8518C64.5755 57.8518 63.7673 58.2313 63.1653 58.9902C62.5632 59.7492 62.2624 60.7979 62.2624 62.1361V63.5052C62.2624 64.7974 62.5556 65.8281 63.1421 66.5971C63.7287 67.3664 64.5216 67.7511 65.5207 67.7511C66.5092 67.7511 67.2546 67.514 67.7568 67.04C68.259 66.5662 68.5689 65.8553 68.6867 64.9071H69.6395Z" fill="#FFFFFE"/>
<path id="Stroke-62" d="M34.4355 53.8585H77.0834" stroke="#FFFFFE" stroke-width="0.5" stroke-linecap="round" stroke-linejoin="round"/>
<path id="Fill-63" fill-rule="evenodd" clip-rule="evenodd" d="M41.3659 74.6491C41.3793 74.7582 41.3966 74.834 41.4179 74.8765H41.8047V74.8445C41.7542 74.7275 41.729 74.57 41.729 74.3719V73.3788C41.7236 73.1607 41.6504 72.9896 41.5097 72.8654C41.3687 72.7409 41.174 72.6788 40.9254 72.6788C40.7683 72.6788 40.6245 72.7079 40.4935 72.7665C40.3627 72.8251 40.2589 72.9046 40.1826 73.0049C40.106 73.1052 40.0679 73.2094 40.0679 73.3171H40.4388C40.4388 73.2226 40.4834 73.1421 40.5723 73.0756C40.6615 73.0092 40.7719 72.976 40.9035 72.976C41.0537 72.976 41.1674 73.0142 41.2443 73.0905C41.3215 73.1671 41.3601 73.2698 41.3601 73.3988V73.5682H41.0011C40.6914 73.5682 40.451 73.6303 40.2804 73.7547C40.1096 73.879 40.0239 74.0535 40.0239 74.278C40.0239 74.4629 40.0922 74.6156 40.2284 74.7359C40.3646 74.8562 40.5391 74.9163 40.7518 74.9163C40.9897 74.9163 41.1944 74.8271 41.3659 74.6491ZM41.1348 74.5054C41.031 74.5653 40.9214 74.5952 40.8057 74.5952C40.6848 74.5952 40.5857 74.5626 40.5086 74.4974C40.4314 74.4324 40.393 74.342 40.393 74.2263C40.393 73.9617 40.619 73.8294 41.0708 73.8294H41.3601V74.2723C41.3135 74.3678 41.2384 74.4456 41.1348 74.5054Z" fill="#FFFFFE"/>
<path id="Fill-64" fill-rule="evenodd" clip-rule="evenodd" d="M42.2854 71.9948C42.233 72.0361 42.207 72.0866 42.207 72.1465C42.207 72.2061 42.233 72.256 42.2854 72.2959C42.3376 72.3359 42.4151 72.3557 42.5174 72.3557C42.6199 72.3557 42.6977 72.3359 42.7511 72.2959C42.8041 72.256 42.8307 72.2061 42.8307 72.1465C42.8307 72.0866 42.8041 72.0361 42.7511 71.9948C42.6977 71.9535 42.6199 71.9331 42.5174 71.9331C42.4151 71.9331 42.3376 71.9535 42.2854 71.9948ZM42.7767 74.8765H42.2498V72.7187H42.7767V74.8765Z" fill="#FFFFFE"/>
<path id="Fill-65" d="M43.9596 74.6152C44.091 74.6152 44.2062 74.5752 44.3046 74.4955C44.4028 74.4157 44.4572 74.316 44.468 74.1963H44.8169C44.8103 74.3199 44.7678 74.4378 44.6894 74.5494C44.6108 74.661 44.5061 74.7502 44.3751 74.8166C44.2443 74.8831 44.1057 74.9163 43.9596 74.9163C43.6656 74.9163 43.4322 74.8183 43.2587 74.622C43.0852 74.426 42.9985 74.1577 42.9985 73.8175V73.7558C42.9985 73.5457 43.0369 73.3588 43.1141 73.1953C43.1912 73.0317 43.3018 72.9048 43.4461 72.8144C43.5903 72.724 43.7607 72.6788 43.9575 72.6788C44.1993 72.6788 44.4005 72.7513 44.5606 72.8961C44.7209 73.0412 44.8064 73.2292 44.8169 73.4605H44.468C44.4572 73.321 44.4044 73.2063 44.3095 73.1165C44.2144 73.0267 44.097 72.982 43.9575 72.982C43.77 72.982 43.6249 73.0494 43.5218 73.1844C43.4188 73.3193 43.3672 73.5143 43.3672 73.7696V73.8393C43.3672 74.088 43.4184 74.2795 43.5207 74.4138C43.6231 74.548 43.7694 74.6152 43.9596 74.6152Z" fill="#FFFFFE"/>
<path id="Fill-66" fill-rule="evenodd" clip-rule="evenodd" d="M46.7263 74.6152C46.8766 74.4144 46.9519 74.1499 46.9519 73.8214V73.7876C46.9519 73.4392 46.8763 73.1675 46.7255 72.9719C46.5747 72.7764 46.3696 72.6788 46.1105 72.6788C45.8433 72.6788 45.6345 72.7719 45.4843 72.958L45.4663 72.7187H45.1294V75.706H45.4981V74.667C45.6483 74.8331 45.8544 74.9163 46.1162 74.9163C46.3727 74.9163 46.5761 74.816 46.7263 74.6152ZM46.4274 73.2032C46.5312 73.3441 46.583 73.5364 46.583 73.7795C46.583 74.0562 46.5308 74.2644 46.4264 74.4047C46.322 74.5451 46.1814 74.6152 46.0046 74.6152C45.7773 74.6152 45.6085 74.5168 45.4981 74.3199V73.289C45.6099 73.0909 45.7773 72.9919 46.0007 72.9919C46.1814 72.9919 46.3236 73.0624 46.4274 73.2032Z" fill="#FFFFFE"/>
<path id="Fill-67" fill-rule="evenodd" clip-rule="evenodd" d="M48.5983 74.6491C48.6117 74.7582 48.629 74.834 48.6503 74.8765H49.0371V74.8445C48.9864 74.7275 48.9612 74.57 48.9612 74.3719V73.3788C48.9558 73.1607 48.8828 72.9896 48.7419 72.8654C48.601 72.7409 48.4062 72.6788 48.1576 72.6788C48.0008 72.6788 47.857 72.7079 47.7259 72.7665C47.5951 72.8251 47.4914 72.9046 47.415 73.0049C47.3385 73.1052 47.3003 73.2094 47.3003 73.3171H47.6711C47.6711 73.2226 47.7156 73.1421 47.8048 73.0756C47.8939 73.0092 48.0041 72.976 48.1357 72.976C48.2859 72.976 48.3996 73.0142 48.4768 73.0905C48.5537 73.1671 48.5923 73.2698 48.5923 73.3988V73.5682H48.2335C47.9238 73.5682 47.6834 73.6303 47.5126 73.7547C47.3418 73.879 47.2563 74.0535 47.2563 74.278C47.2563 74.4629 47.3244 74.6156 47.4608 74.7359C47.597 74.8562 47.7715 74.9163 47.9843 74.9163C48.2222 74.9163 48.4268 74.8271 48.5983 74.6491ZM48.367 74.5054C48.2634 74.5653 48.1537 74.5952 48.0381 74.5952C47.917 74.5952 47.818 74.5626 47.741 74.4974C47.6638 74.4324 47.6253 74.342 47.6253 74.2263C47.6253 73.9617 47.8512 73.8294 48.3032 73.8294H48.5923V74.2723C48.5459 74.3678 48.4708 74.4456 48.367 74.5054Z" fill="#FFFFFE"/>
<path id="Fill-68" d="M49.4458 74.683C49.4458 74.6192 49.4645 74.566 49.5025 74.5235C49.5405 74.481 49.5972 74.4597 49.6729 74.4597C49.7486 74.4597 49.8062 74.481 49.8454 74.5235C49.8846 74.566 49.9042 74.6192 49.9042 74.683C49.9042 74.7443 49.8846 74.7954 49.8454 74.8365C49.8062 74.8778 49.7486 74.8984 49.6729 74.8984C49.5972 74.8984 49.5405 74.8778 49.5025 74.8365C49.4645 74.7954 49.4458 74.7443 49.4458 74.683Z" fill="#FFFFFE"/>
<path id="Fill-69" fill-rule="evenodd" clip-rule="evenodd" d="M50.4371 73.2073C50.354 73.3761 50.3125 73.5663 50.3125 73.7776V73.8036C50.3125 74.1386 50.4033 74.4078 50.5846 74.6113C50.766 74.8146 51.0031 74.9163 51.2954 74.9163C51.4896 74.9163 51.6612 74.8699 51.8108 74.7766C51.9604 74.6837 52.0753 74.5537 52.1558 74.3868C52.2363 74.2201 52.2765 74.0317 52.2765 73.8214V73.7956C52.2765 73.4578 52.1857 73.1873 52.0044 72.9838C51.823 72.7806 51.5853 72.6788 51.2915 72.6788C51.1013 72.6788 50.9323 72.7246 50.784 72.8165C50.6358 72.9081 50.5203 73.0385 50.4371 73.2073ZM50.8498 74.3977C50.7388 74.2529 50.6833 74.0608 50.6833 73.8214C50.6833 73.5515 50.7392 73.3441 50.8508 73.1992C50.9624 73.0544 51.1093 72.982 51.2915 72.982C51.4776 72.982 51.6268 73.0554 51.739 73.2021C51.8515 73.3493 51.9076 73.541 51.9076 73.7776C51.9076 74.0422 51.8525 74.2479 51.7421 74.3948C51.6317 74.5418 51.483 74.6152 51.2954 74.6152C51.1093 74.6152 50.9608 74.5428 50.8498 74.3977Z" fill="#FFFFFE"/>
<path id="Fill-70" d="M53.6797 73.0496C53.6238 73.0404 53.5633 73.0358 53.4981 73.0358C53.2561 73.0358 53.0921 73.1388 53.0056 73.3449V74.8765H52.6367V72.7187H52.9957L53.0017 72.9679C53.1226 72.7752 53.2941 72.6788 53.5161 72.6788C53.5879 72.6788 53.6423 72.6881 53.6797 72.7067V73.0496Z" fill="#FFFFFE"/>
<path id="Fill-71" fill-rule="evenodd" clip-rule="evenodd" d="M54.0625 72.977C53.9069 73.1757 53.8291 73.4432 53.8291 73.7795C53.8291 74.1307 53.9073 74.4078 54.0635 74.6113C54.2197 74.8146 54.4239 74.9163 54.6767 74.9163C54.9317 74.9163 55.1331 74.8313 55.2808 74.661V74.8465C55.2808 75.03 55.2307 75.1722 55.1302 75.2733C55.0299 75.3742 54.8898 75.4247 54.7105 75.4247C54.4819 75.4247 54.2884 75.3271 54.1303 75.1317L53.9389 75.3529C54.0173 75.4687 54.131 75.5597 54.2797 75.6263C54.4287 75.6926 54.5809 75.7258 54.7363 75.7258C55.0155 75.7258 55.2379 75.6455 55.4034 75.4848C55.5688 75.3238 55.6516 75.1037 55.6516 74.8245V72.7187H55.3146L55.2967 72.958C55.1492 72.7719 54.9439 72.6788 54.6806 72.6788C54.4239 72.6788 54.218 72.7783 54.0625 72.977ZM54.3497 74.3948C54.2498 74.256 54.2001 74.0649 54.2001 73.8214C54.2001 73.5476 54.2506 73.3408 54.3515 73.2013C54.4526 73.0616 54.5927 72.9919 54.7722 72.9919C54.9983 72.9919 55.1677 73.0948 55.2808 73.301V74.2861C55.1717 74.4974 55.0008 74.6033 54.7683 74.6033C54.5888 74.6033 54.4493 74.5337 54.3497 74.3948Z" fill="#FFFFFE"/>
<path id="Fill-72" d="M56.1792 75.1257H55.8623L57.0747 71.9729H57.3895L56.1792 75.1257Z" fill="#FFFFFE"/>
<path id="Fill-73" d="M58.9427 74.304C58.9427 74.2044 58.9052 74.127 58.8301 74.0717C58.755 74.0166 58.624 73.9691 58.4372 73.9291C58.2505 73.8893 58.1024 73.8414 57.9926 73.7857C57.8829 73.7298 57.8018 73.6633 57.7494 73.5862C57.6967 73.509 57.6705 73.4174 57.6705 73.3109C57.6705 73.134 57.7454 72.9846 57.8948 72.8623C58.0444 72.7399 58.2355 72.6788 58.4682 72.6788C58.7127 72.6788 58.9112 72.742 59.0632 72.8683C59.2155 72.9945 59.2916 73.1561 59.2916 73.3528H58.9207C58.9207 73.2519 58.878 73.1648 58.7921 73.0915C58.7065 73.0185 58.5984 72.982 58.4682 72.982C58.3339 72.982 58.2289 73.0113 58.1531 73.0697C58.0774 73.1283 58.0395 73.2046 58.0395 73.2989C58.0395 73.3881 58.0747 73.4553 58.1451 73.5003C58.2154 73.5457 58.343 73.5888 58.527 73.6301C58.711 73.6712 58.8602 73.7205 58.9747 73.7776C59.0888 73.8348 59.1736 73.9035 59.2289 73.984C59.284 74.0645 59.3116 74.1625 59.3116 74.278C59.3116 74.471 59.2345 74.6255 59.0804 74.7417C58.926 74.8581 58.7261 74.9163 58.4802 74.9163C58.3073 74.9163 58.1544 74.8858 58.0215 74.8245C57.8884 74.7634 57.7846 74.678 57.7095 74.5684C57.6344 74.4586 57.5967 74.34 57.5967 74.2122H57.9656C57.9724 74.336 58.0217 74.4341 58.1141 74.5065C58.2066 74.5789 58.3285 74.6152 58.4802 74.6152C58.6196 74.6152 58.7317 74.587 58.8161 74.5304C58.9004 74.4739 58.9427 74.3986 58.9427 74.304Z" fill="#FFFFFE"/>
<path id="Fill-74" fill-rule="evenodd" clip-rule="evenodd" d="M59.7169 73.2073C59.6338 73.3761 59.5923 73.5663 59.5923 73.7776V73.8036C59.5923 74.1386 59.6831 74.4078 59.8644 74.6113C60.0458 74.8146 60.2829 74.9163 60.5752 74.9163C60.7694 74.9163 60.941 74.8699 61.0906 74.7766C61.2402 74.6837 61.3551 74.5537 61.4356 74.3868C61.5161 74.2201 61.5563 74.0317 61.5563 73.8214V73.7956C61.5563 73.4578 61.4655 73.1873 61.2841 72.9838C61.1028 72.7806 60.8651 72.6788 60.5713 72.6788C60.3811 72.6788 60.2121 72.7246 60.0637 72.8165C59.9156 72.9081 59.8001 73.0385 59.7169 73.2073ZM60.1296 74.3977C60.0186 74.2529 59.9631 74.0608 59.9631 73.8214C59.9631 73.5515 60.019 73.3441 60.1306 73.1992C60.2422 73.0544 60.3891 72.982 60.5713 72.982C60.7574 72.982 60.9066 73.0554 61.0188 73.2021C61.1313 73.3493 61.1874 73.541 61.1874 73.7776C61.1874 74.0422 61.1323 74.2479 61.0219 74.3948C60.9115 74.5418 60.7628 74.6152 60.5752 74.6152C60.3891 74.6152 60.2406 74.5428 60.1296 74.3977Z" fill="#FFFFFE"/>
<path id="Fill-75" d="M62.7823 74.6152C62.914 74.6152 63.0289 74.5752 63.1273 74.4955C63.2257 74.4157 63.2802 74.316 63.2909 74.1963H63.6396C63.633 74.3199 63.5905 74.4378 63.5121 74.5494C63.4337 74.661 63.3291 74.7502 63.1981 74.8166C63.0673 74.8831 62.9286 74.9163 62.7823 74.9163C62.4885 74.9163 62.255 74.8183 62.0815 74.622C61.9079 74.426 61.8213 74.1577 61.8213 73.8175V73.7558C61.8213 73.5457 61.8599 73.3588 61.937 73.1953C62.014 73.0317 62.1246 72.9048 62.2688 72.8144C62.4132 72.724 62.5837 72.6788 62.7803 72.6788C63.0223 72.6788 63.2233 72.7513 63.3836 72.8961C63.5437 73.0412 63.6291 73.2292 63.6396 73.4605H63.2909C63.2802 73.321 63.2272 73.2063 63.1323 73.1165C63.0374 73.0267 62.92 72.982 62.7803 72.982C62.5929 72.982 62.4477 73.0494 62.3447 73.1844C62.2418 73.3193 62.1902 73.5143 62.1902 73.7696V73.8393C62.1902 74.088 62.2414 74.2795 62.3437 74.4138C62.446 74.548 62.5923 74.6152 62.7823 74.6152Z" fill="#FFFFFE"/>
<path id="Fill-76" fill-rule="evenodd" clip-rule="evenodd" d="M65.8747 73.9012H65.4717V71.9729H65.0789L63.7788 73.985V74.2023H65.1009V74.8765H65.4717V74.2023H65.8747V73.9012ZM65.1009 73.9012H64.1976L65.057 72.5573L65.1009 72.4774V73.9012Z" fill="#FFFFFE"/>
<path id="Fill-77" d="M67.3993 74.304C67.3993 74.2044 67.3615 74.127 67.2866 74.0717C67.2113 74.0166 67.0805 73.9691 66.8936 73.9291C66.7069 73.8893 66.5587 73.8414 66.449 73.7857C66.3394 73.7298 66.2581 73.6633 66.2057 73.5862C66.1533 73.509 66.1271 73.4174 66.1271 73.3109C66.1271 73.134 66.2018 72.9846 66.3514 72.8623C66.5009 72.7399 66.692 72.6788 66.9245 72.6788C67.169 72.6788 67.3675 72.742 67.5198 72.8683C67.672 72.9945 67.7482 73.1561 67.7482 73.3528H67.3772C67.3772 73.2519 67.3343 73.1648 67.2487 73.0915C67.1628 73.0185 67.0549 72.982 66.9245 72.982C66.7902 72.982 66.6854 73.0113 66.6095 73.0697C66.5338 73.1283 66.496 73.2046 66.496 73.2989C66.496 73.3881 66.5313 73.4553 66.6014 73.5003C66.672 73.5457 66.7993 73.5888 66.9833 73.6301C67.1676 73.6712 67.3168 73.7205 67.4311 73.7776C67.5454 73.8348 67.6302 73.9035 67.6852 73.984C67.7405 74.0645 67.7682 74.1625 67.7682 74.278C67.7682 74.471 67.691 74.6255 67.5369 74.7417C67.3826 74.8581 67.1824 74.9163 66.9365 74.9163C66.7638 74.9163 66.6107 74.8858 66.478 74.8245C66.345 74.7634 66.241 74.678 66.1661 74.5684C66.0908 74.4586 66.0532 74.34 66.0532 74.2122H66.4221C66.4289 74.336 66.4783 74.4341 66.5707 74.5065C66.6629 74.5789 66.7851 74.6152 66.9365 74.6152C67.0762 74.6152 67.188 74.587 67.2724 74.5304C67.357 74.4739 67.3993 74.3986 67.3993 74.304Z" fill="#FFFFFE"/>
<path id="Fill-78" fill-rule="evenodd" clip-rule="evenodd" d="M68.1734 73.2073C68.0903 73.3761 68.0488 73.5663 68.0488 73.7776V73.8036C68.0488 74.1386 68.1396 74.4078 68.321 74.6113C68.5023 74.8146 68.7394 74.9163 69.032 74.9163C69.2259 74.9163 69.3976 74.8699 69.5474 74.7766C69.6967 74.6837 69.8117 74.5537 69.8923 74.3868C69.9726 74.2201 70.0128 74.0317 70.0128 73.8214V73.7956C70.0128 73.4578 69.922 73.1873 69.7407 72.9838C69.5591 72.7806 69.3216 72.6788 69.0278 72.6788C68.8376 72.6788 68.6686 72.7246 68.5203 72.8165C68.3721 72.9081 68.2566 73.0385 68.1734 73.2073ZM68.5863 74.3977C68.4751 74.2529 68.4196 74.0608 68.4196 73.8214C68.4196 73.5515 68.4755 73.3441 68.5871 73.1992C68.6988 73.0544 68.8457 72.982 69.0278 72.982C69.2139 72.982 69.3631 73.0554 69.4754 73.2021C69.5878 73.3493 69.6441 73.541 69.6441 73.7776C69.6441 74.0422 69.5888 74.2479 69.4785 74.3948C69.3683 74.5418 69.2193 74.6152 69.032 74.6152C68.8457 74.6152 68.6973 74.5428 68.5863 74.3977Z" fill="#FFFFFE"/>
<path id="Fill-79" fill-rule="evenodd" clip-rule="evenodd" d="M85.4927 83.6221V83.3734H84.2329V83.6221H84.7136V84.8765H85.012V83.6221H85.4927ZM87.0616 83.9923L87.1171 84.8765H87.4153L87.2995 83.3734H86.8685L86.6087 84.1138C86.5878 84.1834 86.567 84.2594 86.5448 84.3407C86.5317 84.3886 86.5181 84.4383 86.5037 84.4896H86.4981C86.4596 84.3348 86.4319 84.2244 86.3989 84.1084L86.1391 83.3734H85.6916L85.581 84.8765H85.8682L85.9235 83.9923C85.9291 83.8542 85.9347 83.7104 85.9347 83.5723H85.9514C85.9559 83.5903 85.9605 83.6091 85.9654 83.6284C85.9961 83.7517 86.0325 83.8974 86.0562 83.9978L86.3269 84.8542H86.6364L86.9071 84.0199C86.934 83.9356 86.9609 83.837 86.9866 83.7428C87.0031 83.6825 87.019 83.6241 87.0342 83.5723H87.0509C87.0534 83.6463 87.0547 83.7168 87.0559 83.7826C87.0574 83.8594 87.0587 83.9298 87.0616 83.9923Z" fill="#1B1A19"/>
</g>
</g>
</g>
<defs>
<linearGradient id="paint0_linear_2976_2177" x1="91.0031" y1="19.004" x2="19" y2="19.004" gradientUnits="userSpaceOnUse">
<stop stop-color="#285897"/>
<stop offset="1" stop-color="#2EB6DD"/>
</linearGradient>
<linearGradient id="paint1_linear_2976_2177" x1="27.0644" y1="82.9462" x2="82.9379" y2="82.9462" gradientUnits="userSpaceOnUse">
<stop stop-color="#285897"/>
<stop offset="1" stop-color="#2EB6DD"/>
</linearGradient>
</defs>
</svg>
