<svg width="48" height="48" viewBox="0 0 48 48" fill="none" xmlns="http://www.w3.org/2000/svg">
<path fill-rule="evenodd" clip-rule="evenodd" d="M34.286 24.0019H34.2851L25.339 35.9283C24.4965 37.0528 23.173 37.7146 21.7682 37.7146H18.6893C16.6398 37.7146 15.469 35.3745 16.699 33.734L19.9767 29.3642C20.5741 28.5671 20.0059 27.4296 19.009 27.4305H15.4321C13.6647 27.4313 12.6549 25.4145 13.7144 24.0002L22.6604 12.0712C23.5039 10.9475 24.8273 10.2858 26.2322 10.2858H29.3111C31.3605 10.2858 32.5314 12.6258 31.3014 14.2655L28.0219 18.637C27.4245 19.4341 27.9936 20.5724 28.9896 20.5716L32.5682 20.5707C34.3357 20.5699 35.3454 22.5876 34.286 24.0019ZM24.0002 0C10.7452 0 0 10.7452 0 24.0002C0 37.2543 10.7452 48.0003 24.0002 48.0003C37.2551 48.0003 48.0003 37.2543 48.0003 24.0002C48.0003 10.7452 37.2551 0 24.0002 0Z" fill="url(#paint0_linear_359_1477)"/>
<defs>
<linearGradient id="paint0_linear_359_1477" x1="62.2531" y1="24.7646" x2="25.4051" y2="-13.625" gradientUnits="userSpaceOnUse">
<stop stop-color="#5657B9"/>
<stop offset="1" stop-color="#6E4CB6"/>
</linearGradient>
</defs>
</svg>
