<svg width="59" height="48" viewBox="0 0 59 48" fill="none" xmlns="http://www.w3.org/2000/svg">
<mask id="mask0_359_1470" style="mask-type:alpha" maskUnits="userSpaceOnUse" x="0" y="0" width="59" height="48">
<path fill-rule="evenodd" clip-rule="evenodd" d="M0 0H59V48H0V0Z" fill="white"/>
</mask>
<g mask="url(#mask0_359_1470)">
<path fill-rule="evenodd" clip-rule="evenodd" d="M8.61784 4.36364H10.568C11.4674 4.36364 12.2786 3.84655 12.6793 3.04036C12.9232 2.54727 13.2379 2.09564 13.6092 1.69745C14.2114 1.05055 13.753 0 12.8699 0H8.61784C5.71817 0 3.36729 2.35527 3.36729 5.26036V35.9116C3.36729 36.3905 3.25405 36.864 3.03845 37.2927L0.40229 42.5149C-0.240145 43.8033 -0.110569 45.3207 0.765974 46.4935C1.50967 47.4862 2.73466 48 3.97271 48H23.1097C23.5801 48 24.0036 47.7415 24.2464 47.3378C24.8127 46.3953 25.8318 45.8182 26.9305 45.8182H32.2976C33.3505 45.8182 34.2292 46.4629 34.7715 47.3662C35.0067 47.7589 35.4324 48 35.8909 48H55.0267C56.2648 48 57.4898 47.4873 58.2324 46.4945C59.11 45.3218 59.2396 43.8033 58.5971 42.516L55.961 37.2927C55.7454 36.864 55.6332 36.3916 55.6332 35.9116V5.26036C55.6332 2.35527 53.2824 0 50.3816 0H46.1295C45.2476 0 44.7891 1.05055 45.3902 1.69745C45.7615 2.09564 46.0762 2.54727 46.3201 3.04036C46.7208 3.84655 47.532 4.36364 48.4314 4.36364H50.3816C50.8749 4.36364 51.2777 4.76727 51.2777 5.26036V33.2389C51.2777 34.1607 50.5308 34.9091 49.6096 34.9091H9.38985C8.46867 34.9091 7.72279 34.1607 7.72279 33.2389V5.26036C7.72279 4.76509 8.12349 4.36364 8.61784 4.36364Z" fill="url(#paint0_linear_359_1470)"/>
<path fill-rule="evenodd" clip-rule="evenodd" d="M35.3955 13.818L30.2266 18.9976C29.8041 19.4198 29.2477 19.6358 28.6858 19.6358C28.2285 19.6358 27.7701 19.4929 27.3803 19.2005L25.111 17.4954C24.1485 16.7722 23.9536 15.4053 24.6744 14.4409C25.3963 13.4776 26.7596 13.2813 27.7243 14.0045L28.4822 14.574L32.3161 10.7329C33.1665 9.8809 34.545 9.8809 35.3955 10.7329C36.2459 11.5849 36.2459 12.966 35.3955 13.818ZM26.9957 29.7856C28.5125 30.798 30.4877 30.798 32.0045 29.7856L39.4208 24.8307C41.3862 23.5184 42.5666 21.3082 42.5666 18.942V5.56636C42.5666 4.88781 42.0668 4.31836 41.3938 4.24091C40.9115 4.18418 40.4084 4.10563 39.889 4.00418C38.8481 3.80018 37.7374 3.50454 36.5941 3.11836C36.0213 2.92527 35.441 2.70927 34.8562 2.47145C34.4653 2.31109 34.081 2.14527 33.7075 1.97509C32.587 1.46236 31.5504 0.903814 30.6238 0.324542C30.2786 0.108542 29.8888 -0.000549316 29.5001 -0.000549316C29.1114 -0.000549316 28.7215 0.108542 28.3764 0.324542C27.4497 0.903814 26.4131 1.46236 25.2927 1.97509C24.9181 2.14527 24.5348 2.31109 24.1439 2.47145C23.5592 2.70927 22.9788 2.92527 22.4061 3.11836C21.2627 3.50454 20.1521 3.80018 19.1111 4.00418C18.5907 4.10563 18.0876 4.18418 17.6063 4.24091C16.9334 4.31836 16.4336 4.88781 16.4336 5.56636V18.942C16.4336 21.3082 17.6139 23.5184 19.5793 24.8307L26.9957 29.7856Z" fill="url(#paint1_linear_359_1470)"/>
</g>
<defs>
<linearGradient id="paint0_linear_359_1470" x1="76.5188" y1="24.7644" x2="40.74" y2="-21.0539" gradientUnits="userSpaceOnUse">
<stop stop-color="#5657B9"/>
<stop offset="1" stop-color="#6E4CB6"/>
</linearGradient>
<linearGradient id="paint1_linear_359_1470" x1="50.3262" y1="15.7586" x2="27.0124" y2="-5.02186" gradientUnits="userSpaceOnUse">
<stop stop-color="#5657B9"/>
<stop offset="1" stop-color="#6E4CB6"/>
</linearGradient>
</defs>
</svg>
