<svg width="279" height="293" viewBox="0 0 279 293" fill="none" xmlns="http://www.w3.org/2000/svg">
<path d="M170.826 136.438C173.264 138.063 175.822 139.736 178.731 140.073C181.996 140.453 185.189 139.111 188.195 137.779L206.333 129.802C197.067 139.813 186.189 148.176 175.37 156.485C174.269 153.994 174.451 151.157 174.221 148.44C173.879 144.413 172.596 140.522 170.475 137.082" fill="#C4C4C4"/>
<path d="M170.46 137.058C172.422 138.366 174.437 139.688 176.711 140.381C179.054 141.036 181.539 140.985 183.852 140.232C186.305 139.51 188.627 138.371 190.96 137.346L198.278 134.129L206.694 130.427L205.823 129.273C198.61 137.039 190.435 143.824 182.131 150.335C179.765 152.186 177.385 154.013 175.004 155.841L175.995 156.1C175.307 154.499 175.177 152.734 175.091 151.018C175.04 149.346 174.887 147.679 174.634 146.026C174.056 142.723 172.856 139.559 171.1 136.702C170.619 135.909 169.369 136.635 169.854 137.428C171.619 140.308 172.794 143.51 173.312 146.848C173.836 150.215 173.384 153.662 174.754 156.85C174.958 157.193 175.401 157.307 175.745 157.105C184.213 150.604 192.705 144.083 200.471 136.741C202.667 134.67 204.794 132.527 206.852 130.311C207.09 130.052 207.108 129.658 206.893 129.379C206.679 129.099 206.294 129.014 205.982 129.177L191.777 135.428C189.512 136.423 187.271 137.505 184.949 138.356C182.737 139.169 180.361 139.732 178.01 139.231C175.495 138.688 173.307 137.226 171.201 135.817C170.426 135.303 169.7 136.548 170.47 137.063L170.46 137.058Z" fill="#C4C4C4"/>
<path d="M105.466 196.686L107.211 201.691C107.788 203.341 108.49 205.149 110.049 205.947C110.986 206.428 112.087 206.457 113.14 206.49C118.505 206.661 123.844 207.305 129.096 208.414C130.057 208.611 131.284 209.376 130.827 210.227C130.53 210.621 130.07 210.859 129.577 210.871L115.679 213.3C111.876 213.963 107.986 214.632 104.167 214.093C103.742 214.09 103.335 213.917 103.037 213.612C102.843 213.239 102.798 212.805 102.912 212.4L105.221 197.075" fill="#C4C4C4"/>
<path d="M104.773 196.878C105.548 199.1 106.216 201.398 107.178 203.552C107.552 204.466 108.122 205.286 108.846 205.957C109.68 206.638 110.705 207.042 111.78 207.111C113.011 207.245 114.261 207.221 115.492 207.294C116.723 207.366 118.05 207.467 119.339 207.596C121.945 207.853 124.536 208.225 127.11 208.712C128.009 208.885 129.365 208.924 130.072 209.602C130.385 209.909 130.072 210.001 129.745 210.083C129.096 210.241 128.423 210.323 127.769 210.434L119.998 211.794C117.44 212.242 114.881 212.727 112.304 213.107C109.776 213.543 107.202 213.642 104.648 213.401C104.352 213.403 104.057 213.346 103.783 213.232C103.562 213.093 103.6 212.867 103.624 212.626C103.696 211.891 103.841 211.155 103.951 210.424L104.61 206.067L105.942 197.239C106.077 196.33 104.687 195.94 104.547 196.854L103.273 205.332L102.624 209.578L102.321 211.578C102.164 212.187 102.128 212.821 102.215 213.444C102.528 214.651 103.836 214.771 104.87 214.886C106.251 215.021 107.641 215.036 109.024 214.93C111.802 214.677 114.565 214.277 117.3 213.732L125.662 212.29C127.062 212.045 128.466 211.809 129.865 211.554C130.827 211.366 131.827 210.727 131.63 209.607C131.462 208.645 130.466 208.068 129.61 207.798C128.305 207.451 126.978 207.193 125.638 207.024C122.893 206.543 120.123 206.221 117.348 206.005C115.809 205.885 114.271 205.822 112.732 205.764C111.385 205.707 110.15 205.481 109.279 204.365C108.515 203.403 108.14 202.129 107.731 200.965L106.178 196.503C105.875 195.632 104.48 196.022 104.788 196.888L104.773 196.878Z" fill="#C4C4C4"/>
<path d="M75.1426 237.516L77.5854 252.014C78.2153 255.736 79.1097 259.886 82.269 261.949C84.0194 263.089 86.1737 263.392 88.2414 263.627L99.6765 265.027C105.269 265.711 109.383 270.599 109.101 276.226L108.693 284.401C108.592 285.057 108.696 285.729 108.991 286.324C109.39 286.954 110.164 287.228 110.885 287.43C116.093 288.873 121.57 288.993 126.98 289.094L164.276 289.772C166.844 289.82 169.436 289.863 171.97 289.325C177.115 288.219 181.424 284.776 185.271 281.184C190.469 276.322 195.576 269.898 194.436 262.872C193.369 256.289 187.223 251.875 181.453 248.581C171.749 243.075 161.415 238.56 150.538 236.078C142.555 234.27 134.366 233.578 126.211 232.89L85.6303 229.471" fill="#C4C4C4"/>
<path d="M74.4504 237.708C75.3448 242.998 76.1334 248.369 77.1528 253.659C77.9366 257.732 79.485 261.891 83.6926 263.44C86.0248 264.3 88.6552 264.401 91.1028 264.7C93.8822 265.036 96.66 265.376 99.4363 265.719C103.263 266.16 106.511 268.728 107.823 272.35C108.654 274.754 108.327 277.245 108.202 279.717L108.015 283.516C107.957 284.684 107.77 286.002 108.578 286.969C109.284 287.81 110.453 288.07 111.463 288.325C112.752 288.648 114.057 288.905 115.372 289.094C118.001 289.454 120.649 289.666 123.302 289.729C128.865 289.902 134.434 289.945 139.997 290.046L156.852 290.354C159.622 290.407 162.396 290.464 165.171 290.508C167.758 290.546 170.379 290.508 172.898 289.83C177.433 288.632 181.28 285.733 184.709 282.641C188.137 279.549 191.441 276.096 193.499 271.922C195.451 267.936 195.903 263.478 194.076 259.362C192.393 255.573 189.118 252.712 185.757 250.418C181.799 247.72 177.457 245.503 173.144 243.426C168.529 241.185 163.769 239.257 158.896 237.656C153.891 236.04 148.765 234.833 143.566 234.044C138.18 233.212 132.756 232.727 127.327 232.265L93.6995 229.433L85.5824 228.75C84.6592 228.668 84.664 230.116 85.5824 230.192L118.406 232.957C129.125 233.861 139.997 234.4 150.514 236.804C160.271 239.045 169.576 242.935 178.361 247.691C185.146 251.365 194.283 256.534 193.821 265.483C193.59 269.96 190.936 273.975 188.051 277.236C186.546 278.914 184.94 280.499 183.242 281.982C181.527 283.544 179.671 284.942 177.698 286.161C175.73 287.369 173.565 288.22 171.302 288.676C168.753 289.156 166.128 289.041 163.55 288.998L147.172 288.7L130.803 288.44C125.514 288.344 120.114 288.44 114.862 287.565C113.586 287.36 112.323 287.082 111.078 286.733C110.631 286.641 110.207 286.46 109.833 286.199C109.352 285.8 109.381 285.165 109.405 284.598C109.405 283.853 109.477 283.112 109.515 282.367C109.616 280.323 109.732 278.279 109.823 276.231C109.975 272.46 108.284 268.851 105.288 266.556C103.803 265.43 102.062 264.688 100.22 264.397C97.5945 263.988 94.9305 263.743 92.305 263.435C89.8093 263.127 87.1789 263.012 84.7554 262.305C82.7679 261.734 81.1097 260.359 80.1823 258.511C79.3247 256.724 78.7442 254.817 78.4608 252.856C77.9799 250.298 77.5904 247.73 77.1576 245.162L75.8401 237.333C75.6862 236.42 74.2965 236.804 74.4504 237.713V237.708Z" fill="#C4C4C4"/>
<path d="M85.1302 138.452C86.0246 144.511 84.433 150.633 84.1685 156.75C83.904 162.866 85.4812 169.781 90.6939 172.984C92.1365 173.868 93.8628 174.426 95.5025 174.051C96.32 173.868 97.0846 173.469 97.9069 173.363C100.681 173.003 102.749 175.826 105.346 176.874C108.808 178.273 112.9 176.172 114.934 173.027C116.968 169.882 117.42 166.021 117.675 162.294C118.493 150.526 117.961 138.703 116.088 127.056" fill="#C4C4C4"/>
<path d="M84.4329 138.645C85.5437 146.444 82.6105 154.186 83.702 161.996C84.1252 165.001 85.0917 168.04 86.9431 170.483C88.8665 173.027 92.0499 175.345 95.4064 174.811C96.3248 174.662 97.1663 174.171 98.0896 174.075C98.7944 174.023 99.4996 174.171 100.124 174.503C101.537 175.196 102.716 176.287 104.086 177.061C106.899 178.643 110.222 178.139 112.795 176.302C115.68 174.224 117.156 170.921 117.81 167.497C118.56 163.573 118.637 159.476 118.738 155.475C118.947 146.954 118.454 138.43 117.267 129.989C117.122 128.941 116.964 127.888 116.786 126.844C116.641 125.926 115.247 126.315 115.396 127.224C116.685 135.314 117.328 143.494 117.32 151.686C117.32 155.696 117.19 159.716 116.839 163.708C116.545 167.074 115.954 170.82 113.694 173.474C111.833 175.667 108.741 177.244 105.851 176.268C103.134 175.349 101.191 172.339 98.0656 172.594C97.1911 172.745 96.3318 172.974 95.4977 173.277C94.6395 173.481 93.7418 173.448 92.901 173.181C91.4119 172.698 90.071 171.842 89.006 170.695C86.9864 168.613 85.8804 165.828 85.3177 163.001C83.8463 155.735 86.3468 148.459 86.0775 141.165C86.0375 140.175 85.9444 139.187 85.7986 138.207C85.6688 137.294 84.2791 137.683 84.4089 138.592L84.4329 138.645Z" fill="#C4C4C4"/>
<path d="M103.076 194.887C102.567 201.273 101.528 207.596 101.018 213.982C100.956 214.809 101.739 215.358 102.461 215.425C106.572 215.795 110.746 215.526 114.858 215.319C119.45 215.093 124.052 214.79 128.654 214.814C129.779 214.814 130.904 214.848 132.02 214.915C132.534 214.944 133.044 214.983 133.558 215.035L134.342 215.127C134.059 215.088 134.285 215.127 134.342 215.127L134.823 215.199C135.587 215.387 136.366 214.946 136.598 214.194C136.785 213.506 136.362 212.545 135.588 212.42C131.423 211.742 127.153 211.881 122.951 212.044C118.267 212.227 113.583 212.564 108.895 212.67C106.745 212.749 104.592 212.706 102.446 212.54L103.889 213.982C104.399 207.596 105.437 201.273 105.947 194.887C105.947 194.09 105.301 193.445 104.504 193.445C103.714 193.46 103.077 194.097 103.062 194.887H103.076Z" fill="#282A3A"/>
<path d="M245.572 211.544C254.025 209.664 263.061 213.689 268.764 220.2C278.708 231.587 278.925 249.533 271.399 262.622C263.873 275.711 249.871 284.261 235.17 287.776C220.47 291.292 205.049 290.33 190.108 288.007C183.857 287.046 177.505 285.824 171.205 286.565C175.022 283.3 178.37 279.525 181.155 275.346C185.074 269.653 185.386 264.502 181.318 261.521C177.572 258.78 169.667 259.67 165.329 261.309C160.992 262.949 156.746 265.32 152.105 265.339C147.465 265.358 120.959 247.513 121.575 242.916C121.96 240.065 143.762 246.763 146.013 244.974C162.675 231.736 183.876 227.158 204.299 221.171" fill="#282A3A"/>
<path d="M245.952 212.944C256.68 210.621 267.11 218.007 271.755 227.264C276.386 236.444 276.184 247.629 272.486 257.078C268.605 266.993 260.464 274.812 251.328 279.962C240.859 285.853 228.919 288.31 216.994 288.618C210.227 288.749 203.461 288.376 196.749 287.502C189.94 286.666 183.165 285.098 176.288 284.906C174.588 284.859 172.887 284.928 171.196 285.112L172.216 287.574C175.719 284.576 178.833 281.151 181.487 277.38C183.934 273.975 186.257 269.936 185.526 265.58C184.925 262.016 181.905 259.554 178.515 258.775C174.923 257.948 171.023 258.294 167.455 259.155C163.387 260.146 159.761 262.377 155.688 263.406C154.641 263.683 153.567 263.845 152.486 263.887C152.293 263.887 152.072 263.858 151.884 263.887C151.697 263.916 152.101 263.935 152.062 263.916C151.989 263.892 151.913 263.877 151.836 263.872C151.188 263.71 150.553 263.497 149.937 263.238C149.865 263.204 150.197 263.353 149.937 263.238L149.663 263.113C149.437 263.017 149.216 262.911 148.994 262.805C148.557 262.598 148.129 262.382 147.701 262.161C146.681 261.636 145.681 261.074 144.691 260.497C142.368 259.15 140.103 257.703 137.877 256.203C133.549 253.269 129.466 250.35 125.73 246.667C125.071 246.013 124.446 245.335 123.855 244.619C123.686 244.412 124.013 244.835 123.855 244.619C123.807 244.546 123.754 244.479 123.701 244.407C123.648 244.335 123.499 244.118 123.407 243.974C123.316 243.83 123.239 243.7 123.167 243.561C123.032 243.306 123.056 243.2 123.109 243.464C123.078 243.344 123.04 243.225 122.994 243.109C122.874 242.753 122.994 243.431 122.994 243.109C122.994 242.786 122.922 243.368 122.994 243.186C122.952 243.371 122.853 243.54 122.71 243.666C122.811 243.565 122.734 243.546 122.681 243.666C122.628 243.787 122.523 243.777 122.681 243.695C122.84 243.613 122.383 243.748 122.542 243.753C122.667 243.739 122.79 243.708 122.907 243.662C123.148 243.575 122.705 243.662 122.792 243.662C122.878 243.662 122.96 243.662 123.047 243.662H123.581C124.506 243.67 125.429 243.74 126.346 243.868L126.591 243.902L126.846 243.936L127.779 244.075C128.384 244.171 128.995 244.277 129.606 244.383C132.198 244.84 134.78 245.345 137.377 245.825C139.549 246.28 141.75 246.582 143.965 246.73C144.687 246.789 145.414 246.724 146.114 246.537C146.683 246.299 147.204 245.961 147.653 245.537C148.489 244.893 149.345 244.267 150.206 243.662C157.299 238.68 165.195 235.006 173.317 232.058C181.559 229.062 190.027 226.769 198.456 224.364C200.539 223.773 202.621 223.181 204.708 222.571C206.487 222.051 205.732 219.262 203.943 219.786C195.432 222.258 186.901 224.485 178.505 227.211C170.109 229.938 161.925 233.14 154.332 237.574C152.452 238.67 150.615 239.834 148.836 241.084C147.936 241.709 147.057 242.358 146.186 243.008L145.494 243.546C145.402 243.618 145.167 243.844 145.239 243.748C145.203 243.781 145.16 243.806 145.114 243.82C145.215 243.82 145.494 243.719 145.253 243.748C145.14 243.765 145.027 243.789 144.917 243.82C144.893 243.82 145.306 243.82 145.003 243.82H144.748C144.368 243.82 143.989 243.82 143.613 243.82C143.133 243.791 142.69 243.743 142.229 243.69L141.878 243.647C141.589 243.613 141.878 243.647 141.777 243.647C141.478 243.609 141.185 243.565 140.887 243.517C135.857 242.743 130.904 241.498 125.845 240.925C124.379 240.762 122.422 240.473 121.094 241.305C119.522 242.296 120.181 244.287 120.993 245.542C122.103 247.135 123.412 248.579 124.888 249.841C126.812 251.615 128.899 253.25 131 254.832C135.313 258.112 139.845 261.093 144.566 263.752C146.291 264.753 148.096 265.612 149.961 266.32C152.514 267.243 155.337 266.589 157.847 265.796C161.761 264.555 165.358 262.478 169.412 261.68C172.538 261.069 176.385 260.761 179.332 262.045C180.71 262.623 181.812 263.71 182.41 265.079C183.011 266.58 182.833 268.248 182.381 269.773C181.737 271.913 180.51 273.798 179.227 275.601C177.927 277.444 176.522 279.21 175.019 280.89C173.518 282.557 171.902 284.116 170.181 285.555C169.268 286.324 169.979 288.156 171.206 288.022C178.38 287.228 185.483 288.844 192.547 289.849C199.464 290.894 206.445 291.468 213.44 291.566C226.222 291.638 239.104 289.512 250.563 283.665C260.488 278.606 269.418 270.682 274.169 260.444C278.742 250.591 279.603 238.685 275.463 228.524C273.39 223.284 269.949 218.695 265.499 215.237C260.94 211.751 255.228 209.544 249.448 209.655C248.014 209.688 246.587 209.861 245.187 210.169C243.374 210.563 244.139 213.343 245.952 212.953V212.944Z" fill="#282A3A"/>
<path d="M163.022 4.53553C176.178 9.4077 188.323 16.6616 198.851 25.9342C209.396 35.1699 218.212 46.2099 224.885 58.537C228.342 64.7934 231.117 71.4033 233.161 78.2526C233.809 80.3233 234.148 82.4784 234.166 84.6481C234.092 86.7342 233.612 88.7858 232.752 90.6878C231.141 94.429 228.79 97.9008 226.597 101.339C217.922 114.915 207.794 127.506 196.394 138.89C190.71 144.562 184.724 149.923 178.462 154.951C176.943 156.172 175.255 157.278 174.668 159.245C174.082 161.212 174.404 163.674 174.423 165.756L174.553 179.533L174.615 186.424C174.615 188.28 177.501 188.285 177.501 186.424L177.371 172.282L177.304 165.213C177.304 164.088 177.275 162.962 177.275 161.847C177.275 160.976 177.275 160.024 177.818 159.298C178.39 158.657 179.036 158.086 179.742 157.596C180.607 156.91 181.465 156.217 182.314 155.518C183.895 154.236 185.459 152.917 187.007 151.561C190.098 148.878 193.114 146.111 196.057 143.261C207.76 131.92 218.2 119.344 227.194 105.753C229.463 102.325 231.704 98.8434 233.705 95.2513C235.811 91.462 237.34 87.3939 236.979 82.9939C236.643 78.8633 235.176 74.8817 233.714 71.0299C232.432 67.6735 231.004 64.3795 229.43 61.1481C216.714 35.314 195.137 14.9099 168.633 3.65554C167.032 2.98232 165.416 2.35239 163.786 1.73207C162.04 1.09251 161.291 3.88155 163.022 4.51629V4.53553Z" fill="#282A3A"/>
<path d="M167.921 134.509C171.406 143.514 173.437 153.016 173.937 162.659C174.074 165.391 174.09 168.116 173.985 170.834C173.985 171.631 174.631 172.277 175.427 172.277C176.224 172.277 176.87 171.631 176.87 170.834C177.241 160.964 176.052 151.097 173.345 141.597C172.585 138.933 171.705 136.309 170.705 133.726C170.475 132.972 169.696 132.528 168.931 132.716C168.561 132.817 168.247 133.061 168.058 133.394C167.869 133.726 167.819 134.121 167.921 134.49V134.509Z" fill="#282A3A"/>
<path d="M91.2664 93.3519C90.7375 100.986 88.8875 108.47 85.7989 115.472C84.4621 118.496 82.8897 121.444 82.0145 124.632C81.1393 127.82 81.0191 131.364 82.5386 134.312C82.9594 135.122 83.51 135.858 84.1688 136.491C87.2852 139.475 89.2773 143.442 89.8093 147.724C90.0755 150.103 90.8832 152.389 92.1704 154.408C94.5122 158 98.9843 160.428 103.317 159.971C108.4 159.433 110.751 154.932 111.867 150.392C114.839 138.284 118.166 125.738 119.056 113.265C110.193 113.024 100.557 105.878 97.9552 97.4248C97.4664 95.808 96.7299 94.2767 95.7721 92.8854C94.1227 90.4811 92.7859 89.9089 91.1221 91.7554" fill="#A09BFB"/>
<path d="M89.8241 93.3519C89.4933 97.9557 88.6728 102.511 87.3765 106.941C86.7315 109.146 85.9723 111.316 85.102 113.443C84.2412 115.544 83.217 117.573 82.313 119.655C80.5193 123.791 79.1344 128.426 80.4424 132.918C80.7415 133.989 81.2107 135.005 81.8321 135.928C82.527 136.823 83.2804 137.671 84.0874 138.467C85.3706 139.889 86.4089 141.514 87.1601 143.276C87.9439 145.141 88.2132 147.05 88.5594 149.046C88.9385 151.278 89.7769 153.406 91.0215 155.297C93.3216 158.697 96.9859 160.929 101.062 161.414C103.011 161.634 104.983 161.301 106.751 160.452C108.303 159.654 109.627 158.474 110.598 157.024C112.906 153.768 113.541 149.594 114.478 145.81C116.839 136.25 119.128 126.642 120.172 116.837C120.3 115.645 120.407 114.451 120.494 113.255C120.494 112.458 119.848 111.812 119.051 111.812C114.243 111.659 109.395 109.408 105.702 106.21C103.795 104.597 102.17 102.678 100.894 100.531C100.299 99.5254 99.8154 98.4581 99.4511 97.3479C98.9928 95.8409 98.3687 94.3894 97.5901 93.0201C96.8111 91.7121 95.7965 90.1781 94.3635 89.529C92.7574 88.7981 91.2331 89.4953 90.103 90.7119C88.8383 92.0728 90.8724 94.1165 92.1419 92.7508C92.3198 92.5632 92.6228 92.3036 92.6997 92.2266C92.7766 92.1497 93.0363 92.0487 92.7959 92.1497C92.7959 92.1497 93.195 92.0535 92.9738 92.0824C92.7526 92.1112 93.1373 92.0824 93.1469 92.0824C92.7911 92.0391 93.2768 92.2266 93.0267 92.0583C93.1978 92.1543 93.3589 92.267 93.5076 92.3949C94.5121 93.4176 95.3105 94.6241 95.859 95.9486C96.4168 97.1555 96.7342 98.4587 97.2583 99.6801C97.7236 100.781 98.2852 101.838 98.9366 102.839C101.807 107.187 105.878 110.606 110.655 112.683C113.296 113.872 116.139 114.546 119.032 114.669L117.589 113.226C116.907 122.603 114.887 131.812 112.675 140.929C112.127 143.194 111.564 145.459 111.006 147.724C110.627 149.546 110.107 151.337 109.453 153.08C108.333 155.764 106.318 158.134 103.279 158.495C99.8887 158.889 96.4072 157.25 94.1423 154.648C92.9272 153.173 92.0624 151.442 91.6129 149.585C91.0984 147.623 91.0022 145.608 90.3531 143.67C89.7336 141.799 88.8425 140.03 87.7083 138.419C87.1032 137.56 86.4363 136.747 85.7127 135.986C84.9953 135.324 84.3709 134.569 83.8565 133.74C81.9042 130.196 82.8948 125.825 84.2941 122.276C85.0924 120.232 86.0878 118.275 86.9774 116.27C87.867 114.265 88.7277 112.072 89.4394 109.918C90.8568 105.604 91.8395 101.16 92.3727 96.6506C92.501 95.5446 92.6051 94.4386 92.6853 93.3326C92.6853 92.5359 92.0394 91.89 91.2427 91.89C90.4524 91.9054 89.8154 92.5424 89.8001 93.3326L89.8241 93.3519Z" fill="#91A9F5"/>
<path d="M93.8875 80.9888C92.5795 73.8911 93.2239 66.7791 93.9404 59.5998C93.9714 58.7167 94.1876 57.85 94.5751 57.056C95.181 56.0077 96.3014 55.3825 97.3497 54.7718C104.641 50.4907 110.664 44.3509 114.805 36.9797C117.719 40.6751 121.74 43.3395 126.279 44.5822C127.107 44.8865 128.012 44.9118 128.856 44.6544C130.135 44.135 130.645 42.4953 130.347 41.1488C130.049 39.8024 129.15 38.6772 128.274 37.6049C137.449 43.207 146.24 54.392 149.312 64.6921C149.043 62.4705 148.928 59.9412 151.462 57.4791C152.794 56.1808 149.086 48.7898 148.428 47.1885C145.206 39.3889 138.502 34.1234 131.318 30.0697C125.331 26.7036 116.378 23.1019 110.386 28.4058C102.086 27.5788 93.6615 31.618 90.3339 39.2638C86.6504 47.7367 83.2843 58.0417 84.8616 67.3658C85.8618 73.2853 93.3008 75.4011 93.8875 80.9984" fill="#A09BFB"/>
<path d="M95.2768 80.6041C94.6577 76.9019 94.4385 73.144 94.6228 69.395C94.6949 67.4715 94.8344 65.5144 95.0027 63.5765C95.0796 62.7158 95.1566 61.8598 95.2431 61.0039C95.2814 60.1187 95.3973 59.2385 95.5893 58.3735C95.974 56.9934 97.4263 56.4116 98.5803 55.7191C99.9236 54.9113 101.222 54.0377 102.475 53.0984C108.033 48.9822 112.659 43.7385 116.05 37.7106L113.785 38.004C116.079 40.8906 119.03 43.1859 122.393 44.6976C124.066 45.4478 126.105 46.3566 127.981 46.2749C130.159 46.1835 131.592 44.5245 131.828 42.4279C132.092 40.1486 130.64 38.2444 129.284 36.5806L127.548 38.8695C131.25 41.2048 134.596 44.0617 137.483 47.352C140.541 50.7368 143.151 54.5009 145.249 58.5515C146.338 60.6469 147.232 62.8375 147.922 65.0961C148.119 65.7862 148.793 66.2268 149.504 66.1299C150.144 66.0338 150.846 65.4327 150.755 64.7114C150.476 62.3744 150.586 60.4605 152.317 58.6813C153.563 57.3974 153.217 55.6374 152.76 54.065C152.198 52.2371 151.513 50.449 150.711 48.7129C150.432 48.0926 150.144 47.4723 149.87 46.8471C149.838 46.7424 149.792 46.6422 149.735 46.549C149.961 46.799 149.86 46.8375 149.769 46.6211C149.677 46.4047 149.572 46.1402 149.471 45.9239C149.206 45.3228 148.918 44.7313 148.61 44.1543C146.162 39.562 142.421 35.8449 138.266 32.7817C134.308 29.7902 129.934 27.3926 125.283 25.6649C122.706 24.6805 119.962 24.2085 117.204 24.2752C114.312 24.3822 111.543 25.4749 109.357 27.372L110.376 26.9536C105.676 26.4944 100.951 27.5239 96.8684 29.8965C94.8832 31.0558 93.1212 32.5605 91.6655 34.3397C90.0449 36.3498 89.0303 38.5714 88.0541 40.9469C85.9143 46.1451 84.1543 51.526 83.3945 57.1233C82.9869 59.8982 82.9078 62.7114 83.1589 65.5048C83.3897 67.7745 83.8465 69.8326 85.2074 71.7272C86.5057 73.5161 88.1744 74.9394 89.7227 76.5071C90.0834 76.8677 90.4344 77.2428 90.7662 77.6275C90.8384 77.714 90.9105 77.8054 90.9874 77.892C91.175 78.1228 90.9009 77.7669 91.0932 78.0314C91.2856 78.2959 91.3817 78.4305 91.5116 78.6373C91.6414 78.8441 91.7664 79.0557 91.8818 79.2721L91.9973 79.5077C92.0357 79.5894 92.0742 79.6664 92.1079 79.7481C92.0598 79.6279 92.0501 79.6183 92.1079 79.7145C92.1954 79.9444 92.2709 80.1787 92.3339 80.4165C92.3339 80.5031 92.3771 80.5944 92.3964 80.681C92.4156 80.7676 92.4877 81.2725 92.4541 80.9888C92.4767 81.7759 93.1095 82.4087 93.8967 82.4314C94.6036 82.4314 95.4258 81.7678 95.3393 80.9888C95.0776 78.9967 94.2155 77.1315 92.8676 75.6415C91.6751 74.2277 90.2469 73.04 88.9678 71.708C88.3629 71.1129 87.8229 70.4552 87.3569 69.7461C87.1159 69.3699 86.9007 68.9779 86.7125 68.5727C86.5923 68.3083 86.6692 68.4621 86.7125 68.5247C86.6692 68.4092 86.626 68.2986 86.5875 68.1832C86.5009 67.9332 86.4288 67.6735 86.3663 67.4138C85.7941 64.9133 85.847 62.1868 86.0441 59.643C86.4721 54.1467 88.1118 48.7706 90.0978 43.6542C90.9682 41.4085 91.829 39.1052 93.2042 37.1095C94.403 35.4192 95.9085 33.9691 97.6426 32.8346C101.303 30.4804 105.643 29.4127 109.977 29.8004C110.373 29.8711 110.782 29.8156 111.145 29.6417C111.39 29.4649 111.625 29.2738 111.847 29.0694C112.312 28.7165 112.807 28.4074 113.329 28.1462C114.249 27.6981 115.234 27.3947 116.247 27.2469C118.347 27.0111 120.474 27.2008 122.499 27.8048C126.827 28.9829 130.856 31.243 134.617 33.729C138.507 36.2969 142.152 39.4177 144.758 43.3031C145.83 44.9843 146.757 46.7539 147.528 48.5927C147.816 49.2322 148.11 49.867 148.393 50.5161L148.624 51.0403L148.754 51.3432C148.778 51.4058 148.889 51.675 148.788 51.4298C148.966 51.853 149.134 52.2761 149.297 52.6993C149.611 53.4856 149.883 54.2882 150.11 55.1036C150.202 55.445 150.264 55.7865 150.336 56.1327C150.336 56.2337 150.336 56.3779 150.336 56.0413V56.2721C150.336 56.2721 150.336 56.5847 150.336 56.729C150.336 56.8732 150.336 56.5895 150.36 56.5607C150.355 56.6151 150.342 56.6685 150.322 56.7193C150.254 56.8828 150.509 56.3683 150.384 56.5703C150.259 56.7722 150.514 56.402 150.514 56.4164C150.311 56.6607 150.094 56.8935 149.865 57.1137C149.61 57.4214 149.36 57.7388 149.139 58.0754C148.415 59.1788 147.968 60.4408 147.836 61.754C147.744 62.736 147.768 63.7254 147.908 64.7018L150.745 64.3171C149.352 59.8696 147.302 55.6554 144.662 51.8145C141.99 47.8157 138.82 44.1735 135.227 40.9757C133.302 39.2579 131.231 37.7101 129.039 36.3498C128.413 35.9905 127.618 36.1486 127.178 36.72C126.749 37.2953 126.798 38.0957 127.293 38.6147C127.876 39.2667 128.371 39.9926 128.764 40.7738C128.936 41.1377 129.025 41.5351 129.024 41.9375C129.037 42.2414 128.974 42.5438 128.841 42.8175C128.747 42.9939 128.611 43.1454 128.447 43.2598C128.154 43.389 127.829 43.4259 127.514 43.3656C126.576 43.2034 125.66 42.9339 124.783 42.5626C121.267 41.207 118.185 38.9216 115.868 35.9507C115.281 35.2149 114.016 35.5083 113.598 36.244C110.459 41.8482 106.188 46.7381 101.057 50.6027C99.7513 51.5786 98.3967 52.487 96.9983 53.3244C95.5557 54.1707 93.9736 55.0219 93.2331 56.5943C92.4156 58.3206 92.4493 60.4124 92.2713 62.2878C92.0934 64.1632 91.9299 66.1684 91.8338 68.1111C91.5555 72.5408 91.7894 76.9878 92.531 81.3638C92.6322 81.7332 92.876 82.0472 93.2089 82.2366C93.5417 82.426 93.9362 82.4753 94.3054 82.3736C95.0627 82.1478 95.5078 81.3657 95.3152 80.5992L95.2768 80.6041Z" fill="#91A9F5"/>
<path d="M91.7764 75.8146C92.6564 84.5664 94.6183 93.6067 99.0519 101.301C102.548 107.374 108.246 112.029 115.238 113.298C117.403 113.647 119.596 113.782 121.787 113.702C124.554 113.657 127.321 113.582 130.087 113.476C130.884 113.476 131.53 112.83 131.53 112.034C131.53 111.237 130.884 110.591 130.087 110.591C127.753 110.681 125.421 110.748 123.09 110.793C121.104 110.888 119.114 110.852 117.133 110.687C114.07 110.329 111.135 109.257 108.563 107.557C105.993 105.807 103.816 103.541 102.173 100.901C100.08 97.4476 98.4627 93.7275 97.3641 89.8415C96.0196 85.2773 95.1163 80.5946 94.6664 75.8579C94.6414 75.0717 94.0099 74.4402 93.2238 74.4153C92.4271 74.4153 91.7812 75.0611 91.7812 75.8579L91.7764 75.8146Z" fill="#282A3A"/>
<path d="M65.5 290.5H263.5" stroke="#282A3A" stroke-width="3" stroke-linecap="round"/>
<path d="M147.572 63.8746C150.063 72.2898 152.674 81.0176 151.731 89.8944C151.373 93.5471 150.289 97.0915 148.543 100.32C147.679 101.896 146.61 103.351 145.365 104.647C143.956 106.09 142.21 107.292 141.253 109.129C140.725 110.234 140.353 111.408 140.147 112.615C139.888 113.928 139.666 115.246 139.388 116.559L137.844 124.579C137.651 125.344 138.094 126.126 138.849 126.354C139.218 126.455 139.613 126.406 139.946 126.217C140.278 126.027 140.522 125.713 140.623 125.344L142.008 118.131L142.715 114.476C142.885 113.424 143.121 112.383 143.422 111.36C144.052 109.437 145.711 108.35 147.077 107.004C148.461 105.626 149.666 104.08 150.664 102.402C154.992 95.2128 155.42 86.5331 154.165 78.4401C153.352 73.2227 151.852 68.1447 150.351 63.0956C149.827 61.3164 147.038 62.0714 147.572 63.8602V63.8746Z" fill="#282A3A"/>
<path d="M117.806 113.029C117.264 117.014 116.66 120.987 115.993 124.95C115.806 125.715 116.249 126.494 117.003 126.724C117.77 126.936 118.565 126.486 118.777 125.719C119.441 121.754 120.044 117.78 120.585 113.798C120.771 113.034 120.331 112.258 119.58 112.024C118.907 111.836 117.912 112.255 117.806 113.029Z" fill="#282A3A"/>
<path d="M87.9677 72.3956C86.5251 71.9869 85.0825 71.6455 83.5918 71.958C82.3139 72.2791 81.1749 73.0064 80.3459 74.0306C78.7853 75.8972 77.9671 78.2733 78.0474 80.705C78.1772 85.7445 81.702 89.6924 86.2847 91.3995C89.1131 92.4938 92.2314 92.5838 95.1182 91.6544C95.8738 91.4265 96.318 90.646 96.128 89.88C96.0269 89.5106 95.783 89.1966 95.4502 89.0072C95.1173 88.8178 94.7228 88.7685 94.3536 88.8702C90.6702 90.1829 86.1789 89.0289 83.4331 86.3216C80.9182 83.8499 80.0959 79.8779 81.8607 76.8533C82.2909 76.0311 82.962 75.36 83.7841 74.9298C84.8469 74.4489 86.1212 74.8961 87.1839 75.2039C88.9679 75.7184 89.7325 72.939 87.9485 72.4197L87.9677 72.3956Z" fill="#282A3A"/>
<path d="M152.356 60.8548C153.464 59.1647 155.484 58.3131 157.467 58.7005C159.407 59.1547 160.946 60.6289 161.483 62.5474C162.096 64.6208 162.224 66.8073 161.858 68.9382C161.531 71.1406 160.656 73.1265 158.973 74.4682C157.287 75.8079 155.119 76.3831 152.991 76.055C152.224 75.8651 151.444 76.3092 151.216 77.0648C151.004 77.8323 151.454 78.6265 152.221 78.8392C154.899 79.3405 157.667 78.7893 159.949 77.3005C162.363 75.6939 164.022 73.1758 164.546 70.3231C165.594 65.0335 164.709 57.7099 158.617 56.0124C155.277 55.1227 151.745 56.4931 149.879 59.4026C149.578 59.8494 149.551 60.4269 149.809 60.9C150.067 61.3731 150.567 61.6629 151.106 61.6513C151.645 61.6398 152.133 61.3289 152.37 60.8452L152.356 60.8548Z" fill="#282A3A"/>
<path d="M101.827 70.8905C102.909 68.8853 104.527 67.2205 106.501 66.0818C107.482 65.5128 108.539 65.087 109.641 64.8171C109.9 64.7546 110.165 64.6969 110.429 64.6488L110.703 64.6055H110.8C110.958 64.6055 110.929 64.6055 110.723 64.5575C110.554 64.62 110.723 64.3843 110.66 64.5575C110.66 64.5863 110.694 64.644 110.723 64.7354C110.867 65.1537 111.006 65.5721 111.146 65.9856L114.166 74.9683C114.671 76.4638 115.171 77.9593 115.68 79.4548C116.038 80.6496 116.547 81.7938 117.195 82.8593C117.928 84.0221 119.018 84.9163 120.301 85.4079C121.609 85.8325 122.998 85.9396 124.355 85.7205C125.745 85.5425 127.197 85.2877 128.394 84.5183C129.498 83.8053 130.327 82.7389 130.746 81.4936C131.515 79.2816 130.991 76.733 130.352 74.5595C129.462 71.5589 128.476 68.5871 127.539 65.6009L125.952 60.5614C125.923 60.4038 125.874 60.2503 125.807 60.1046C125.807 59.9219 125.774 59.8738 125.745 59.9604C125.288 60.4797 125.192 60.6624 125.452 60.5086C125.48 60.5086 125.981 60.3691 126.211 60.3162C126.897 60.1561 127.593 60.0437 128.293 59.9796C131.306 59.7027 134.338 60.2321 137.079 61.5136C137.77 61.8897 138.634 61.662 139.051 60.9942C139.452 60.3076 139.222 59.4257 138.536 59.0227C134.505 57.0598 129.927 56.5256 125.553 57.5079C124.936 57.6038 124.345 57.8195 123.812 58.1427C123.007 58.7234 122.671 59.758 122.98 60.7009C123.369 62.2204 123.942 63.7208 124.398 65.2211L125.875 69.9191C126.368 71.4836 126.861 73.048 127.351 74.6124C127.704 75.665 127.972 76.7439 128.154 77.839C128.228 78.4017 128.248 78.97 128.217 79.5365C128.215 79.7329 128.189 79.9284 128.14 80.1183C128.116 80.2193 128.092 80.3251 128.063 80.4261C128.014 80.5535 127.972 80.6835 127.938 80.8156C127.78 81.2224 127.518 81.5806 127.178 81.8543C126.741 82.1896 126.238 82.4288 125.702 82.5564C124.503 82.9195 123.243 83.0325 121.999 82.8881C120.962 82.7243 120.058 82.0931 119.547 81.1763C118.966 80.1093 118.508 78.9801 118.181 77.8102L116.608 73.1554C115.579 70.0874 114.579 67.0099 113.512 63.9564C113.218 63.1197 112.838 62.3647 112.011 61.956C111.184 61.5472 110.261 61.7107 109.395 61.8886C107.983 62.1842 106.623 62.6899 105.361 63.389C102.814 64.7729 100.722 66.8636 99.3356 69.4094C98.4508 71.0444 100.942 72.5014 101.827 70.852V70.8905Z" fill="#282A3A"/>
<path d="M86.4097 82.5323C86.4921 82.4799 86.579 82.4348 86.6694 82.3977L86.3232 82.5419C86.5039 82.4703 86.6929 82.4218 86.8858 82.3977L86.5011 82.4458C86.7088 82.4218 86.9185 82.4218 87.1262 82.4458L86.7415 82.3929C86.9621 82.4262 87.1783 82.4842 87.3859 82.566L87.0445 82.4217C87.248 82.5087 87.4401 82.6201 87.6167 82.7535L87.3282 82.5323C87.4676 82.6437 87.5949 82.7694 87.7081 82.9074L87.482 82.6189C87.5674 82.7281 87.6416 82.8457 87.7032 82.9699C87.9954 83.4733 88.5614 83.7519 89.1386 83.6762C89.7157 83.6005 90.1908 83.1854 90.3432 82.6237C90.4294 82.2476 90.3764 81.853 90.1941 81.5129C89.1486 79.6656 86.8104 79.0049 84.9527 80.0318C84.6317 80.2279 84.3951 80.5365 84.2891 80.8974C84.1317 81.4638 84.3337 82.0691 84.7998 82.4274C85.2659 82.7857 85.9028 82.8253 86.4097 82.5275V82.5323Z" fill="#282A3A"/>
<path d="M156.261 63.6679C155.516 64.3559 154.957 65.221 154.636 66.1828C154.577 66.3697 154.569 66.5687 154.612 66.7598C154.621 66.9492 154.679 67.1331 154.78 67.2936C154.869 67.4588 154.998 67.5992 155.155 67.7023C155.291 67.8265 155.457 67.9142 155.636 67.9572C156.011 68.0607 156.411 68.0087 156.747 67.8129L157.04 67.5869C157.217 67.4117 157.345 67.1927 157.41 66.9522C157.444 66.856 157.483 66.7598 157.521 66.6637L157.377 67.0099C157.527 66.6671 157.72 66.3442 157.949 66.0482L157.723 66.3415C157.894 66.1221 158.084 65.9178 158.29 65.7308C158.432 65.6012 158.536 65.4347 158.589 65.2499C158.68 65.0788 158.723 64.886 158.714 64.6921C158.724 64.4998 158.68 64.3084 158.589 64.1391C158.536 63.954 158.433 63.7874 158.29 63.6582C158.018 63.3903 157.653 63.2385 157.271 63.2351L156.886 63.288C156.647 63.3555 156.428 63.483 156.251 63.6582L156.261 63.6679Z" fill="#282A3A"/>
<path d="M118.517 93.1691C118.7 93.0874 118.445 93.2028 118.397 93.2172C118.45 93.2172 118.498 93.1787 118.551 93.1595C118.604 93.1402 118.753 93.0874 118.859 93.0585C118.965 93.0296 119.094 92.9912 119.215 92.9671C119.335 92.9431 119.638 92.895 119.378 92.9287C119.118 92.9623 119.479 92.9287 119.551 92.9287C119.623 92.9287 119.768 92.9287 119.878 92.9287C119.989 92.9287 120.095 92.9287 120.2 92.9287C120.306 92.9287 120.729 93.0104 120.263 92.9287C120.479 92.9671 120.691 93.0008 120.902 93.0585L121.21 93.1547L121.364 93.2124C121.547 93.2749 121.292 93.1787 121.244 93.1547C121.451 93.2605 121.662 93.3518 121.859 93.472C121.951 93.5297 122.042 93.5875 122.129 93.65C122.215 93.7125 122.331 93.799 122.129 93.65C121.927 93.5009 122.129 93.65 122.172 93.6884C122.447 93.9519 122.811 94.1028 123.191 94.1116C123.774 94.1111 124.3 93.7596 124.523 93.2209C124.746 92.6822 124.623 92.0621 124.211 91.6496C123.285 90.8397 122.147 90.3109 120.931 90.1252C119.609 89.9289 118.258 90.1245 117.046 90.6878C116.72 90.8784 116.482 91.1891 116.382 91.5534C116.229 92.1177 116.432 92.7185 116.896 93.0746C117.36 93.4308 117.992 93.4719 118.498 93.1787L118.517 93.1691Z" fill="#282A3A"/>
<path d="M106.823 72.6553C105.748 73.7977 105.345 75.4174 105.76 76.9302C105.964 77.7919 106.49 78.5424 107.231 79.0268C107.901 79.4119 108.736 79.3588 109.352 78.8921C109.83 78.5149 110.112 77.9427 110.121 77.3341C110.139 76.7212 109.894 76.1301 109.448 75.7088C109.03 75.345 108.538 75.076 108.006 74.9202C107.631 74.8167 107.231 74.8687 106.895 75.0644C106.395 75.3569 106.118 75.9204 106.192 76.4952C106.267 77.0699 106.678 77.5442 107.236 77.6996L107.539 77.8102L107.198 77.6659C107.355 77.7313 107.503 77.8153 107.64 77.916L107.347 77.69C107.411 77.7427 107.47 77.8006 107.525 77.8631L107.299 77.5746C107.33 77.617 107.357 77.6621 107.381 77.7092L107.236 77.363C107.26 77.4218 107.278 77.4831 107.289 77.5457L107.241 77.1658C107.251 77.2457 107.251 77.3264 107.241 77.4063L107.289 77.0216C107.281 77.0671 107.27 77.1121 107.255 77.1562L107.4 76.8148C107.381 76.8568 107.358 76.8971 107.332 76.935L107.558 76.6417C107.533 76.6782 107.502 76.7107 107.467 76.7379L107.76 76.5119L107.688 76.5599L108.03 76.4109C107.982 76.4325 107.932 76.4471 107.881 76.4541L108.265 76.4013C108.225 76.4063 108.185 76.4063 108.145 76.4013L108.53 76.4541L108.41 76.4205L108.756 76.5647C108.699 76.5374 108.644 76.5052 108.592 76.4686L108.881 76.6946C108.797 76.6267 108.72 76.551 108.65 76.4686L108.876 76.7571C108.733 76.5707 108.613 76.3672 108.52 76.1512L108.669 76.4974C108.573 76.2648 108.507 76.0208 108.472 75.7713L108.52 76.1512C108.487 75.8814 108.487 75.6084 108.52 75.3385L108.467 75.7232C108.502 75.4526 108.572 75.1875 108.674 74.9346L108.53 75.2808C108.625 75.0472 108.751 74.8272 108.905 74.6268L108.679 74.9202C108.741 74.8432 108.804 74.7711 108.871 74.699C109.401 74.1306 109.385 73.2448 108.836 72.6954C108.286 72.1461 107.401 72.1305 106.832 72.6601L106.823 72.6553Z" fill="#282A3A"/>
<path d="M135.675 66.8272C135.246 67.1465 134.869 67.531 134.559 67.9668C134.318 68.3291 134.13 68.7243 134.001 69.1401C133.744 69.976 133.711 70.8649 133.905 71.7176C134.085 72.5682 134.523 73.3425 135.16 73.9344C135.55 74.3338 136.107 74.5224 136.659 74.4415C137.211 74.3606 137.691 74.0201 137.949 73.5256C138.302 72.8493 138.302 72.0429 137.949 71.3665C137.635 70.7662 137.104 70.3086 136.463 70.0874C135.816 69.8551 135.1 69.9166 134.501 70.2557C133.816 70.6587 133.586 71.5406 133.987 72.2273C134.398 72.9014 135.268 73.1306 135.958 72.7466C136.151 72.6408 135.651 72.814 135.805 72.8092C135.854 72.8042 135.902 72.7945 135.949 72.7803L135.564 72.8332C135.641 72.826 135.718 72.826 135.795 72.8332L135.415 72.7851C135.463 72.7851 135.506 72.7851 135.555 72.814C135.805 72.862 135.401 72.7899 135.405 72.7466C135.41 72.7034 135.526 72.8188 135.535 72.8236C135.636 72.8669 135.271 72.5687 135.41 72.7274C135.434 72.7514 135.463 72.7899 135.492 72.814C135.228 72.6168 135.324 72.5543 135.391 72.6889C135.506 72.9149 135.329 72.5399 135.333 72.5302C135.346 72.5872 135.362 72.6434 135.381 72.6986L135.329 72.3139C135.336 72.3906 135.336 72.4679 135.329 72.5447L135.377 72.16C135.377 72.2273 135.305 72.3956 135.401 72.16C135.53 71.8881 135.77 71.6849 136.059 71.6022L136.444 71.5493H136.377L136.762 71.6022L136.964 71.6935L137.132 71.8186C137.132 71.8186 137.05 71.7416 137.04 71.732L136.959 71.6358C136.819 71.4964 137.079 71.7801 137.069 71.7849C136.962 71.6478 136.87 71.4995 136.795 71.3425L136.742 71.2271C136.665 71.0925 136.858 71.5541 136.814 71.405C136.771 71.2559 136.762 71.2463 136.737 71.1694C136.688 71.0011 136.653 70.829 136.632 70.6549L136.68 71.0347C136.641 70.725 136.641 70.4116 136.68 70.1019L136.627 70.4866C136.655 70.303 136.695 70.1215 136.747 69.9432C136.771 69.871 136.891 69.5585 136.781 69.823C136.67 70.0874 136.805 69.7749 136.838 69.7172C136.872 69.6595 136.92 69.5729 136.964 69.5008C136.995 69.4611 137.024 69.4193 137.05 69.3758C137.122 69.2459 136.834 69.6258 136.939 69.52L137.122 69.3132C137.214 69.2267 137.517 68.9863 137.122 69.3132C137.438 69.1137 137.673 68.8088 137.786 68.4525C137.886 68.0777 137.834 67.6785 137.642 67.3417C137.452 67.0167 137.143 66.7786 136.781 66.6781C136.405 66.5674 136 66.6198 135.665 66.8223L135.675 66.8272Z" fill="#282A3A"/>
<path d="M104.548 89.2356C106.433 89.2356 108.241 87.5766 108.154 85.6291C108.121 83.6513 106.526 82.056 104.548 82.0226C102.663 82.0226 100.855 83.6816 100.941 85.6291C100.975 87.6069 102.57 89.2022 104.548 89.2356Z" fill="#ED7A7A"/>
<path d="M143.599 81.0897C145.484 81.0897 147.292 79.4307 147.205 77.4832C147.172 75.5054 145.577 73.9101 143.599 73.8767C141.714 73.8767 139.906 75.5357 139.992 77.4832C140.026 79.461 141.621 81.0563 143.599 81.0897Z" fill="#ED7A7A"/>
<path d="M95.6275 59.3064C101.876 55.4959 107.382 50.5856 111.881 44.8131C113.184 43.1459 114.401 41.4124 115.526 39.6197C116.516 38.0424 114.021 36.5902 113.035 38.1771C109.349 44.0739 104.624 49.2533 99.0897 53.4639C97.5029 54.666 95.8567 55.7881 94.1512 56.8299C92.5691 57.7917 94.0166 60.2922 95.5938 59.3208L95.6275 59.3064Z" fill="#282A3A"/>
<path d="M123.639 46.6163C125.985 47.6309 128.842 48.1406 131.164 46.7365C133.121 45.5536 134.434 43.0723 133.674 40.8026C133.538 40.3052 133.146 39.9185 132.647 39.7881C132.148 39.6577 131.618 39.8035 131.255 40.1704C130.893 40.5374 130.754 41.0698 130.89 41.5672C130.924 41.673 130.958 41.774 130.982 41.8797C131.006 41.9855 130.982 42.2212 131.01 42.0048C131.039 41.7884 131.01 42.0817 131.01 42.1298C131.003 42.2355 131.003 42.3415 131.01 42.4472C130.967 42.4087 131.068 42.1298 131.01 42.4472C131.01 42.5337 130.972 42.6203 130.948 42.7068C130.924 42.7934 130.885 42.8751 130.861 42.9617C130.818 43.1252 130.986 42.7261 130.861 42.9617C130.773 43.1416 130.671 43.3152 130.558 43.481C130.472 43.6157 130.433 43.6397 130.558 43.481C130.486 43.5676 130.419 43.6493 130.342 43.7311C130.265 43.8128 130.073 43.9811 129.933 44.111C130.179 43.885 129.933 44.111 129.871 44.1494L129.635 44.2937L129.395 44.4187C129.159 44.5389 129.534 44.3899 129.347 44.4187C129.159 44.4476 128.866 44.5678 128.64 44.6207C128.601 44.6207 128.25 44.6832 128.433 44.6592C128.616 44.6351 128.26 44.6592 128.226 44.6592C127.98 44.676 127.732 44.676 127.486 44.6592L127.149 44.6351C126.716 44.5967 127.423 44.6928 126.99 44.6351C126.769 44.5918 126.543 44.5486 126.322 44.4909C126.101 44.4332 125.88 44.3706 125.663 44.2985L125.278 44.1591C125.226 44.1591 124.86 43.9859 125.115 44.0965C124.424 43.7178 123.558 43.946 123.143 44.6159C122.816 45.2362 122.922 46.2701 123.663 46.5874L123.639 46.6163Z" fill="#282A3A"/>
<path d="M97.9547 97.4152C97.7912 96.8766 95.9254 91.3515 95.7139 90.8321C96.2476 96.2996 99.128 106.811 101.965 111.509C104.85 116.275 109.659 120.107 115.218 120.795C116.228 120.936 117.256 120.885 118.247 120.646C118.594 118.184 118.863 115.722 119.041 113.265C110.193 113.015 100.556 105.869 97.9547 97.4152Z" fill="#282A3A"/>
<path d="M99.3494 97.0546C98.6666 94.857 97.9694 92.6065 97.1038 90.4715C96.907 89.7813 96.2328 89.3407 95.5217 89.4376C94.81 89.5333 94.277 90.138 94.2715 90.8562C94.889 96.2407 96.1897 101.525 98.1425 106.581C98.9571 108.952 100.062 111.213 101.432 113.313C103.184 115.893 105.454 118.08 108.096 119.737C111.126 121.598 115.098 122.916 118.647 122.04C119.141 121.915 119.526 121.529 119.652 121.035C120.012 118.453 120.31 115.866 120.498 113.269C120.498 112.473 119.852 111.827 119.055 111.827C115.684 111.645 112.408 110.645 109.51 108.913C106.476 107.193 103.851 104.836 101.816 102.003C100.745 100.49 99.9125 98.8209 99.3494 97.0546C98.7965 95.2898 96.0074 96.0447 96.5652 97.8239C98.8926 105.229 105.509 111.038 112.722 113.524C114.757 114.228 116.885 114.623 119.036 114.698L117.594 113.255C117.42 115.598 117.174 117.931 116.853 120.252L117.858 119.247C115.242 119.891 112.266 118.809 110.001 117.511C107.679 116.159 105.672 114.328 104.115 112.139C102.824 110.27 101.785 108.24 101.023 106.1C100.081 103.589 99.2778 101.029 98.6185 98.4298C98.2579 97.0257 97.9309 95.6119 97.6568 94.1838C97.5318 93.549 97.4164 92.9095 97.3202 92.2603L97.2769 91.9862C97.2769 91.9285 97.1952 91.3707 97.2336 91.6977C97.2 91.4092 97.1663 91.1158 97.1375 90.8225L94.3003 91.2072C95.1707 93.3374 95.8632 95.5927 96.546 97.7903C97.1182 99.5647 99.9024 98.8097 99.3494 97.0546Z" fill="#282A3A"/>
<path d="M97.0942 95.1888L96.998 95.1551L97.1664 95.3475C97.1423 95.2946 97.1231 95.2417 97.0942 95.1888Z" fill="#282A3A"/>
<path d="M97.4791 93.7991L97.3829 93.7654L96.9982 93.7125C96.8061 93.7052 96.6155 93.7483 96.4452 93.8376C96.3239 93.8691 96.214 93.9341 96.1278 94.0251C95.97 94.1251 95.8408 94.2643 95.7528 94.429L95.6085 94.7752L95.5556 95.1551C95.5477 95.3488 95.5908 95.5412 95.6806 95.7129C95.7356 95.8968 95.8385 96.0628 95.9788 96.1938L96.123 96.3621V96.3862C96.254 96.5264 96.42 96.6293 96.6039 96.6843C96.7748 96.7764 96.9678 96.8196 97.1617 96.8093L97.5416 96.7564C97.7208 96.7134 97.8863 96.6258 98.0225 96.5016C98.1293 96.438 98.2186 96.3488 98.2821 96.2419C98.4093 96.1071 98.4989 95.9413 98.5418 95.761L98.5947 95.3763C98.5944 95.1211 98.5263 94.8706 98.3975 94.6502L98.3735 94.5973L98.5178 94.9435C98.4649 94.8089 98.4072 94.6791 98.3543 94.5444L98.3254 94.4915C98.2406 94.326 98.1126 94.1865 97.9551 94.0876C97.6617 93.8378 97.2713 93.7335 96.8924 93.8039C96.7007 93.8087 96.5142 93.867 96.3539 93.9722L96.0605 94.1982C95.8844 94.3743 95.7568 94.593 95.6903 94.8329L95.6374 95.2176C95.6395 95.4741 95.7074 95.7258 95.8345 95.9486L95.8634 96.0063L95.7191 95.6649C95.7816 95.8091 95.8393 95.9582 95.9066 96.1072L98.1715 94.3569L98.0273 94.1886V94.1645L96.6231 96.5689L96.7193 96.5977C96.9037 96.6601 97.1018 96.67 97.2915 96.6266C97.4831 96.617 97.6688 96.5573 97.8301 96.4535C97.9946 96.3671 98.1337 96.2395 98.234 96.0832C98.3596 95.9473 98.4489 95.7819 98.4937 95.6023L98.5418 95.2176C98.5444 94.962 98.4761 94.7107 98.3446 94.4915L98.1234 94.1982C97.9481 94.0101 97.7256 93.8723 97.4791 93.7991Z" fill="#282A3A"/>
<path d="M83.2406 137.539C78.4608 138.703 74.282 141.674 71.1853 145.439C67.7086 149.666 65.5543 154.725 64.1886 159.991C62.6835 165.795 61.9814 171.815 61.2698 177.783C60.5132 184.053 59.9394 190.34 59.5483 196.642C59.1091 203.737 58.8975 210.836 58.9135 217.94L61.087 216.694C48.7528 209.698 33.4467 205.577 19.7324 211.039C13.9187 213.357 8.71089 217.113 5.114 222.277C1.26706 227.783 -0.175546 234.66 0.584226 241.286C1.42856 248.229 4.21543 254.793 8.62434 260.223C12.8319 265.512 18.2802 269.782 24.1035 273.168C36.7455 280.491 51.234 284.016 65.5976 285.964C72.9837 286.959 80.4131 287.579 87.8425 288.099C95.9115 288.666 103.985 289.185 112.054 289.729L118.142 290.133C118.939 290.133 119.585 289.487 119.585 288.69C119.569 287.9 118.932 287.263 118.142 287.247L94.0986 285.637C86.9385 285.156 79.7736 284.675 72.6375 283.925C58.6009 282.434 44.4057 279.808 31.5425 273.773C20.0017 268.349 8.73975 259.775 4.75335 247.133C2.82988 240.954 2.6183 234.044 5.19575 228.014C7.46064 222.725 11.6779 218.493 16.6404 215.67C28.5659 208.885 42.9295 211.001 54.8454 216.666C56.4707 217.435 58.0624 218.277 59.6252 219.161C60.0712 219.421 60.6221 219.423 61.0697 219.166C61.5174 218.909 61.7935 218.432 61.7939 217.916C61.7662 205.68 62.4179 193.452 63.7462 181.288C64.3762 175.489 65.0494 169.642 66.2323 163.924C67.3047 158.74 68.93 153.595 71.945 149.19C74.8302 144.978 78.9801 141.544 84.0004 140.318C85.8036 139.881 85.0391 137.096 83.2358 137.539H83.2406Z" fill="#282A3A"/>
<path d="M128.178 228.043C133.06 208.856 137.313 189.522 140.936 170.041C141.475 167.127 143.91 164.943 146.865 164.722C182.704 162.087 218.658 161.486 254.579 161.01C256.367 160.99 258.08 161.73 259.29 163.046C260.501 164.362 261.096 166.13 260.926 167.91C258.926 189.194 251.737 210.304 244.168 230.611C241.443 237.953 234.518 242.892 226.689 243.08C179.131 244.114 126.11 246.811 79.8076 243.003C77.6681 238.13 77.1425 232.702 78.3073 227.509C91.1512 227.841 117.084 222.859 129.928 223.181" fill="#EAC36E"/>
<path d="M131.655 229.005C135.232 214.931 138.475 200.778 141.383 186.544C142.097 183.018 142.796 179.491 143.479 175.965C143.811 174.239 144.066 172.479 144.465 170.762C144.532 170.478 144.628 170.204 144.715 169.925C144.854 169.444 144.388 170.512 144.648 170.113C144.715 170.012 144.763 169.892 144.821 169.791C144.878 169.69 144.999 169.517 145.08 169.377C145.374 168.896 144.965 169.555 144.96 169.531C144.955 169.507 145.619 168.843 145.638 168.853C145.658 168.863 144.883 169.334 145.484 168.973L145.787 168.781C145.922 168.699 146.085 168.637 146.21 168.545C146.581 168.261 145.566 168.752 146.018 168.613C146.292 168.526 146.571 168.454 146.84 168.362C147.283 168.218 146.97 168.545 146.624 168.362C146.831 168.375 147.038 168.358 147.24 168.31C149.048 168.175 150.857 168.048 152.669 167.93C156.352 167.68 160.039 167.45 163.729 167.242C178.284 166.415 192.855 165.872 207.43 165.482C222.005 165.093 236.585 164.871 251.189 164.674L253.91 164.636H255.016H255.142C255.469 164.665 255.473 164.665 255.142 164.636C254.81 164.607 254.829 164.597 255.026 164.636C255.146 164.66 255.262 164.689 255.382 164.722L255.728 164.823L255.839 164.862C256.137 164.977 256.137 164.977 255.839 164.862C255.8 164.775 255.521 164.684 255.839 164.862C255.964 164.939 256.118 165.03 256.248 165.097C256.781 165.371 255.795 164.617 256.358 165.174C256.469 165.285 256.579 165.396 256.695 165.501C257.176 165.982 256.627 165.405 256.656 165.4C256.685 165.396 257.075 166.054 257.099 166.093C257.123 166.131 257.267 166.405 257.262 166.41C257.176 166.463 257.017 165.655 257.166 166.203C257.265 166.508 257.347 166.818 257.411 167.131C257.378 167.131 257.358 166.367 257.363 166.78C257.363 166.987 257.387 167.194 257.363 167.401C257.282 169.063 257.108 170.72 256.844 172.363C256.815 172.594 256.781 172.844 256.752 173.051C256.752 172.984 256.829 172.522 256.752 172.95L256.579 174.147C256.445 175.061 256.305 175.975 256.151 176.888C255.872 178.6 255.563 180.309 255.223 182.014C254.531 185.496 253.742 188.956 252.857 192.396C251.112 199.215 249.039 205.942 246.789 212.593C245.641 215.984 244.455 219.362 243.23 222.725C242.634 224.372 242.031 226.02 241.422 227.668C241.148 228.404 240.869 229.139 240.595 229.88C240.369 230.5 240.634 229.841 240.658 229.75C240.6 229.916 240.527 230.077 240.441 230.231C240.297 230.544 240.138 230.856 239.961 231.159C239.677 231.688 239.369 232.207 239.032 232.707C238.941 232.852 238.446 233.385 238.446 233.549C238.446 233.549 238.874 233.015 238.619 233.323L238.215 233.804C237.83 234.256 237.422 234.689 236.998 235.102C236.575 235.516 235.902 235.944 235.474 236.434C235.912 235.953 235.825 236.174 235.599 236.324L235.186 236.617C234.94 236.785 234.705 236.944 234.44 237.098C233.902 237.43 233.349 237.737 232.781 238.016L232.3 238.233C232.007 238.377 231.887 238.233 232.464 238.17C232.177 238.249 231.899 238.356 231.632 238.487C231.028 238.701 230.413 238.884 229.79 239.036C229.458 239.117 229.122 239.19 228.785 239.252C228.607 239.286 227.718 239.406 228.242 239.353C228.766 239.3 227.823 239.387 227.684 239.396C227.275 239.43 226.871 239.444 226.467 239.454L221.548 239.565C218.24 239.642 214.928 239.725 211.613 239.815C197.986 240.18 184.363 240.594 170.74 240.897C156.934 241.209 143.123 241.406 129.313 241.325C115.94 241.243 102.562 240.897 89.218 240.055C86.0571 239.86 82.901 239.632 79.7497 239.372L82.8658 241.161C83.1735 241.863 82.76 240.892 82.7359 240.824C82.6205 240.522 82.5147 240.219 82.4089 239.911C82.2214 239.353 82.0531 238.781 81.9281 238.209C81.803 237.636 81.654 237.059 81.5482 236.473C81.4905 236.155 81.4376 235.838 81.3895 235.511C81.5049 236.338 81.3895 235.275 81.3895 235.189C81.283 234.007 81.2605 232.82 81.3222 231.635C81.3222 231.313 81.3606 230.991 81.3895 230.673C81.3895 230.587 81.5338 229.524 81.4135 230.351C81.5097 229.712 81.6299 229.077 81.7694 228.428L78.2879 231.072C84.8085 231.231 91.3675 230.404 97.8352 229.659C105.135 228.817 112.425 227.831 119.748 227.201C123.125 226.867 126.517 226.718 129.909 226.754C131.894 226.739 133.5 225.133 133.516 223.148C133.475 221.173 131.884 219.582 129.909 219.541C123.389 219.387 116.829 220.214 110.367 220.984C103.062 221.825 95.7723 222.806 88.4486 223.441C85.0723 223.774 81.6803 223.921 78.2879 223.883C76.6692 223.897 75.2532 224.976 74.8112 226.533C73.465 232.667 74.1189 239.071 76.677 244.806C77.1963 245.999 78.6005 246.494 79.7882 246.59C93.3487 247.701 106.948 248.235 120.551 248.446C134.66 248.667 148.774 248.547 162.868 248.278C176.962 248.009 191.027 247.6 205.107 247.21C211.961 247.021 218.815 246.847 225.669 246.686C228.661 246.719 231.634 246.202 234.44 245.162C237.304 244.043 239.918 242.369 242.134 240.238C246.972 235.54 248.717 228.856 250.924 222.691C253.382 215.839 255.733 208.938 257.748 201.951C259.798 195.02 261.478 187.984 262.783 180.875C263.446 177.153 263.981 173.408 264.389 169.642C264.567 167.939 264.692 166.324 264.22 164.65C263.287 161.337 260.705 158.743 257.397 157.793C255.661 157.312 253.838 157.428 252.059 157.452L240.807 157.61C233.305 157.726 225.804 157.86 218.302 158.014C203.304 158.341 188.306 158.798 173.322 159.529C165.83 159.894 158.343 160.334 150.86 160.847C148.954 160.898 147.052 161.068 145.167 161.356C143.442 161.742 141.848 162.57 140.541 163.761C137.776 166.165 137.372 169.618 136.728 172.998C133.939 187.61 130.795 202.153 127.298 216.627C126.452 220.128 125.584 223.622 124.696 227.11C124.216 228.937 125.293 231.106 127.216 231.544C129.14 231.981 131.155 230.981 131.655 229.029V229.005Z" fill="#EAC36E"/>
<path d="M113.319 224.965C112.069 230.851 111.131 236.8 110.434 242.758C110.434 243.714 110.815 244.63 111.492 245.306C112.168 245.983 113.086 246.363 114.043 246.363C114.999 246.363 115.917 245.983 116.594 245.306C117.224 244.601 117.595 243.702 117.647 242.758C117.781 241.594 117.926 240.435 118.079 239.271L117.95 240.233C118.555 235.745 119.328 231.289 120.267 226.865C120.657 225.023 119.724 222.878 117.748 222.426C115.935 222.013 113.728 222.975 113.309 224.946L113.319 224.965Z" fill="#ED7A7A"/>
<path d="M95.1325 225.374C94.0148 228.753 93.2493 232.239 92.8484 235.775C92.7426 236.626 93.3293 237.747 93.9063 238.324C94.5858 238.995 95.5001 239.374 96.4549 239.382C97.4106 239.378 98.3263 238.998 99.0035 238.324L99.5709 237.598C99.8872 237.043 100.053 236.414 100.052 235.775C100.081 235.54 100.11 235.294 100.143 235.064L100.013 236.025C100.422 233.057 101.114 230.134 102.081 227.298C102.542 225.402 101.414 223.483 99.5342 222.964C97.6541 222.444 95.701 223.511 95.1229 225.374H95.1325Z" fill="#ED7A7A"/>
<path d="M143.647 41.3364C146.663 37.8622 150.209 34.8873 154.154 32.5221C154.429 32.3634 154.683 32.1999 154.938 32.2816C155.357 32.5104 155.738 32.8024 156.068 33.1472C156.954 33.849 157.897 34.4762 158.886 35.0226C160.811 36.072 162.89 36.8104 165.046 37.2105C167.524 37.6554 170.061 37.6554 172.538 37.2105C172.907 37.1094 173.221 36.8655 173.411 36.5327C173.6 36.1998 173.65 35.8053 173.548 35.4361C173.322 34.6789 172.54 34.2337 171.773 34.4263C167.626 35.1169 163.368 34.3199 159.752 32.1758C158.895 31.66 158.078 31.0797 157.309 30.4399C156.213 29.5551 155.01 29.055 153.616 29.5888C152.478 30.1042 151.403 30.7497 150.413 31.5122C149.384 32.2191 148.389 32.9548 147.413 33.7531C145.338 35.4317 143.408 37.2815 141.642 39.2831C141.095 39.8542 141.095 40.7556 141.642 41.3268C142.205 41.8893 143.118 41.8893 143.681 41.3268L143.647 41.3364Z" fill="#282A3A"/>
<path d="M137.569 34.3301C138.278 32.9976 139.074 31.7125 139.949 30.4832C140.164 30.1818 140.385 29.8837 140.613 29.5888L140.777 29.3868C140.902 29.2329 141.022 29.079 141.152 28.93C141.633 28.3385 142.142 27.7711 142.666 27.2133C143.052 26.8536 143.211 26.312 143.081 25.8009C142.95 25.2898 142.551 24.8906 142.04 24.7601C141.529 24.6296 140.987 24.7884 140.628 25.1744C138.442 27.4828 136.572 30.0699 135.064 32.8683C134.763 33.3151 134.735 33.8927 134.994 34.3657C135.252 34.8388 135.752 35.1286 136.291 35.117C136.83 35.1055 137.317 34.7946 137.555 34.3109L137.569 34.3301Z" fill="#282A3A"/>
<path d="M131.505 27.2998L135.246 21.6448C135.44 21.314 135.495 20.9197 135.397 20.5488C135.3 20.178 135.059 19.8612 134.727 19.6685C134.037 19.2871 133.169 19.5158 132.756 20.1878L129.014 25.8428C128.62 26.5347 128.862 27.4149 129.553 27.8096C130.242 28.1944 131.112 27.9674 131.525 27.295L131.505 27.2998Z" fill="#282A3A"/>
<path d="M124.35 21.8804C125.848 17.3584 128.514 13.3123 132.078 10.1521C135.909 6.78542 140.625 4.58904 145.667 3.82386C148.538 3.37937 151.463 3.41349 154.323 3.92484C155.088 4.10964 155.865 3.66739 156.097 2.91502C156.199 2.5458 156.15 2.1513 155.96 1.81846C155.771 1.48562 155.457 1.24176 155.087 1.14061C149.267 0.0949886 143.267 0.782227 137.834 3.11698C130.094 6.52344 124.175 13.069 121.561 21.1111C121.349 21.8799 121.8 22.6754 122.569 22.8879C123.338 23.1003 124.133 22.6493 124.346 21.8804H124.35Z" fill="#282A3A"/>
<path d="M116.233 10.9792C119.036 10.9892 121.809 10.4109 124.374 9.28171C124.705 9.08893 124.947 8.77215 125.044 8.40133C125.141 8.0305 125.087 7.63614 124.893 7.30534C124.474 6.63862 123.608 6.41325 122.917 6.79081C122.763 6.85813 122.749 6.86294 122.888 6.79081L122.633 6.89179L122.253 7.03605C121.955 7.14665 121.652 7.24764 121.349 7.339C120.787 7.51211 120.215 7.65637 119.633 7.77659C119.344 7.83429 119.056 7.88238 118.762 7.93047L118.56 7.95932C118.719 7.95932 118.714 7.95932 118.56 7.95932L118.152 8.0026C117.522 8.0603 116.887 8.08435 116.252 8.07954C115.455 8.07954 114.81 8.72541 114.81 9.52214C114.825 10.3124 115.462 10.9494 116.252 10.9647L116.233 10.9792Z" fill="#282A3A"/>
<path d="M142.604 114.996C143.66 114.838 144.725 114.75 145.792 114.731C146.752 114.682 147.711 114.847 148.6 115.212C149.357 115.559 150.002 116.11 150.461 116.804C150.991 117.604 151.351 118.504 151.519 119.449C151.638 119.965 152.03 120.374 152.541 120.515C153.052 120.656 153.599 120.506 153.966 120.123C154.333 119.741 154.46 119.189 154.298 118.684C153.779 116.28 152.399 113.875 150.105 112.75C147.812 111.625 145.128 111.788 142.604 112.12C141.818 112.145 141.186 112.777 141.161 113.563C141.161 114.265 141.825 115.106 142.604 115.005V114.996Z" fill="#282A3A"/>
<path d="M182.194 18.3124L174.755 32.5124L172.865 36.1141C172.267 37.1893 171.766 38.3158 171.369 39.4802C170.725 41.692 170.88 44.0601 171.807 46.1691C172.756 48.2782 173.992 50.246 175.481 52.0164C176.885 53.8149 178.323 55.5845 179.645 57.4454C182.323 61.2129 184.707 65.1805 186.776 69.3133C189.1 73.9683 191.007 78.82 192.475 83.8114L192.845 82.4073C187.119 87.45 181.556 92.6674 176.154 98.0595C173.509 100.704 170.906 103.388 168.345 106.109C165.998 108.605 163.709 111.163 161.233 113.539C158.626 116.142 155.626 118.318 152.341 119.987C151.712 120.411 151.519 121.25 151.899 121.906C152.28 122.563 153.103 122.812 153.784 122.478C159.92 119.516 164.57 114.375 169.138 109.466C174.36 103.865 179.754 98.4314 185.319 93.1643C188.448 90.2022 191.631 87.2977 194.869 84.451C195.236 84.0837 195.378 83.5474 195.24 83.0468C192.647 74.1935 188.728 65.784 183.617 58.1042C182.309 56.1471 180.919 54.2573 179.472 52.4011C178.1 50.7634 176.816 49.0539 175.625 47.2799C174.572 45.5872 173.735 43.7167 173.851 41.7114C173.976 39.4754 175.452 37.3836 176.462 35.4361L184.685 19.7502C184.986 19.3033 185.013 18.7258 184.755 18.2527C184.497 17.7797 183.996 17.4899 183.458 17.5011C182.919 17.513 182.431 17.8239 182.194 18.3076V18.3124Z" fill="#282A3A"/>
<path d="M142.71 122.425C139.724 125.094 135.603 125.45 132.015 126.864C130.679 127.392 130.092 128.402 129.981 129.802C129.896 130.978 129.87 132.157 129.904 133.336C129.904 134.577 129.996 135.812 130.116 137.043C130.206 137.572 130.247 138.108 130.241 138.645C130.16 139.076 129.971 139.479 129.693 139.818C128.109 142.213 126.519 144.6 124.923 146.978L127.558 147.324C126.86 145.148 125.932 143.052 124.788 141.073C124.249 140.15 123.615 139.294 123.052 138.39C122.489 137.486 122.456 136.543 122.518 135.457C122.653 133.139 122.903 130.802 122.932 128.479C123.01 127.343 122.488 126.249 121.557 125.594C121.225 125.39 120.876 125.216 120.513 125.075C120.34 124.998 120.172 124.887 119.999 124.815C119.734 124.709 120.08 124.993 119.936 124.753C118.974 123.166 116.479 124.618 117.445 126.195C117.936 126.91 118.644 127.448 119.465 127.729C119.643 127.806 119.806 127.917 119.984 127.994C119.782 127.907 120.104 128.123 119.984 127.926C120.082 128.296 120.09 128.683 120.008 129.056C119.874 131.398 119.657 133.754 119.599 136.101C119.538 137.302 119.815 138.497 120.398 139.549C120.922 140.467 121.581 141.309 122.124 142.222C123.223 144.058 124.112 146.011 124.774 148.046C124.928 148.605 125.401 149.017 125.976 149.093C126.551 149.168 127.115 148.892 127.409 148.392L131.52 142.256C132.237 141.179 133.011 140.164 133.117 138.832C133.203 137.712 132.943 136.534 132.871 135.409C132.799 134.283 132.77 133.004 132.79 131.816C132.79 131.235 132.818 130.653 132.847 130.076C132.847 129.999 132.881 129.595 132.881 129.653C132.881 129.234 132.948 129.484 132.924 129.528C132.828 129.672 132.645 129.667 132.958 129.566C134.824 128.955 136.723 128.455 138.579 127.82C140.842 127.126 142.941 125.981 144.749 124.454C145.278 123.886 145.263 123 144.713 122.451C144.164 121.901 143.278 121.886 142.71 122.415V122.425Z" fill="#282A3A"/>
<path d="M57.3171 235.545C68.6127 232.328 80.6777 235.064 91.6703 238.199C107.492 242.761 122.49 249.802 136.107 259.059C138.393 260.607 140.637 262.21 142.84 263.868C143.869 264.651 144.883 265.45 145.893 266.272C146.903 267.094 147.999 268.061 149.259 268.619C150.628 269.271 152.218 269.271 153.587 268.619C154.76 268.066 155.794 267.205 156.915 266.551C161.582 263.843 166.864 262.375 172.259 262.286C174.663 262.247 177.116 262.329 179.342 263.286C181.222 264.098 182.516 265.69 182.333 267.945C182.126 270.456 180.516 272.754 179.078 274.711C175.864 279.089 172.152 283.078 168.018 286.598C166.998 287.47 165.955 288.309 164.887 289.113C164.221 289.531 163.996 290.395 164.373 291.085C164.729 291.7 165.719 292.075 166.344 291.604C170.948 288.154 175.13 284.174 178.804 279.746C180.597 277.568 182.453 275.293 183.752 272.768C185.05 270.244 185.824 267.272 184.637 264.546C182.463 259.53 175.64 259.189 170.97 259.444C165.219 259.754 159.636 261.494 154.727 264.507C154.183 264.844 153.659 265.204 153.12 265.56C152.676 265.913 152.153 266.152 151.596 266.258C150.456 266.363 149.341 265.382 148.514 264.714C146.302 262.925 144.048 261.189 141.753 259.506C127.967 249.481 112.651 241.75 96.3973 236.612C90.8375 234.806 85.1635 233.373 79.413 232.323C73.2916 231.25 67.0499 230.813 60.8852 231.794C59.4252 232.031 57.9802 232.352 56.5574 232.755C54.7781 233.265 55.5331 236.049 57.3267 235.54L57.3171 235.545Z" fill="#282A3A"/>
<path d="M59.0192 215.146C58.4086 221.514 60.5547 227.839 64.9146 232.52C66.1841 233.881 68.223 231.837 66.9535 230.481C63.1423 226.334 61.3025 220.746 61.9044 215.146C61.9044 214.349 61.2585 213.703 60.4618 213.703C59.6725 213.721 59.037 214.357 59.0192 215.146Z" fill="#282A3A"/>
<path d="M140.579 184.332C147.831 181.849 154.282 177.461 159.256 171.628C160.735 169.884 162.077 168.029 163.271 166.078C163.989 164.963 164.036 163.543 163.394 162.382C162.752 161.22 161.524 160.506 160.198 160.52C158.871 160.535 157.66 161.277 157.044 162.453C156.519 163.309 155.971 164.15 155.385 164.968C155.236 165.169 155.091 165.371 154.937 165.573L154.711 165.876C155.087 165.396 155.159 165.299 154.928 165.593C154.615 165.982 154.298 166.376 153.966 166.756C152.681 168.262 151.284 169.669 149.787 170.964C149.427 171.272 149.066 171.575 148.701 171.868C148.494 172.031 147.739 172.575 148.701 171.868C148.494 172.012 148.297 172.171 148.095 172.32C147.287 172.916 146.457 173.48 145.604 174.013C143.897 175.074 142.111 176.003 140.261 176.792L141.122 176.427C140.309 176.768 139.492 177.085 138.66 177.388C136.881 178.004 135.515 179.889 136.14 181.822C136.713 183.582 138.67 185.005 140.579 184.342V184.332Z" fill="#ED7A7A"/>
<path d="M136.376 205.274C145.472 203.781 154.21 200.609 162.146 195.921C170.234 191.175 177.27 184.83 182.823 177.273C185.883 173.037 188.377 168.42 190.243 163.539C190.63 162.127 190.126 160.621 188.965 159.727C187.805 158.834 186.22 158.731 184.953 159.466C184.176 159.979 183.594 160.738 183.299 161.621C183.107 162.102 182.91 162.606 182.703 163.097L183.068 162.236C181.828 165.152 180.347 167.958 178.639 170.627C177.8 171.951 176.904 173.234 175.951 174.474L175.793 174.681C175.562 174.984 176.139 174.243 176.091 174.296C175.975 174.426 175.874 174.575 175.769 174.71C175.514 175.027 175.259 175.345 174.999 175.672C174.499 176.278 173.988 176.874 173.465 177.46C171.37 179.809 169.102 181.999 166.68 184.01L165.8 184.731L165.387 185.058L165.113 185.275C164.733 185.573 165.368 185.073 165.425 185.034C164.771 185.472 164.161 185.996 163.502 186.448C162.239 187.352 160.944 188.213 159.616 189.03C156.556 190.914 153.357 192.561 150.047 193.959L150.908 193.598C145.626 195.828 140.097 197.418 134.438 198.335C133.531 198.585 132.758 199.181 132.284 199.994C131.8 200.819 131.664 201.804 131.907 202.729C132.15 203.655 132.751 204.446 133.577 204.928C134.434 205.367 135.416 205.496 136.357 205.293L136.376 205.274Z" fill="#ED7A7A"/>
<path d="M130.221 227.769C137.483 226.4 144.637 224.512 151.629 222.119C158.866 219.65 165.859 216.518 172.518 212.761C178.793 209.191 184.66 204.949 190.017 200.109C195.152 195.453 199.713 190.202 203.606 184.467C207.496 178.731 210.571 172.482 212.743 165.9C212.996 165.121 213.238 164.334 213.469 163.539C213.993 161.726 212.834 159.534 210.949 159.101C209.034 158.614 207.077 159.726 206.515 161.621C205.775 164.176 204.886 166.686 203.851 169.137L204.217 168.276C202.547 172.207 200.536 175.983 198.206 179.562C197.619 180.461 197.014 181.356 196.388 182.231C196.095 182.644 195.797 183.058 195.499 183.467L195.018 184.072L194.787 184.375C194.306 185 195.114 183.957 194.888 184.25C193.575 185.929 192.205 187.564 190.772 189.136C187.879 192.317 184.754 195.279 181.424 197.998C181.029 198.325 180.635 198.643 180.236 198.96L179.635 199.441C179.255 199.734 180.385 198.864 179.832 199.282L179.452 199.571C178.62 200.206 177.774 200.821 176.913 201.427C174.971 202.799 172.98 204.097 170.941 205.322C166.37 208.06 161.61 210.471 156.698 212.535L157.558 212.17C150.219 215.226 142.634 217.655 134.885 219.431C132.693 219.945 130.495 220.392 128.283 220.83C126.427 221.186 125.196 223.518 125.763 225.268C126.403 227.25 128.211 228.154 130.202 227.788L130.221 227.769Z" fill="#ED7A7A"/>
<path d="M256.151 168.401C258.036 168.401 259.844 166.742 259.757 164.794C259.721 162.818 258.128 161.224 256.151 161.188C254.261 161.188 252.453 162.847 252.544 164.794C252.578 166.772 254.173 168.367 256.151 168.401Z" fill="#ED7A7A"/>
<path d="M239.19 161.909C238.179 165.861 238.894 170.056 241.157 173.45C243.513 176.896 246.995 179.414 251.005 180.572C253.171 181.213 255.416 181.547 257.675 181.562C259.565 181.596 261.368 179.884 261.282 177.956C261.246 175.979 259.652 174.385 257.675 174.349C256.824 174.338 255.975 174.279 255.131 174.171L256.093 174.301C254.47 174.089 252.882 173.668 251.366 173.051L252.227 173.412C251.447 173.088 250.696 172.7 249.981 172.253C249.818 172.152 249.654 172.046 249.5 171.935C249.346 171.825 248.702 171.349 249.236 171.757C249.77 172.166 249.092 171.628 248.995 171.546C248.899 171.464 248.716 171.301 248.582 171.171C248.322 170.921 248.067 170.656 247.827 170.382C247.74 170.286 247.226 169.642 247.649 170.185C248.072 170.728 247.572 170.07 247.5 169.959C247.054 169.306 246.671 168.612 246.355 167.886L246.721 168.752C246.319 167.807 246.041 166.815 245.894 165.799L246.024 166.761C245.906 165.872 245.906 164.972 246.024 164.083L245.894 165.044C245.956 164.629 246.043 164.218 246.153 163.813C246.634 161.996 245.533 159.808 243.638 159.375C241.722 158.885 239.762 159.998 239.2 161.895L239.19 161.909Z" fill="#ED7A7A"/>
<path d="M222.043 160.981C220.567 165.131 220.687 169.81 221.846 174.022C223.005 178.235 225.279 182.029 227.967 185.472C230.349 188.521 233.051 191.307 236.027 193.781C237.663 195.188 239.45 196.411 241.355 197.426C243.364 198.415 245.484 199.164 247.668 199.657C248.765 199.922 249.871 200.172 250.958 200.484C252.198 200.845 253.362 201.446 254.694 201.446C256.432 201.403 257.941 200.234 258.416 198.561C258.827 196.915 258.1 195.195 256.632 194.344C255.433 193.691 253.984 193.691 252.785 194.344C250.996 195.305 250.525 197.71 251.501 199.398C252.477 201.086 254.8 201.744 256.435 200.691C258.123 199.663 258.695 197.482 257.728 195.758L257.695 195.695L258.055 198.474V198.431L256.396 200.585L256.435 200.561L255.574 200.927H255.636L254.675 201.052H254.747L253.785 200.922H253.857L252.996 200.557L252.376 200.076L251.448 198.489V198.547V196.623V196.7L252.367 195.152L252.27 195.253L253.862 194.325L253.732 194.377L254.694 194.252C254.592 194.272 254.488 194.272 254.386 194.252L255.348 194.382C254.545 194.171 253.776 193.805 252.977 193.57C252.102 193.315 251.217 193.089 250.332 192.892C248.598 192.522 246.897 192.012 245.245 191.367L246.106 191.728C245.105 191.293 244.14 190.78 243.22 190.194C242.74 189.901 242.307 189.588 241.869 189.266C241.643 189.102 240.98 188.453 241.778 189.208C241.581 189.021 241.345 188.862 241.133 188.689C239.498 187.314 237.944 185.844 236.479 184.289C235.714 183.491 234.969 182.673 234.252 181.827C233.94 181.461 233.632 181.086 233.329 180.706C233.242 180.601 233.161 180.49 233.074 180.379C233.425 180.86 233.488 180.918 233.262 180.62C233.098 180.399 232.93 180.177 232.781 179.951C231.483 178.17 230.382 176.253 229.496 174.234L229.862 175.095C229.06 173.218 228.51 171.244 228.227 169.223L228.357 170.185C228.14 168.525 228.14 166.844 228.357 165.184L228.232 166.146C228.387 165.043 228.653 163.959 229.025 162.909C229.66 161.13 228.309 158.885 226.505 158.476C224.592 157.997 222.64 159.106 222.072 160.996L222.043 160.981Z" fill="#ED7A7A"/>
<path d="M205.871 164.256C205.284 174.354 206.761 185.101 212.666 193.546C215.377 197.316 218.56 200.723 222.139 203.682C225.801 206.893 229.737 209.778 233.901 212.304C238.834 215.189 244.297 217.195 250.048 217.397C252.035 217.383 253.642 215.776 253.655 213.79C253.616 211.814 252.024 210.222 250.048 210.184C249.245 210.155 248.442 210.092 247.644 209.986L248.606 210.116C246.092 209.749 243.636 209.056 241.301 208.053L242.162 208.414C239.787 207.386 237.505 206.154 235.343 204.73C234.281 204.038 233.242 203.288 232.223 202.557L231.496 202.009L231.169 201.759C231.088 201.696 230.54 201.278 231.044 201.667C231.549 202.057 231.006 201.639 230.929 201.576L230.607 201.321C230.338 201.114 230.073 200.903 229.809 200.691C227.885 199.148 226.005 197.561 224.216 195.883C223.331 195.046 222.471 194.18 221.648 193.281C221.259 192.858 220.879 192.425 220.504 191.987L220.023 191.401L219.725 191.026C219.643 190.925 219.196 190.348 219.595 190.867C219.994 191.386 219.595 190.867 219.528 190.771L219.191 190.29C219.004 190.03 218.821 189.766 218.638 189.501C218.263 188.944 217.898 188.376 217.556 187.799C216.841 186.593 216.21 185.34 215.666 184.048L216.027 184.909C214.686 181.61 213.776 178.151 213.32 174.619L213.445 175.58C212.973 171.823 212.859 168.03 213.103 164.251C213.214 162.366 211.367 160.563 209.497 160.645C207.524 160.69 205.936 162.278 205.89 164.251L205.871 164.256Z" fill="#ED7A7A"/>
<path d="M171.614 214.992C172.502 215.267 173.375 215.588 174.23 215.954L173.369 215.593C174.998 216.295 176.561 217.144 178.038 218.127C178.394 218.368 178.75 218.608 179.096 218.863L179.615 219.243C180.226 219.7 179.019 218.762 179.615 219.243C180.322 219.801 181.005 220.383 181.673 220.984C184.357 223.472 186.832 226.175 189.074 229.067L190.036 230.265L189.819 229.986C189.901 230.082 189.973 230.188 190.05 230.289L190.531 230.89C191.172 231.739 191.813 232.594 192.454 233.453C193.157 234.414 193.897 235.016 195.09 235.174C196.2 235.355 197.33 234.986 198.119 234.184C205.205 226.481 212.701 219.166 220.576 212.271C222.82 210.302 225.099 208.369 227.414 206.471C228.089 205.795 228.469 204.879 228.471 203.923C228.464 202.966 228.084 202.051 227.414 201.369C226.736 200.697 225.82 200.318 224.865 200.316C223.918 200.363 223.016 200.735 222.312 201.369C214.217 208.012 206.486 215.086 199.153 222.561C197.06 224.703 195.001 226.871 192.979 229.067L198.643 229.798C193.455 222.826 188.016 215.641 180.438 211.102C178.269 209.804 175.95 208.776 173.532 208.039C171.615 207.53 169.642 208.647 169.094 210.554C168.607 212.47 169.719 214.429 171.614 214.992Z" fill="#ED7A7A"/>
<path d="M195.052 246.422C196.937 246.422 198.745 244.763 198.658 242.815C198.625 240.837 197.03 239.242 195.052 239.209C193.162 239.209 191.359 240.868 191.445 242.815C191.479 244.793 193.074 246.388 195.052 246.422Z" fill="#ED7A7A"/>
<path d="M210.482 245.585C214.297 241.443 218.133 237.325 221.99 233.232C225.74 229.255 229.448 225.215 233.333 221.364C234.295 220.402 235.31 219.488 236.367 218.628C236.574 218.464 236.848 218.392 236.122 218.82C236.262 218.733 236.392 218.613 236.531 218.517C236.805 218.32 237.079 218.127 237.363 217.945C237.959 217.557 238.577 217.204 239.214 216.887C240.907 216.036 241.518 213.521 240.508 211.948C239.471 210.271 237.3 209.701 235.574 210.655C230.818 213.059 227.212 217.276 223.596 221.061C219.685 225.158 215.796 229.279 211.93 233.424C209.743 235.771 207.562 238.124 205.385 240.483C204.106 241.873 203.909 244.229 205.385 245.585C206.775 246.859 209.122 247.066 210.482 245.585Z" fill="#ED7A7A"/>
<path d="M232.295 245.763C235.989 241.183 240.152 237.003 244.716 233.289C245.392 232.611 245.772 231.693 245.773 230.736C245.771 228.745 244.158 227.132 242.167 227.129C241.22 227.181 240.32 227.555 239.613 228.187C235.048 231.901 230.885 236.084 227.193 240.666C226.541 241.358 226.165 242.264 226.135 243.214C226.141 244.169 226.521 245.084 227.193 245.763C228.505 246.97 231.04 247.335 232.295 245.763Z" fill="#ED7A7A"/>
<path d="M155.096 221.811C155.418 221.815 155.739 221.839 156.058 221.883L155.096 221.753C155.781 221.859 156.451 222.047 157.092 222.311L156.231 221.946C157.057 222.304 157.84 222.752 158.568 223.282L158.885 223.513C158.404 223.148 158.327 223.08 158.621 223.316L159.077 223.696C159.429 223.994 159.77 224.307 160.102 224.624C161.429 225.905 162.687 227.255 163.872 228.668C164.175 229.024 164.473 229.38 164.761 229.745C164.886 229.899 165.002 230.063 165.132 230.226C164.386 229.356 165.021 230.082 165.175 230.289C165.728 231.034 166.262 231.794 166.767 232.573C167.766 234.11 168.635 235.728 169.363 237.41L169.003 236.55C169.837 238.498 170.409 240.548 170.705 242.647L170.575 241.685C170.724 242.838 170.772 244.001 170.719 245.162C170.732 247.148 172.339 248.755 174.326 248.768C176.299 248.725 177.889 247.136 177.932 245.162C178.163 239.92 176.451 234.761 173.826 230.255C172.456 227.971 170.897 225.806 169.166 223.783C167.649 221.917 165.98 220.182 164.175 218.594C161.578 216.368 158.611 214.665 155.101 214.598C153.216 214.559 151.408 216.281 151.494 218.204C151.533 220.18 153.125 221.773 155.101 221.811H155.096Z" fill="#ED7A7A"/>
<path d="M134.717 226.528C135.781 227.355 136.791 228.248 137.742 229.202C138.223 229.683 138.651 230.164 139.084 230.644C139.31 230.904 139.531 231.169 139.752 231.433C139.848 231.558 139.944 231.678 140.045 231.799C140.497 232.352 139.516 231.092 139.94 231.664C141.558 233.819 142.914 236.16 143.979 238.636L143.613 237.776C144.68 240.319 145.414 242.989 145.797 245.72L145.667 244.758C145.724 245.196 145.772 245.628 145.816 246.066C145.842 247.016 146.217 247.923 146.869 248.615C147.551 249.285 148.466 249.664 149.422 249.672C151.221 249.591 153.216 248.076 153.029 246.066C152.321 238.396 149.184 231.153 144.075 225.389C142.789 223.935 141.369 222.605 139.834 221.417C139.138 220.768 138.231 220.392 137.28 220.359C136.326 220.367 135.412 220.747 134.732 221.417C134.058 222.094 133.678 223.01 133.674 223.965C133.717 224.85 133.996 225.942 134.732 226.514L134.717 226.528Z" fill="#ED7A7A"/>
<path d="M126.326 238.108C126.15 238.755 126.15 239.437 126.326 240.084C126.497 240.705 126.829 241.271 127.288 241.724L128.014 242.286L128.879 242.652H128.908C129.578 242.83 130.282 242.83 130.952 242.652H130.986C131.288 242.545 131.583 242.419 131.87 242.277H131.899C132.167 242.107 132.418 241.912 132.649 241.695C133.604 240.75 133.972 239.363 133.611 238.069C133.326 237.181 132.741 236.42 131.957 235.915C131.104 235.465 130.117 235.337 129.178 235.554L128.317 235.915C127.782 236.228 127.337 236.674 127.023 237.208L126.658 238.069C126.484 238.698 126.484 239.363 126.658 239.993L126.528 239.031V239.06L126.658 238.098C126.658 238.098 126.658 238.098 126.658 238.127L127.023 237.266V237.29L127.586 236.564H127.557L128.288 236.001H128.249L129.11 235.636H129.038L130 235.506H129.918L130.88 235.636H130.817L131.678 235.997H131.64L132.37 236.559H132.346L132.909 237.29L133.275 238.151C133.275 238.151 133.275 238.151 133.275 238.117L133.404 239.079V239.04L133.275 240.002C133.423 239.535 133.445 239.037 133.337 238.56C133.316 238.082 133.168 237.619 132.909 237.218C132.402 236.434 131.642 235.848 130.755 235.559L129.793 235.434C129.155 235.428 128.527 235.594 127.975 235.915L127.254 236.506C126.813 236.948 126.493 237.496 126.326 238.098V238.108Z" fill="#ED7A7A"/>
<path d="M197.908 197.729C196.917 201.851 195.681 205.911 194.206 209.885C193.948 210.821 194.078 211.821 194.566 212.66C195.047 213.467 195.817 214.061 196.721 214.319C198.769 214.8 200.452 213.699 201.159 211.799C202.637 207.827 203.875 203.769 204.866 199.648C205.304 197.816 204.289 195.652 202.347 195.209C200.491 194.786 198.38 195.767 197.908 197.729Z" fill="#282A3A"/>
<path d="M192.388 207.654L207.112 207.207C208.997 207.149 210.805 205.586 210.719 203.6C210.632 201.677 209.132 199.931 207.112 199.994L192.388 200.441C190.503 200.499 188.695 202.062 188.781 204.048C188.868 205.971 190.368 207.717 192.388 207.654Z" fill="#282A3A"/>
<path d="M203.982 192.839C205.867 192.839 207.675 191.184 207.588 189.232C207.552 187.255 205.958 185.662 203.982 185.626C202.092 185.626 200.289 187.285 200.375 189.232C200.406 191.211 202.003 192.808 203.982 192.839Z" fill="#282A3A"/>
<path d="M68.2999 30.5024C71.4911 32.0594 74.5754 33.8264 77.5325 35.792C78.2204 36.1924 79.1027 35.96 79.5041 35.2726C79.8863 34.5835 79.6598 33.7156 78.9896 33.3011C76.0318 31.3365 72.9476 29.5695 69.7569 28.0115C69.3101 27.7102 68.7325 27.6832 68.2594 27.9413C67.7864 28.1994 67.4966 28.6997 67.5081 29.2385C67.5197 29.7773 67.8306 30.2648 68.3143 30.5024H68.2999Z" fill="#C4C4C4"/>
<path d="M80.9371 13.196L86.4527 22.6691C86.6903 23.1528 87.1778 23.4637 87.7166 23.4752C88.2554 23.4868 88.7557 23.197 89.0138 22.7239C89.2719 22.2508 89.2449 21.6733 88.9436 21.2265L83.428 11.7534C83.004 11.1245 82.1653 10.9314 81.5089 11.3115C80.8525 11.6916 80.6026 12.5152 80.9371 13.196Z" fill="#C4C4C4"/>
<path d="M99.5273 5.87236C99.0605 9.02827 99.5181 12.2518 100.845 15.1531C101.038 15.4845 101.354 15.7256 101.725 15.823C102.096 15.9205 102.49 15.8663 102.821 15.6725C103.49 15.2546 103.716 14.387 103.336 13.6961L103.22 13.4364C103.268 13.5566 103.264 13.5374 103.196 13.3787C103.129 13.22 103.091 13.1094 103.042 12.9748C102.927 12.6574 102.821 12.34 102.73 12.013C102.554 11.3807 102.416 10.7384 102.316 10.0896C102.316 9.98378 102.316 9.9934 102.316 10.1136C102.316 10.0223 102.292 9.92608 102.283 9.82991C102.273 9.73373 102.259 9.54139 102.244 9.39713C102.244 9.06052 102.211 8.72391 102.206 8.3873C102.201 8.0507 102.206 7.71409 102.239 7.37748C102.239 7.23322 102.239 7.09377 102.273 6.94951C102.273 6.89661 102.345 6.34361 102.307 6.6129C102.413 5.87236 102.124 5.03085 101.302 4.8385C100.619 4.68462 99.6379 5.05008 99.5273 5.84832V5.87236Z" fill="#C4C4C4"/>
<path d="M230.751 145.752L233.256 139.501C233.358 139.132 233.309 138.737 233.119 138.404C232.93 138.071 232.616 137.828 232.247 137.726C231.482 137.539 230.704 137.979 230.472 138.731L227.967 144.983C227.865 145.352 227.914 145.746 228.104 146.079C228.293 146.412 228.607 146.656 228.977 146.757C229.742 146.944 230.521 146.501 230.751 145.747V145.752Z" fill="#C4C4C4"/>
<path d="M249.337 148.56L253.785 141.708C254.186 141.021 253.956 140.139 253.27 139.736C252.58 139.351 251.709 139.578 251.294 140.251L246.846 147.103C246.444 147.79 246.675 148.672 247.36 149.075C248.051 149.458 248.92 149.231 249.337 148.56Z" fill="#C4C4C4"/>
<path d="M265.08 153.08C266.937 153.08 266.937 150.195 265.08 150.195C263.224 150.195 263.219 153.08 265.08 153.08Z" fill="#C4C4C4"/>
<path d="M230.8 152.263V151.638C230.81 151.445 230.768 151.252 230.68 151.08C230.549 150.725 230.27 150.446 229.915 150.315C229.743 150.227 229.551 150.186 229.357 150.195L228.978 150.243C228.736 150.309 228.515 150.437 228.338 150.614L228.131 150.912C228.004 151.134 227.936 151.386 227.934 151.643V152.268C227.929 152.46 227.971 152.65 228.059 152.821C228.113 153.005 228.216 153.171 228.357 153.302C228.49 153.44 228.655 153.543 228.838 153.6C229.008 153.689 229.199 153.732 229.391 153.725L229.776 153.672C230.018 153.606 230.238 153.479 230.415 153.302L230.641 153.008C230.768 152.788 230.835 152.537 230.834 152.282L230.8 152.263Z" fill="#C4C4C4"/>
<path d="M273.852 145.56C275.708 145.56 275.713 142.674 273.852 142.674C271.991 142.674 271.991 145.56 273.852 145.56Z" fill="#C4C4C4"/>
<path d="M84.5779 110.452C82.1206 115.409 79.6682 120.487 79.1056 126.065C78.5992 130.59 79.8622 135.136 82.6303 138.751C84.1307 140.652 86.1602 142.068 88.4633 142.819L87.4535 141.044C86.551 144.999 87.1346 149.148 89.0932 152.701C90.9366 155.979 93.7295 158.623 97.1045 160.284C98.9227 161.25 100.909 161.859 102.957 162.077C104.848 162.195 106.727 161.699 108.313 160.664C111.68 158.505 113.42 154.826 114.281 151.046C114.8 148.777 115.094 146.459 115.45 144.16L116.623 136.567C116.811 135.803 116.37 135.025 115.618 134.793C114.93 134.606 113.959 135.024 113.839 135.803C113.218 139.823 112.646 143.857 111.968 147.873C111.41 151.167 110.617 154.672 108.174 157.096C107.187 158.125 105.914 158.835 104.519 159.135C102.961 159.447 101.12 158.889 99.5954 158.269C96.7036 157.105 94.208 155.134 92.4064 152.59C90.2076 149.46 89.421 145.551 90.2377 141.814C90.4329 141.047 89.9868 140.263 89.2279 140.039C88.3925 139.769 87.6029 139.373 86.886 138.866C86.1733 138.355 85.5271 137.758 84.9626 137.087C83.8434 135.708 83.0127 134.119 82.5197 132.413C81.2599 128.2 82.0725 123.714 83.6065 119.535C84.617 116.933 85.7663 114.387 87.0495 111.909C87.4317 111.219 87.2052 110.351 86.535 109.937C86.2048 109.743 85.8109 109.688 85.4401 109.784C85.0693 109.881 84.7522 110.121 84.5586 110.452H84.5779Z" fill="#282A3A"/>
<path d="M191.494 81.258C192.455 83.4941 193.441 85.6916 194.547 87.8459C195.533 89.7694 196.552 91.741 198.149 93.2316C199.505 94.4963 201.553 92.4575 200.188 91.188C198.822 89.9185 197.908 88.0912 197.038 86.3793C196.048 84.4558 195.115 82.4842 194.278 80.4838C194.042 79.7346 193.268 79.2942 192.504 79.474C191.826 79.6616 191.191 80.5271 191.494 81.2484V81.258Z" fill="#282A3A"/>
<path d="M126.523 155.326C125.996 155.861 125.643 156.543 125.513 157.283C125.469 157.52 125.443 157.759 125.437 158C125.439 158.248 125.463 158.496 125.509 158.74C125.573 159.112 125.696 159.471 125.874 159.803C126.134 160.244 126.608 160.515 127.12 160.515C128.614 160.508 129.876 159.401 130.076 157.919C130.275 156.438 129.353 155.036 127.913 154.634C127.538 154.536 127.14 154.587 126.802 154.778C126.299 155.069 126.019 155.635 126.094 156.212C126.169 156.789 126.583 157.264 127.144 157.418L127.307 157.471L126.961 157.327C127.078 157.378 127.189 157.443 127.293 157.519L126.999 157.293C127.11 157.38 127.21 157.48 127.297 157.591L127.076 157.298C127.16 157.413 127.231 157.537 127.288 157.668L127.144 157.322C127.197 157.453 127.236 157.59 127.259 157.73L127.206 157.346C127.221 157.472 127.221 157.599 127.206 157.726L127.259 157.346C127.239 157.471 127.206 157.594 127.158 157.711L127.302 157.37C127.25 157.486 127.186 157.595 127.11 157.697L127.336 157.403C127.249 157.518 127.149 157.621 127.038 157.711L127.331 157.485C127.218 157.571 127.095 157.644 126.966 157.702L127.312 157.557C127.182 157.615 127.044 157.654 126.903 157.673L127.288 157.62H127.12L128.365 158.336L128.307 158.216L128.452 158.558C128.375 158.365 128.32 158.165 128.288 157.961L128.341 158.346C128.312 158.124 128.312 157.899 128.341 157.678L128.288 158.062C128.321 157.843 128.38 157.628 128.466 157.423L128.322 157.764C128.399 157.593 128.496 157.432 128.61 157.283L128.384 157.572C128.439 157.504 128.496 157.437 128.557 157.37C129.12 156.807 129.12 155.894 128.557 155.331C128.285 155.063 127.92 154.911 127.538 154.908C127.156 154.913 126.792 155.065 126.518 155.331L126.523 155.326Z" fill="#C4C4C4"/>
<path d="M128.38 168.704C128.114 168.871 127.858 169.054 127.615 169.252C127.385 169.446 127.187 169.674 127.028 169.93C126.825 170.27 126.708 170.655 126.687 171.05C126.677 171.13 126.677 171.211 126.687 171.291C126.697 171.49 126.731 171.687 126.788 171.878C126.846 172.047 126.925 172.209 127.024 172.358C127.191 172.616 127.412 172.835 127.673 172.998C127.832 173.101 128.008 173.176 128.192 173.219C128.508 173.295 128.838 173.295 129.154 173.219C129.541 173.129 129.897 172.934 130.183 172.657C130.32 172.523 130.443 172.374 130.548 172.214C130.658 172.042 130.745 171.856 130.808 171.661C130.877 171.44 130.916 171.21 130.923 170.978C130.93 170.735 130.907 170.491 130.856 170.252C130.811 170.001 130.743 169.755 130.654 169.517C130.609 169.337 130.52 169.172 130.394 169.036C130.174 168.717 129.82 168.516 129.433 168.492C129.245 168.442 129.048 168.442 128.86 168.492C128.498 168.595 128.188 168.833 127.995 169.156C127.799 169.492 127.747 169.892 127.851 170.267C127.968 170.537 128.056 170.819 128.11 171.108L128.057 170.724C128.072 170.848 128.072 170.974 128.057 171.099L128.105 170.714C128.095 170.803 128.073 170.891 128.038 170.974L128.187 170.627C128.155 170.699 128.114 170.767 128.067 170.829L128.293 170.536C128.243 170.598 128.187 170.654 128.125 170.704L128.418 170.478C128.364 170.52 128.306 170.555 128.245 170.584L128.586 170.44C128.526 170.465 128.463 170.482 128.399 170.493L128.783 170.44H128.634L129.019 170.488C128.969 170.482 128.921 170.469 128.875 170.449L129.221 170.594C129.179 170.575 129.141 170.551 129.106 170.522L129.399 170.748C129.363 170.719 129.331 170.687 129.303 170.651L129.529 170.945C129.491 170.896 129.46 170.843 129.437 170.786L129.587 171.132C129.559 171.068 129.542 171 129.534 170.93L129.587 171.315C129.577 171.235 129.577 171.154 129.587 171.075L129.534 171.459C129.544 171.38 129.563 171.303 129.591 171.228L129.447 171.575C129.487 171.481 129.54 171.393 129.606 171.315L129.38 171.604C129.472 171.488 129.579 171.385 129.697 171.296L129.404 171.522C129.548 171.411 129.697 171.315 129.851 171.219C130.176 171.02 130.413 170.705 130.515 170.339C130.565 170.15 130.565 169.951 130.515 169.762C130.505 169.572 130.447 169.389 130.346 169.228C130.154 168.897 129.837 168.656 129.466 168.558C129.095 168.461 128.701 168.515 128.37 168.709L128.38 168.704Z" fill="#C4C4C4"/>
<path d="M17.6503 231.832L21.4107 229.327C21.7289 229.13 21.9647 228.824 22.0743 228.466C22.1736 228.091 22.12 227.691 21.9252 227.355C21.5238 226.668 20.6415 226.436 19.9536 226.836L16.1932 229.341C15.8738 229.537 15.6376 229.843 15.5296 230.202C15.4261 230.577 15.4782 230.977 15.6739 231.313C15.8645 231.639 16.1752 231.877 16.5395 231.976C16.914 232.08 17.3145 232.028 17.6503 231.832Z" fill="#C4C4C4"/>
<path d="M22.637 239.305L25.152 238.064C25.4769 237.875 25.7151 237.566 25.8156 237.204C25.9158 236.829 25.864 236.429 25.6713 236.093C25.4819 235.768 25.173 235.53 24.8106 235.429L24.4259 235.376C24.169 235.376 23.9167 235.444 23.695 235.573L21.1848 236.809C20.8589 237 20.6206 237.311 20.5212 237.675C20.3091 238.442 20.759 239.236 21.5262 239.449L21.9109 239.502C22.166 239.501 22.4163 239.433 22.637 239.305Z" fill="#C4C4C4"/>
<path d="M212.791 92.7267L217.494 91.765C218.261 91.5522 218.711 90.7581 218.499 89.9906C218.271 89.235 217.491 88.7908 216.725 88.9808L212.026 89.9425C211.657 90.0437 211.343 90.2875 211.154 90.6204C210.964 90.9532 210.915 91.3477 211.017 91.7169C211.245 92.4725 212.025 92.9167 212.791 92.7267Z" fill="#C4C4C4"/>
<path d="M210.911 101.81C210.876 102.387 211.029 102.959 211.349 103.44C211.661 103.914 212.09 104.3 212.594 104.561C213.115 104.823 213.685 104.972 214.268 104.998C214.846 105.02 215.42 104.895 215.936 104.633C216.202 104.501 216.443 104.324 216.648 104.109C216.935 103.796 217.156 103.428 217.297 103.027C217.401 102.652 217.349 102.252 217.153 101.916C216.752 101.229 215.869 100.996 215.181 101.397L214.888 101.623C214.712 101.799 214.584 102.018 214.518 102.258V102.291L214.662 101.945C214.616 102.059 214.555 102.166 214.479 102.262L214.705 101.969C214.633 102.06 214.551 102.142 214.46 102.214L214.749 101.988C214.647 102.063 214.537 102.126 214.422 102.176L214.768 102.032C214.612 102.089 214.451 102.129 214.287 102.152L214.667 102.099C214.467 102.123 214.265 102.123 214.066 102.099L214.45 102.147C214.237 102.117 214.029 102.06 213.83 101.979L214.176 102.123C214.004 102.052 213.842 101.958 213.695 101.844L213.989 102.07C213.87 101.98 213.764 101.875 213.671 101.757L213.897 102.046C213.821 101.946 213.757 101.838 213.705 101.724L213.849 102.065C213.806 101.957 213.777 101.844 213.763 101.729L213.811 102.113C213.804 102.012 213.804 101.911 213.811 101.81C213.811 101.428 213.658 101.061 213.388 100.791C212.824 100.228 211.912 100.228 211.349 100.791C211.093 101.071 210.943 101.431 210.926 101.81H210.911Z" fill="#C4C4C4"/>
</svg>
